<svg xmlns="http://www.w3.org/2000/svg" id="Layer_2" data-name="Layer 2" viewBox="0 0 1043.5 151.3"><defs><style>.cls-1{fill:#c2c2c2}</style></defs><g id="Design"><path d="M612.45 50.35c.03-.33-.29-.67-.97-1.01-.17-.09-.36-.16-.58-.23-.22-.07-.46-.14-.72-.21-.13-.04-.27-.06-.41-.08-.14-.02-.29-.05-.44-.07-.15-.02-.31-.04-.48-.06-.17-.02-.33-.02-.51-.03-1.41-.08-3.17.06-5.15.64-.49.15-1.01.31-1.52.52-.26.1-.53.2-.79.32-.26.13-.53.25-.8.38-.13.07-.27.13-.41.2-.13.08-.27.15-.4.23-.27.16-.55.31-.82.48-.53.36-1.09.72-1.62 1.16-.55.41-1.06.9-1.59 1.4-.25.26-.51.53-.76.81l-.19.21c-.06.07-.12.15-.18.22l-.36.45a19.61 19.61 0 0 0-2.52 4.15 21.72 21.72 0 0 0-1.77 10.64c.17 1.95.6 3.96 1.37 5.95l.14.37c.05.12.1.25.15.37.11.24.23.49.34.74.22.5.49.96.75 1.44.55.93 1.16 1.84 1.83 2.7.68.86 1.41 1.67 2.19 2.44s1.62 1.48 2.49 2.15c.87.67 1.79 1.28 2.74 1.85.47.29.96.55 1.45.82.25.13.5.25.74.38.25.12.5.23.75.35 2 .93 4.15 1.68 6.37 2.21 2.22.53 4.52.83 6.83.93 2.31.09 4.63-.03 6.93-.33 2.29-.3 4.56-.78 6.78-1.41 4.44-1.26 8.68-3.08 12.7-5.29 4.02-2.22 7.81-4.82 11.36-7.73l.67-.55c.22-.18.43-.36.64-.54.43-.36.85-.73 1.26-1.09.42-.37.84-.73 1.24-1.1.41-.37.82-.74 1.22-1.11 1.62-1.49 3.19-3 4.72-4.5 3.07-3.01 6-6 8.89-8.85 2.89-2.84 5.75-5.54 8.65-7.96 2.89-2.42 5.82-4.57 8.81-6.36l.59-.35.3-.17.3-.16c.4-.22.79-.44 1.19-.66.4-.21.81-.41 1.21-.62.41-.2.82-.39 1.23-.58 1.64-.76 3.32-1.43 5.02-2.02 1.7-.58 3.42-1.06 5.16-1.47.86-.21 1.74-.37 2.6-.54l1.31-.21c.22-.04.44-.06.65-.09l.65-.09c.22-.03.43-.06.65-.08l.65-.06c.44-.04.87-.09 1.3-.12l1.3-.09c.43-.02.87-.03 1.3-.05 1.71-.05 3.4 0 5.06.16 3.31.3 6.47 1.02 9.3 2.15.71.29 1.39.6 2.06.93.66.34 1.3.71 1.91 1.1.62.39 1.2.81 1.76 1.25.28.22.55.45.82.68l.39.36.1.09.09.09.18.18c1.9 1.88 3.34 4.31 4.16 6.84.82 2.53 1.06 5.17.64 7.55-.11.59-.24 1.18-.42 1.73-.08.28-.19.55-.29.83-.05.14-.12.27-.17.4-.06.13-.11.27-.18.39-.07.13-.13.26-.2.38-.06.13-.14.25-.21.37-.14.25-.3.48-.46.72-.07.12-.17.23-.25.35l-.26.35c-.09.11-.19.22-.28.33-.1.11-.18.22-.28.33-1.56 1.71-3.56 3.03-5.62 4.07-1.03.52-2.08.97-3.13 1.38-1.05.4-2.08.77-3.07 1.06-1.99.59-3.86.93-5.58.91-.86 0-1.67-.1-2.43-.27-.1-.02-.19-.05-.28-.07-.09-.02-.19-.04-.28-.07-.18-.05-.35-.11-.52-.17-.34-.13-.67-.28-.98-.44a8.603 8.603 0 0 1-2.88-2.44 6.805 6.805 0 0 1-1.23-2.55c-.09-.38-.13-.72-.16-1.02-.01-.3-.01-.55 0-.76 0-.1.02-.19.02-.27.01-.08.02-.14.03-.19.02-.1.02-.16.02-.16s-.02.05-.05.15c-.02.05-.04.11-.06.19-.02.08-.04.16-.07.27-.05.2-.09.46-.13.77-.03.31-.04.68 0 1.09.06.83.32 1.86.91 2.96.58 1.09 1.5 2.25 2.84 3.23.33.24.69.47 1.08.69l.3.15c.1.05.2.1.31.15.21.09.42.17.63.26.86.33 1.8.58 2.8.73 2 .3 4.19.21 6.45-.14 1.13-.18 2.28-.42 3.45-.7 1.18-.29 2.39-.63 3.63-1.06 1.24-.44 2.51-.97 3.78-1.64 1.27-.67 2.53-1.5 3.73-2.52.15-.13.29-.26.44-.4.15-.14.3-.27.44-.41.14-.14.28-.29.42-.43l.21-.22c.07-.07.14-.15.2-.23l.41-.47c.13-.16.26-.33.39-.49.26-.33.49-.68.73-1.03.45-.72.88-1.46 1.23-2.25.19-.39.34-.8.5-1.2.08-.2.14-.41.22-.62l.11-.31c.03-.1.06-.21.09-.32.06-.21.12-.42.18-.64.05-.21.1-.43.15-.65.05-.22.09-.43.13-.65l.12-.66c.13-.88.21-1.78.24-2.68.04-1.81-.11-3.65-.5-5.47l-.07-.34-.08-.34c-.06-.23-.11-.46-.17-.68-.13-.45-.26-.91-.41-1.36-.14-.45-.32-.9-.49-1.35-.19-.44-.37-.89-.58-1.33-.2-.44-.43-.88-.66-1.31-.24-.43-.48-.87-.75-1.29-.26-.43-.55-.84-.84-1.26-.3-.41-.6-.82-.94-1.21-.16-.2-.33-.4-.49-.58-.17-.19-.33-.38-.5-.56-.17-.18-.35-.36-.52-.55-.17-.18-.36-.36-.54-.53-.73-.7-1.49-1.38-2.29-2.01-.8-.63-1.64-1.22-2.5-1.78-.86-.55-1.76-1.06-2.67-1.53-.91-.48-1.85-.91-2.81-1.3-.95-.39-1.93-.75-2.91-1.07-1.97-.64-3.99-1.14-6.05-1.51-2.06-.37-4.15-.61-6.26-.72-.52-.02-1.05-.05-1.57-.07-.53 0-1.05-.01-1.58-.02s-1.06.01-1.59.02c-.27 0-.53.01-.8.02s-.53.03-.8.04c-.27.01-.53.03-.8.04l-.4.02c-.13 0-.27.02-.4.03-.53.05-1.07.09-1.61.14-.54.06-1.07.13-1.61.19l-.4.05-.4.06-.81.12c-2.15.34-4.3.79-6.44 1.37-2.13.58-4.26 1.28-6.35 2.1-.52.21-1.05.41-1.57.64-.52.23-1.04.46-1.55.68-.51.24-1.02.49-1.54.74l-.38.19-.38.2-.76.39a69.826 69.826 0 0 0-6.13 3.66 88.452 88.452 0 0 0-5.69 4.17c-3.65 2.91-7.03 6.01-10.27 9.1-3.23 3.09-6.32 6.18-9.39 9.11-1.53 1.46-3.06 2.89-4.59 4.25-.38.34-.76.68-1.15 1.01-.38.33-.77.67-1.14.98-.38.31-.75.63-1.13.93-.38.31-.76.62-1.15.91-3.08 2.39-6.3 4.49-9.59 6.22-3.28 1.73-6.63 3.07-9.92 3.92-3.29.85-6.52 1.21-9.54 1.01-1.51-.1-2.97-.34-4.38-.7l-.26-.06-.13-.03-.13-.04c-.17-.05-.35-.11-.52-.16-.17-.05-.35-.1-.52-.16-.17-.06-.34-.12-.5-.19-.69-.23-1.32-.5-1.94-.8-.62-.29-1.21-.62-1.77-.96-.14-.09-.28-.17-.42-.26-.14-.09-.27-.18-.41-.27-.26-.19-.53-.37-.77-.57-.25-.19-.48-.39-.72-.59-.22-.21-.46-.41-.66-.62-.11-.1-.22-.21-.31-.32-.1-.11-.2-.21-.3-.32-.19-.22-.38-.44-.55-.66-.18-.22-.33-.45-.5-.68-.14-.23-.29-.46-.43-.69-.12-.24-.26-.48-.38-.72-.06-.12-.11-.25-.17-.37l-.08-.19c-.03-.06-.06-.12-.08-.19-.41-1.01-.68-2.08-.82-3.15-.14-1.07-.14-2.14-.04-3.16s.32-2 .62-2.91c.08-.22.16-.45.24-.67.1-.21.19-.43.28-.64.02-.05.04-.11.07-.16l.08-.15c.05-.1.11-.2.16-.3.05-.1.1-.2.15-.31.06-.1.12-.19.18-.29.06-.1.12-.19.17-.29.06-.1.11-.2.18-.28.13-.18.26-.37.38-.55.06-.09.13-.18.2-.26.07-.09.14-.17.21-.26.07-.09.14-.17.2-.26.07-.09.14-.16.22-.24.14-.16.29-.32.43-.48.15-.15.3-.3.45-.44l.22-.22.23-.2c.15-.14.31-.27.46-.4.15-.13.31-.24.46-.37.08-.06.15-.12.23-.18.08-.06.15-.12.23-.17.16-.11.31-.22.46-.32.08-.05.15-.11.23-.16.08-.05.15-.1.23-.14 1.21-.78 2.36-1.34 3.34-1.77.24-.11.48-.2.7-.3.11-.05.22-.1.32-.15.11-.05.21-.08.31-.13.2-.08.38-.16.56-.25.09-.04.17-.08.25-.12.08-.04.15-.07.23-.11.57-.29.91-.6.93-.94z" class="cls-1"/><path d="M544.04 30.74c.03-.33-.29-.67-.97-1.01-.17-.09-.36-.16-.58-.23-.22-.07-.46-.14-.72-.21-.13-.04-.27-.06-.41-.08-.14-.02-.29-.05-.44-.07-.15-.02-.31-.04-.48-.06-.17-.02-.33-.02-.51-.03-1.41-.08-3.17.06-5.15.64-.49.15-1.01.31-1.52.52-.26.1-.53.2-.79.32-.26.13-.53.25-.8.38-.13.07-.27.13-.41.2-.13.08-.27.15-.4.23-.27.16-.55.31-.82.48-.53.36-1.09.72-1.62 1.16-.55.41-1.06.9-1.59 1.4-.25.26-.51.53-.76.81l-.19.21c-.06.07-.12.15-.18.22l-.36.45a19.61 19.61 0 0 0-2.52 4.15 21.72 21.72 0 0 0-1.77 10.64c.17 1.95.6 3.96 1.37 5.95l.14.37c.05.12.1.25.16.37.11.24.23.49.34.74.22.5.49.96.75 1.44.55.93 1.16 1.84 1.83 2.7.68.86 1.41 1.67 2.19 2.44s1.62 1.48 2.49 2.15c.87.67 1.79 1.28 2.74 1.85.47.29.96.55 1.45.82.25.13.5.25.74.38.25.12.5.23.75.35 2.01.93 4.15 1.68 6.37 2.21 2.22.53 4.52.83 6.83.93 2.31.09 4.63-.03 6.93-.33 2.29-.3 4.56-.78 6.78-1.41 4.44-1.26 8.68-3.08 12.7-5.29 4.02-2.22 7.81-4.82 11.36-7.73l.67-.55c.22-.18.43-.36.64-.54.43-.36.85-.73 1.26-1.09.42-.37.84-.73 1.24-1.1.41-.37.82-.74 1.22-1.11 1.62-1.49 3.19-3 4.72-4.5 3.07-3.01 6-6 8.89-8.85 2.89-2.84 5.75-5.54 8.65-7.96 2.89-2.42 5.82-4.57 8.81-6.36l.59-.35.3-.17.3-.16c.4-.22.79-.44 1.19-.66.4-.21.81-.41 1.21-.62.41-.2.82-.39 1.23-.58 1.64-.76 3.32-1.43 5.02-2.02 1.7-.58 3.42-1.06 5.16-1.47.86-.21 1.74-.37 2.6-.54l1.31-.21c.22-.04.44-.06.65-.09l.65-.09c.22-.03.43-.06.65-.08l.65-.06c.44-.04.87-.09 1.3-.12l1.3-.09c.43-.02.87-.03 1.3-.05 1.71-.05 3.4 0 5.06.16 3.31.3 6.47 1.02 9.3 2.15.71.29 1.39.6 2.06.93.66.34 1.3.71 1.91 1.1.62.39 1.2.81 1.76 1.25.28.22.55.45.82.68l.39.36.1.09.09.09.18.18c1.9 1.88 3.34 4.31 4.16 6.84.82 2.53 1.06 5.17.64 7.55-.11.59-.24 1.18-.42 1.73-.08.28-.19.55-.29.83-.05.14-.12.27-.17.4-.06.13-.11.27-.18.39-.07.13-.13.26-.2.38-.06.13-.14.25-.21.37-.14.25-.3.48-.46.72-.07.12-.17.23-.25.35l-.26.35c-.09.11-.19.22-.28.33-.1.11-.18.22-.28.33-1.56 1.71-3.56 3.03-5.62 4.07-1.03.52-2.08.97-3.13 1.38-1.05.4-2.08.77-3.07 1.06-1.99.59-3.86.93-5.58.91-.86 0-1.67-.1-2.43-.27-.1-.02-.19-.05-.28-.07-.09-.02-.19-.04-.28-.07-.18-.05-.35-.11-.52-.17-.34-.13-.67-.28-.98-.44a8.603 8.603 0 0 1-2.88-2.44 6.805 6.805 0 0 1-1.23-2.55c-.09-.38-.13-.72-.16-1.02-.01-.3-.01-.55 0-.76 0-.1.02-.19.02-.27.01-.08.02-.14.03-.19.02-.1.02-.16.02-.16s-.02.05-.05.15c-.02.05-.04.11-.06.19-.02.08-.04.16-.07.27-.05.2-.09.46-.13.77-.03.31-.04.68 0 1.09.06.83.32 1.86.91 2.96.58 1.09 1.5 2.25 2.84 3.23.33.24.69.47 1.08.69l.3.15c.1.05.2.1.31.15.21.09.42.17.63.26.86.33 1.8.58 2.8.73 2 .3 4.19.21 6.45-.14 1.13-.18 2.28-.42 3.45-.7 1.18-.29 2.39-.63 3.63-1.06 1.24-.44 2.51-.97 3.78-1.64 1.27-.67 2.53-1.5 3.73-2.52.15-.13.29-.26.44-.4.15-.14.3-.27.44-.41.14-.14.28-.29.42-.43l.21-.22c.07-.07.14-.15.2-.23l.41-.47c.13-.16.26-.33.39-.49.26-.33.49-.68.73-1.03.45-.72.88-1.46 1.23-2.25.19-.39.34-.8.5-1.2.08-.2.14-.41.22-.62l.11-.31c.03-.1.06-.21.09-.32.06-.21.12-.42.18-.64.05-.21.1-.43.15-.65.05-.22.09-.43.13-.65l.12-.66c.13-.88.21-1.78.24-2.68.04-1.81-.11-3.65-.5-5.47l-.07-.34-.08-.34c-.06-.23-.11-.46-.17-.68-.13-.45-.26-.91-.41-1.36-.14-.45-.32-.9-.49-1.35-.19-.44-.37-.89-.58-1.33-.2-.44-.43-.88-.66-1.31-.24-.43-.48-.87-.75-1.29-.26-.43-.55-.84-.84-1.26-.3-.41-.6-.82-.94-1.21-.16-.2-.33-.4-.49-.58-.17-.19-.33-.38-.5-.56-.17-.18-.35-.36-.52-.55-.17-.18-.36-.36-.54-.53-.73-.7-1.49-1.38-2.29-2.01-.8-.63-1.64-1.22-2.5-1.78-.87-.55-1.76-1.06-2.67-1.53-.91-.48-1.85-.91-2.81-1.3-.95-.39-1.93-.75-2.91-1.07-1.97-.64-3.99-1.14-6.05-1.51-2.06-.37-4.15-.61-6.26-.72-.52-.02-1.05-.05-1.57-.07-.53 0-1.05-.01-1.58-.02s-1.06.01-1.59.02c-.27 0-.53.01-.8.02s-.53.03-.8.04c-.27.01-.53.03-.8.04l-.4.02c-.13 0-.27.02-.4.03-.53.05-1.07.09-1.61.14-.54.06-1.07.13-1.61.19l-.4.05-.4.06-.81.12c-2.15.34-4.3.79-6.44 1.37-2.13.58-4.26 1.28-6.35 2.1-.52.21-1.05.41-1.57.64-.52.23-1.04.46-1.55.68-.51.24-1.02.49-1.54.74l-.38.19-.38.2-.76.39a69.826 69.826 0 0 0-6.13 3.66 88.452 88.452 0 0 0-5.69 4.17c-3.65 2.91-7.03 6.01-10.27 9.1-3.23 3.09-6.32 6.18-9.39 9.11-1.53 1.46-3.06 2.89-4.59 4.25-.38.34-.76.68-1.15 1.01-.38.33-.77.67-1.14.98-.38.31-.75.63-1.13.93-.38.31-.76.62-1.15.91-3.08 2.39-6.3 4.49-9.59 6.22-3.28 1.73-6.63 3.07-9.92 3.92-3.29.85-6.52 1.21-9.54 1.01-1.51-.1-2.97-.34-4.38-.7l-.26-.06-.13-.03-.13-.04c-.17-.05-.34-.11-.52-.16-.17-.05-.35-.1-.52-.16-.17-.06-.34-.12-.5-.19-.69-.23-1.32-.5-1.94-.8-.62-.29-1.21-.62-1.77-.96-.14-.09-.28-.17-.42-.26-.14-.09-.27-.18-.41-.27-.26-.19-.53-.37-.77-.57-.25-.19-.48-.39-.72-.59-.22-.21-.46-.41-.66-.62-.11-.1-.22-.21-.31-.32-.1-.11-.2-.21-.3-.32-.19-.22-.38-.44-.55-.66-.18-.22-.33-.45-.5-.68-.14-.23-.29-.46-.43-.69-.12-.24-.26-.48-.38-.72-.06-.12-.11-.25-.17-.37l-.08-.19c-.03-.06-.06-.12-.08-.19-.41-1.01-.68-2.08-.82-3.15-.14-1.07-.14-2.14-.04-3.16s.32-2 .62-2.91c.08-.22.16-.45.24-.67.1-.21.19-.43.28-.64.02-.05.04-.11.07-.16l.08-.15c.05-.1.11-.2.16-.3.05-.1.1-.2.15-.31.06-.1.12-.19.18-.29.06-.1.12-.19.17-.29.06-.1.11-.2.18-.28.13-.18.26-.37.38-.55.06-.09.13-.18.2-.26.07-.09.14-.17.21-.26.07-.09.14-.17.2-.26.07-.09.14-.16.22-.24.14-.16.29-.32.43-.48.15-.15.3-.3.45-.44l.22-.22.23-.2c.15-.14.31-.27.46-.4.15-.13.31-.24.46-.37.08-.06.15-.12.23-.18.08-.06.15-.12.23-.17.16-.11.31-.22.46-.32.08-.05.15-.11.23-.16.08-.05.15-.1.23-.14 1.21-.78 2.36-1.34 3.34-1.77.24-.11.48-.2.7-.3.11-.05.22-.1.32-.15.11-.05.21-.08.31-.13.2-.08.38-.16.56-.25.09-.04.17-.08.25-.12.08-.04.15-.07.23-.11.57-.29.91-.6.93-.94z" class="cls-1"/><path d="M567.6 71.22c-.27-.2-.66-.2-1.2.01-.52.23-1.18.67-1.87 1.4-.69.73-1.44 1.73-2.09 3.04-.66 1.3-1.22 2.89-1.57 4.72-.35 1.83-.48 3.91-.28 6.15.2 2.23.73 4.63 1.73 7.06.13.3.25.61.39.91.07.15.14.3.21.46.07.15.15.29.22.44.15.29.31.59.46.89.08.15.16.29.25.44.09.15.17.29.26.44.09.15.17.29.26.44.09.15.17.3.27.44.19.28.38.57.58.86.1.14.19.29.3.43.1.14.21.28.31.42.21.28.42.56.64.84.89 1.09 1.84 2.17 2.89 3.17.51.52 1.07.99 1.62 1.48.28.24.56.47.85.7.29.23.57.47.87.69.3.22.6.44.89.67.3.22.61.43.92.64.15.11.31.21.47.32.16.11.32.2.47.3l.96.6c.33.19.65.38.98.57.16.09.33.19.49.28.17.09.33.18.5.27.34.18.67.36 1.01.54.34.17.69.34 1.03.51l.26.13.26.12c.18.08.35.16.53.24.35.16.7.32 1.06.46.71.29 1.43.57 2.15.86 1.46.52 2.94 1.04 4.46 1.45.38.11.76.22 1.14.32.38.1.77.18 1.15.28l1.16.27.58.13c.19.04.39.07.58.11.78.14 1.56.29 2.35.43l2.37.33c3.18.38 6.39.53 9.6.49 3.21-.04 6.4-.32 9.54-.75 3.14-.44 6.23-1.04 9.25-1.79 3-.75 5.91-1.64 8.73-2.6 2.82-.96 5.52-2.03 8.12-3.12 2.74-1.16 5.4-2.38 7.98-3.63s5.09-2.52 7.52-3.8c2.43-1.28 4.8-2.55 7.1-3.81 2.3-1.25 4.56-2.49 6.75-3.71 2.2-1.22 4.34-2.41 6.42-3.58 1.04-.59 2.06-1.16 3.07-1.73.99-.56 1.95-1.1 2.9-1.61 1.88-1.01 3.69-1.89 5.44-2.56 1.75-.66 3.45-1.11 5.06-1.28.81-.08 1.6-.1 2.36-.05.19.01.38.04.57.05.19.02.37.05.56.08.18.03.37.07.55.1.16.04.32.08.48.11 1.26.35 2.43 1.11 3.38 2.02.47.46.9.94 1.26 1.46.36.51.67 1.04.94 1.57.25.53.46 1.06.61 1.58.04.13.07.26.1.39.02.06.03.13.05.19.01.06.02.13.04.19.02.13.05.25.07.37.01.12.03.25.04.37 0 .06.02.12.02.18v.18c0 .12.01.24.02.35v.51c0 .06-.01.11-.02.16l-.03.32c0 .11-.04.2-.05.31l-.06.3c-.03.09-.05.19-.08.28-.21.74-.54 1.32-.85 1.76-.08.11-.16.21-.24.3-.04.05-.07.09-.11.13-.04.04-.08.08-.11.12-.07.08-.14.15-.2.21-.06.07-.13.11-.18.16-.22.19-.33.29-.33.29s.13-.07.39-.2c.06-.04.14-.07.22-.12.08-.05.16-.1.25-.16.05-.03.09-.06.14-.09.02-.02.05-.03.08-.05.02-.02.05-.04.07-.06.1-.08.2-.17.32-.26.43-.38.94-.93 1.36-1.7.05-.1.11-.2.16-.3.05-.1.09-.21.14-.32.1-.22.17-.45.25-.69.04-.12.07-.25.1-.38l.09-.39c.02-.13.05-.27.07-.41l.03-.21c0-.07.01-.14.02-.21.01-.14.03-.29.04-.44 0-.15 0-.3.01-.45v-.46c0-.16 0-.32-.02-.48-.05-.64-.16-1.32-.33-2.01-.36-1.38-.96-2.84-1.94-4.24-.49-.7-1.07-1.39-1.77-2.03-.7-.64-1.51-1.23-2.45-1.71-.24-.11-.49-.23-.72-.33-.23-.09-.46-.19-.7-.27-.24-.08-.48-.17-.73-.24-.25-.07-.49-.15-.75-.21a17.97 17.97 0 0 0-3.16-.52c-2.18-.17-4.43.04-6.67.47-1.12.22-2.24.5-3.35.82-1.11.32-2.22.68-3.32 1.07-1.1.39-2.2.8-3.3 1.21-1.08.41-2.18.83-3.29 1.25-2.23.85-4.51 1.73-6.85 2.64-2.34.91-4.73 1.85-7.16 2.81-2.42.96-4.89 1.93-7.4 2.93-2.5.98-5.03 1.96-7.59 2.91-2.56.96-5.15 1.88-7.76 2.75-2.75.92-5.52 1.79-8.3 2.57-.69.19-1.39.38-2.09.57-.7.18-1.39.35-2.09.53-.35.09-.7.17-1.05.25l-1.05.24c-.7.17-1.39.3-2.09.45a93 93 0 0 1-8.33 1.33c-2.77.31-5.51.47-8.21.48H605c-.34 0-.67-.02-1-.03-.33 0-.67-.02-1-.03-.17 0-.33 0-.5-.01l-.49-.03-.99-.06-.49-.03c-.16 0-.33-.02-.49-.04-.65-.07-1.3-.13-1.94-.19-2.56-.31-5.05-.77-7.43-1.38l-1.77-.48c-.58-.18-1.15-.37-1.72-.55a39.27 39.27 0 0 1-3.26-1.23c-2.1-.88-4.01-1.93-5.74-3.05-1.71-1.14-3.22-2.37-4.49-3.68-.16-.17-.31-.33-.46-.5-.08-.08-.16-.16-.23-.25-.07-.08-.14-.17-.21-.25-.14-.17-.29-.34-.43-.5a2.56 2.56 0 0 1-.2-.26l-.2-.26-.39-.51c-.12-.17-.24-.33-.35-.5-.23-.34-.45-.68-.65-1.03-.81-1.39-1.42-2.83-1.85-4.22-.43-1.39-.69-2.73-.83-3.97-.04-.31-.06-.61-.09-.91-.01-.3-.04-.59-.04-.87-.01-.29 0-.56-.01-.83v-.79c.04-1.02.12-1.91.19-2.68.03-.39.07-.73.08-1.06.02-.31.02-.6 0-.85-.03-.5-.17-.87-.44-1.07z" class="cls-1"/><path d="M521.94 92.8c-.43.11-.69.78-.78 1.99-.02.3-.04.64-.03 1.01.01.37.04.76.08 1.2.04.43.08.9.16 1.39.08.49.18 1.01.29 1.57.06.28.12.56.18.86.08.29.15.58.23.89.08.3.17.61.25.93.09.32.17.65.29.97.22.66.45 1.34.7 2.05.27.7.57 1.43.88 2.19.15.38.33.75.51 1.14.18.38.36.77.55 1.17.18.4.4.79.6 1.19.21.4.43.81.65 1.22.06.1.11.21.17.31l.18.3c.12.2.24.41.36.62.25.41.5.83.75 1.26.26.42.54.83.82 1.26.14.21.28.43.42.64.07.11.14.22.21.32.07.11.15.21.23.32.3.42.61.85.92 1.29.16.22.31.44.48.65.17.21.33.43.5.64.34.43.68.87 1.03 1.31.36.43.73.86 1.1 1.3.19.22.37.44.56.66.19.22.39.43.59.65.4.43.8.87 1.21 1.31.42.43.84.86 1.27 1.29l.65.65c.22.21.45.42.68.64 3.61 3.43 7.86 6.74 12.7 9.74 2.41 1.51 4.98 2.92 7.69 4.23 2.7 1.31 5.54 2.53 8.52 3.6 2.97 1.07 6.08 2.01 9.29 2.79.4.1.81.19 1.21.29.4.09.8.17 1.21.26.4.09.81.17 1.21.26.41.09.81.15 1.22.23.82.15 1.64.31 2.47.44.83.13 1.66.28 2.5.38 6.69.94 13.66 1.28 20.73 1.05 7.07-.23 14.24-1.01 21.4-2.22 7.16-1.21 14.32-2.84 21.41-4.75 3.55-.96 7.08-1.98 10.6-3.06 1.75-.55 3.5-1.1 5.26-1.66l1.32-.42.66-.21.66-.22c.87-.29 1.75-.59 2.62-.88 7.01-2.32 13.95-4.92 20.82-7.62 1.71-.7 3.42-1.39 5.13-2.08l1.28-.52c.43-.18.85-.36 1.27-.54.85-.36 1.69-.73 2.54-1.09.84-.36 1.69-.73 2.53-1.09l1.26-.54c.42-.19.84-.38 1.25-.57 1.67-.76 3.33-1.51 5-2.27.42-.19.83-.38 1.24-.57.41-.2.82-.39 1.23-.59.82-.39 1.64-.78 2.46-1.18.82-.39 1.64-.78 2.45-1.17.41-.2.82-.39 1.22-.59.4-.2.81-.41 1.21-.61 1.61-.81 3.22-1.62 4.82-2.43.4-.2.8-.4 1.2-.61.4-.21.79-.42 1.19-.62.79-.42 1.58-.83 2.36-1.25 6.3-3.3 12.38-6.79 18.26-10.27 1.54-.94 3.07-1.88 4.6-2.81.76-.47 1.53-.93 2.29-1.41.75-.48 1.5-.96 2.26-1.44 1.5-.96 2.99-1.92 4.49-2.87 1.47-.98 2.94-1.96 4.4-2.94.73-.49 1.46-.98 2.19-1.46.72-.5 1.44-1 2.15-1.5 1.43-1 2.86-1.99 4.28-2.98 2.83-2 5.57-4.01 8.28-5.98 5.41-3.95 10.64-7.78 15.84-11.28 5.19-3.51 10.36-6.67 15.56-9.33 2.6-1.33 5.2-2.53 7.82-3.58 2.61-1.05 5.23-1.95 7.85-2.7.65-.18 1.32-.38 1.94-.53.64-.16 1.27-.31 1.91-.44 1.28-.27 2.57-.49 3.85-.67 2.57-.35 5.15-.51 7.69-.5 10.16.03 19.71 2.76 26.94 7.49a36.45 36.45 0 0 1 4.97 3.88c.75.7 1.45 1.43 2.12 2.17.16.19.33.37.49.56l.48.57c.3.39.61.77.9 1.17.29.39.56.79.84 1.19.26.4.53.8.77 1.21.25.4.47.82.71 1.23.22.42.44.83.64 1.25.21.41.39.84.58 1.26.09.21.17.42.26.63.08.21.17.42.25.63.31.84.59 1.68.81 2.52.91 3.35 1.12 6.64.64 9.56a17.4 17.4 0 0 1-1.17 4.08c-.26.63-.56 1.21-.89 1.76-.33.55-.69 1.07-1.08 1.55-.19.24-.39.47-.59.7-.21.22-.41.44-.62.64-.21.21-.42.4-.63.59-.22.18-.43.37-.65.54-.87.69-1.77 1.24-2.64 1.67a13.14 13.14 0 0 1-4.75 1.35c-.68.06-1.28.04-1.8.01-.52-.04-.95-.1-1.3-.17-.17-.04-.33-.07-.46-.09-.13-.03-.24-.06-.32-.08-.17-.05-.26-.07-.26-.07s.08.03.25.1c.08.03.19.08.31.13.13.04.28.09.45.15.34.11.77.23 1.3.34.53.1 1.14.19 1.85.21.71.02 1.51 0 2.38-.13.87-.12 1.82-.35 2.82-.7.12-.04.25-.09.38-.14.12-.05.25-.1.38-.15.26-.1.51-.22.77-.34a16.076 16.076 0 0 0 1.95-1.1c.13-.09.26-.17.39-.26.26-.19.52-.37.78-.58.26-.2.51-.42.77-.64.25-.23.51-.46.75-.71.49-.5.98-1.03 1.43-1.63.12-.15.22-.3.33-.45.11-.15.22-.31.32-.47.05-.08.11-.16.16-.24.05-.08.1-.17.15-.25.1-.17.19-.33.29-.5.77-1.36 1.41-2.89 1.86-4.55.91-3.32 1.08-7.13.44-11.08l-.06-.37c-.02-.12-.05-.25-.07-.37l-.15-.75c-.05-.25-.12-.5-.17-.75l-.18-.75c-.07-.25-.14-.5-.22-.75-.07-.25-.14-.51-.23-.75-.08-.25-.16-.5-.25-.75-.08-.25-.18-.5-.27-.75-.05-.13-.09-.25-.14-.38-.05-.12-.1-.25-.15-.37l-.3-.75c-.22-.5-.43-1-.67-1.5-.23-.5-.49-1-.75-1.5-.14-.25-.27-.49-.41-.74-.13-.25-.29-.49-.43-.74-1.16-1.97-2.56-3.87-4.15-5.69-1.6-1.81-3.4-3.53-5.39-5.1-3.97-3.16-8.64-5.77-13.79-7.72-5.15-1.94-10.76-3.24-16.67-3.75-2.96-.26-5.98-.32-9.07-.15-1.54.08-3.09.22-4.66.43l-.59.08-.59.09-.59.09-.59.1-.59.1-.57.11c-.38.07-.77.15-1.15.22-3.07.62-6.14 1.42-9.2 2.39-3.05.97-6.08 2.11-9.07 3.38-5.99 2.54-11.85 5.6-17.58 8.94-5.74 3.34-11.37 6.94-16.99 10.57-2.81 1.81-5.62 3.63-8.45 5.4-1.42.88-2.84 1.76-4.27 2.65-.71.44-1.43.89-2.15 1.33-.72.43-1.45.86-2.18 1.3-1.45.87-2.91 1.74-4.37 2.61l-4.44 2.55c-.74.43-1.48.85-2.23 1.28-.75.42-1.5.83-2.25 1.25-1.51.83-3.01 1.67-4.53 2.51-12.8 6.92-26.08 13.47-39.64 19.34l-2.54 1.11-.63.28-.64.27-1.28.53-5.1 2.13c-1.71.68-3.42 1.37-5.13 2.05-.85.34-1.7.69-2.56 1.02-.86.33-1.72.65-2.57.98-6.84 2.65-13.72 5.06-20.56 7.36l-5.13 1.68c-.43.14-.85.28-1.28.42-.43.13-.85.27-1.28.4-.85.27-1.7.53-2.54.79-3.39 1.04-6.75 2.03-10.09 2.93-6.68 1.81-13.26 3.34-19.71 4.46-6.45 1.12-12.76 1.85-18.86 2.1-6.1.26-12 .05-17.61-.62-.35-.04-.7-.08-1.05-.13-.35-.04-.69-.1-1.04-.15l-1.03-.15c-.17-.03-.35-.05-.51-.08s-.34-.06-.5-.09c-.34-.06-.67-.11-1-.17-.33-.06-.67-.11-1-.18-.66-.14-1.32-.26-1.98-.4-2.62-.57-5.15-1.26-7.61-2.05a82.187 82.187 0 0 1-13.54-5.7c-.26-.13-.51-.28-.76-.41l-.75-.42c-.25-.14-.5-.28-.75-.41-.24-.15-.49-.29-.73-.43s-.48-.29-.72-.43-.48-.28-.71-.43c-.47-.3-.93-.59-1.39-.88-1.82-1.2-3.56-2.39-5.15-3.65a69.976 69.976 0 0 1-8.31-7.51 74.319 74.319 0 0 1-5.87-7.06 98.49 98.49 0 0 1-3.91-5.77c-.13-.2-.26-.4-.39-.59-.13-.19-.26-.38-.36-.56-.23-.37-.45-.71-.66-1.02-.21-.32-.42-.6-.61-.87-.18-.27-.36-.51-.53-.72-.68-.85-1.24-1.25-1.68-1.14z" class="cls-1"/><path d="M804.11 81.92c.43.78 1.18 1.32 2.2 1.65 1.02.32 2.3.44 3.79.37 2.97-.14 6.76-.99 10.9-2.24 2.07-.62 4.23-1.35 6.43-2.12.55-.2 1.1-.39 1.65-.59.55-.2 1.11-.41 1.66-.61 1.11-.4 2.22-.83 3.33-1.25 1.11-.43 2.22-.84 3.31-1.28 1.1-.41 2.19-.86 3.26-1.28 1.07-.44 2.13-.84 3.17-1.28.52-.21 1.04-.41 1.54-.62.25-.11.51-.21.76-.32l.75-.3c2.1-.89 4.16-1.7 6.17-2.49.5-.19 1-.38 1.5-.58.5-.18.99-.36 1.48-.54.25-.09.49-.18.73-.27.24-.08.49-.17.73-.25.49-.17.97-.34 1.44-.51 3.81-1.28 7.4-2.27 10.55-2.93.2-.04.39-.09.59-.13.19-.05.38-.07.57-.11.38-.07.75-.14 1.11-.21.18-.03.36-.07.54-.1.18-.03.35-.07.52-.09.35-.05.68-.1 1-.15 1.31-.22 2.45-.33 3.4-.46.12-.02.24-.03.35-.04.11 0 .22-.02.33-.03.21-.02.41-.04.59-.05.37-.03.69-.06.94-.09.51-.05.79-.08.79-.08s-.22-.15-.66-.43c-.22-.14-.49-.31-.8-.52-.16-.1-.33-.21-.52-.33-.09-.06-.19-.12-.29-.18-.1-.06-.2-.11-.31-.17-.86-.47-1.91-1.08-3.19-1.66-.32-.15-.65-.3-1-.46-.17-.08-.35-.15-.53-.23-.18-.07-.36-.15-.55-.22-.74-.29-1.54-.63-2.38-.9-.85-.28-1.74-.59-2.69-.84-.47-.13-.96-.26-1.45-.39-.25-.07-.5-.12-.75-.18s-.51-.11-.77-.17c-.26-.06-.52-.11-.78-.17-.26-.06-.53-.11-.8-.16-.54-.09-1.09-.18-1.64-.27-.28-.04-.56-.09-.84-.13-.28-.03-.57-.07-.86-.1-.58-.07-1.16-.13-1.75-.19-.59-.04-1.19-.09-1.8-.12-.3-.02-.61-.04-.92-.05-.31 0-.61-.02-.92-.02-.62-.01-1.25-.03-1.88-.03-.63 0-1.27.02-1.91.04-2.56.1-5.21.32-7.85.75-5.58.86-11.11 2.62-16.07 4.82-.63.27-1.23.56-1.83.85-.6.29-1.2.58-1.78.88-.58.3-1.16.61-1.72.91-.56.31-1.11.63-1.66.94l-.81.48c-.26.16-.53.32-.79.49a60.72 60.72 0 0 0-4.36 2.97c-3.56 2.67-6.29 5.35-7.92 7.74-1.63 2.39-2.17 4.5-1.32 6.07zm38.06 7.02c.34.58 1.74.48 4.02-.18 2.28-.66 5.45-1.88 9.33-3.43 3.88-1.54 8.5-3.39 13.7-5.05 2.6-.81 5.35-1.59 8.22-2.18.72-.16 1.44-.28 2.17-.42.73-.12 1.47-.25 2.21-.34.74-.11 1.49-.18 2.25-.27.38-.03.76-.06 1.14-.1.19-.02.38-.03.57-.04l.57-.03.57-.03c.19 0 .38 0 .58-.01.19 0 .38-.01.58-.02h1.74c.39.01.77.03 1.16.04 1.56.07 3.13.21 4.72.44 3.18.45 6.4 1.23 9.64 2.3 3.24 1.07 6.49 2.46 9.75 4.05 3.26 1.6 6.51 3.42 9.78 5.36 6.53 3.88 13.09 8.27 19.87 12.4 3.39 2.07 6.83 4.08 10.34 5.93 3.51 1.85 7.09 3.55 10.73 5l.72.29.72.27.72.27.73.26c.24.09.48.18.73.26l.73.24c.49.16.98.32 1.47.49.49.16.98.3 1.47.44l.74.22c.24.07.49.15.74.21l1.48.39c.25.06.49.13.74.19s.49.11.74.17c3.94.93 7.88 1.56 11.77 1.91 3.89.35 7.73.41 11.48.22.47-.03.93-.05 1.4-.08.46-.03.93-.07 1.39-.11l1.38-.12c.46-.05.91-.11 1.37-.16.45-.06.91-.1 1.36-.17.45-.07.9-.13 1.35-.2.89-.13 1.79-.28 2.69-.45 3.56-.69 6.99-1.65 10.23-2.91 3.24-1.26 6.28-2.82 9.03-4.7 2.74-1.87 5.18-4.08 7.14-6.52.98-1.22 1.84-2.5 2.58-3.81.18-.33.35-.66.53-.99.17-.33.32-.67.48-1 .08-.16.15-.34.23-.51.08-.17.15-.35.22-.53.14-.35.26-.7.38-1.05.91-2.82 1.13-5.6.95-8.13-.19-2.54-.77-4.86-1.57-6.91-.4-1.02-.86-1.98-1.36-2.87-.5-.88-1.05-1.7-1.62-2.44-1.14-1.48-2.39-2.66-3.63-3.55-1.24-.89-2.46-1.49-3.55-1.88a12.62 12.62 0 0 0-2.83-.66c-.77-.09-1.37-.08-1.76-.08l-.6.03s.2.03.59.07c.39.06.97.16 1.69.37.73.21 1.61.53 2.56 1.06.95.52 1.98 1.25 2.96 2.23s1.93 2.2 2.73 3.66a19.627 19.627 0 0 1 1.9 5.02c.43 1.87.63 3.91.48 6.03-.15 2.11-.65 4.28-1.62 6.28-.06.12-.13.25-.19.37s-.13.24-.2.37c-.06.12-.14.24-.21.36l-.11.18-.12.19c-.16.25-.31.5-.49.74-.17.24-.35.48-.52.73-.72.96-1.53 1.88-2.43 2.74-1.8 1.73-3.95 3.24-6.36 4.49s-5.08 2.26-7.93 3.02c-2.84.76-5.86 1.27-8.97 1.54-.39.04-.78.06-1.17.09-.19.02-.39.03-.59.03-.2 0-.4.02-.6.03l-1.2.06-1.21.03c-.4 0-.81.02-1.22.02-.41 0-.82 0-1.22-.01h-.61c-.2 0-.41 0-.62-.01-.41-.02-.82-.03-1.23-.05-1.65-.06-3.31-.2-4.98-.37l-.31-.03-.31-.04c-.21-.03-.42-.05-.63-.08-.42-.05-.84-.1-1.25-.16-.42-.06-.84-.13-1.25-.19-.21-.03-.42-.06-.63-.1-.21-.03-.42-.06-.63-.1-3.35-.58-6.71-1.39-10.03-2.42l-.62-.19-.62-.21c-.41-.14-.83-.28-1.24-.42-.21-.07-.41-.15-.62-.22l-.62-.23c-.41-.15-.82-.3-1.23-.46-.41-.16-.81-.33-1.22-.49l-.61-.25c-.2-.08-.41-.17-.61-.26l-.61-.26-.61-.27-.61-.27-.61-.28c-6.83-3.18-13.54-7.34-20.34-11.74-6.8-4.39-13.69-9.03-20.99-13.12-3.65-2.04-7.4-3.94-11.27-5.58-3.86-1.64-7.85-3-11.89-3.96-4.04-.97-8.13-1.52-12.11-1.63-.25 0-.5-.01-.75-.02s-.5-.01-.74 0c-.5 0-.99 0-1.48.02l-1.47.06c-.49.02-.97.07-1.45.1s-.96.08-1.43.13-.95.1-1.41.17c-.47.07-.93.13-1.39.2-.46.08-.91.16-1.37.23a63.52 63.52 0 0 0-10.08 2.72c-.19.07-.39.14-.58.21-.19.07-.38.14-.57.22-.38.14-.75.29-1.12.43-.74.3-1.47.59-2.17.9-.35.15-.7.31-1.05.46-.34.16-.69.32-1.02.47-.17.08-.34.16-.51.23-.17.08-.33.16-.5.24-.33.16-.66.32-.98.48a95.336 95.336 0 0 0-12.65 7.64 79.42 79.42 0 0 0-4.33 3.31 39.761 39.761 0 0 0-3.03 2.73c-1.57 1.6-2.25 2.73-1.91 3.31zM764.19 44.8c.22.63 1.21.93 2.88.92.42 0 .87-.02 1.37-.06.25-.02.51-.05.77-.09.27-.04.54-.08.83-.12.57-.09 1.18-.2 1.82-.33.32-.07.65-.13.99-.21.33-.08.68-.17 1.03-.26.7-.19 1.44-.39 2.21-.61.19-.06.39-.11.58-.17.19-.06.39-.13.58-.19.39-.13.79-.27 1.2-.4.41-.14.82-.28 1.25-.43.42-.15.85-.3 1.28-.46.86-.33 1.74-.68 2.65-1.04 3.62-1.48 7.55-3.3 11.64-5.36 4.09-2.07 8.36-4.36 12.71-6.69 4.35-2.33 8.8-4.7 13.29-6.88 1.13-.56 2.23-1.08 3.35-1.6 1.12-.51 2.24-1.01 3.37-1.49 2.25-.96 4.52-1.84 6.78-2.65 2.26-.8 4.52-1.52 6.76-2.15 2.23-.62 4.45-1.15 6.61-1.58 4.57-.91 9.08-1.37 13.41-1.29 4.33.08 8.48.68 12.3 1.83.48.13.95.3 1.42.45.23.08.47.16.7.23.23.09.46.17.69.26.23.09.46.17.68.26.11.04.23.09.34.13l.33.14c.22.09.44.19.66.28.22.1.43.2.65.3.44.19.86.41 1.28.62.21.1.42.22.63.33.21.11.41.22.62.33.2.12.4.23.61.35.2.12.4.23.6.35.39.24.79.47 1.17.73 3.06 1.98 5.71 4.27 7.9 6.61 2.2 2.34 3.95 4.72 5.35 6.94.69 1.11 1.29 2.18 1.81 3.19.51 1.01.96 1.95 1.32 2.82.74 1.73 1.22 3.13 1.52 4.09.08.24.14.45.19.64.05.18.1.34.14.46.07.25.11.38.11.38s0-.13-.01-.39c0-.13 0-.29-.01-.49 0-.19 0-.42-.03-.67-.02-.25-.03-.54-.05-.85-.02-.32-.06-.66-.09-1.03-.02-.19-.03-.38-.06-.58-.03-.2-.05-.41-.08-.62-.03-.21-.05-.44-.09-.66-.04-.23-.08-.46-.12-.7-.16-.96-.38-2.03-.67-3.19a47.1 47.1 0 0 0-1.12-3.73c-.94-2.64-2.26-5.6-4.15-8.65a45.282 45.282 0 0 0-7.49-9.14c-.1-.09-.2-.19-.29-.28l-.3-.27c-.2-.18-.41-.36-.61-.54-.2-.18-.42-.36-.63-.53-.21-.18-.43-.36-.64-.53-.88-.69-1.79-1.39-2.75-2.03-.95-.66-1.97-1.28-3-1.87l-.78-.45c-.27-.14-.53-.28-.8-.42l-.81-.42a5.19 5.19 0 0 0-.41-.2c-.14-.06-.28-.13-.42-.19a47.67 47.67 0 0 0-7.04-2.68c-2.46-.72-5.03-1.27-7.66-1.64-5.26-.74-10.74-.76-16.22-.16-5.76.63-11.48 1.97-16.97 3.79-2.75.91-5.44 1.95-8.07 3.08-.33.14-.66.28-.98.43-.32.15-.65.3-.97.44-.32.15-.65.29-.97.45-.32.15-.64.31-.96.46-.32.15-.64.31-.95.46-.31.16-.62.31-.93.47-.62.32-1.23.63-1.85.94-4.89 2.55-9.44 5.28-13.68 7.95-4.24 2.68-8.17 5.3-11.79 7.73-.9.61-1.79 1.2-2.65 1.79-.87.58-1.71 1.15-2.53 1.71-.82.55-1.63 1.08-2.41 1.62-.39.26-.77.53-1.16.78-.38.25-.76.5-1.13.75-2.95 2-5.55 3.7-7.69 5.21-2.15 1.47-3.83 2.76-4.94 3.78-1.1 1.04-1.61 1.91-1.39 2.54z" class="cls-1"/><path d="M977.08 76.48c.63.63 1.43 1.02 2.33 1.22.45.1.92.16 1.41.18.5.03 1.02.02 1.56-.02 2.15-.15 4.59-.73 7.2-1.4.33-.08.66-.16.99-.25.17-.04.33-.09.5-.14.17-.04.34-.08.51-.13.17-.04.34-.09.51-.14.17-.04.33-.1.51-.14.34-.08.69-.17 1.03-.27l.26-.07.26-.06c.17-.04.35-.09.52-.13.35-.09.69-.2 1.05-.28.35-.09.7-.18 1.05-.28.36-.08.71-.17 1.06-.27 2.84-.74 5.71-1.45 8.43-2.17l.54-.15c.18-.04.36-.09.54-.13.18-.05.36-.09.54-.14.18-.05.36-.1.54-.14.36-.08.72-.17 1.07-.26l.27-.07.27-.06c.18-.04.36-.08.53-.12.71-.18 1.42-.31 2.13-.48.18-.04.35-.07.53-.11.18-.03.35-.07.53-.1.35-.07.7-.15 1.05-.2 2.77-.51 5.44-.84 7.79-1.01 2.35-.16 4.37-.17 5.8-.15h.51c.16 0 .31.01.45.02.28 0 .52.02.71.02.39 0 .6.01.6.01s-.12-.17-.35-.48c-.12-.16-.26-.35-.43-.58-.09-.11-.18-.24-.28-.37a2.8 2.8 0 0 0-.16-.2l-.17-.2c-.48-.55-1.08-1.26-1.84-1.99-.38-.37-.78-.78-1.24-1.17-.23-.2-.46-.4-.71-.61-.12-.1-.25-.21-.37-.32-.13-.1-.26-.2-.39-.31-2.11-1.67-4.88-3.41-8.23-4.8-.42-.19-.85-.34-1.28-.5l-.66-.24c-.22-.08-.45-.16-.67-.23-.9-.28-1.84-.58-2.8-.8-.24-.06-.48-.12-.73-.17a4.02 4.02 0 0 0-.37-.08l-.37-.07c-.49-.09-.99-.19-1.5-.27-.51-.08-1.02-.14-1.53-.21l-.78-.09-.78-.06c-.28-.02-.55-.04-.83-.05-.28-.01-.56-.03-.83-.03h-1.68c-.28 0-.56.03-.84.04l-.84.06c-.28.02-.56.04-.84.08l-.84.11c-1.12.14-2.23.37-3.32.61-.54.14-1.08.29-1.62.44l-.4.12c-.13.04-.26.09-.4.13-.26.09-.53.18-.79.27-.26.09-.52.18-.78.28-.26.09-.51.2-.76.31-.5.21-1.01.42-1.49.65-.49.24-.96.47-1.43.72-.12.06-.23.12-.35.18-.11.07-.23.13-.34.2-.23.13-.45.26-.68.4-.9.52-1.73 1.11-2.53 1.68-.4.29-.77.61-1.14.91-.18.15-.37.31-.54.46-.18.15-.35.32-.52.47-.34.32-.66.64-.97.95-.16.16-.31.32-.45.49-.15.16-.29.33-.43.49-.28.33-.54.65-.79.97-.24.33-.47.66-.68.98-.21.33-.42.64-.59.96-.18.32-.34.64-.49.96-.15.31-.28.62-.4.92-.11.31-.21.61-.29.91-.16.59-.27 1.14-.31 1.68-.03.54 0 1.04.08 1.5.17.93.57 1.71 1.21 2.34zm-432.8-37.04c2.83 4.55 18.46-2.16 28.02-9.95 10.07-8.22 16.71-17.82 16.71-17.82s-11.47 1.9-23.38 7.08c-12.53 5.44-24.17 16.15-21.34 20.7zM431.06 50.35c-.03-.33.29-.67.97-1.01.17-.09.36-.16.58-.23.22-.07.46-.14.72-.21.13-.04.27-.06.41-.08.14-.02.29-.05.44-.07.15-.02.31-.04.48-.06.17-.02.33-.02.51-.03 1.41-.08 3.17.06 5.15.64.49.15 1.01.31 1.52.52.26.1.53.2.79.32.26.13.53.25.8.38.13.07.27.13.41.2.13.08.27.15.4.23.27.16.55.31.82.48.53.36 1.09.72 1.62 1.16.55.41 1.06.9 1.59 1.4.25.26.51.53.76.81l.19.21c.06.07.12.15.18.22l.36.45a19.61 19.61 0 0 1 2.52 4.15 21.72 21.72 0 0 1 1.77 10.64c-.17 1.95-.6 3.96-1.37 5.95l-.14.37c-.05.12-.1.25-.16.37-.11.24-.23.49-.34.74-.22.5-.49.96-.75 1.44-.55.93-1.16 1.84-1.83 2.7-.68.86-1.41 1.67-2.19 2.44s-1.62 1.48-2.49 2.15c-.87.67-1.79 1.28-2.74 1.85-.47.29-.96.55-1.45.82-.25.13-.5.25-.74.38-.25.12-.5.23-.75.35-2.01.93-4.15 1.68-6.37 2.21-2.22.53-4.52.83-6.83.93-2.31.09-4.63-.03-6.93-.33-2.29-.3-4.56-.78-6.78-1.41-4.44-1.26-8.68-3.08-12.7-5.29a75.539 75.539 0 0 1-11.36-7.73l-.67-.55c-.22-.18-.43-.36-.64-.54-.43-.36-.85-.73-1.26-1.09-.42-.37-.84-.73-1.24-1.1-.41-.37-.82-.74-1.22-1.11-1.62-1.49-3.19-3-4.72-4.5-3.07-3.01-6-6-8.89-8.85-2.89-2.84-5.75-5.54-8.65-7.96-2.89-2.42-5.82-4.57-8.81-6.36l-.59-.35-.3-.17-.3-.16c-.4-.22-.79-.44-1.19-.66-.4-.21-.81-.41-1.21-.62-.41-.2-.82-.39-1.23-.58-1.64-.76-3.32-1.43-5.02-2.02-1.7-.58-3.42-1.06-5.16-1.47-.86-.21-1.74-.37-2.6-.54l-1.31-.21c-.22-.04-.44-.06-.65-.09l-.65-.09c-.22-.03-.44-.06-.65-.08l-.65-.06c-.44-.04-.87-.09-1.3-.12l-1.3-.09c-.43-.02-.87-.03-1.3-.05-1.71-.05-3.4 0-5.06.16-3.31.3-6.47 1.02-9.3 2.15-.71.29-1.39.6-2.06.93-.66.34-1.3.71-1.91 1.1-.62.39-1.2.81-1.76 1.25-.28.22-.55.45-.82.68l-.39.36-.1.09-.09.09-.18.18c-1.9 1.88-3.34 4.31-4.16 6.84-.82 2.53-1.06 5.17-.64 7.55.11.59.24 1.18.42 1.73.08.28.19.55.29.83.05.14.12.27.17.4.06.13.11.27.18.39.07.13.13.26.2.38.06.13.14.25.21.37.14.25.3.48.46.72.07.12.17.23.25.35l.26.35c.09.11.19.22.28.33.1.11.18.22.28.33 1.56 1.71 3.56 3.03 5.62 4.07 1.03.52 2.08.97 3.13 1.38 1.05.4 2.08.77 3.07 1.06 1.99.59 3.86.93 5.58.91.86 0 1.67-.1 2.43-.27.1-.02.19-.05.28-.07.09-.02.19-.04.28-.07.18-.05.35-.11.52-.17.34-.13.67-.28.98-.44a8.603 8.603 0 0 0 2.88-2.44c.68-.89 1.05-1.79 1.23-2.55.09-.38.13-.72.16-1.02.01-.3.01-.55 0-.76 0-.1-.02-.19-.02-.27-.01-.08-.02-.14-.03-.19-.02-.1-.02-.16-.02-.16s.02.05.05.15c.02.05.04.11.06.19.02.08.04.16.07.27.05.2.09.46.13.77.03.31.04.68 0 1.09-.06.83-.32 1.86-.91 2.96-.58 1.09-1.5 2.25-2.84 3.23-.33.24-.69.47-1.08.69l-.3.15c-.1.05-.2.1-.31.15-.21.09-.42.17-.63.26-.86.33-1.8.58-2.8.73-2 .3-4.19.21-6.45-.14-1.13-.18-2.28-.42-3.45-.7-1.18-.29-2.39-.63-3.63-1.06-1.24-.44-2.51-.97-3.78-1.64-1.27-.67-2.53-1.5-3.73-2.52-.15-.13-.29-.26-.44-.4-.15-.14-.3-.27-.44-.41-.14-.14-.28-.29-.42-.43l-.21-.22c-.07-.07-.14-.15-.2-.23l-.41-.47c-.13-.16-.26-.33-.39-.49-.26-.33-.49-.68-.73-1.03-.45-.72-.88-1.46-1.23-2.25-.19-.39-.34-.8-.5-1.2-.08-.2-.14-.41-.22-.62l-.11-.31c-.03-.1-.06-.21-.09-.32-.06-.21-.12-.42-.18-.64-.05-.21-.1-.43-.15-.65-.05-.22-.09-.43-.13-.65l-.12-.66c-.13-.88-.21-1.78-.24-2.68-.04-1.81.11-3.65.5-5.47l.07-.34.08-.34c.06-.23.11-.46.17-.68.13-.45.26-.91.41-1.36.14-.45.32-.9.49-1.35.19-.44.37-.89.58-1.33.2-.44.43-.88.66-1.31.24-.43.48-.87.75-1.29.26-.43.55-.84.84-1.26.3-.41.6-.82.94-1.21.16-.2.33-.4.49-.58.17-.19.33-.38.5-.56.17-.18.35-.36.52-.55.17-.18.36-.36.54-.53.73-.7 1.49-1.38 2.29-2.01.8-.63 1.64-1.22 2.5-1.78.86-.55 1.76-1.06 2.67-1.53.91-.48 1.85-.91 2.81-1.3.95-.39 1.93-.75 2.91-1.07 1.97-.64 3.99-1.14 6.05-1.51 2.06-.37 4.15-.61 6.26-.72.52-.02 1.05-.05 1.57-.07.53 0 1.05-.01 1.58-.02s1.06.01 1.59.02c.27 0 .53.01.8.02s.53.03.8.04c.27.01.53.03.8.04l.4.02c.13 0 .27.02.4.03.53.05 1.07.09 1.61.14.54.06 1.07.13 1.61.19l.4.05.4.06.81.12c2.15.34 4.3.79 6.44 1.37 2.13.58 4.26 1.28 6.35 2.1.52.21 1.05.41 1.57.64.52.23 1.04.46 1.55.68.51.24 1.02.49 1.54.74l.38.19.38.2.76.39c2.11 1.11 4.16 2.35 6.13 3.66 1.97 1.32 3.86 2.72 5.69 4.17 3.65 2.91 7.03 6.01 10.26 9.1 3.23 3.09 6.32 6.18 9.39 9.11 1.53 1.46 3.06 2.89 4.59 4.25.38.34.76.68 1.15 1.01.38.33.77.67 1.14.98.38.31.75.63 1.13.93.38.31.76.62 1.15.91 3.08 2.39 6.3 4.49 9.59 6.22 3.28 1.73 6.63 3.07 9.92 3.92 3.29.85 6.52 1.21 9.54 1.01 1.51-.1 2.97-.34 4.38-.7l.26-.06.13-.03.13-.04c.17-.05.35-.11.52-.16.17-.05.35-.1.52-.16.17-.06.34-.12.5-.19.69-.23 1.32-.5 1.94-.8.62-.29 1.21-.62 1.77-.96.14-.09.28-.17.42-.26.14-.09.27-.18.41-.27.26-.19.53-.37.77-.57.25-.19.48-.39.72-.59.22-.21.46-.41.66-.62.11-.1.22-.21.31-.32.1-.11.2-.21.3-.32.19-.22.38-.44.55-.66.18-.22.33-.45.5-.68.14-.23.29-.46.43-.69.12-.24.26-.48.38-.72.06-.12.11-.25.17-.37l.08-.19c.03-.06.06-.12.08-.19.41-1.01.68-2.08.82-3.15.14-1.07.14-2.14.04-3.16s-.32-2-.62-2.91c-.08-.22-.16-.45-.24-.67-.1-.21-.19-.43-.28-.64-.02-.05-.04-.11-.07-.16l-.08-.15c-.05-.1-.11-.2-.16-.3-.05-.1-.1-.2-.15-.31-.06-.1-.12-.19-.18-.29-.06-.1-.12-.19-.17-.29-.06-.1-.11-.2-.18-.28-.13-.18-.26-.37-.38-.55a2.56 2.56 0 0 0-.2-.26c-.07-.09-.14-.17-.21-.26-.07-.09-.14-.17-.2-.26-.07-.09-.14-.16-.22-.24-.14-.16-.29-.32-.43-.48-.15-.15-.3-.3-.45-.44l-.22-.22-.23-.2c-.15-.14-.31-.27-.46-.4-.15-.13-.31-.24-.46-.37-.08-.06-.15-.12-.23-.18-.08-.06-.15-.12-.23-.17-.16-.11-.31-.22-.46-.32-.08-.05-.15-.11-.23-.16-.08-.05-.15-.1-.23-.14-1.21-.78-2.36-1.34-3.34-1.77-.24-.11-.48-.2-.7-.3-.11-.05-.22-.1-.32-.15-.11-.05-.21-.08-.31-.13-.2-.08-.38-.16-.56-.25-.09-.04-.17-.08-.25-.12-.08-.04-.15-.07-.23-.11-.57-.29-.91-.6-.93-.94z" class="cls-1"/><path d="M499.46 30.74c-.03-.33.29-.67.97-1.01.17-.09.36-.16.58-.23.22-.07.46-.14.72-.21.13-.04.27-.06.41-.08.14-.02.29-.05.44-.07.15-.02.31-.04.48-.06.17-.02.33-.02.51-.03 1.41-.08 3.17.06 5.15.64.49.15 1.01.31 1.52.52.26.1.53.2.79.32.26.13.53.25.8.38.13.07.27.13.41.2.13.08.27.15.4.23.27.16.55.31.82.48.53.36 1.09.72 1.62 1.16.55.41 1.06.9 1.59 1.4.25.26.51.53.76.81l.19.21c.06.07.12.15.18.22l.36.45a19.61 19.61 0 0 1 2.52 4.15 21.72 21.72 0 0 1 1.77 10.64c-.17 1.95-.6 3.96-1.37 5.95l-.14.37c-.05.12-.1.25-.16.37-.11.24-.23.49-.34.74-.22.5-.49.96-.75 1.44-.55.93-1.16 1.84-1.83 2.7-.68.86-1.41 1.67-2.19 2.44s-1.62 1.48-2.49 2.15c-.87.67-1.79 1.28-2.74 1.85-.47.29-.96.55-1.45.82-.25.13-.5.25-.74.38-.25.12-.5.23-.75.35-2.01.93-4.15 1.68-6.37 2.21-2.22.53-4.52.83-6.83.93-2.31.09-4.63-.03-6.93-.33-2.29-.3-4.56-.78-6.78-1.41-4.44-1.26-8.68-3.08-12.7-5.29a75.539 75.539 0 0 1-11.36-7.73l-.67-.55c-.22-.18-.43-.36-.64-.54-.43-.36-.85-.73-1.26-1.09-.42-.37-.84-.73-1.24-1.1-.41-.37-.82-.74-1.22-1.11-1.62-1.49-3.19-3-4.72-4.5-3.07-3.01-6-6-8.89-8.85-2.89-2.84-5.75-5.54-8.65-7.96-2.89-2.42-5.82-4.57-8.81-6.36l-.59-.35-.3-.17-.3-.16c-.4-.22-.79-.44-1.19-.66-.4-.21-.81-.41-1.21-.62-.41-.2-.82-.39-1.23-.58-1.64-.76-3.32-1.43-5.02-2.02-1.7-.58-3.42-1.06-5.16-1.47-.86-.21-1.74-.37-2.6-.54l-1.31-.21c-.22-.04-.44-.06-.65-.09l-.65-.09c-.22-.03-.44-.06-.65-.08l-.65-.06c-.44-.04-.87-.09-1.3-.12l-1.3-.09c-.43-.02-.87-.03-1.3-.05-1.71-.05-3.4 0-5.06.16-3.31.3-6.47 1.02-9.3 2.15-.71.29-1.39.6-2.06.93-.66.34-1.3.71-1.91 1.1-.62.39-1.2.81-1.76 1.25-.28.22-.55.45-.82.68l-.39.36-.1.09-.09.09-.18.18c-1.9 1.88-3.34 4.31-4.16 6.84-.82 2.53-1.06 5.17-.64 7.55.11.59.24 1.18.42 1.73.08.28.19.55.29.83.05.14.12.27.17.4.06.13.11.27.18.39.07.13.13.26.2.38.06.13.14.25.21.37.14.25.3.48.46.72.07.12.17.23.25.35l.26.35c.09.11.19.22.28.33.1.11.18.22.28.33 1.56 1.71 3.56 3.03 5.62 4.07 1.03.52 2.08.97 3.13 1.38 1.05.4 2.08.77 3.07 1.06 1.99.59 3.86.93 5.58.91.86 0 1.67-.1 2.43-.27.09-.02.19-.05.28-.07.09-.02.19-.04.28-.07.18-.05.35-.11.52-.17.34-.13.67-.28.98-.44a8.603 8.603 0 0 0 2.88-2.44c.68-.89 1.05-1.79 1.23-2.55.09-.38.13-.72.16-1.02.01-.3.01-.55 0-.76 0-.1-.02-.19-.02-.27-.01-.08-.02-.14-.03-.19-.02-.1-.02-.16-.02-.16s.02.05.05.15c.02.05.04.11.06.19.02.08.04.16.07.27.05.2.09.46.13.77.03.31.04.68 0 1.09-.06.83-.32 1.86-.91 2.96-.58 1.09-1.5 2.25-2.84 3.23-.33.24-.69.47-1.08.69l-.3.15c-.1.05-.2.1-.31.15-.21.09-.42.17-.63.26-.86.33-1.8.58-2.8.73-2 .3-4.19.21-6.45-.14-1.13-.18-2.28-.42-3.45-.7-1.18-.29-2.39-.63-3.63-1.06-1.24-.44-2.51-.97-3.78-1.64-1.27-.67-2.53-1.5-3.73-2.52-.15-.13-.29-.26-.44-.4-.15-.14-.3-.27-.44-.41-.14-.14-.28-.29-.42-.43l-.21-.22c-.07-.07-.14-.15-.2-.23l-.41-.47c-.13-.16-.26-.33-.39-.49-.26-.33-.49-.68-.73-1.03-.45-.72-.88-1.46-1.23-2.25-.19-.39-.34-.8-.5-1.2-.08-.2-.14-.41-.22-.62l-.11-.31c-.03-.1-.06-.21-.09-.32-.06-.21-.12-.42-.18-.64-.05-.21-.1-.43-.15-.65-.05-.22-.09-.43-.13-.65l-.12-.66c-.13-.88-.21-1.78-.24-2.68-.04-1.81.11-3.65.5-5.47l.07-.34.08-.34c.06-.23.11-.46.17-.68.13-.45.26-.91.41-1.36.14-.45.32-.9.49-1.35.19-.44.37-.89.58-1.33.2-.44.43-.88.66-1.31.24-.43.48-.87.75-1.29.26-.43.55-.84.84-1.26.3-.41.6-.82.94-1.21.16-.2.33-.4.49-.58.17-.19.33-.38.5-.56.17-.18.35-.36.52-.55.17-.18.36-.36.54-.53.73-.7 1.49-1.38 2.29-2.01.8-.63 1.64-1.22 2.5-1.78.86-.55 1.76-1.06 2.67-1.53.91-.48 1.85-.91 2.81-1.3.95-.39 1.93-.75 2.91-1.07 1.97-.64 3.99-1.14 6.05-1.51 2.06-.37 4.15-.61 6.26-.72.52-.02 1.05-.05 1.57-.07.53 0 1.05-.01 1.58-.02s1.06.01 1.59.02c.27 0 .53.01.8.02s.53.03.8.04c.27.01.53.03.8.04l.4.02c.13 0 .27.02.4.03.53.05 1.07.09 1.61.14.54.06 1.07.13 1.61.19l.4.05.4.06.81.12c2.15.34 4.3.79 6.44 1.37 2.13.58 4.26 1.28 6.35 2.1.52.21 1.05.41 1.57.64.52.23 1.04.46 1.55.68.51.24 1.02.49 1.54.74l.38.19.38.2.76.39c2.11 1.11 4.16 2.35 6.13 3.66 1.97 1.32 3.86 2.72 5.69 4.17 3.65 2.91 7.03 6.01 10.27 9.1 3.23 3.09 6.32 6.18 9.39 9.11 1.53 1.46 3.06 2.89 4.59 4.25.38.34.76.68 1.15 1.01.38.33.77.67 1.14.98.38.31.75.63 1.13.93.38.31.76.62 1.15.91 3.08 2.39 6.3 4.49 9.59 6.22 3.28 1.73 6.63 3.07 9.92 3.92 3.29.85 6.52 1.21 9.54 1.01 1.51-.1 2.97-.34 4.38-.7l.26-.06.13-.03.13-.04c.17-.05.35-.11.52-.16.17-.05.35-.1.52-.16.17-.06.34-.12.5-.19.69-.23 1.32-.5 1.94-.8.62-.29 1.21-.62 1.77-.96.14-.09.28-.17.42-.26.14-.09.27-.18.41-.27.26-.19.53-.37.77-.57.25-.19.48-.39.72-.59.22-.21.46-.41.66-.62.11-.1.22-.21.31-.32.1-.11.2-.21.3-.32.19-.22.38-.44.55-.66.18-.22.33-.45.5-.68.14-.23.29-.46.43-.69.12-.24.26-.48.38-.72.06-.12.11-.25.17-.37l.08-.19c.03-.06.06-.12.08-.19.41-1.01.68-2.08.82-3.15.14-1.07.14-2.14.04-3.16s-.32-2-.62-2.91c-.08-.22-.16-.45-.24-.67-.1-.21-.19-.43-.28-.64-.02-.05-.04-.11-.07-.16l-.08-.15c-.05-.1-.11-.2-.16-.3-.05-.1-.1-.2-.15-.31-.06-.1-.12-.19-.18-.29-.06-.1-.12-.19-.17-.29-.06-.1-.11-.2-.18-.28-.13-.18-.26-.37-.38-.55a2.56 2.56 0 0 0-.2-.26c-.07-.09-.14-.17-.21-.26-.07-.09-.14-.17-.2-.26-.07-.09-.14-.16-.22-.24-.14-.16-.29-.32-.43-.48-.15-.15-.3-.3-.45-.44l-.22-.22-.23-.2c-.15-.14-.31-.27-.46-.4-.15-.13-.31-.24-.46-.37-.08-.06-.15-.12-.23-.18-.08-.06-.15-.12-.23-.17-.16-.11-.31-.22-.46-.32-.08-.05-.15-.11-.23-.16-.08-.05-.15-.1-.23-.14-1.21-.78-2.36-1.34-3.34-1.77-.24-.11-.48-.2-.7-.3-.11-.05-.22-.1-.32-.15-.11-.05-.21-.08-.31-.13-.2-.08-.38-.16-.56-.25-.09-.04-.17-.08-.25-.12-.08-.04-.15-.07-.23-.11-.57-.29-.91-.6-.93-.94z" class="cls-1"/><path d="M475.9 71.22c.27-.2.66-.2 1.2.01.52.23 1.18.67 1.87 1.4.69.73 1.44 1.73 2.09 3.04.66 1.3 1.22 2.89 1.57 4.72.35 1.83.48 3.91.28 6.15-.2 2.23-.73 4.63-1.73 7.06-.13.3-.25.61-.39.91-.07.15-.14.3-.21.46-.07.15-.15.29-.22.44-.15.29-.31.59-.46.89-.08.15-.16.29-.25.44-.09.15-.17.29-.26.44-.09.15-.17.29-.26.44-.09.15-.17.3-.27.44-.19.28-.38.57-.58.86-.1.14-.19.29-.3.43-.1.14-.21.28-.31.42-.21.28-.42.56-.64.84-.89 1.09-1.84 2.17-2.89 3.17-.51.52-1.07.99-1.62 1.48-.28.24-.56.47-.85.7-.29.23-.57.47-.87.69-.3.22-.6.44-.89.67-.3.22-.61.43-.92.64-.15.11-.31.21-.47.32-.16.11-.32.2-.47.3l-.96.6c-.33.19-.65.38-.98.57-.16.09-.33.19-.49.28-.17.09-.33.18-.5.27-.34.18-.67.36-1.01.54-.34.17-.69.34-1.03.51l-.26.13-.26.12c-.17.08-.35.16-.53.24-.35.16-.7.32-1.06.46-.71.29-1.43.57-2.15.86-1.46.52-2.94 1.04-4.46 1.45-.38.11-.76.22-1.14.32-.38.1-.77.18-1.15.28l-1.16.27-.58.13c-.19.04-.39.07-.58.11-.78.14-1.56.29-2.35.43l-2.37.33c-3.18.38-6.39.53-9.6.49-3.21-.04-6.4-.32-9.54-.75a89.98 89.98 0 0 1-9.25-1.79c-3-.75-5.91-1.64-8.73-2.6-2.82-.96-5.52-2.03-8.12-3.12-2.74-1.16-5.4-2.38-7.98-3.63a250.59 250.59 0 0 1-7.52-3.8c-2.43-1.28-4.8-2.55-7.1-3.81-2.3-1.25-4.56-2.49-6.75-3.71-2.2-1.22-4.34-2.41-6.42-3.58-1.04-.59-2.06-1.16-3.07-1.73-.99-.56-1.95-1.1-2.9-1.61-1.88-1.01-3.69-1.89-5.44-2.56-1.75-.66-3.45-1.11-5.06-1.28-.81-.08-1.6-.1-2.36-.05-.19.01-.38.04-.57.05-.19.02-.37.05-.56.08-.18.03-.37.07-.55.1-.16.04-.32.08-.48.11-1.26.35-2.43 1.11-3.38 2.02-.47.46-.9.94-1.26 1.46-.36.51-.67 1.04-.94 1.57-.25.53-.46 1.06-.61 1.58-.04.13-.07.26-.1.39-.02.06-.03.13-.05.19-.01.06-.02.13-.04.19-.02.13-.05.25-.07.37-.01.12-.03.25-.04.37 0 .06-.02.12-.02.18v.18c0 .12-.01.24-.02.35v.51c0 .06.01.11.02.16l.03.32c0 .11.04.2.05.31l.06.3c.03.09.05.19.08.28.21.74.54 1.32.85 1.76.08.11.16.21.24.3.04.05.07.09.11.13.04.04.08.08.11.12.07.08.14.15.2.21.06.07.13.11.18.16.22.19.33.29.33.29s-.13-.07-.39-.2c-.06-.04-.14-.07-.22-.12-.08-.05-.16-.1-.25-.16-.05-.03-.09-.06-.14-.09-.02-.02-.05-.03-.08-.05-.02-.02-.05-.04-.07-.06-.1-.08-.2-.17-.32-.26-.43-.38-.94-.93-1.36-1.7-.05-.1-.11-.2-.16-.3-.05-.1-.09-.21-.14-.32-.1-.22-.17-.45-.25-.69-.04-.12-.07-.25-.1-.38l-.09-.39c-.02-.13-.05-.27-.07-.41l-.03-.21c0-.07-.01-.14-.02-.21-.01-.14-.03-.29-.04-.44 0-.15 0-.3-.01-.45v-.46c0-.16 0-.32.02-.48.05-.64.16-1.32.33-2.01.36-1.38.96-2.84 1.94-4.24.49-.7 1.07-1.39 1.77-2.03.7-.64 1.51-1.23 2.45-1.71.24-.11.49-.23.72-.33.23-.09.46-.19.7-.27.24-.08.48-.17.73-.24.25-.07.49-.15.75-.21 1.01-.26 2.07-.44 3.16-.52 2.18-.17 4.43.04 6.67.47 1.12.22 2.24.5 3.35.82 1.11.32 2.22.68 3.32 1.07 1.1.39 2.2.8 3.3 1.21 1.08.41 2.18.83 3.29 1.25 2.23.85 4.51 1.73 6.85 2.64 2.34.91 4.73 1.85 7.16 2.81 2.42.96 4.89 1.93 7.4 2.93 2.5.98 5.03 1.96 7.59 2.91 2.56.96 5.15 1.88 7.76 2.75 2.75.92 5.52 1.79 8.3 2.57l2.09.57c.7.18 1.39.35 2.09.53.35.09.7.17 1.05.25l1.05.24c.7.17 1.39.3 2.09.45a93 93 0 0 0 8.33 1.33c2.77.31 5.51.47 8.21.48h1.01c.34 0 .67-.02 1-.03.33 0 .67-.02 1-.03.17 0 .33 0 .5-.01l.49-.03.99-.06.49-.03c.16 0 .33-.02.49-.04.65-.07 1.3-.13 1.94-.19 2.56-.31 5.05-.77 7.43-1.38l1.77-.48c.58-.18 1.15-.37 1.72-.55 1.13-.37 2.21-.78 3.26-1.23 2.1-.88 4.01-1.93 5.74-3.05 1.71-1.14 3.22-2.37 4.49-3.68.16-.17.31-.33.46-.5.08-.08.16-.16.23-.25.07-.08.14-.17.21-.25.14-.17.29-.34.43-.5.07-.08.14-.17.2-.26l.2-.26.39-.51c.12-.17.24-.33.35-.5.23-.34.45-.68.65-1.03.81-1.39 1.42-2.83 1.85-4.22.43-1.39.69-2.73.83-3.97.04-.31.06-.61.09-.91.01-.3.04-.59.04-.87.01-.29 0-.56.01-.83v-.79c-.04-1.02-.12-1.91-.19-2.68-.03-.39-.07-.73-.08-1.06-.02-.31-.02-.6 0-.85.03-.5.17-.87.44-1.07z" class="cls-1"/><path d="M521.56 92.8c.43.11.69.78.78 1.99.02.3.04.64.03 1.01-.01.37-.04.76-.08 1.2-.04.43-.08.9-.16 1.39-.08.49-.18 1.01-.29 1.57-.06.28-.12.56-.18.86-.08.29-.15.58-.23.89-.08.3-.17.61-.25.93-.09.32-.17.65-.29.97-.22.66-.45 1.34-.7 2.05-.27.7-.57 1.43-.88 2.19-.15.38-.33.75-.51 1.14-.18.38-.36.77-.55 1.17-.18.4-.4.79-.6 1.19-.21.4-.43.81-.65 1.22-.06.1-.11.21-.17.31l-.18.3c-.12.2-.24.41-.36.62-.25.41-.5.83-.75 1.26-.26.42-.54.83-.82 1.26-.14.21-.28.43-.42.64-.07.11-.14.22-.21.32-.07.11-.15.21-.23.32-.3.42-.61.85-.92 1.29-.16.22-.31.44-.48.65-.17.21-.33.43-.5.64-.34.43-.68.87-1.03 1.31-.36.43-.73.86-1.1 1.3-.19.22-.37.44-.56.66-.19.22-.39.43-.59.65-.4.43-.8.87-1.21 1.31-.42.43-.84.86-1.27 1.29l-.65.65c-.22.21-.45.42-.68.64-3.61 3.43-7.86 6.74-12.7 9.74a80.326 80.326 0 0 1-7.69 4.23c-2.7 1.31-5.54 2.53-8.52 3.6a90.494 90.494 0 0 1-9.29 2.79c-.4.1-.81.19-1.21.29-.4.09-.8.17-1.21.26-.4.09-.81.17-1.21.26-.41.09-.81.15-1.22.23-.82.15-1.64.31-2.47.44-.83.13-1.66.28-2.5.38-6.69.94-13.66 1.28-20.73 1.05-7.07-.23-14.24-1.01-21.4-2.22-7.16-1.21-14.32-2.84-21.41-4.75-3.55-.96-7.08-1.98-10.6-3.06-1.75-.55-3.5-1.1-5.26-1.66l-1.32-.42-.66-.21-.66-.22c-.87-.29-1.75-.59-2.62-.88-7.01-2.32-13.95-4.92-20.82-7.62-1.71-.7-3.42-1.39-5.13-2.08l-1.28-.52c-.43-.18-.85-.36-1.27-.54-.85-.36-1.69-.73-2.54-1.09-.84-.36-1.69-.73-2.53-1.09l-1.26-.54c-.42-.19-.84-.38-1.25-.57-1.67-.76-3.33-1.51-5-2.27-.42-.19-.83-.38-1.24-.57-.41-.2-.82-.39-1.23-.59-.82-.39-1.64-.78-2.46-1.18-.82-.39-1.64-.78-2.45-1.17-.41-.2-.82-.39-1.22-.59-.4-.2-.81-.41-1.21-.61-1.61-.81-3.22-1.62-4.82-2.43-.4-.2-.8-.4-1.2-.61-.4-.21-.79-.42-1.19-.62-.79-.42-1.58-.83-2.36-1.25-6.3-3.3-12.38-6.79-18.26-10.27-1.54-.94-3.07-1.88-4.6-2.81-.76-.47-1.53-.93-2.29-1.41-.75-.48-1.5-.96-2.26-1.44-1.5-.96-2.99-1.92-4.49-2.87-1.47-.98-2.94-1.96-4.4-2.94-.73-.49-1.46-.98-2.19-1.46-.72-.5-1.44-1-2.15-1.5-1.43-1-2.86-1.99-4.28-2.98-2.83-2-5.57-4.01-8.28-5.98-5.41-3.95-10.64-7.78-15.84-11.28-5.19-3.51-10.36-6.67-15.56-9.33-2.6-1.33-5.2-2.53-7.82-3.58a80.103 80.103 0 0 0-7.85-2.7c-.65-.18-1.32-.38-1.94-.53-.64-.16-1.27-.31-1.91-.44-1.28-.27-2.57-.49-3.85-.67-2.57-.35-5.15-.51-7.69-.5-10.16.03-19.71 2.76-26.94 7.49a36.45 36.45 0 0 0-4.97 3.88c-.75.7-1.45 1.43-2.12 2.17-.16.19-.33.37-.49.56l-.48.57c-.3.39-.61.77-.9 1.17-.29.39-.56.79-.84 1.19-.26.4-.53.8-.77 1.21-.25.4-.47.82-.71 1.23-.22.42-.44.83-.64 1.25-.21.41-.39.84-.58 1.26-.09.21-.17.42-.26.63-.08.21-.17.42-.25.63-.31.84-.59 1.68-.81 2.52-.91 3.35-1.12 6.64-.64 9.56a17.4 17.4 0 0 0 1.17 4.08c.26.63.56 1.21.89 1.76.33.55.69 1.07 1.08 1.55.19.24.39.47.59.7.21.22.41.44.62.64.21.21.42.4.63.59.22.18.43.37.65.54.87.69 1.77 1.24 2.64 1.67 1.75.87 3.41 1.24 4.75 1.35.68.06 1.28.04 1.8.01.52-.04.95-.1 1.3-.17.17-.04.33-.07.46-.09.13-.03.24-.06.32-.08.17-.05.26-.07.26-.07s-.08.03-.25.1c-.08.03-.19.08-.31.13-.13.04-.28.09-.45.15-.34.11-.77.23-1.3.34-.53.1-1.14.19-1.85.21-.71.02-1.51 0-2.38-.13-.87-.12-1.82-.35-2.82-.7-.12-.04-.25-.09-.38-.14-.12-.05-.25-.1-.38-.15-.26-.1-.51-.22-.77-.34a16.076 16.076 0 0 1-1.95-1.1c-.13-.09-.26-.17-.39-.26-.26-.19-.52-.37-.78-.58-.26-.2-.51-.42-.77-.64-.25-.23-.51-.46-.75-.71-.49-.5-.98-1.03-1.43-1.63-.12-.15-.22-.3-.33-.45-.11-.15-.22-.31-.32-.47-.05-.08-.11-.16-.16-.24-.05-.08-.1-.17-.15-.25-.1-.17-.19-.33-.29-.5-.77-1.36-1.41-2.89-1.86-4.55-.91-3.32-1.08-7.13-.44-11.08l.06-.37c.02-.12.05-.25.07-.37l.15-.75c.05-.25.12-.5.17-.75l.18-.75c.07-.25.14-.5.22-.75.07-.25.14-.51.23-.75.08-.25.16-.5.25-.75.08-.25.18-.5.27-.75.05-.13.09-.25.14-.38.05-.12.1-.25.15-.37l.3-.75c.22-.5.43-1 .67-1.5.23-.5.49-1 .75-1.5.14-.25.27-.49.41-.74.13-.25.29-.49.43-.74 1.16-1.97 2.56-3.87 4.15-5.69 1.6-1.81 3.4-3.53 5.39-5.1 3.97-3.16 8.64-5.77 13.79-7.72 5.15-1.94 10.76-3.24 16.67-3.75 2.96-.26 5.98-.32 9.07-.15 1.54.08 3.09.22 4.66.43l.59.08.59.09.59.09.59.1.59.1.57.11c.38.07.77.15 1.15.22 3.07.62 6.14 1.42 9.2 2.39 3.05.97 6.08 2.11 9.07 3.38 5.99 2.54 11.85 5.6 17.58 8.94 5.74 3.34 11.37 6.94 16.99 10.57 2.81 1.81 5.62 3.63 8.45 5.4 1.42.88 2.84 1.76 4.27 2.65.71.44 1.43.89 2.15 1.33.72.43 1.45.86 2.18 1.3 1.45.87 2.91 1.74 4.37 2.61l4.44 2.55c.74.43 1.48.85 2.23 1.28.75.42 1.5.83 2.25 1.25 1.51.83 3.01 1.67 4.53 2.51 12.8 6.92 26.08 13.47 39.64 19.34l2.54 1.11.63.28.64.27 1.28.53 5.1 2.13c1.71.68 3.42 1.37 5.13 2.05.85.34 1.7.69 2.56 1.02.86.33 1.72.65 2.57.98 6.84 2.65 13.72 5.06 20.56 7.36l5.13 1.68c.43.14.85.28 1.28.42.43.13.85.27 1.28.4.85.27 1.7.53 2.54.79 3.39 1.04 6.75 2.03 10.09 2.93 6.68 1.81 13.26 3.34 19.71 4.46 6.45 1.12 12.76 1.85 18.86 2.1 6.1.26 12 .05 17.61-.62.35-.04.7-.08 1.05-.13.35-.04.69-.1 1.04-.15l1.03-.15c.17-.03.35-.05.51-.08.17-.03.34-.06.5-.09.34-.06.67-.11 1-.17.33-.06.67-.11 1-.18.66-.14 1.32-.26 1.98-.4 2.62-.57 5.15-1.26 7.61-2.05 4.91-1.56 9.44-3.53 13.54-5.7.26-.13.51-.28.76-.41l.75-.42c.25-.14.5-.28.75-.41.24-.15.49-.29.73-.43s.48-.29.72-.43.48-.28.71-.43c.47-.3.93-.59 1.39-.88 1.82-1.2 3.56-2.39 5.15-3.65 3.22-2.47 5.97-5.03 8.31-7.51 2.34-2.48 4.27-4.88 5.87-7.06a98.49 98.49 0 0 0 3.91-5.77c.13-.2.26-.4.39-.59.13-.19.26-.38.36-.56.23-.37.45-.71.66-1.02.21-.32.42-.6.61-.87.18-.27.36-.51.53-.72.68-.85 1.24-1.25 1.68-1.14z" class="cls-1"/><path d="M239.39 81.92c-.43.78-1.18 1.32-2.2 1.65-1.02.32-2.3.44-3.79.37-2.97-.14-6.76-.99-10.9-2.24-2.07-.62-4.23-1.35-6.43-2.12-.55-.2-1.1-.39-1.65-.59-.55-.2-1.11-.41-1.66-.61-1.11-.4-2.22-.83-3.33-1.25-1.11-.43-2.22-.84-3.31-1.28-1.1-.41-2.19-.86-3.26-1.28-1.07-.44-2.13-.84-3.17-1.28-.52-.21-1.04-.41-1.54-.62-.25-.11-.51-.21-.76-.32l-.75-.3c-2.1-.89-4.16-1.7-6.17-2.49-.5-.19-1-.38-1.5-.58-.5-.18-.99-.36-1.48-.54-.25-.09-.49-.18-.73-.27-.24-.08-.49-.17-.73-.25-.49-.17-.97-.34-1.44-.51-3.81-1.28-7.4-2.27-10.55-2.93-.2-.04-.39-.09-.59-.13-.19-.05-.38-.07-.57-.11-.38-.07-.75-.14-1.11-.21-.18-.03-.36-.07-.54-.1-.18-.03-.35-.07-.52-.09-.35-.05-.68-.1-1-.15-1.31-.22-2.45-.33-3.4-.46-.12-.02-.24-.03-.35-.04-.11 0-.22-.02-.33-.03-.21-.02-.41-.04-.59-.05-.37-.03-.69-.06-.94-.09-.51-.05-.79-.08-.79-.08s.22-.15.65-.43c.22-.14.49-.31.81-.52.16-.1.33-.21.52-.33.09-.06.19-.12.29-.18.1-.06.2-.11.31-.17.86-.47 1.91-1.08 3.19-1.66.32-.15.65-.3 1-.46.17-.08.35-.15.53-.23.18-.07.36-.15.55-.22.74-.29 1.54-.63 2.38-.9.85-.28 1.74-.59 2.69-.84.47-.13.96-.26 1.45-.39.25-.07.5-.12.75-.18s.51-.11.77-.17c.26-.06.52-.11.78-.17.26-.06.53-.11.8-.16.54-.09 1.09-.18 1.64-.27.28-.04.56-.09.84-.13.28-.03.57-.07.86-.1.58-.07 1.16-.13 1.76-.19.59-.04 1.19-.09 1.8-.12.3-.02.61-.04.92-.05.31 0 .61-.02.92-.02.62-.01 1.25-.03 1.88-.03.63 0 1.27.02 1.91.04 2.56.1 5.21.32 7.85.75 5.58.86 11.11 2.62 16.07 4.82.63.27 1.23.56 1.83.85.6.29 1.2.58 1.78.88.58.3 1.16.61 1.72.91.56.31 1.11.63 1.66.94l.81.48c.26.16.53.32.79.49a60.72 60.72 0 0 1 4.36 2.97c3.56 2.67 6.29 5.35 7.92 7.74 1.63 2.39 2.17 4.5 1.32 6.07zm-38.06 7.02c-.34.58-1.74.48-4.02-.18-2.28-.66-5.45-1.88-9.33-3.43-3.88-1.54-8.5-3.39-13.7-5.05-2.6-.81-5.35-1.59-8.22-2.18-.72-.16-1.44-.28-2.17-.42-.73-.12-1.47-.25-2.21-.34-.74-.11-1.49-.18-2.25-.27-.38-.03-.76-.06-1.14-.1-.19-.02-.38-.03-.57-.04l-.57-.03-.57-.03c-.19 0-.38 0-.57-.01-.19 0-.38-.01-.58-.02h-1.74c-.39.01-.77.03-1.16.04-1.56.07-3.13.21-4.72.44-3.18.45-6.4 1.23-9.64 2.3-3.24 1.07-6.49 2.46-9.75 4.05-3.26 1.6-6.51 3.42-9.78 5.36-6.53 3.88-13.09 8.27-19.87 12.4-3.39 2.07-6.83 4.08-10.34 5.93-3.51 1.85-7.09 3.55-10.73 5l-.72.29-.72.27-.72.27-.73.26c-.24.09-.48.18-.73.26l-.73.24c-.49.16-.98.32-1.47.49-.49.16-.98.3-1.47.44l-.74.22c-.24.07-.49.15-.74.21l-1.48.39c-.25.06-.49.13-.74.19s-.49.11-.74.17c-3.94.93-7.88 1.56-11.77 1.91-3.89.35-7.73.41-11.48.22-.47-.03-.93-.05-1.4-.08-.46-.03-.93-.07-1.39-.11l-1.38-.12c-.46-.05-.91-.11-1.37-.16-.45-.06-.91-.1-1.36-.17-.45-.07-.9-.13-1.35-.2-.89-.13-1.79-.28-2.69-.45-3.56-.69-6.99-1.65-10.23-2.91-3.24-1.26-6.28-2.82-9.03-4.7-2.74-1.87-5.18-4.08-7.14-6.52-.98-1.22-1.84-2.5-2.58-3.81-.18-.33-.35-.66-.53-.99-.17-.33-.32-.67-.48-1-.08-.16-.15-.34-.23-.51-.08-.17-.15-.35-.22-.53-.14-.35-.26-.7-.38-1.05-.91-2.82-1.13-5.6-.95-8.13.19-2.54.77-4.86 1.57-6.91.4-1.02.86-1.98 1.36-2.87.5-.88 1.05-1.7 1.62-2.44 1.14-1.48 2.39-2.66 3.63-3.55 1.24-.89 2.46-1.49 3.55-1.88 1.09-.39 2.05-.57 2.83-.66.77-.09 1.37-.08 1.76-.08l.6.03s-.2.03-.59.07c-.39.06-.97.16-1.69.37-.73.21-1.61.53-2.56 1.06-.95.52-1.98 1.25-2.96 2.23s-1.93 2.2-2.73 3.66a19.627 19.627 0 0 0-1.9 5.02c-.43 1.87-.63 3.91-.48 6.03.15 2.11.65 4.28 1.62 6.28.06.12.13.25.19.37s.13.24.2.37c.06.12.14.24.21.36l.11.18.12.19c.16.25.31.5.49.74.17.24.35.48.52.73.72.96 1.53 1.88 2.43 2.74 1.8 1.73 3.95 3.24 6.36 4.49s5.08 2.26 7.93 3.02c2.84.76 5.86 1.27 8.97 1.54.39.04.78.06 1.17.09.19.02.39.03.59.03.2 0 .4.02.6.03l1.2.06 1.21.03c.4 0 .81.02 1.22.02.41 0 .82 0 1.22-.01h.61c.2 0 .41 0 .62-.01.41-.02.82-.03 1.23-.05 1.65-.06 3.31-.2 4.98-.37l.31-.03.31-.04c.21-.03.42-.05.63-.08.42-.05.84-.1 1.25-.16.42-.06.84-.13 1.25-.19.21-.03.42-.06.63-.1.21-.03.42-.06.63-.1 3.35-.58 6.71-1.39 10.03-2.42l.62-.19.62-.21c.41-.14.83-.28 1.24-.42.21-.07.41-.15.62-.22l.62-.23c.41-.15.82-.3 1.23-.46.41-.16.81-.33 1.22-.49l.61-.25c.2-.08.41-.17.61-.26l.61-.26.61-.27.61-.27.61-.28c6.83-3.18 13.54-7.34 20.34-11.74 6.8-4.39 13.69-9.03 20.99-13.12 3.65-2.04 7.4-3.94 11.27-5.58 3.86-1.64 7.85-3 11.89-3.96 4.04-.97 8.13-1.52 12.11-1.63.25 0 .5-.01.75-.02.25 0 .5-.01.74 0 .5 0 .99 0 1.48.02l1.47.06c.49.02.97.07 1.45.1s.96.08 1.43.13.95.1 1.41.17c.47.07.93.13 1.39.2.46.08.91.16 1.37.23 3.62.66 6.99 1.61 10.08 2.72.19.07.39.14.58.21.19.07.38.14.57.22.38.14.75.29 1.12.43.74.3 1.47.59 2.17.9.35.15.7.31 1.05.46.34.16.69.32 1.02.47.17.08.34.16.51.23.17.08.33.16.5.24.33.16.66.32.98.48a95.336 95.336 0 0 1 12.65 7.64 79.42 79.42 0 0 1 4.33 3.31c1.23 1.01 2.24 1.93 3.03 2.73 1.57 1.6 2.25 2.73 1.91 3.31zm77.98-44.14c-.22.63-1.21.93-2.88.92-.42 0-.87-.02-1.37-.06-.25-.02-.51-.05-.77-.09l-.82-.12c-.57-.09-1.18-.2-1.82-.33-.32-.07-.65-.13-.99-.21-.33-.08-.68-.17-1.03-.26-.7-.19-1.44-.39-2.21-.61-.19-.06-.39-.11-.58-.17-.19-.06-.39-.13-.58-.19-.39-.13-.79-.27-1.2-.4-.41-.14-.82-.28-1.25-.43-.42-.15-.85-.3-1.28-.46-.86-.33-1.74-.68-2.65-1.04-3.62-1.48-7.55-3.3-11.64-5.36-4.09-2.07-8.36-4.36-12.71-6.69-4.35-2.33-8.8-4.7-13.29-6.88-1.13-.56-2.23-1.08-3.35-1.6-1.12-.51-2.24-1.01-3.37-1.49-2.25-.96-4.52-1.84-6.78-2.65-2.26-.8-4.52-1.52-6.76-2.15-2.23-.62-4.45-1.15-6.61-1.58-4.57-.91-9.08-1.37-13.41-1.29-4.33.08-8.48.68-12.3 1.83-.48.13-.95.3-1.42.45-.23.08-.47.16-.7.23-.23.09-.46.17-.69.26-.23.09-.46.17-.68.26-.11.04-.23.09-.34.13l-.33.14c-.22.09-.44.19-.66.28-.22.1-.43.2-.65.3-.44.19-.86.41-1.28.62-.21.1-.42.22-.63.33-.21.11-.41.22-.62.33-.2.12-.4.23-.61.35-.2.12-.4.23-.6.35-.39.24-.79.47-1.17.73a42.501 42.501 0 0 0-7.9 6.61c-2.2 2.34-3.95 4.72-5.35 6.94-.69 1.11-1.29 2.18-1.81 3.19-.51 1.01-.96 1.95-1.32 2.82-.74 1.73-1.22 3.13-1.52 4.09-.08.24-.14.45-.19.64-.05.18-.1.34-.14.46-.07.25-.11.38-.11.38s0-.13.01-.39c0-.13 0-.29.01-.49 0-.19 0-.42.03-.67.02-.25.03-.54.05-.85.02-.32.06-.66.09-1.03.02-.19.03-.38.06-.58.03-.2.05-.41.08-.62.03-.21.06-.44.09-.66.04-.23.08-.46.12-.7.16-.96.38-2.03.67-3.19.3-1.16.66-2.41 1.12-3.73.94-2.64 2.26-5.6 4.15-8.65 1.89-3.05 4.35-6.19 7.49-9.14.1-.09.2-.19.29-.28l.3-.27c.2-.18.41-.36.61-.54.2-.18.42-.36.63-.53.21-.18.43-.36.64-.53.88-.69 1.79-1.39 2.75-2.03.95-.66 1.97-1.28 3-1.87l.78-.45c.27-.14.53-.28.8-.42l.81-.42c.13-.07.27-.14.41-.2.14-.06.28-.13.42-.19a47.67 47.67 0 0 1 7.04-2.68c2.46-.72 5.03-1.27 7.66-1.64 5.26-.74 10.74-.76 16.22-.16 5.76.63 11.48 1.97 16.97 3.79 2.75.91 5.44 1.95 8.07 3.08.33.14.66.28.98.43.32.15.65.3.97.44.32.15.65.29.97.45.32.15.64.31.96.46.32.15.64.31.95.46.31.16.62.31.93.47.62.32 1.23.63 1.85.94 4.89 2.55 9.44 5.28 13.68 7.95 4.24 2.68 8.17 5.3 11.79 7.73.9.61 1.79 1.2 2.65 1.79.87.58 1.71 1.15 2.53 1.71.82.55 1.63 1.08 2.41 1.62.39.26.77.53 1.16.78.38.25.76.5 1.13.75 2.95 2 5.55 3.7 7.69 5.21 2.15 1.47 3.83 2.76 4.94 3.78 1.1 1.04 1.61 1.91 1.39 2.54z" class="cls-1"/><path d="M66.42 76.48c-.63.63-1.43 1.02-2.33 1.22-.45.1-.92.16-1.41.18-.5.03-1.02.02-1.56-.02-2.15-.15-4.59-.73-7.2-1.4-.33-.08-.66-.16-.99-.25-.17-.04-.33-.09-.5-.14-.17-.04-.34-.08-.51-.13a9.67 9.67 0 0 1-.51-.14c-.17-.04-.33-.1-.51-.14-.34-.08-.69-.17-1.03-.27l-.26-.07-.26-.06c-.17-.04-.35-.09-.52-.13-.35-.09-.69-.2-1.05-.28-.35-.09-.7-.18-1.05-.28-.36-.08-.71-.17-1.06-.27-2.84-.74-5.71-1.45-8.43-2.17l-.54-.15c-.18-.04-.36-.09-.54-.13-.18-.05-.36-.09-.54-.14-.18-.05-.36-.1-.54-.14-.36-.08-.72-.17-1.07-.26l-.27-.07-.27-.06c-.18-.04-.36-.08-.53-.12-.71-.18-1.42-.31-2.13-.48-.18-.04-.35-.07-.53-.11-.18-.03-.35-.07-.53-.1-.35-.07-.7-.15-1.05-.2-2.77-.51-5.44-.84-7.79-1.01-2.35-.16-4.37-.17-5.8-.15h-.51c-.16 0-.31.01-.45.02-.28 0-.52.02-.71.02-.39 0-.6.01-.6.01s.12-.17.35-.48c.12-.16.26-.35.43-.58.09-.11.18-.24.28-.37.05-.07.1-.13.16-.2l.17-.2c.48-.55 1.08-1.26 1.84-1.99.38-.37.78-.78 1.24-1.17.23-.2.46-.4.71-.61.12-.1.25-.21.37-.32.13-.1.26-.2.39-.31 2.11-1.67 4.88-3.41 8.23-4.8.42-.19.85-.34 1.28-.5l.66-.24c.22-.08.45-.16.67-.23.9-.28 1.84-.58 2.8-.8.24-.06.48-.12.73-.17.12-.03.24-.06.37-.08l.37-.07c.49-.09.99-.19 1.5-.27.51-.08 1.02-.14 1.53-.21l.78-.09.78-.06c.28-.02.55-.04.83-.05.28-.01.56-.03.83-.03h1.68c.28 0 .56.03.84.04l.84.06c.28.02.56.04.84.08l.84.11c1.12.14 2.23.37 3.32.61.54.14 1.08.29 1.62.44l.4.12c.13.04.26.09.4.13.26.09.53.18.79.27.26.09.52.18.78.28.26.09.51.2.76.31.5.21 1.01.42 1.49.65.49.24.96.47 1.43.72.12.06.23.12.35.18.11.07.23.13.34.2.23.13.45.26.68.4.9.52 1.73 1.11 2.53 1.68.4.29.77.61 1.14.91.18.15.37.31.54.46.18.15.35.32.52.47.34.32.66.64.97.95.16.16.31.32.45.49.15.16.29.33.43.49.28.33.54.65.79.97.24.33.47.66.68.98.21.33.42.64.59.96.18.32.34.64.49.96.15.31.28.62.4.92.11.31.21.61.29.91.16.59.27 1.14.31 1.68.03.54 0 1.04-.08 1.5-.17.93-.57 1.71-1.21 2.34zm432.8-37.04c-2.83 4.55-18.46-2.16-28.02-9.95-10.07-8.22-16.71-17.82-16.71-17.82s11.47 1.9 23.38 7.08c12.53 5.44 24.17 16.15 21.34 20.7z" class="cls-1"/></g></svg>