<svg xmlns="http://www.w3.org/2000/svg" viewBox="0 0 64 64"><path d="M59 24v-1c0-1.654-1.346-3-3-3h-6c-1.654 0-3 1.346-3 3v1h-1.219l-1.054-4.212A4.992 4.992 0 0039.877 16H24.123a4.994 4.994 0 00-4.851 3.788L18.219 24H5c-2.757 0-5 2.243-5 5v30c0 2.757 2.243 5 5 5h54c2.757 0 5-2.243 5-5V29c0-2.757-2.243-5-5-5zm-10-1a1 1 0 011-1h6a1 1 0 011 1v1h-8v-1zM2 29c0-1.654 1.346-3 3-3h3c2.206 0 4 1.794 4 4s-1.794 4-4 4H2v-5zm60 30c0 1.654-1.346 3-3 3H5a2.996 2.996 0 01-2.816-2H8c2.757 0 5-2.243 5-5V38.414l.707-.707-1.414-1.414-1 1A.996.996 0 0011 38v17c0 1.654-1.346 3-3 3H2V36h6c3.309 0 6-2.691 6-6a5.965 5.965 0 00-1.541-4H19a1 1 0 00.97-.758l1.242-4.97A2.998 2.998 0 0124.123 18h15.754c1.379 0 2.576.935 2.911 2.272l1.242 4.97A1 1 0 0045 26h14c1.654 0 3 1.346 3 3v30z" fill="white"/><path d="M32 26c-9.374 0-17 7.626-17 17s7.626 17 17 17 17-7.626 17-17-7.626-17-17-17zm0 32c-8.272 0-15-6.729-15-15s6.728-15 15-15c8.271 0 15 6.729 15 15s-6.729 15-15 15z" fill="white"/><path d="M32 30c-7.168 0-13 5.832-13 13s5.832 13 13 13 13-5.832 13-13-5.832-13-13-13zm0 24c-6.065 0-11-4.935-11-11s4.935-11 11-11 11 4.935 11 11-4.935 11-11 11z" fill="white"/><path d="M32.89 38.56l-.855.569-.855-.569a3.343 3.343 0 00-4.204.416 3.336 3.336 0 000 4.711l4.351 4.352a.997.997 0 001.414 0l4.352-4.352a3.337 3.337 0 000-4.712 3.342 3.342 0 00-4.203-.415zm2.789 3.712l-3.645 3.645-3.645-3.645a1.333 1.333 0 011.68-2.049l1.409.94a.995.995 0 001.109 0l1.41-.94a1.333 1.333 0 011.682 2.049z" fill="white"/><circle cx="7" cy="30" r="2" fill="white"/><path d="M31 20h2v2h-2zM35 20h2v2h-2zM27 20h2v2h-2zM52 47c2.206 0 4-1.794 4-4s-1.794-4-4-4a1 1 0 00-1 1v6a1 1 0 001 1zm1-5.731a1.998 1.998 0 010 3.462v-3.462zM.684 9.948a11.705 11.705 0 017.368 7.368.998.998 0 001.896 0 11.705 11.705 0 017.368-7.368.998.998 0 000-1.896A11.705 11.705 0 019.948.684a.998.998 0 00-1.896 0A11.705 11.705 0 01.684 8.052a.998.998 0 000 1.896zM9 3.498A13.769 13.769 0 0014.502 9 13.769 13.769 0 009 14.502 13.769 13.769 0 003.498 9 13.769 13.769 0 009 3.498zM57 52h-4c-1.654 0-3 1.346-3 3v2c0 1.654 1.346 3 3 3h4c1.654 0 3-1.346 3-3v-2c0-1.654-1.346-3-3-3zm1 5a1 1 0 01-1 1h-4a1 1 0 01-1-1v-2a1 1 0 011-1h4a1 1 0 011 1v2zM53 31h7v2h-7z" fill="white"/></svg>