<svg xmlns="http://www.w3.org/2000/svg" width="50" height="50" viewBox="0 0 50 50" fill="none">
<g clip-path="url(#clip0_141_590)">
<path d="M49.4783 43.1506C48.4995 42.5113 47.5669 42.1787 46.5432 42.1039C45.4582 42.0245 44.5185 41.3178 44.1492 40.3033L43.4579 38.4039C43.3195 38.0237 42.8993 37.8277 42.5191 37.9661C42.1391 38.1045 41.9431 38.5248 42.0814 38.9049L42.7728 40.8043C43.339 42.36 44.777 43.4436 46.4364 43.5649C47.0189 43.6075 47.5534 43.7591 48.1104 44.0452L39.74 47.0917C39.9828 46.5145 40.2948 46.0549 40.7137 45.6478C41.9068 44.4881 42.3118 42.7337 41.7456 41.1781L38.8006 33.0867C38.9748 33.035 39.1484 32.9797 39.3205 32.9171C39.4923 32.8546 39.6613 32.7863 39.8281 32.7137L40.8467 35.5122C40.9549 35.8096 41.2357 35.9943 41.5351 35.9943C41.6183 35.9943 41.7028 35.9801 41.7854 35.95C42.1656 35.8116 42.3615 35.3913 42.2231 35.0112L41.1314 32.012C42.6382 31.0313 43.8324 29.6076 44.5259 27.92C45.4786 25.6017 45.4102 22.9725 44.3381 20.7068L38.7498 8.89502C38.4168 8.1917 37.6145 7.86201 36.8831 8.12803L25.2535 12.3609C25.1639 12.3936 25.0794 12.4339 25.0001 12.4807C24.9208 12.4339 24.8362 12.3935 24.7466 12.3608L21.2406 11.0848C20.8601 10.9465 20.4401 11.1425 20.3019 11.5226C20.1635 11.9026 20.3596 12.323 20.7396 12.4613L24.2455 13.7374C24.2618 13.7434 24.2708 13.7605 24.2664 13.7772L22.9036 18.9795C22.3207 18.4197 21.6238 17.9814 20.8556 17.7035C19.2782 17.1324 17.5276 17.2833 16.0758 18.0743C15.4696 16.536 14.2235 15.2972 12.647 14.7233C11.8843 14.4457 11.0735 14.3347 10.2721 14.3878L12.5744 9.52158C12.5818 9.50596 12.5995 9.49873 12.6159 9.50459L17.3494 11.2274C17.7299 11.3657 18.1499 11.1697 18.2882 10.7897C18.4266 10.4096 18.2305 9.98926 17.8505 9.85088L13.117 8.12803C12.3859 7.86201 11.5833 8.1916 11.2504 8.89512L5.66182 20.7068C4.58984 22.9725 4.52148 25.6017 5.47422 27.92C6.16768 29.6075 7.36191 31.0312 8.86855 32.0119L5.85068 40.3032C5.48154 41.3177 4.54189 42.0244 3.45683 42.1038C2.4331 42.1787 1.50039 42.5113 0.521581 43.1505C0.154393 43.3902 -0.0424819 43.8096 0.00761581 44.2448C0.0577135 44.6789 0.343944 45.0414 0.754589 45.1909L10.3928 48.6989C10.5222 48.746 10.6555 48.769 10.7876 48.769C11.0749 48.769 11.3557 48.6603 11.573 48.4545C11.8913 48.1534 12.0101 47.7056 11.8829 47.2858C11.5439 46.167 11.0433 45.3127 10.3072 44.5974C9.52715 43.8392 9.26152 42.6937 9.63076 41.6792L12.6487 33.3872C13.0082 33.431 13.3694 33.4541 13.7305 33.4541C15.1616 33.4541 16.5887 33.1115 17.8789 32.4352C20.0989 31.2716 21.7366 29.2136 22.3718 26.7889L25 16.7572L27.6279 26.7888C28.0882 28.5458 29.0544 30.0985 30.4221 31.2793C30.7283 31.5436 31.1907 31.5098 31.4551 31.2035C31.7194 30.8974 31.6855 30.4349 31.3794 30.1705C30.237 29.1843 29.4298 27.8865 29.0449 26.4176L28.4262 24.0558C28.7264 24.1037 29.0291 24.1292 29.3323 24.1292C30.008 24.1292 30.6847 24.0109 31.3325 23.7737C33.2115 23.0862 34.6189 21.454 35.0306 19.4977C35.0551 19.4314 35.0696 19.3626 35.0742 19.2934C35.387 17.8104 36.4139 16.6192 37.8401 16.0975C38.7022 15.7818 39.6105 15.7454 40.4846 15.9869L43.0141 21.3332C43.9103 23.2273 43.9675 25.4251 43.171 27.3632C42.3745 29.3013 40.7885 30.8239 38.8193 31.5405C37.3522 32.0747 35.7852 32.1382 34.2877 31.7244C33.8973 31.6167 33.4943 31.8454 33.3865 32.2353C33.2788 32.6252 33.5075 33.0286 33.8974 33.1363C34.6772 33.3519 35.4725 33.4592 36.2669 33.4592C36.6295 33.4592 36.9917 33.4356 37.3523 33.3908L40.3689 41.6791C40.7382 42.6935 40.4728 43.839 39.6925 44.5972C38.9565 45.3125 38.4559 46.1668 38.1168 47.2857C37.9897 47.7055 38.1084 48.1532 38.4267 48.4544C38.6441 48.6602 38.9249 48.769 39.2122 48.769C39.3442 48.769 39.4776 48.746 39.6069 48.6989L49.2452 45.1909C49.656 45.0414 49.9422 44.6788 49.9921 44.2447C50.0425 43.8095 49.8454 43.3902 49.4783 43.1506ZM12.1459 16.1C13.4354 16.5693 14.428 17.634 14.8246 18.9358C13.6754 19.6997 12.2531 19.8778 10.9364 19.4011C10.0215 19.0699 9.25225 18.4475 8.7376 17.6312L9.51387 15.9905C10.3838 15.7515 11.2877 15.7876 12.1459 16.1ZM8.25439 41.1781C7.68828 42.7337 8.09336 44.4881 9.28643 45.6478C9.70527 46.0549 10.0173 46.5145 10.2601 47.0917L1.88965 44.0451C2.44658 43.759 2.98105 43.6074 3.56367 43.5648C5.22305 43.4435 6.66103 42.36 7.22725 40.8043L10.1721 32.7138C10.3388 32.7863 10.5078 32.8546 10.6796 32.9172C10.8515 32.9798 11.0252 33.0348 11.1996 33.0863L8.25439 41.1781ZM20.9551 26.4176C20.424 28.4445 19.0551 30.165 17.1991 31.1377C15.3433 32.1105 13.1496 32.2572 11.1806 31.5405C9.21152 30.8239 7.62549 29.3013 6.829 27.3633C6.03262 25.4252 6.08975 23.2273 6.98584 21.3332L8.02988 19.1266C8.67363 19.8675 9.49785 20.4382 10.4376 20.7783C12.3189 21.4594 14.4463 21.1138 16.0191 19.8797C16.0806 19.8446 16.1359 19.8013 16.184 19.7512C17.3769 18.8162 18.9292 18.5639 20.3569 19.0809C21.2204 19.3933 21.9396 19.9491 22.4538 20.6959L20.9551 26.4176ZM30.8291 22.3981C29.9153 22.7326 28.926 22.7502 28.007 22.4557L27.5471 20.7C28.0599 19.9577 28.7756 19.4043 29.6339 19.0919C30.9232 18.6225 32.3681 18.8001 33.5086 19.5425C33.1194 20.8662 32.1443 21.9169 30.8291 22.3981ZM37.3366 14.7219C35.761 15.2983 34.517 16.5392 33.9134 18.0783C32.4603 17.2896 30.7094 17.1414 29.1329 17.7153C28.3705 17.9929 27.6774 18.4278 27.0975 18.9833L25.7337 13.7773C25.7293 13.7606 25.7383 13.7434 25.7546 13.7375L37.3842 9.50469C37.4005 9.49883 37.4184 9.50616 37.4258 9.52168L39.7256 14.3825C38.9192 14.3284 38.1037 14.441 37.3366 14.7219Z" fill="white"/>
<path d="M47.4344 23.9114C47.4336 23.9114 47.4329 23.9114 47.4321 23.9114C47.0287 23.9114 46.7011 24.2379 46.6998 24.6417C46.6985 25.0462 47.0255 25.3751 47.4301 25.3763L48.4622 25.3794H48.4643C48.8679 25.3794 49.1955 25.0529 49.1968 24.6491C49.198 24.2446 48.8711 23.9157 48.4665 23.9145L47.4344 23.9114Z" fill="white"/>
<path d="M46.9931 22.7967C47.1212 22.7967 47.251 22.7631 47.3687 22.6925L48.2641 22.1563C48.6111 21.9484 48.7239 21.4986 48.5161 21.1516C48.3081 20.8045 47.8583 20.6918 47.5114 20.8996L46.6161 21.4358C46.269 21.6437 46.1562 22.0935 46.3641 22.4405C46.5014 22.6697 46.744 22.7967 46.9931 22.7967Z" fill="white"/>
<path d="M46.5982 27.8471L47.4906 28.3887C47.6095 28.4608 47.7405 28.4951 47.87 28.4951C48.1175 28.4951 48.359 28.3696 48.4968 28.1427C48.7066 27.7969 48.5965 27.3464 48.2507 27.1365L47.3583 26.5948C47.0124 26.385 46.5621 26.4951 46.3521 26.8409C46.1422 27.1867 46.2524 27.6372 46.5982 27.8471Z" fill="white"/>
<path d="M1.53535 25.3807H1.53887L2.571 25.3759C2.97549 25.3739 3.30186 25.0445 3.3 24.64C3.29795 24.2356 2.97315 23.9075 2.56416 23.911L1.53203 23.9158C1.12754 23.9178 0.801173 24.2472 0.803028 24.6517C0.804884 25.055 1.13242 25.3807 1.53535 25.3807Z" fill="white"/>
<path d="M1.73154 22.1572L2.62783 22.692C2.74541 22.7621 2.87471 22.7955 3.00244 22.7955C3.25185 22.7955 3.49502 22.668 3.63203 22.4383C3.83935 22.0909 3.72568 21.6413 3.37832 21.434L2.48203 20.8992C2.13467 20.692 1.68496 20.8055 1.47783 21.1529C1.2706 21.5003 1.38428 21.9499 1.73154 22.1572Z" fill="white"/>
<path d="M2.64482 26.5942L1.75332 27.1374C1.40791 27.3479 1.29853 27.7985 1.50889 28.1439C1.64687 28.3704 1.88799 28.4954 2.13506 28.4954C2.26494 28.4954 2.39648 28.4608 2.51553 28.3884L3.40703 27.8452C3.75244 27.6348 3.86182 27.1841 3.65146 26.8387C3.44092 26.4933 2.99033 26.3838 2.64482 26.5942Z" fill="white"/>
<path d="M24.051 10.2801C24.3151 10.5434 24.6616 10.6749 25.008 10.6749C25.356 10.6749 25.7039 10.5422 25.9684 10.2769L29.5034 6.72998C30.7584 5.47071 30.755 3.4251 29.4958 2.17002H29.4957C28.2564 0.934965 26.2555 0.918754 24.996 2.11885C23.7325 0.922758 21.7316 0.945902 20.4964 2.18516C19.2413 3.44444 19.2448 5.49004 20.5041 6.74502L24.051 10.2801ZM21.5341 3.21914C21.8658 2.88623 22.3073 2.70245 22.7772 2.70166H22.7803C23.2491 2.70166 23.69 2.88389 24.0223 3.21495L24.4806 3.67178C24.7671 3.95733 25.2308 3.95664 25.5164 3.67002L25.9731 3.21172C26.6583 2.52452 27.7744 2.52276 28.4616 3.20762H28.4615C29.1487 3.89258 29.1507 5.00879 28.4657 5.696L25.0077 9.16563L21.5381 5.70752C21.2052 5.37579 21.0214 4.93418 21.0206 4.46426C21.0198 3.99434 21.2021 3.55205 21.5341 3.21914Z" fill="white"/>
</g>
<defs>
<clipPath id="clip0_141_590">
<rect width="50" height="50" fill="white"/>
</clipPath>
</defs>
</svg>