<svg xmlns="http://www.w3.org/2000/svg" id="Layer_2" data-name="Layer 2" viewBox="0 0 87.92 83.61"><defs><style>.cls-1{fill:#c9c9c9}</style></defs><g id="OBJECTS"><path d="M72.14 5.85s.11.31.23 1.04c.14.73.29 1.82.43 3.24.28 2.84.4 6.99-.18 11.99-.59 4.8-1.86 10.38-4.24 16.03a58.728 58.728 0 0 1-8.58 14.2c-3.48 4.27-7.67 8.1-12.24 11.18-4.75 3.21-9.89 5.63-14.94 7.17-5.85 1.78-11.48 2.6-16.3 2.94-4.97.35-9.09.08-11.92-.31-1.41-.21-2.52-.4-3.25-.59-.74-.18-1.13-.28-1.12-.31 0-.02.4.04 1.15.18.74.15 1.84.31 3.25.49 2.82.32 6.92.53 11.85.14 4.78-.39 10.36-1.25 16.15-3.05 4.98-1.55 10.08-3.91 14.78-7.09 4.53-3.05 8.62-6.88 12.07-11.09 3.6-4.38 6.4-9.24 8.46-14.03 2.38-5.56 3.75-11.04 4.4-15.8.62-4.89.6-8.98.41-11.83-.11-1.42-.2-2.54-.3-3.31-.08-.77-.12-1.18-.11-1.21z" class="cls-1"/><path d="M26.34 65.3c.1.09-.18.52-.64 1.12-.22.29-.49.63-.76 1-.24.32-.53.63-.77.99-.23.35-.45.71-.66 1.07-.22.37-.4.76-.59 1.11-.22.41-.42.79-.58 1.12-.33.68-.55 1.14-.65 1.11-.09-.03.02-.52.26-1.26.12-.36.28-.77.48-1.2.17-.38.39-.76.6-1.15.21-.37.38-.79.62-1.14.26-.37.5-.73.77-1.05.3-.37.66-.64.93-.91.55-.54.94-.86.99-.82zm3.41 16.34c0 .12-.84.15-2.09-.19-.6-.17-1.29-.4-2-.75-.62-.28-1.21-.7-1.82-1.11-.58-.4-1.15-.84-1.67-1.32-.53-.51-1.05-1.01-1.46-1.55-.49-.61-.86-1.24-1.15-1.78-.6-1.13-.8-1.93-.73-1.96.1-.04.41.71 1.08 1.75.33.5.73 1.08 1.22 1.65.41.5.89 1.01 1.4 1.49.5.46 1.09.83 1.65 1.22.58.4 1.18.75 1.75 1.04.66.36 1.28.68 1.84.9 1.16.42 1.96.55 1.96.64z" class="cls-1"/><path d="M26.77 76.78c.02.14-.17.27-.43.4-.17.08-.31.15-.43.21-.13.06-.3.09-.44.17-.14.08-.27.18-.4.27-.13.1-.25.21-.36.31-.14.11-.27.21-.38.31-.22.2-.39.34-.47.29-.08-.04-.02-.25.14-.54.08-.14.19-.3.32-.45.12-.13.27-.25.41-.36.14-.11.26-.28.42-.37.17-.09.34-.18.51-.24.2-.07.41-.03.56-.05.33-.04.54-.02.55.05zm7.6-6.81c-.12-.08.49-.8 1.42-1.88.45-.52.96-1.13 1.48-1.82.44-.59.93-1.22 1.33-1.92.38-.67.71-1.39.97-2.11.27-.75.43-1.52.53-2.25.13-.84.14-1.64.08-2.31-.12-1.39-.51-2.25-.41-2.3.06-.04.58.79.81 2.24.11.7.15 1.54.05 2.43-.08.77-.28 1.57-.55 2.36-.26.76-.54 1.54-.94 2.24-.42.72-.87 1.4-1.35 2.01-.55.7-1.16 1.25-1.65 1.74-1.01 1.01-1.72 1.61-1.77 1.58z" class="cls-1"/><path d="M39.43 63.38c-.13.04-.32-.27-.62-.7-.15-.21-.32-.45-.53-.72-.17-.23-.31-.5-.51-.74-.19-.23-.4-.45-.6-.68-.21-.23-.44-.43-.64-.64-.19-.2-.44-.45-.64-.65-.39-.38-.65-.65-.59-.73.05-.08.38.09.85.41.23.15.48.35.75.57.23.19.45.43.67.66.22.22.48.41.68.66.2.26.4.51.57.76.19.29.29.62.4.87.24.53.28.91.22.93zm5.88 1.39c-.11-.1.35-.61.97-1.44.3-.4.64-.87.95-1.41.28-.46.58-.95.82-1.49.22-.52.4-1.07.55-1.61.15-.57.25-1.14.32-1.67.1-.62.14-1.2.15-1.71.02-1.03-.06-1.71.04-1.74.08-.02.28.65.37 1.72.04.52.05 1.13-.02 1.78-.05.57-.18 1.16-.33 1.75-.15.57-.27 1.17-.51 1.71-.25.56-.52 1.11-.83 1.59-.35.56-.8.99-1.15 1.37-.72.78-1.29 1.18-1.33 1.15z" class="cls-1"/><path d="M48.98 53.71c.09.11-.49.56-1.27 1.35-.37.38-.78.84-1.16 1.39-.33.47-.69.97-.95 1.54-.25.55-.44 1.13-.58 1.72-.15.61-.2 1.22-.23 1.8-.04.67-.02 1.29.05 1.83.13 1.1.36 1.8.26 1.84-.08.03-.42-.64-.66-1.76-.12-.55-.2-1.2-.19-1.91 0-.61.1-1.26.24-1.9.14-.62.27-1.27.55-1.85.28-.6.61-1.17.98-1.66.43-.57.95-.99 1.37-1.35.87-.74 1.55-1.06 1.59-1.02zm3.82 5.35c-.14-.06.42-1.02 1.18-2.56.35-.74.76-1.61 1.11-2.59.32-.83.65-1.73.9-2.67.23-.91.41-1.84.55-2.77.13-.96.2-1.91.23-2.81.05-1.04.03-2-.01-2.82-.11-1.7-.3-2.8-.19-2.82.08-.02.38 1.06.6 2.78.1.83.17 1.81.15 2.87 0 .92-.1 1.89-.23 2.87-.13.94-.24 1.92-.49 2.84-.26.96-.54 1.9-.89 2.74-.39.99-.9 1.84-1.31 2.57-.43.75-.8 1.35-1.1 1.75-.29.4-.47.63-.5.61z" class="cls-1"/><path d="M59.94 41.55c.13.02.18.42.07 1.01-.06.28-.15.61-.28.95-.11.3-.3.58-.45.89-.15.29-.31.59-.49.86-.19.28-.36.57-.57.81-.23.28-.48.51-.7.7-.44.4-.79.58-.85.51-.07-.07.19-.34.54-.79.17-.22.37-.47.57-.75.18-.24.36-.5.54-.77.17-.27.25-.58.4-.85.15-.29.28-.58.4-.85.15-.31.33-.58.44-.84.21-.53.31-.89.38-.88z" class="cls-1"/><path d="M56.68 47.14c-.05.12-.3.14-.6.02-.15-.06-.31-.15-.48-.26-.15-.09-.25-.25-.39-.38-.13-.12-.27-.24-.38-.38-.12-.14-.25-.27-.34-.42-.11-.17-.17-.34-.23-.49-.12-.3-.13-.53-.04-.57.09-.04.2.12.39.35.12.14.22.26.32.38s.2.25.31.38c.11.12.28.18.4.29.12.12.25.21.37.32.13.12.22.29.33.38.23.19.39.31.36.37zm11.05-8.17c-.14 0-.22-.52-.26-1.32-.03-.43-.05-.86-.08-1.32-.03-.42 0-.87-.05-1.32-.04-.44-.11-.88-.17-1.31-.06-.45-.16-.89-.24-1.3-.08-.43-.16-.91-.23-1.31-.15-.78-.25-1.3-.16-1.33.09-.03.29.45.55 1.22.12.37.25.82.37 1.3.1.42.17.87.24 1.33.07.44.21.88.25 1.33.04.47.08.92.09 1.35 0 .5-.08.96-.11 1.35-.06.8-.14 1.32-.2 1.33z" class="cls-1"/><path d="M67.69 35.03c-.1.09-.33 0-.59-.23-.12-.11-.26-.24-.39-.39-.12-.13-.2-.31-.32-.46-.12-.14-.24-.28-.35-.43-.11-.15-.24-.29-.34-.44-.11-.17-.2-.34-.28-.49-.16-.3-.23-.52-.15-.58.08-.06.23.09.47.32.12.11.25.25.38.4.12.13.22.29.34.43.11.14.29.24.4.38.11.15.24.29.34.44.12.17.16.37.25.51.17.29.28.47.23.52zm4.33-11c-.14.04-.33-.69-.64-1.78-.15-.53-.33-1.14-.57-1.79-.2-.56-.39-1.17-.65-1.76-.26-.56-.55-1.13-.86-1.67-.31-.57-.68-1.09-1.01-1.59-.38-.58-.76-1.1-1.1-1.53-.41-.52-.76-.93-.96-1.19l.08-.09c.15.17.22.28.2.32-.03.03-.14-.03-.33-.16l.19-.21c.25.21.65.57 1.12 1.07.39.41.81.91 1.23 1.48.36.5.71 1.05 1.04 1.63.32.55.69 1.1.95 1.69.26.61.52 1.22.7 1.81.22.68.3 1.34.4 1.89.21 1.13.25 1.88.2 1.9z" class="cls-1"/><path d="M71.96 23.92c-.04.11-.77-.14-1.69-.86-.44-.35-.93-.79-1.4-1.34-.41-.46-.74-1.03-1.1-1.59-.33-.55-.64-1.12-.88-1.72-.24-.62-.48-1.23-.6-1.83-.16-.69-.21-1.35-.24-1.91-.04-1.15.14-1.89.22-1.88.11 0 .05.74.19 1.84.07.53.17 1.16.36 1.81.14.57.34 1.16.58 1.75.24.57.59 1.08.9 1.6.33.54.69 1.04 1.06 1.49.41.53.8 1.03 1.2 1.4.81.76 1.44 1.14 1.4 1.22zm4.96-17.29c.11.08-.04.43-.36.87-.16.21-.35.45-.56.71-.18.22-.43.41-.64.64-.2.22-.4.45-.61.67-.21.22-.41.46-.61.66-.24.23-.47.43-.67.61-.41.36-.71.56-.78.5-.07-.07.14-.34.48-.77.16-.21.36-.44.57-.7.19-.22.4-.43.61-.66.2-.22.35-.5.55-.72.21-.23.41-.46.61-.66.23-.24.51-.4.7-.58.39-.37.66-.61.71-.57zm-4.39 4.66c-.04.13-.28.18-.62.11a3.54 3.54 0 0 1-.54-.16c-.17-.06-.32-.19-.49-.28-.17-.08-.34-.16-.49-.26-.16-.1-.34-.18-.48-.29-.16-.12-.3-.26-.42-.38-.24-.24-.36-.44-.3-.51.06-.08.24.03.53.17.18.09.32.17.47.25.16.1.3.18.46.27.16.09.35.1.5.18.17.08.29.14.48.23.17.09.3.25.44.32.28.16.47.25.45.32z" class="cls-1"/><path d="M69.72 7.8c.09-.07.53.54.2 1.56-.16.47-.58.99-1.2 1.23-.53.22-1.23.14-1.73-.22-.49-.32-.86-.93-.77-1.56.08-.64.48-1.16.98-1.42.59-.32 1.25-.21 1.68 0 .91.47 1.06 1.17.99 1.18-.09.07-.35-.51-1.14-.8-.37-.13-.85-.16-1.25.09-.35.2-.66.58-.71 1-.05.41.25.77.57.99.34.25.78.26 1.15.13.44-.14.82-.43 1-.79.36-.77.15-1.38.23-1.39zm2.59-1.85c-.1-.11.57-.52.8-1.51.11-.46.08-1.04-.24-1.52-.26-.41-.7-.81-1.24-.95-.51-.14-1.1-.04-1.47.28-.39.31-.33.88-.14 1.38.21.58.57 1.07.95 1.41.79.71 1.54.84 1.51.95 0 .08-.81.07-1.77-.63-.45-.34-.91-.85-1.19-1.53-.12-.29-.21-.62-.2-.98 0-.36.18-.76.47-1.01.54-.48 1.31-.65 1.98-.48.7.18 1.3.62 1.65 1.2.42.69.32 1.46.14 1.99-.4 1.16-1.25 1.46-1.25 1.4zm4.52.92c.05-.14.75.37 1.73.03.44-.16.9-.58 1.06-1.14.14-.48.11-1.11-.07-1.7-.17-.57-.55-.96-1.08-1.06a1.53 1.53 0 0 0-1.45.52c-.41.45-.59 1.06-.55 1.58.08 1.08.63 1.69.53 1.76-.03.06-.72-.47-.94-1.71-.09-.59.04-1.36.55-1.97.43-.54 1.22-.85 1.96-.71.35.07.71.21 1 .47.29.26.47.6.58.92.2.67.32 1.39.12 2.07-.26.8-.95 1.25-1.53 1.41-.62.17-1.14.03-1.45-.12-.32-.16-.45-.32-.43-.34zM66.56 30.13c-.1-.12.62-.52 1.06-1.55.2-.48.31-1.13.11-1.71-.16-.49-.58-.96-1.16-1.11-.55-.15-1.15.02-1.59.39-.48.38-.7.97-.7 1.52-.01.65.25 1.25.62 1.63.8.8 1.67.82 1.64.93.03.07-.91.22-1.92-.63a2.65 2.65 0 0 1-.89-1.92c-.03-.7.29-1.47.88-1.95.53-.47 1.34-.79 2.1-.58.76.19 1.42.78 1.63 1.5.24.83-.03 1.58-.31 2.11-.61 1.13-1.48 1.41-1.49 1.37zM65.4 32.2c-.14.05-.29-.55-.86-1.11-.27-.26-.66-.48-1.11-.5-.38-.03-.82.05-1.08.36-.26.3-.36.75-.24 1.09.12.37.51.61.9.76.46.17.95.28 1.33.26.83-.04 1.12-.65 1.2-.61.04 0 .04.19-.13.43-.16.24-.52.51-1.01.59-.48.08-1.01.02-1.57-.15-.47-.15-1.02-.48-1.24-1.08-.2-.56-.12-1.22.28-1.68.42-.49 1.06-.67 1.6-.61.65.06 1.12.48 1.4.83.6.76.57 1.43.52 1.43zm-5.51 9.7c-.03-.15.79-.17 1.52-.96.34-.37.61-.91.57-1.53-.02-.52-.2-1.12-.62-1.53-.4-.39-.99-.61-1.49-.48-.54.13-.96.61-1.12 1.1-.21.59-.13 1.23.05 1.72.41 1.03 1.01 1.55.92 1.63-.04.06-.73-.37-1.3-1.47-.25-.54-.42-1.28-.19-2.05.19-.66.75-1.27 1.5-1.47.73-.2 1.54.04 2.06.55.54.53.84 1.25.85 1.95.02.82-.45 1.49-.89 1.88-.96.85-1.88.68-1.86.64zm-3.32-1.61c-.12-.09.43-.63.4-1.63-.01-.47-.2-.99-.65-1.35-.37-.31-.89-.57-1.43-.51-.51.05-1.01.35-1.29.77-.29.44-.31 1.02-.11 1.45.23.52.72.88 1.18 1.03.98.31 1.72.12 1.73.24.03.06-.68.39-1.85.16-.55-.13-1.2-.5-1.56-1.18-.32-.6-.26-1.39.13-1.98.36-.58.97-1.03 1.68-1.1.73-.06 1.43.19 1.92.63.59.52.74 1.29.69 1.85-.09 1.21-.85 1.69-.86 1.64zm-2.29 4.43c-.07-.03-.02-.19-.04-.44-.02-.24-.12-.6-.41-.88-.28-.27-.75-.46-1.29-.5-.45-.04-.95-.01-1.33.28-.37.28-.55.71-.46 1.14.08.46.41.83.8 1.03.46.24.99.27 1.42.18.9-.2 1.4-.65 1.47-.56.06.05-.36.61-1.36.96-.48.16-1.13.19-1.75-.09-.54-.23-1-.78-1.11-1.41-.15-.6.09-1.36.62-1.74.54-.41 1.21-.51 1.77-.44.66.08 1.22.42 1.56.83.37.42.42.92.35 1.22-.06.31-.21.44-.23.43zm-8.99 19.99c-.13-.03-.17-.37-.09-.86.04-.24.09-.51.16-.81.06-.25.18-.51.26-.78.07-.26.14-.53.22-.79.08-.27.14-.54.22-.79.1-.29.21-.55.3-.77.19-.46.36-.75.45-.72.09.03.04.34-.05.83-.04.24-.1.51-.17.8-.06.25-.15.52-.22.79-.07.26-.07.55-.14.81-.08.27-.14.54-.22.79-.09.29-.26.53-.34.76-.17.46-.29.76-.35.75zm26.4-41.31c-.11.08-.44-.25-.83-.81-.19-.27-.4-.6-.62-.96-.19-.31-.34-.67-.53-1.01-.19-.32-.38-.65-.57-.98l-.59-.96c-.18-.31-.39-.67-.57-.97-.35-.58-.59-.96-.52-1.02.07-.06.4.25.85.78.22.26.46.57.69.92.21.3.4.64.6.98.2.33.46.62.64.95.19.34.37.66.56.99.2.37.31.75.46 1.05.3.61.49 1.01.44 1.05zM39.88 55.62c-.11-.11.55-.54.79-1.52.11-.46.06-1.04-.22-1.55-.23-.43-.64-.86-1.16-.94-.49-.08-1.01.19-1.31.6-.32.43-.37 1.02-.27 1.52.11.59.44 1.1.79 1.48.35.39.73.6 1.02.67.29.07.48.01.5.06.02.03-.15.18-.52.17-.36 0-.85-.22-1.28-.61-.42-.37-.85-.92-1.03-1.65-.15-.62-.07-1.37.35-1.96.38-.55 1.08-1.02 1.84-.9.77.12 1.35.65 1.65 1.24.35.69.28 1.44.1 1.98-.41 1.15-1.24 1.46-1.24 1.41zm-3.95 3.18c-.03-.06.11-.17.06-.38-.03-.17-.31-.46-.62-.78-.3-.3-.69-.51-1.18-.51-.41 0-.87.11-1.17.47-.28.33-.41.81-.35 1.24.06.45.37.82.73 1.05.42.28.91.33 1.3.2.84-.26 1.1-.92 1.19-.86.09 0-.05.79-1.05 1.25-.46.21-1.15.22-1.72-.12-.49-.28-.9-.81-.99-1.43-.09-.58 0-1.24.41-1.72.42-.5 1.07-.75 1.65-.73.69.01 1.23.46 1.52.84.16.19.28.38.38.54.11.17.19.36.17.54-.04.37-.33.43-.33.39zm-9.92 7.07c.07-.14.69.3 1.7.29.47 0 1.05-.17 1.37-.57.27-.32.34-.9.14-1.42-.18-.5-.56-.95-1.02-1.2-.48-.27-1.05-.25-1.51-.07-.27.1-.5.27-.67.46-.15.18-.22.42-.23.67-.03.51.04.96.06 1.28.02.32 0 .5-.05.51-.05 0-.1-.16-.18-.46-.07-.3-.21-.74-.23-1.33 0-.28.03-.64.25-.95.2-.29.5-.53.84-.68.59-.27 1.36-.26 1.98.08.59.31 1.11.82 1.35 1.46s.27 1.46-.21 2.05c-.57.64-1.34.67-1.89.64-1.18-.1-1.74-.72-1.7-.75zm.13 11.34c.07-.14.59.17 1.33.43.35.11.79.14 1.17-.03a.91.91 0 0 0 .57-.84c.01-.39-.17-.78-.46-1.06-.3-.3-.71-.42-1.09-.4-.45 0-.86.2-1.11.47-.54.58-.49 1.21-.6 1.21-.07.04-.3-.65.28-1.47a1.948 1.948 0 0 1 2.89-.21c.39.36.73.88.71 1.47 0 .59-.38 1.23-.92 1.43-.62.25-1.2.05-1.59-.13-.82-.4-1.19-.83-1.18-.87zm3 4.42c.13-.01.15.66.85 1.1.32.2.78.29 1.29.22.42-.06.95-.15 1.27-.43.31-.26.32-.68.13-1.07-.19-.4-.6-.67-1-.82-.47-.17-.96-.16-1.35 0-.81.32-1.09.93-1.18.87-.08 0 .09-.74 1.01-1.25.44-.24 1.07-.33 1.68-.14.52.16 1.04.53 1.32 1.08.13.26.24.56.23.89 0 .33-.17.68-.42.89-.52.43-1.08.55-1.62.62a2.28 2.28 0 0 1-1.62-.49c-.41-.32-.59-.73-.64-1.02-.05-.29.02-.46.05-.46zm11.28-6.02c-.12.07-.43-.4-.91-1.07-.23-.32-.52-.69-.86-1.06-.29-.32-.58-.68-.94-.98a9.26 9.26 0 0 0-1.11-.78c-.4-.25-.82-.43-1.22-.61-.46-.2-.9-.37-1.28-.48-.79-.24-1.34-.33-1.34-.43 0-.09.57-.11 1.42.03.41.07.89.19 1.39.38.43.16.87.39 1.3.64.41.24.86.46 1.23.78.38.33.74.67 1.03 1.03.34.42.55.87.76 1.24.42.75.58 1.29.53 1.32z" class="cls-1"/><path d="M40.33 75.63c0 .13-.6.23-1.54.14-.45-.04-.97-.14-1.53-.27-.48-.12-.97-.32-1.47-.51-.48-.18-.97-.37-1.43-.6-.48-.24-.95-.48-1.36-.74-.48-.31-.91-.67-1.2-1.04-.63-.77-.58-1.48-.49-1.46.1-.02.16.57.79 1.18.3.29.7.58 1.18.85.41.24.85.49 1.32.72.45.21.95.34 1.41.51.48.19.97.33 1.42.46.53.15 1.01.35 1.44.44.88.19 1.47.25 1.48.32zm-4.01-2.73c-.07.12-.39.05-.81-.14-.25-.12-.47-.22-.69-.33-.21-.11-.42-.27-.65-.39-.23-.11-.45-.21-.69-.32-.25-.11-.43-.18-.7-.29-.2-.1-.47-.23-.69-.34-.41-.2-.68-.36-.66-.45.03-.09.33-.04.78.06.22.05.48.13.75.22.24.08.47.19.72.3.24.1.51.14.74.26.24.13.48.24.69.37.25.15.43.37.61.5.37.28.6.48.57.54zm18.37-.31c.04.12-.82.4-2.2.45-.67.02-1.45 0-2.28-.1-.72-.09-1.47-.3-2.23-.51-.73-.2-1.46-.46-2.15-.77-.72-.33-1.41-.67-2.02-1.07a14.5 14.5 0 0 1-1.8-1.39c-1.02-.92-1.53-1.65-1.46-1.7.08-.07.67.57 1.72 1.38.51.39 1.13.83 1.82 1.25.6.36 1.26.72 1.95 1.03.67.3 1.4.47 2.1.68.73.21 1.46.35 2.15.47.8.13 1.54.26 2.19.29 1.33.05 2.19-.07 2.22 0z" class="cls-1"/><path d="M49.24 76.5c-.01.13-.59.15-1.42-.13-.4-.13-.85-.33-1.31-.59-.4-.23-.77-.55-1.15-.86-.37-.3-.72-.64-1.03-1-.33-.37-.63-.75-.86-1.15-.27-.46-.44-.97-.45-1.42-.01-.46.14-.83.3-1.03.16-.2.3-.26.33-.22.08.06-.33.45-.22 1.21.05.36.23.76.5 1.17.23.35.5.73.81 1.07.3.34.68.59 1.02.88.35.3.73.55 1.09.78.41.27.79.55 1.15.72.74.35 1.26.48 1.25.56zm2.88-7.79c.03.13-.34.32-.93.49-.29.08-.63.16-.99.24-.32.07-.67.08-1.01.14-.33.06-.66.14-.98.22-.33.08-.64.2-.93.3-.34.12-.65.25-.9.38-.52.28-.82.54-.9.48-.07-.06.16-.42.67-.82.25-.19.56-.38.92-.54.31-.14.65-.24 1-.33.33-.09.66-.24 1-.3.35-.06.67-.12 1.01-.18.37-.05.73-.02 1.03-.06.61-.07 1.01-.1 1.02-.04z" class="cls-1"/><path d="M51.92 68.76c.12-.09.44.41 1.12.56.31.07.72 0 1.03-.23.25-.19.47-.53.44-.9-.02-.35-.28-.65-.61-.86-.35-.22-.76-.31-1.12-.28-.42.02-.8.23-1 .51-.42.61-.12 1.18-.2 1.21-.03.03-.16-.07-.26-.33-.09-.25-.12-.67.11-1.1.22-.41.7-.76 1.28-.83.5-.07 1.02.08 1.47.35.41.24.9.66.95 1.27.05.59-.21 1.17-.66 1.49-.52.36-1.13.31-1.54.16-.89-.34-1.05-1.01-1-1.01zm2.36 4.09c.12-.11.55.62 1.64.98.51.17 1.16.23 1.77-.01.51-.19 1.03-.58 1.07-1.17.04-.56-.26-1.14-.74-1.48-.5-.37-1.15-.52-1.74-.56-.68-.05-1.33.11-1.73.46-.41.36-.57.84-.58 1.17-.02.33.07.53.02.55-.03.02-.2-.15-.26-.54-.05-.38.06-.98.53-1.48.46-.49 1.24-.74 2.03-.71.68.03 1.41.21 2.04.66.6.42 1.1 1.15 1.04 1.97-.06.88-.78 1.52-1.45 1.73-.81.28-1.59.08-2.16-.16-1.21-.52-1.54-1.41-1.49-1.42zm-5.26 3.56c-.06 0-.13-.14-.1-.4s.19-.65.58-.96c.36-.3 1-.46 1.58-.26.5.16.94.61 1.11 1.17.17.52.1 1.12-.21 1.58-.33.48-.86.76-1.36.8-.59.05-1.14-.17-1.45-.53-.34-.37-.36-.8-.31-1.04.04-.25.13-.37.17-.36.13 0-.1.61.42 1.1.25.22.67.34 1.1.28.37-.05.76-.24.97-.56.21-.32.19-.76.08-1.08-.1-.35-.4-.61-.73-.74-.37-.15-.79-.18-1.1.02-.65.4-.67 1-.74.98zm23.8-22.56c.06 0 0 .34-.34.83-.33.49-.98 1.08-1.83 1.64-.81.54-1.76 1.15-2.83 1.78-.92.54-1.94 1.03-3.01 1.49-1.02.45-2.1.83-3.19 1.09-1.13.27-2.26.47-3.33.54-1.24.08-2.39.02-3.36-.09-2.01-.24-3.24-.71-3.21-.79.03-.11 1.27.25 3.25.38.96.06 2.08.07 3.28-.04 1.04-.09 2.14-.25 3.23-.52 1.06-.26 2.08-.7 3.07-1.12 1.04-.44 2.01-.98 2.93-1.49 1.06-.59 2.07-1.11 2.9-1.6.85-.5 1.49-.99 1.87-1.4.38-.41.53-.7.57-.69z" class="cls-1"/><path d="M69.91 60.94c.03.13-.37.31-1.01.39-.31.04-.68.06-1.07.04-.34 0-.7-.1-1.06-.15-.35-.05-.71-.11-1.05-.21-.36-.1-.71-.18-1.03-.31-.37-.14-.69-.32-.96-.47-.56-.32-.87-.6-.82-.68.05-.09.41.09.99.31.28.1.61.22.97.33.31.1.64.21.98.29.33.08.68.07 1.01.13.35.06.69.09 1.01.11.37.04.72.13 1.02.14.62.02 1.02 0 1.04.07zm-2.41-5.59c.12.05.12.34-.01.71-.07.18-.16.39-.27.6-.1.19-.26.35-.38.54-.12.18-.23.37-.36.55-.14.18-.25.37-.39.53-.16.18-.33.33-.47.47-.29.27-.52.4-.59.34-.07-.06.07-.27.27-.6.13-.19.24-.36.35-.53.13-.17.24-.34.37-.52.12-.17.17-.4.29-.57.12-.19.21-.34.34-.54.13-.19.32-.34.42-.49.22-.31.36-.53.42-.5zm-6.64 2.82c.11.08.08.31-.07.58-.07.13-.17.27-.27.42-.09.13-.24.22-.35.35-.11.13-.21.26-.32.38-.12.13-.21.27-.33.37-.13.13-.27.23-.39.32-.24.19-.43.28-.5.22-.07-.06.03-.23.19-.48.08-.12.18-.26.29-.41.1-.13.21-.25.32-.38.11-.13.15-.31.26-.43.11-.13.22-.26.33-.37.13-.13.31-.2.42-.3.22-.2.37-.33.43-.28zm1.13 6.39c-.03.13-.39.14-.9-.02-.24-.08-.52-.19-.8-.33-.25-.12-.47-.32-.72-.48-.24-.16-.48-.32-.7-.51-.23-.19-.46-.37-.65-.57-.22-.23-.4-.47-.55-.67-.3-.42-.43-.74-.36-.8.08-.06.3.18.66.52l.61.55c.2.17.4.36.62.54.22.17.49.26.71.42.23.16.47.29.69.43.25.16.47.36.68.48.43.24.73.37.72.44z" class="cls-1"/><path d="M60.74 58.64c.02-.16.81.09 1.9-.14.51-.12 1.06-.43 1.39-.98.28-.45.37-1.05.05-1.57-.29-.5-.82-.85-1.4-.97-.6-.13-1.24 0-1.72.29-.56.32-.92.88-1.05 1.41-.29 1.11.19 1.85.09 1.89-.04.07-.7-.66-.49-1.97.1-.61.46-1.34 1.16-1.78.59-.38 1.37-.51 2.11-.36.7.13 1.44.51 1.83 1.18.43.67.4 1.63-.02 2.23-.46.72-1.25 1.02-1.84 1.1-.63.1-1.15 0-1.49-.09-.34-.09-.52-.19-.52-.22zm.8 5.45c-.09-.09.22-.51.96-.73.34-.09.79-.19 1.32.02.22.09.44.29.55.55.1.25.11.52.06.76-.1.47-.37.83-.68 1.12-.33.3-.75.54-1.2.55-.51.02-.97-.22-1.2-.56-.24-.34-.23-.7-.16-.9.07-.21.19-.28.22-.26.09.02-.14.46.25.9.18.19.49.31.84.27.29-.03.61-.16.86-.4.24-.23.39-.58.44-.84.06-.29-.05-.49-.26-.6a1.7 1.7 0 0 0-.95-.16c-.64.09-1.02.34-1.06.28zm6-8.44c0-.14.62-.13 1.15-.7.25-.26.42-.65.35-1.09-.05-.36-.2-.79-.55-1.02-.33-.22-.78-.28-1.16-.17-.41.11-.74.43-.93.77-.23.39-.24.85-.12 1.22.27.78.86 1.02.81 1.11 0 .09-.74-.04-1.19-.95-.21-.42-.27-1.06.01-1.62.24-.48.69-.88 1.25-1.05.53-.16 1.16-.16 1.66.18.52.35.81.91.86 1.46.06.66-.32 1.21-.68 1.5-.78.64-1.51.42-1.47.37zm2.12 5.21c-.06.02-.15-.15-.16-.49 0-.33.13-.84.52-1.31.37-.44 1.03-.86 1.82-.83.67.01 1.32.37 1.79.89.45.5.73 1.22.55 1.94-.21.77-.89 1.19-1.47 1.37-.71.21-1.41.12-1.93-.1-1.09-.49-1.34-1.29-1.26-1.31.08-.07.43.59 1.4.92.46.15 1.05.18 1.62-.02.48-.17.99-.49 1.11-.98.12-.49-.14-1.02-.47-1.39-.35-.4-.88-.63-1.36-.66-.55-.05-1.1.15-1.46.49-.73.73-.63 1.51-.71 1.5zm2.59-6.16c.05-.16.83.38 2 .14.54-.11 1.13-.51 1.4-1.13.25-.51.22-1.19-.13-1.77a2.96 2.96 0 0 0-1.49-1.21c-.63-.24-1.3-.13-1.71.28-.49.47-.68 1.19-.64 1.77.11 1.23.55 2.01.43 2.06-.04.02-.17-.15-.34-.49-.17-.34-.4-.84-.49-1.53-.09-.66.03-1.53.67-2.19.55-.6 1.53-.71 2.27-.42.73.25 1.43.72 1.84 1.4.44.69.58 1.63.21 2.36-.41.84-1.24 1.23-1.9 1.32-.69.1-1.25-.08-1.6-.24-.35-.17-.51-.33-.5-.36zm3.62-10.86c.12.03-.09.84-.89 1.83-.38.47-.89.98-1.52 1.43-.54.39-1.2.68-1.87.94-.65.25-1.34.43-2.03.49-.72.07-1.43.07-2.09-.03-.76-.12-1.43-.36-1.98-.6-1.14-.51-1.71-1.1-1.66-1.16.06-.09.69.39 1.81.78a9.03 9.03 0 0 0 3.85.48c.65-.07 1.27-.3 1.87-.52.63-.23 1.2-.55 1.72-.89.59-.39 1.14-.78 1.55-1.2.82-.86 1.17-1.57 1.24-1.54z" class="cls-1"/><path d="M75.92 43.95c.06.11-.59.5-1.75.57-.55.03-1.21-.03-1.88-.21-.58-.15-1.14-.41-1.73-.56-.57-.15-1.14-.22-1.7-.16-.58.06-1.14.27-1.64.5-.58.27-1.1.59-1.53.89-.88.63-1.44 1.07-1.51.99-.06-.07.42-.58 1.26-1.31.41-.35.92-.73 1.54-1.05.53-.27 1.16-.48 1.81-.55.63-.08 1.31-.06 1.91.1.63.17 1.21.37 1.74.54.61.19 1.19.36 1.7.38 1.06.04 1.74-.18 1.77-.11zm6.22-12.21c.12.04-.4 1.08-1.57 2.42-.56.65-1.26 1.37-2.08 2.07-.71.61-1.54 1.17-2.38 1.72-.81.53-1.68 1.03-2.56 1.44-.91.43-1.84.82-2.72 1.1-1.02.33-1.95.62-2.69.99-1.56.73-2.25 1.68-2.32 1.61-.09-.03.54-1.12 2.13-1.98.76-.43 1.7-.78 2.7-1.14.87-.31 1.76-.65 2.65-1.08.86-.41 1.66-.95 2.46-1.47.83-.53 1.6-1.12 2.3-1.69.81-.66 1.57-1.28 2.16-1.88 1.21-1.23 1.85-2.16 1.92-2.13z" class="cls-1"/><path d="M82.12 38.13c.09.1-.25.5-.95.89-.34.19-.75.37-1.22.51-.4.12-.85.16-1.3.22-.43.05-.88.08-1.32.05-.45-.03-.89-.06-1.29-.14-.47-.09-.89-.21-1.25-.3-.74-.19-1.22-.36-1.2-.46.02-.1.51-.04 1.27.05.4.05.81.11 1.25.16.39.05.81.11 1.24.13.41.02.82-.08 1.22-.12.42-.04.82-.13 1.2-.23.43-.11.86-.17 1.2-.3.69-.27 1.11-.53 1.16-.48zM71 45.57c.05.12-.33.36-.97.44-.31.04-.67.05-1.05.04-.33-.01-.67-.09-1.01-.12-.33-.03-.67-.04-.99-.05-.34 0-.66.03-.97.07-.35.03-.67.09-.94.18-.55.17-.88.41-.95.33-.06-.06.2-.41.79-.71.28-.14.63-.27 1.02-.34.33-.06.69-.08 1.05-.08.35 0 .7-.06 1.04-.03.35.03.67.06 1.01.09.36.04.7.14.99.15.59.03.97-.05 1 .02zm3.75-7.29c-.03-.14.35-.28.7-.71.17-.2.34-.47.49-.8.13-.28.32-.58.43-.9.11-.31.2-.64.29-.97.09-.34.13-.68.18-.99.06-.37.12-.71.14-1.01.06-.61.08-1.02.18-1.04.09-.01.19.39.23 1.03.02.31.02.68-.01 1.07-.03.34-.1.7-.19 1.06-.08.34-.11.72-.24 1.05-.13.35-.27.69-.44.99-.2.36-.5.63-.75.84-.53.45-1.03.45-1.03.38z" class="cls-1"/><path d="M77.32 32.33c-.08-.14.52-.39 1.05-1.03.25-.31.41-.74.34-1.19-.05-.38-.26-.74-.7-.87-.41-.12-.85-.03-1.22.22-.39.25-.68.65-.85 1.04-.2.46-.23.93.02 1.22.25.33.57.53.8.62.23.1.39.09.41.14.06.13-.78.28-1.52-.49-.41-.38-.45-1.12-.22-1.69.2-.51.56-.96 1.05-1.3.45-.32 1.1-.55 1.7-.36.63.16 1.13.78 1.17 1.37.08.69-.3 1.26-.63 1.59-.73.7-1.39.77-1.4.73zm4.51 6.13c.09-.1.65.53 1.83.52.54 0 1.3.01 1.75-.34.39-.31.68-.92.6-1.53-.07-.59-.42-1.14-.92-1.45-.53-.34-1.18-.41-1.73-.26-.65.16-1.18.58-1.47 1.05-.61 1-.38 1.87-.49 1.87-.04.01-.14-.18-.18-.55-.04-.37 0-.93.31-1.52.29-.57.88-1.14 1.68-1.37.69-.21 1.51-.1 2.16.32.64.38 1.17 1.06 1.25 1.84.1.79-.17 1.64-.8 2.13-.38.28-.82.35-1.17.35-.36 0-.69-.02-1-.06-.64-.06-1.15-.29-1.44-.52-.3-.24-.39-.44-.37-.46zm.13-6.1c.01-.16.66-.02 1.5-.24.4-.11.81-.36 1.06-.78.21-.35.33-.79.1-1.2-.21-.39-.6-.67-1.04-.76-.46-.1-.95.02-1.31.24-.43.25-.62.69-.66 1.13-.08.9.26 1.47.17 1.52-.06.06-.55-.48-.58-1.53 0-.25.03-.53.15-.82.11-.29.35-.56.62-.75.48-.33 1.11-.45 1.72-.33.58.1 1.19.43 1.48 1 .33.58.25 1.36-.09 1.84-.38.59-1.03.81-1.5.89-1.02.15-1.63-.17-1.62-.21zm.18-18.06c.12-.05.33 1.07-.37 2.58-.33.72-.85 1.49-1.49 2.22-.55.64-1.23 1.22-1.87 1.85l-1.82 1.85c-.62.65-1.2 1.28-1.78 1.89-.64.67-1.26 1.32-1.8 1.88-1.07 1.14-1.78 1.87-1.85 1.81-.07-.06.55-.87 1.54-2.08.48-.59 1.06-1.26 1.7-1.98.55-.62 1.16-1.25 1.79-1.9.6-.62 1.16-1.31 1.78-1.91.64-.63 1.27-1.24 1.82-1.84.64-.69 1.21-1.34 1.57-1.99.74-1.34.71-2.39.79-2.39z" class="cls-1"/><path d="M77.07 21.84c-.13-.05-.11-.38 0-.83.06-.27.11-.51.17-.74.05-.23.15-.47.2-.73.04-.25.06-.5.09-.76s.02-.52.03-.76c.01-.23.03-.53.05-.77.01-.46.03-.78.13-.8.09-.02.19.28.28.76.04.23.08.51.09.8.01.26-.01.53-.03.81-.02.27.03.55-.03.81-.05.28-.1.55-.18.79-.09.29-.26.52-.36.73-.21.44-.37.7-.43.68z" class="cls-1"/><path d="M77.97 17.2c-.11-.1.46-.57.64-1.51.08-.44.03-.99-.24-1.48-.22-.41-.58-.85-1.07-.99-.45-.14-.95.08-1.25.45-.32.4-.41.95-.36 1.44.05.57.3 1.08.63 1.42.7.71 1.45.75 1.43.86.02.08-.8.18-1.71-.56-.43-.36-.79-.94-.89-1.65-.09-.6.04-1.29.46-1.85.38-.52 1.12-.93 1.84-.72.71.2 1.21.72 1.49 1.28.33.66.28 1.37.12 1.89-.34 1.1-1.08 1.46-1.09 1.42zm6.44 1.25c.12.06.06.43-.27.87-.16.21-.38.43-.65.63-.23.17-.53.28-.82.4-.28.12-.57.21-.87.25-.31.05-.62.08-.9.05-.33-.03-.63-.12-.87-.21-.5-.19-.76-.44-.72-.52.04-.09.34.04.82.12.23.04.5.07.79.07.25 0 .52 0 .79-.05.26-.05.49-.19.73-.29.25-.1.48-.23.69-.36.24-.15.51-.26.68-.41.37-.32.55-.59.61-.55z" class="cls-1"/><path d="M84.13 18.88c.05-.15.7.2 1.6.04.42-.08.86-.37 1.08-.84.19-.38.18-.87-.16-1.27-.31-.38-.79-.63-1.28-.71-.52-.09-1.01.07-1.38.36-.44.33-.69.82-.69 1.26 0 .97.68 1.39.61 1.46-.02.04-.21 0-.45-.23-.24-.22-.52-.63-.57-1.21-.06-.56.2-1.25.75-1.7.46-.4 1.16-.59 1.8-.49.61.09 1.26.34 1.68.85.21.27.38.59.44.94s-.02.71-.16 1c-.35.69-1.05.98-1.59 1.02-1.14.08-1.72-.47-1.68-.49zm-1.72-4.06c-.01-.07.17-.13.48-.21.3-.08.75-.19 1.16-.47.39-.26.75-.76.65-1.28-.07-.45-.41-1.01-.82-1.44-.4-.41-.92-.68-1.42-.6-.53.08-.97.5-1.15.96-.23.55-.16 1.17.04 1.63.45.96 1.16 1.34 1.08 1.44-.01.07-.82-.19-1.45-1.25-.28-.51-.45-1.26-.18-2 .22-.64.83-1.19 1.57-1.31.73-.13 1.48.21 1.94.7.46.51.9 1.04 1.02 1.77.07.42-.08.84-.29 1.13-.21.3-.48.5-.74.64-.54.3-1.04.33-1.37.35-.33 0-.52-.02-.52-.05zM71.11 1.37c-.14-.02-.18-.28-.24-.5-.03-.09-.1-.19-.14-.2 0 0-.05 0-.09-.02a.327.327 0 0 0-.19-.03c-.14.02-.27.07-.37.12-.11.06-.17.16-.22.25-.06.1-.1.2-.07.3.05.22.24.32.24.41.03.1-.34.16-.6-.21-.13-.17-.17-.46-.08-.7.07-.21.24-.39.44-.51.18-.11.37-.25.58-.27.19-.01.49-.03.73.13.27.23.24.52.23.7-.04.38-.16.54-.22.53zM67 7.62c-.06-.03-.09-.1-.14-.16a.544.544 0 0 0-.18-.11c-.07-.02-.1-.01-.23.01-.09.03-.25.03-.4.11-.12.06-.11.07-.11.08v.02c0 .11.05.27.08.37.04.12.08.22.16.27.17.13.36.07.44.12.1.04-.13.37-.56.27-.21-.04-.42-.22-.52-.42-.1-.19-.13-.36-.15-.58 0-.08 0-.16.02-.24.05-.22.28-.4.38-.44.16-.07.34-.16.56-.19.25-.04.53.12.65.29.14.16.17.34.14.47-.04.12-.11.16-.13.14zM78.87 2.7c0-.13.08-.27.06-.4 0-.05-.02-.12-.06-.2-.02-.04-.03-.09-.04-.14v-.05h-.03c-.06 0-.12.02-.19.02-.13.01-.22.06-.3.09-.09.03-.14.05-.19.13-.1.14-.04.29-.07.38-.02.11-.36-.05-.33-.45 0-.17.13-.41.31-.52.15-.11.33-.14.49-.17.08-.01.14-.04.22-.07.13-.04.28-.04.4.03.12.06.22.21.27.3.04.08.08.16.1.25.05.21-.04.44-.14.59-.2.32-.5.29-.49.22zm-1.91 10.1c-.13-.05-.19-.22-.3-.36a.617.617 0 0 0-.18-.18c-.05-.03-.11-.11-.21-.11a.52.52 0 0 0-.25.07c-.07.03-.06.07-.08.07v.02c-.02.08 0 .25.02.36.05.24.1.41.02.48-.07.06-.22-.05-.39-.3-.08-.13-.15-.25-.2-.48-.01-.07 0-.14.01-.22.08-.16.2-.31.32-.38.16-.11.35-.24.56-.23.21.01.44.08.6.22.18.17.2.4.22.55.05.33-.09.52-.14.5z" class="cls-1"/><path d="M84.44 11.58c.02-.12.04-.23.12-.55.04-.14.07-.3.06-.45 0-.13.03-.27-.04-.38a.611.611 0 0 0-.29-.23c-.13-.06-.26-.04-.38-.02-.13.02-.27.09-.37.18-.21.19-.26.43-.36.44-.09.02-.18-.27.02-.66.1-.18.28-.38.55-.47.23-.08.5-.06.73.03.22.08.49.18.63.43.14.24.19.51.16.74-.03.27-.2.46-.3.62-.11.16-.2.27-.32.35-.13.08-.21.03-.22 0zm2.59 5.02c.05-.11.19-.23.18-.36 0-.05 0-.15-.02-.29-.02-.13 0-.27-.03-.35a.43.43 0 0 0-.19-.16c-.09-.04-.19-.02-.27 0-.1.01-.21.06-.29.14-.17.15-.23.34-.33.35-.09.02-.17-.22-.03-.56.07-.16.22-.34.44-.44.2-.09.43-.07.64 0 .19.06.45.15.56.39.11.23.13.42.13.58 0 .21-.11.43-.23.59-.28.34-.63.19-.58.12zm-21.18 8.49c-.14 0-.25-.22-.37-.54-.05-.14-.13-.35-.2-.48-.03-.04 0-.02-.01-.04-.02-.02-.1-.04-.2-.04-.17 0-.35.04-.5.09-.05.02-.04.01-.05.02 0-.02-.03.09-.05.2-.04.17-.05.35-.03.51.04.35.12.44.2.51.03.04-.1.13-.26.04-.15-.09-.24-.24-.33-.42-.08-.18-.14-.42-.13-.68.02-.14 0-.33.2-.55.07-.07.19-.13.26-.15.21-.07.43-.19.66-.19.11 0 .24 0 .41.05.18.05.35.23.4.36.11.28.05.49.07.68.03.38-.02.63-.09.63zm-3.27 5.01c-.13.02-.28-.13-.46-.22a.754.754 0 0 0-.29-.09c-.08 0-.18-.04-.29.01-.09.05-.16.13-.21.21-.05.09-.05.2-.05.28 0 .1.03.21.1.29.14.17.35.21.37.31.03.08-.23.21-.59.04a.795.795 0 0 1-.41-.52.9.9 0 0 1 .09-.64c.09-.19.21-.41.41-.52.21-.1.45-.16.67-.11.26.06.41.27.51.4.22.29.2.55.14.55zm16.49-1.09c-.12-.07-.07-.32 0-.59a.78.78 0 0 0 .01-.37c-.02-.09-.03-.22-.1-.27-.06-.04-.14-.04-.27-.02-.14.03-.28.12-.38.18-.12.08-.22.15-.26.25-.1.22.02.41-.02.49-.02.1-.39-.07-.39-.54 0-.22.13-.47.32-.63.17-.14.36-.22.58-.28.19-.06.52-.16.78.04.25.19.36.45.38.69.02.3-.15.5-.24.65-.2.31-.37.44-.42.41zm5.71.89c-.07-.12.1-.31.19-.48.04-.08.03-.11 0-.21-.02-.08-.02-.23-.09-.33a.745.745 0 0 0-.24-.23c-.09-.06-.2-.05-.28-.05-.1 0-.19.02-.26.09-.15.14-.14.34-.21.4-.07.07-.3-.18-.15-.58.06-.19.27-.38.52-.44.21-.05.44 0 .64.1.19.09.4.2.51.38.11.19.19.37.21.59.03.26-.17.53-.32.62-.31.21-.49.21-.52.16zm1.6 7.14c-.11-.06-.13-.31.12-.56a.88.88 0 0 1 .56-.23c.21 0 .42.11.59.26.18.14.29.4.26.62-.02.23-.1.43-.25.57-.18.16-.38.2-.54.21-.33 0-.49-.13-.47-.22.01-.1.18-.09.37-.18.09-.04.18-.1.24-.18.05-.06.1-.15.11-.23 0-.09-.1-.1-.12-.13-.04-.04-.12-.06-.19-.08-.07-.02-.2-.07-.3-.03-.2.08-.32.21-.38.17zm-32.43-.24c-.13-.04-.14-.3-.14-.57 0-.13-.03-.24-.09-.33-.05-.07-.06-.15-.14-.15-.08 0-.21.05-.29.12-.1.08-.16.2-.2.31-.06.13-.08.25-.06.37.04.25.23.35.24.44.03.11-.37.13-.61-.26a.94.94 0 0 1-.1-.69c.05-.22.18-.42.36-.58.17-.15.37-.34.67-.33.33 0 .61.25.7.47.12.28.02.55-.03.71-.12.35-.26.51-.32.49zm-3.28 6.92c-.13.01-.28-.08-.45-.09-.09-.01-.16 0-.27.02-.08.03-.21.02-.33.09-.14.1-.14.1-.14.12 0 .03 0 .02.07.08s.22.13.33.16c.24.08.43.1.45.2.03.09-.16.18-.48.21-.16 0-.33 0-.55-.09-.18-.07-.41-.34-.38-.62 0-.27.27-.52.37-.59.16-.09.34-.18.54-.21.24-.03.46.11.59.21.31.21.3.51.24.51zM60.7 37.1c-.13.03-.29-.14-.41-.43-.06-.14-.11-.31-.16-.49-.02-.08-.03-.16-.03-.25-.01-.12.01-.06 0-.09s-.02 0-.03 0c-.05 0-.09.02-.15.03-.14.03-.24.11-.31.16-.09.07-.14.12-.15.24-.03.22.14.34.15.43 0 .04-.07.08-.2.05-.13-.04-.28-.18-.34-.38-.08-.18-.03-.51.15-.7.15-.18.36-.27.56-.32.1-.03.14-.05.28-.09.14-.03.29-.03.41.05.04.02.07.05.1.09.11.1.16.36.17.41.01.08.03.15.04.25.02.19-.03.38-.03.53.02.31.02.51-.04.53zm14.67 13.92c-.12.03-.31-.26-.11-.69.09-.19.28-.41.56-.52.24-.1.52-.06.76.01.24.07.47.19.64.44.21.28.11.71-.07.87-.19.21-.4.29-.57.36-.18.09-.44.08-.53-.03-.1-.11-.06-.2-.01-.2.1-.03.11.06.33-.12.12-.1.27-.22.35-.34.07-.12.09-.16.05-.23-.06-.09-.24-.11-.35-.14a.664.664 0 0 0-.37 0c-.12.02-.3.05-.39.16-.2.21-.2.43-.27.44zm-7.39 1.28c-.02-.14.23-.24.44-.37.09-.05.16-.15.16-.2 0-.01.04-.13-.03-.21a.58.58 0 0 0-.28-.15c-.12-.03-.21.02-.29.06-.1.05-.19.15-.24.26-.1.23-.04.45-.12.5-.06.07-.3-.14-.28-.57 0-.2.09-.44.31-.63.19-.16.46-.21.7-.17.23.03.5.08.68.29.17.22.27.51.17.81-.15.34-.45.39-.63.43-.39.06-.58-.02-.59-.07zm-4.79 2.35c0-.14.14-.26.21-.41a.45.45 0 0 0 .06-.21c0-.05.04-.1-.01-.17a.412.412 0 0 0-.19-.11c-.07-.02-.11.02-.16.03-.06.02-.13.1-.16.19-.07.17 0 .33-.06.42-.04.09-.31-.04-.36-.42-.02-.17.02-.39.19-.58a.71.71 0 0 1 .62-.19c.2.03.43.07.58.25.15.17.23.44.18.66-.06.26-.27.38-.39.47-.29.19-.53.12-.52.06zm10.94 5.64c-.12-.06-.11-.35.12-.7.06-.09.12-.17.2-.26.08-.09.25-.22.47-.24.38-.02.59.21.78.41.18.2.3.46.31.73.02.28-.05.59-.26.79-.23.23-.52.28-.74.27-.49-.03-.63-.38-.55-.42.07-.07.23.08.51 0 .13-.03.28-.11.37-.22.07-.09.13-.23.12-.39-.01-.16-.15-.27-.23-.37a.496.496 0 0 0-.27-.17c0-.05-.25.04-.37.16-.27.23-.4.43-.47.4zm-9.54 3.86c-.03-.12.09-.31.43-.39.16-.03.4-.04.64.11.21.13.29.38.33.6.05.21 0 .46-.1.64-.11.19-.26.35-.45.43-.2.09-.48.1-.66-.03-.31-.27-.25-.48-.19-.53.08-.07.21.13.36.15.05 0 .12-.01.22-.08.08-.05.17-.12.23-.21.05-.1-.02-.19-.02-.26 0-.08-.06-.14-.1-.18-.04-.05-.13-.17-.25-.18-.24-.03-.43 0-.45-.07zm-9.77 3.3c-.11-.08-.05-.36.27-.64.15-.12.37-.28.72-.28.33 0 .59.28.7.53.13.24.14.59 0 .83a1.1 1.1 0 0 1-.59.52c-.28.09-.55.04-.73-.03-.39-.16-.51-.41-.45-.48.06-.08.25.05.54.08.14.01.3 0 .44-.07.12-.06.24-.14.3-.26.06-.13-.03-.22-.07-.31a.289.289 0 0 0-.19-.16.647.647 0 0 0-.43.02c-.3.13-.46.29-.51.25zm4.87 5.33c-.07-.1-.01-.35.35-.56.16-.09.49-.16.78 0 .24.1.45.49.34.82-.1.31-.32.46-.49.56-.2.11-.4.2-.61.22-.24.02-.46-.02-.63-.07-.36-.12-.51-.33-.46-.41.05-.09.23 0 .52 0 .14 0 .3-.01.46-.05.14-.03.29-.08.43-.16s.18-.25.18-.26c0 0 0-.02-.06-.08s-.16-.15-.31-.13c-.27.05-.47.18-.51.12zm-7.54 4.36c-.12-.04-.1-.39.31-.6.19-.09.44-.13.72-.07.24.06.45.25.59.49.07.12.12.27.11.44-.02.18-.11.32-.2.41-.19.18-.35.29-.54.37-.22.08-.45.1-.64.08-.42-.05-.56-.32-.49-.38.06-.08.21.02.48-.03.13-.02.27-.08.42-.16.12-.07.29-.16.37-.25.08-.11-.02-.09-.04-.16-.04-.08-.14-.14-.24-.18-.11-.05-.26-.13-.39-.12-.27.04-.39.2-.45.16zM38.78 51.37c-.11-.09 0-.37-.09-.79-.03-.2-.1-.46-.18-.72-.07-.22-.12-.44-.24-.48-.1-.05-.31.01-.55.12-.28.12-.32.19-.36.35-.04.2.01.49.06.71.08.46.32.61.33.7 0 .04-.12.07-.28-.02-.17-.09-.32-.3-.43-.54-.1-.24-.23-.5-.21-.9 0-.17.09-.38.23-.52s.3-.21.43-.27c.24-.1.56-.38 1.02-.2.45.22.56.61.63.88.07.32.04.63.02.89-.02.56-.33.85-.38.8zm-6.36 6.31c-.12.06-.29-.02-.45-.06a.687.687 0 0 0-.24-.05c-.07 0-.15-.05-.24-.02-.07.02-.17.09-.19.11-.02.03 0-.02 0 .1.01.11.02.23.05.31.04.17.16.26.17.35.02.1-.26.14-.49-.1a.99.99 0 0 1-.24-.41c-.04-.11-.08-.45.1-.6.15-.16.25-.29.43-.35.18-.05.37-.07.54-.03.2.05.32.22.41.32.2.21.22.41.17.43zm-3.87 5.24c-.05.04-.14.05-.22-.04-.08-.09-.13-.28-.04-.48.08-.2.33-.37.58-.39.22-.02.43.1.59.21.16.11.29.24.38.37.09.14.2.29.24.47.05.2 0 .43-.08.57-.18.32-.47.3-.48.2-.03-.09.07-.15.09-.33 0-.08 0-.17-.05-.28-.04-.09-.08-.2-.16-.31-.08-.1-.21-.13-.28-.18-.08-.06-.15-.06-.21-.07-.07-.01-.16-.07-.22-.02-.12.11-.08.24-.13.28zm.73 13.2c-.1-.08-.02-.37.36-.55.18-.08.42-.12.68-.08.22.04.45.19.63.41.17.21.24.55.07.83-.17.25-.32.35-.51.46-.22.11-.47.13-.67.08-.42-.1-.51-.41-.42-.45.08-.06.2.07.45.04.11-.01.24-.06.37-.14.1-.07.27-.19.31-.26.04-.07-.06-.13-.09-.18-.04-.06-.15-.12-.26-.15-.13-.04-.28-.12-.42-.11-.28.03-.44.16-.49.11zm4.15 5.94c-.08-.1.09-.38.54-.43.21-.02.46.02.7.14.22.13.36.27.5.61.09.16.04.36-.05.51-.1.15-.19.22-.3.29-.22.13-.46.22-.69.22-.27 0-.51-.13-.66-.25-.33-.27-.34-.56-.26-.59.09-.05.2.13.46.23.13.05.27.08.43.06.14-.01.29-.04.41-.13.06-.04.11-.12.1-.14-.01-.02-.03-.02-.03-.02.01.02-.03-.06-.08-.1-.05-.05-.1-.09-.15-.13-.12-.09-.25-.22-.4-.25-.29-.06-.49.03-.52-.03z" class="cls-1"/></g></svg>