<svg xmlns="http://www.w3.org/2000/svg" id="Layer_2" data-name="Layer 2" viewBox="0 0 338.17 338.17"><defs><style>.cls-1{fill:#e6e6e6}</style></defs><g id="Layer_1-2" data-name="Layer 1"><path d="M64.34 109.48c-1.33-5.46-4.67-9.72-8.59-12.48-4-2.79-8.43-3.9-12.4-4.04-3.99-.13-7.57.7-10.56 2.02-5.9 2.62-9.38 6.93-10.37 10.41-.54 1.71-.44 3.14-.22 4.02.29.9.68 1.31 1.12 1.31 1.08 0 1.72-1.48 3.31-3.26.8-.9 1.84-1.91 3.32-2.89 1.45-.98 3.33-1.96 5.53-2.64 2.15-.66 4.72-1.04 7.42-.8 2.69.23 5.53 1.1 7.9 2.82 2.38 1.72 4.45 4.43 5.24 7.54.8 3.02.21 6.82-1.54 10.71-1.61 3.73-4.32 7.62-6.8 12.16-1.28 2.21-2.39 4.55-3.53 6.87-1.04 2.38-2.11 4.74-2.99 7.18-3.7 9.69-5.75 19.84-6.33 28.82-.68 9 .18 16.81 1.09 22.24.25 1.36.48 2.58.68 3.64.25 1.05.47 1.96.64 2.69.36 1.46.55 2.26.55 2.26l-.23-2.2c-.08-.71-.17-1.59-.28-2.61-.06-1.03-.13-2.21-.2-3.52-.23-5.24-.17-12.65 1.26-21.06.69-4.2 1.76-8.63 3.1-13.15 1.39-4.51 3.15-9.08 5.2-13.57 2.03-4.51 4.5-8.88 7.11-13.08 2.52-4.17 5.78-8.21 8.19-13.2 1.18-2.44 2.1-5.04 2.58-7.79.5-2.73.45-5.66-.19-8.4z" class="cls-1"/><path d="M23.9 165.58c2.05-9.6 4.83-17.75 7.09-23.45.58-1.42 1.11-2.7 1.57-3.81.48-1.11.93-2.04 1.27-2.81.7-1.54 1.09-2.37 1.09-2.37l-1.29 2.12c-.42.69-.93 1.54-1.54 2.53-.56 1.02-1.2 2.18-1.92 3.48-2.79 5.23-6.44 12.86-9.49 22.23-3.11 9.34-5.67 20.36-7.15 31.88-1.51 11.52-1.94 23.5-1.54 34.68.82 21.94 3.78 39.72 6.27 51.93 2.57 12.22 4.9 18.94 6.64 18.65 2.04-.33 2.04-7.48.71-19.82-1.25-12.35-4.02-29.87-5.42-51.14-.64-10.1-.98-21.31-.39-32.41.52-11.11 1.97-22.1 4.09-31.68zM12.95 314.53c-.71-13.59-4.11-33.06-4.11-33.06s-3.6 18.43-4.11 33.06c-.5 14.34.62 23.64 4.18 23.64 4.11 0 4.77-9.33 4.03-23.64zm9.62-180.29c-2.5 1.75-5.22 3.97-7.82 6.51a53.273 53.273 0 0 0-6.94 8.37c-3.83 5.75-5.95 11.14-6.68 15.06-.74 3.94-.11 6.38 1.56 6.85 2.02.56 3.65-1.13 5.43-4.28 1.79-3.16 3.75-7.84 6.69-13.33 2.72-5.24 6.47-11.54 10.05-16.31.88-1.2 1.76-2.28 2.54-3.28.81-.97 1.54-1.83 2.14-2.55l2.01-2.25s-.97.48-2.6 1.3c-1.62.86-3.87 2.17-6.38 3.91zM6.28 117.96c3.39 3.67 7.72 5.88 11.74 6.61 4.03.76 7.65.3 10.45-.51 2.82-.82 4.84-2.02 6.14-2.91.66-.44 1.13-.83 1.44-1.1.32-.26.48-.4.48-.4s-.17.11-.5.32c-.33.21-.81.52-1.47.86-1.31.69-3.31 1.55-5.95 2.05-2.63.47-5.91.57-9.34-.38-3.43-.91-6.9-2.96-9.55-6.15-2.62-3.18-4.44-7.42-4.55-11.82-.14-4.37 1.5-8.92 4.29-12.67 2.77-3.76 6.72-6.71 11.1-8.78 4.38-2.09 9.18-3.32 13.92-4.02 9.35-1.33 18.32-.63 26.33-.07 7.37.58 13.92 1.02 19.42 1.24-.22-5.5-.66-12.05-1.24-19.42-.56-8.01-1.26-16.98.07-26.33.7-4.74 1.93-9.54 4.02-13.92 2.07-4.38 5.02-8.33 8.78-11.1 3.75-2.79 8.3-4.42 12.67-4.29 4.4.1 8.64 1.93 11.82 4.55 3.19 2.65 5.24 6.12 6.15 9.55.95 3.43.85 6.72.38 9.34-.5 2.63-1.36 4.64-2.05 5.95-.33.67-.65 1.15-.86 1.47-.21.33-.32.5-.32.5s.14-.16.4-.48c.27-.31.65-.78 1.1-1.44.89-1.3 2.08-3.32 2.91-6.14.81-2.8 1.27-6.43.51-10.45-.72-4.01-2.93-8.35-6.61-11.74-3.63-3.38-8.72-5.92-14.45-6.24-5.71-.35-11.56 1.57-16.35 4.89C82.3 8.27 78.59 12.98 76 17.94c-2.61 4.99-4.14 10.24-5.04 15.25-.1.61-.17 1.19-.26 1.79-1.25-2.36-2.7-4.65-4.36-6.81-1.63-2.12-3.49-4.07-5.48-5.87a44.393 44.393 0 0 0-6.42-4.68c-9.04-5.4-18.98-7.29-27.4-7.74-6.47-.33-12.14.03-16.7.45-.42 4.56-.79 10.24-.45 16.7.45 8.42 2.34 18.36 7.74 27.4a42.43 42.43 0 0 0 4.68 6.42c1.8 1.98 3.76 3.84 5.87 5.48a48.76 48.76 0 0 0 6.81 4.36c-.6.09-1.19.16-1.79.26-5 .9-10.26 2.43-15.25 5.04-4.96 2.59-9.67 6.3-13.01 11.16-3.33 4.8-5.25 10.64-4.9 16.36.32 5.73 2.86 10.82 6.24 14.45zm26.88-57.29c-3.62-2.35-6.9-5.34-9.6-8.89-5.45-7.12-8.49-16.09-9.95-24.19-1.03-5.76-1.43-11.1-1.62-15.6 4.5.2 9.84.59 15.6 1.62 8.1 1.45 17.07 4.5 24.19 9.95 3.55 2.71 6.54 5.98 8.89 9.6 2.34 3.63 4.08 7.52 5.29 11.39 1.31 4.06 2.05 8.12 2.46 12.01.41 3.89.45 7.61.31 11.15-.01.32-.03.64-.05.95-.32.02-.63.04-.96.05-3.54.15-7.27.1-11.15-.31-3.89-.41-7.95-1.15-12.01-2.46-3.87-1.21-7.76-2.95-11.39-5.29z" class="cls-1"/><path d="M44.28 35.1c-5.6-5.29-12.63-8.77-20.07-10.89 2.12 7.44 5.6 14.48 10.89 20.07 5.81 6.15 13.42 10.16 21.61 12.42-2.26-8.19-6.28-15.8-12.42-21.61zm161.52 2.17c-.74-.18-1.64-.39-2.69-.64-1.07-.2-2.29-.43-3.64-.68-5.44-.91-13.24-1.76-22.24-1.09-8.99.58-19.13 2.62-28.82 6.33-2.44.88-4.81 1.95-7.18 2.99-2.32 1.14-4.66 2.25-6.87 3.53-4.54 2.48-8.43 5.19-12.16 6.8-3.89 1.74-7.69 2.33-10.71 1.54-3.11-.79-5.82-2.86-7.54-5.24-1.72-2.37-2.58-5.22-2.82-7.9-.25-2.7.13-5.27.8-7.42.68-2.19 1.66-4.07 2.64-5.53.98-1.48 1.99-2.53 2.89-3.32 1.78-1.59 3.27-2.23 3.26-3.31 0-.44-.41-.82-1.31-1.12-.88-.22-2.31-.32-4.02.22-3.48.99-7.78 4.48-10.41 10.37-1.32 2.99-2.15 6.57-2.02 10.56.13 3.96 1.24 8.4 4.04 12.4 2.76 3.92 7.03 7.25 12.48 8.59 2.74.64 5.67.69 8.4.19 2.75-.48 5.35-1.4 7.79-2.58 5-2.41 9.03-5.67 13.2-8.19 4.2-2.62 8.57-5.08 13.08-7.11 4.5-2.05 9.07-3.81 13.57-5.2 4.52-1.33 8.95-2.41 13.15-3.1 8.4-1.43 15.82-1.49 21.06-1.26 1.31.08 2.49.14 3.52.2 1.02.11 1.9.2 2.61.28l2.2.23s-.8-.19-2.26-.55z" class="cls-1"/><path d="M141.27 30.17c-1.3.72-2.47 1.36-3.48 1.92-.99.6-1.84 1.12-2.53 1.54l-2.12 1.29s.84-.38 2.37-1.09c.77-.35 1.7-.8 2.81-1.27 1.12-.46 2.39-.99 3.81-1.57 5.7-2.26 13.85-5.04 23.45-7.09 9.58-2.13 20.57-3.57 31.68-4.09 11.11-.59 22.31-.25 32.41.39 21.28 1.4 38.79 4.17 51.14 5.42 12.34 1.32 19.49 1.33 19.82-.71.28-1.74-6.44-4.07-18.65-6.64-12.22-2.49-29.99-5.46-51.93-6.27-11.17-.4-23.16.03-34.68 1.54-11.52 1.47-22.54 4.04-31.88 7.15-9.36 3.05-16.99 6.69-22.23 9.49zM314.53 4.74c-14.63.51-33.06 4.11-33.06 4.11s19.47 3.4 33.06 4.11c14.31.74 23.64.08 23.64-4.03 0-3.56-9.3-4.68-23.64-4.18zM133.82 27.4c1-.78 2.08-1.66 3.28-2.54 4.77-3.59 11.07-7.33 16.31-10.05 5.49-2.94 10.17-4.9 13.33-6.69 3.15-1.79 4.84-3.42 4.28-5.43-.46-1.67-2.91-2.3-6.85-1.56-3.92.73-9.31 2.85-15.06 6.68a53.83 53.83 0 0 0-8.37 6.94 62.787 62.787 0 0 0-6.51 7.82 62.632 62.632 0 0 0-3.91 6.38c-.82 1.63-1.3 2.6-1.3 2.6l2.25-2.01c.72-.6 1.58-1.33 2.55-2.14z" class="cls-1"/></g></svg>