<svg xmlns="http://www.w3.org/2000/svg" id="Layer_2" data-name="Layer 2" viewBox="0 0 87.89 83.6"><defs><style>.cls-1{fill:#c9c9c9}</style></defs><g id="OBJECTS"><path d="M15.65 5.81s.02.33-.04 1.07c-.08.73-.16 1.83-.25 3.25-.16 2.83-.2 6.95.44 11.9.65 4.75 1.93 10.26 4.31 15.84 2.06 4.8 4.82 9.69 8.42 14.09 3.45 4.23 7.6 8 12.12 11.06 4.69 3.2 9.8 5.55 14.78 7.12 5.79 1.81 11.37 2.7 16.16 3.1 4.94.41 9.04.21 11.87-.09 1.41-.16 2.52-.32 3.27-.47.75-.13 1.15-.19 1.15-.17 0 .02-.39.13-1.13.3-.74.19-1.84.38-3.26.57-2.84.37-6.96.62-11.92.26-4.82-.35-10.43-1.19-16.27-2.98a56.356 56.356 0 0 1-14.91-7.16c-4.56-3.07-8.8-6.82-12.29-11.09-3.63-4.44-6.48-9.34-8.54-14.19-2.38-5.64-3.58-11.21-4.19-16-.58-4.93-.52-9.04-.28-11.9.13-1.43.24-2.55.37-3.31.11-.77.18-1.18.2-1.2z" class="cls-1"/><path d="M61.49 65.35c.08-.1.54.14 1.11.69.27.26.58.58.88.96.27.32.48.71.73 1.08.24.36.48.73.68 1.1.21.39.43.77.59 1.15.19.44.32.86.43 1.22.22.75.28 1.25.19 1.28-.1.03-.26-.44-.57-1.13-.15-.33-.33-.72-.54-1.14-.18-.36-.36-.74-.58-1.12-.21-.36-.5-.68-.72-1.03-.24-.36-.49-.7-.73-1.02-.27-.37-.48-.76-.71-1.04-.47-.59-.82-.95-.77-1zm-3.33 16.37c-.05-.14.74-.36 1.9-.8.56-.22 1.21-.48 1.87-.83.58-.29 1.2-.6 1.78-1 .56-.39 1.1-.82 1.6-1.27.52-.48.99-.98 1.41-1.48.5-.56.92-1.13 1.26-1.62.69-1.03 1.05-1.77 1.15-1.72.08.03-.18.82-.8 1.93-.31.54-.69 1.15-1.19 1.75-.42.53-.93 1.04-1.46 1.54-.52.47-1.03.98-1.62 1.38-.61.4-1.23.79-1.84 1.07-.71.35-1.42.51-2.01.69-1.22.35-2.05.41-2.06.36z" class="cls-1"/><path d="M61.12 76.85c0-.13.23-.24.57-.22.16.01.35.05.55.12.17.06.32.19.48.28.16.09.32.19.46.31.14.13.3.24.41.38.13.16.22.33.29.48.14.3.16.53.08.57-.09.05-.2-.12-.41-.33-.1-.1-.21-.22-.35-.34-.11-.1-.23-.22-.36-.32-.13-.1-.31-.12-.44-.21-.14-.09-.29-.15-.42-.22-.15-.08-.28-.22-.42-.27-.27-.11-.47-.16-.46-.23zm-7.53-6.97c-.07.11-.84-.42-1.88-1.44-.5-.49-1.06-1.09-1.61-1.79-.48-.6-.9-1.31-1.31-2.03-.4-.7-.76-1.44-1.01-2.21-.27-.8-.47-1.6-.54-2.37-.09-.89-.03-1.73.1-2.43.26-1.45.82-2.25.88-2.21.11.05-.33.87-.47 2.26-.07.67-.08 1.46.04 2.31.1.73.26 1.5.52 2.25.25.73.65 1.41 1.03 2.08.39.7.84 1.34 1.28 1.94.51.69.97 1.35 1.43 1.87.93 1.06 1.6 1.71 1.55 1.77z" class="cls-1"/><path d="M48.56 63.38c-.13-.01-.18-.43.05-.98.11-.26.27-.55.46-.84.16-.25.4-.48.61-.73.2-.24.4-.49.63-.71.23-.23.45-.47.68-.65.27-.22.54-.39.78-.54.48-.3.84-.42.89-.34.06.08-.23.3-.63.67-.22.2-.43.4-.66.62-.21.2-.43.4-.65.63-.21.22-.35.5-.54.72-.2.23-.38.48-.55.71-.2.26-.44.47-.59.68-.29.44-.39.78-.46.77zm-5.91 1.29c-.06.11-.69-.23-1.44-1.01-.36-.38-.75-.86-1.1-1.42-.32-.48-.54-1.05-.79-1.61-.23-.55-.44-1.12-.58-1.69-.14-.6-.28-1.19-.32-1.76-.06-.66-.02-1.27.02-1.78.11-1.07.36-1.72.44-1.7.11.02-.03.69-.03 1.72 0 .5.02 1.08.11 1.7.06.54.16 1.11.31 1.68.15.55.41 1.07.62 1.59.23.54.49 1.05.77 1.51.31.54.59 1.06.89 1.46.63.81 1.15 1.26 1.1 1.32z" class="cls-1"/><path d="M38.87 53.77c.04-.12.77.12 1.68.87.43.36.9.83 1.33 1.4.37.49.66 1.08.94 1.69.27.58.49 1.2.62 1.83.14.65.23 1.3.23 1.91 0 .71-.11 1.36-.23 1.91-.26 1.12-.66 1.77-.73 1.73-.1-.04.18-.71.33-1.8.07-.53.12-1.15.09-1.82a9.51 9.51 0 0 0-.22-1.8c-.13-.59-.4-1.15-.65-1.69-.25-.57-.58-1.09-.9-1.56-.38-.55-.73-1.06-1.11-1.44-.78-.78-1.41-1.15-1.38-1.22zm-3.7 5.21c-.08.1-.85-.73-1.73-2.25-.41-.73-.86-1.61-1.25-2.6-.35-.85-.59-1.8-.85-2.76-.24-.93-.44-1.88-.56-2.83-.12-.99-.23-1.96-.22-2.88-.02-1.06.09-2.04.19-2.87.23-1.71.59-2.78.67-2.76.11.02-.14 1.11-.26 2.8-.05.82-.1 1.78-.06 2.82.02.89.09 1.85.22 2.81.13.93.39 1.84.62 2.75.24.94.53 1.84.85 2.68.35.97.68 1.88 1.05 2.62.75 1.51 1.39 2.43 1.33 2.49z" class="cls-1"/><path d="M27.85 41.55c.13-.04.32.3.54.83l.37.86c.12.27.21.58.35.87.14.28.31.55.46.82.17.28.36.53.53.78.19.29.37.56.53.78.34.46.56.77.49.85-.06.07-.37-.16-.8-.57-.21-.2-.44-.45-.66-.73-.2-.24-.37-.53-.56-.81-.17-.28-.41-.53-.55-.82-.15-.31-.3-.61-.4-.91-.13-.34-.15-.69-.21-.97-.13-.57-.17-.96-.1-.97zm3.4 5.65c-.07-.12.06-.32.27-.52.15-.13.26-.23.36-.33.12-.1.27-.17.4-.28.11-.11.22-.22.34-.35.12-.12.21-.26.32-.37l.35-.35c.21-.22.37-.36.46-.32.08.04.02.24-.11.53-.07.14-.16.3-.27.46-.1.14-.22.27-.35.41-.12.13-.19.32-.33.43-.14.12-.28.25-.42.34-.17.11-.37.14-.51.2-.29.13-.49.19-.52.13zm-10.99-8.26c-.13.02-.3-.49-.37-1.31-.03-.39-.05-.86-.04-1.36 0-.43.09-.88.14-1.35.04-.45.09-.9.17-1.34.08-.46.15-.91.26-1.33.12-.48.28-.92.41-1.29.28-.76.54-1.23.62-1.2.1.03-.05.53-.23 1.31l-.28 1.29c-.08.41-.18.85-.25 1.3-.07.43-.05.88-.1 1.32-.05.45-.07.9-.1 1.31-.04.48-.13.93-.15 1.32-.03.79-.02 1.31-.09 1.33z" class="cls-1"/><path d="M20.28 35.07c-.11-.08-.07-.33.09-.62.08-.14.18-.3.3-.47.1-.14.26-.26.38-.41.11-.14.22-.29.35-.43.13-.14.23-.3.35-.43.14-.15.29-.27.42-.37.26-.22.46-.33.53-.27.08.06-.04.25-.21.53-.09.14-.19.29-.31.46-.1.14-.23.28-.35.43-.11.14-.17.34-.29.48-.12.14-.23.3-.35.42-.14.15-.33.24-.45.35-.24.23-.4.38-.46.34zm-4.31-11.05c-.13 0-.18-.76.02-1.92.1-.56.25-1.2.47-1.88.18-.59.48-1.18.75-1.79.27-.58.55-1.17.89-1.72.33-.58.69-1.13 1.05-1.62.43-.57.88-1.05 1.27-1.46.48-.49.9-.83 1.16-1.03l.08.09c-.2.12-.32.17-.34.14-.03-.03.05-.13.21-.3l.19.21c-.26.3-.58.67-.99 1.15-.35.43-.74.93-1.14 1.5-.34.49-.7 1.01-1.02 1.58-.32.54-.53 1.14-.79 1.7-.27.59-.49 1.18-.69 1.74-.24.65-.49 1.24-.64 1.77-.29 1.09-.4 1.83-.48 1.83z" class="cls-1"/><path d="M15.99 23.98c-.09-.12.48-.58 1.29-1.35.38-.38.83-.82 1.24-1.35.37-.45.77-.93 1.11-1.47.32-.52.59-1.08.84-1.64.25-.59.44-1.18.59-1.74.2-.65.32-1.27.4-1.8.16-1.1.16-1.84.27-1.85.08 0 .2.73.14 1.89-.03.56-.11 1.21-.28 1.9-.13.6-.36 1.21-.61 1.82-.25.59-.47 1.2-.81 1.75-.36.56-.72 1.11-1.14 1.56-.46.54-1 .93-1.44 1.28-.9.72-1.57 1.05-1.6 1.01zM10.9 6.67c.09-.1.42.08.83.44.2.18.42.39.65.63.2.2.37.47.58.69.2.22.41.44.61.67.2.24.42.45.6.67.21.26.38.51.54.73.32.44.49.76.42.82-.07.07-.33-.18-.72-.55-.19-.18-.41-.4-.64-.64-.2-.21-.39-.44-.6-.67-.2-.22-.46-.39-.66-.62-.2-.23-.42-.45-.6-.67-.21-.25-.35-.54-.51-.75-.33-.43-.54-.71-.49-.76zm4.49 4.69c-.05-.13.11-.31.39-.48.13-.08.29-.17.47-.26.15-.08.33-.11.5-.19.16-.08.3-.16.47-.25.17-.1.26-.15.46-.26.13-.06.34-.15.5-.22.3-.13.52-.19.58-.11.06.08-.1.23-.35.45-.12.11-.27.22-.44.34-.15.1-.32.18-.48.28-.16.09-.29.25-.46.33-.18.08-.34.17-.51.23-.19.07-.41.06-.56.1-.32.08-.54.11-.56.05z" class="cls-1"/><path d="M18.08 7.75c.15.01.03.64.39 1.37.17.34.49.67.93.82.37.13.81.17 1.17-.08.35-.23.56-.64.52-1.02-.03-.41-.34-.79-.68-.99-.39-.25-.87-.26-1.26-.13-.81.27-1.13.84-1.22.78-.08-.01.14-.71 1.07-1.16.43-.2 1.09-.29 1.67.04.49.26.89.78.96 1.4.08.6-.2 1.26-.71 1.6-.52.36-1.23.41-1.75.19-.62-.25-.97-.8-1.13-1.24-.33-.96-.01-1.59.03-1.57zm-2.45-1.9c-.02.06-.21.05-.51-.13-.28-.18-.66-.56-.86-1.14-.19-.55-.22-1.34.2-2.02.35-.58.98-.99 1.66-1.16.66-.17 1.44-.09 2 .41.29.25.48.66.48 1.03.01.37-.08.7-.21.99-.29.68-.77 1.17-1.23 1.5-.97.68-1.77.62-1.77.55-.03-.11.71-.18 1.51-.87.38-.33.76-.8.98-1.38.2-.5.27-1.08-.13-1.41-.39-.34-.99-.35-1.48-.22-.53.12-.99.48-1.26.9-.32.47-.43 1.06-.32 1.54.26 1.02.97 1.36.92 1.42zM11 6.77s-.04.22-.35.42c-.3.18-.83.37-1.49.2-.61-.16-1.27-.67-1.53-1.47-.21-.69-.05-1.41.16-2.07.11-.32.27-.66.53-.94.27-.28.63-.45.99-.51.75-.14 1.56.17 1.98.72.51.63.61 1.4.51 1.98-.24 1.23-.96 1.71-.99 1.65-.1-.06.48-.62.58-1.69.04-.5-.1-1.12-.51-1.59-.34-.41-.9-.64-1.47-.54-.57.1-.87.56-1.04 1.1-.19.58-.26 1.19-.13 1.68.14.56.56 1.05 1.03 1.22.49.18.95.1 1.24 0 .29-.1.45-.21.47-.18zm10.38 23.25c0 .12-.93-.06-1.59-1.23-.29-.55-.5-1.32-.26-2.15.21-.73.9-1.28 1.64-1.47.73-.21 1.57.01 2.12.51.59.49.93 1.27.89 1.97-.03.82-.45 1.51-.92 1.91-.49.42-1.01.57-1.36.61-.35.04-.55-.02-.55-.06-.03-.11.82-.07 1.63-.85.37-.37.66-.95.66-1.61 0-.56-.22-1.15-.69-1.55-.46-.39-1.08-.47-1.6-.33-.57.14-1.02.57-1.18 1.06-.21.58-.17 1.25.04 1.74.46 1.04 1.23 1.38 1.18 1.45zm1.21 2.18c-.11.02-.25-.66.36-1.48.29-.38.82-.74 1.46-.8.55-.06 1.17.16 1.58.64.38.44.56 1.08.35 1.67-.23.61-.79.95-1.26 1.1-.57.16-1.1.2-1.57.11-.49-.09-.82-.38-.96-.61-.15-.24-.13-.4-.08-.41.08-.05.28.54 1.1.62.37.03.87-.05 1.33-.21.4-.14.79-.38.93-.76.13-.37-.06-.8-.29-1.08-.24-.3-.67-.42-1.05-.4-.45.01-.88.17-1.17.45-.57.59-.63 1.2-.71 1.18zM28 41.78c.01.06-.17.15-.53.13-.35-.02-.88-.17-1.37-.6-.46-.4-.88-1.11-.86-1.93.01-.7.35-1.4.88-1.92.51-.49 1.28-.83 2.04-.62.76.21 1.32.82 1.51 1.49.22.78.03 1.52-.23 2.04-.58 1.09-1.31 1.46-1.34 1.41-.09-.08.54-.56.97-1.57.19-.48.29-1.12.09-1.71-.16-.5-.58-.98-1.13-1.13-.53-.14-1.09.16-1.47.53-.42.39-.64.97-.67 1.49-.04.61.15 1.2.52 1.58.77.8 1.6.73 1.58.81zm3.39-1.59c-.03.05-.22 0-.46-.24-.23-.24-.5-.69-.55-1.31-.05-.58.17-1.35.75-1.86.49-.45 1.21-.66 1.92-.6.68.06 1.35.44 1.72 1.03.39.61.45 1.41.12 2.01-.37.69-1.03 1.03-1.58 1.15-1.16.22-1.84-.17-1.82-.23.01-.12.73.12 1.7-.17.45-.14.96-.48 1.21-.99.22-.43.2-1.02-.09-1.47-.28-.44-.83-.67-1.31-.72-.52-.06-1.06.15-1.43.46-.44.35-.72.86-.73 1.35-.02 1.03.61 1.52.54 1.57zm2.3 4.46s-.21-.04-.32-.35c-.1-.3-.09-.82.29-1.28.36-.44.97-.71 1.62-.79.57-.07 1.23.07 1.75.47.51.35.84 1.08.68 1.71-.12.65-.58 1.2-1.13 1.43-.63.27-1.28.21-1.76.04-.99-.37-1.36-.96-1.3-1.01.07-.09.53.39 1.41.61.42.1.95.09 1.42-.14.4-.19.74-.56.83-1.03.09-.46-.17-.86-.51-1.12-.36-.29-.85-.36-1.3-.32-.53.04-1.04.15-1.34.45-.31.29-.39.68-.38.92.01.25.09.38.06.41zm9 20.01c-.13.04-.33-.23-.52-.7-.09-.22-.18-.49-.27-.78-.08-.25-.1-.53-.18-.8-.07-.26-.15-.53-.22-.79-.07-.28-.16-.54-.21-.79-.06-.3-.1-.58-.13-.82-.07-.49-.07-.82.02-.85.09-.03.21.28.38.74.08.23.17.49.26.78.08.25.14.52.21.79.07.26.22.51.29.77.07.27.15.54.21.79.07.29.05.59.09.82.09.48.14.8.08.82zm-26.4-41.24c-.12-.06 0-.5.28-1.13.14-.3.32-.65.52-1.02.17-.32.41-.63.6-.97.19-.33.37-.67.58-.99.21-.33.4-.67.62-.97.25-.34.51-.64.73-.89.46-.52.83-.79.9-.73.07.07-.2.41-.57.97-.19.3-.39.61-.61.94-.2.31-.39.63-.6.95-.19.32-.32.69-.51 1.01-.2.34-.38.65-.58.98-.22.36-.49.64-.68.92-.38.57-.63.94-.69.91zm31.77 32.09c-.02.06-.22.04-.5-.14-.28-.18-.65-.55-.86-1.14-.2-.56-.19-1.32.16-2.01.3-.59.91-1.09 1.66-1.2.73-.12 1.47.26 1.87.84.42.61.51 1.36.34 1.99-.19.74-.65 1.27-1.07 1.63-.44.39-.92.57-1.27.56-.35-.01-.5-.16-.47-.2.02-.05.18 0 .45-.04.27-.05.65-.24 1.01-.62.35-.36.7-.86.82-1.45.11-.5.06-1.1-.26-1.55-.31-.43-.88-.62-1.33-.55-.5.07-.94.46-1.18.89-.29.5-.41 1.09-.3 1.57.26 1.01.97 1.36.92 1.43zM52 58.69c.01.07-.27.1-.37-.27-.04-.18.02-.4.12-.58.1-.18.21-.37.37-.57.29-.4.89-.8 1.57-.8.59-.03 1.22.26 1.62.76.39.46.58 1.1.48 1.7-.1.64-.51 1.17-1.01 1.45-.58.33-1.27.3-1.72.08-.48-.22-.76-.56-.88-.82-.13-.26-.12-.43-.08-.44.09-.06.28.59 1.11.87.38.13.87.11 1.3-.16.36-.22.69-.6.75-1.06.07-.45-.15-.9-.41-1.22-.27-.35-.72-.5-1.13-.51-.48-.02-.93.14-1.24.46-.3.32-.57.64-.58.82-.01.21.12.27.1.3zm9.82 7.08c.11.05-.39.77-1.62.9-.57.04-1.34-.06-1.9-.7-.49-.59-.41-1.41-.17-2.04.23-.63.68-1.2 1.29-1.51a2.31 2.31 0 0 1 2-.08c.35.16.64.41.83.7.21.32.24.67.23.95-.03.58-.19 1.01-.28 1.31-.1.3-.16.47-.21.46-.05 0-.06-.19-.02-.51.03-.31.12-.76.1-1.26-.01-.24-.06-.49-.21-.67-.16-.2-.38-.38-.65-.49-.46-.19-1.04-.21-1.53.06-.48.25-.78.75-.97 1.23-.2.51-.18 1.08.09 1.42.31.41.88.65 1.37.65 1.04 0 1.61-.51 1.65-.44zm-.13 11.34c.07.08-.23.58-1.08 1.01-.41.19-1.01.32-1.62.07-.56-.2-.9-.86-.89-1.43-.02-.57.23-1.13.64-1.49.41-.39 1-.6 1.53-.54.61.06 1.11.4 1.37.79.55.82.27 1.48.2 1.44-.11 0 0-.59-.51-1.18-.24-.27-.63-.48-1.09-.5-.39-.02-.8.1-1.11.4-.3.29-.41.72-.4 1.08 0 .4.21.71.52.85.36.18.82.22 1.19.1.75-.27 1.21-.66 1.26-.58zm-3.04 4.51c.06-.02.17.12.16.43 0 .3-.17.75-.6 1.09-.41.34-1.04.5-1.67.45-.54-.06-1.08-.23-1.59-.65-.24-.2-.42-.53-.45-.86-.03-.33.05-.64.19-.91.29-.56.82-.94 1.35-1.09.62-.18 1.25-.06 1.68.18.91.52 1.01 1.26.93 1.26-.09.06-.31-.55-1.1-.89-.37-.16-.86-.2-1.34-.04-.41.14-.82.41-1.02.82-.21.41-.1.83.18 1.06.3.27.82.4 1.24.47.5.07.99.06 1.33-.16.73-.48.66-1.17.72-1.15zm-11.09-5.99c-.12-.03-.05-.61.37-1.39.2-.37.47-.79.81-1.21.3-.36.68-.67 1.07-.99.37-.31.77-.6 1.19-.84.44-.25.87-.48 1.31-.63.5-.18.99-.27 1.41-.34.86-.12 1.42-.04 1.42.05 0 .1-.54.14-1.34.35-.39.11-.83.25-1.3.44-.4.17-.82.35-1.23.59-.39.23-.72.56-1.07.84-.36.29-.68.62-.97.94-.34.36-.68.69-.91 1.02-.47.68-.69 1.18-.76 1.16z" class="cls-1"/><path d="M47.57 75.71c-.03-.14.56-.29 1.44-.49.43-.1.92-.22 1.45-.38.46-.13.96-.23 1.44-.41.47-.17.93-.38 1.38-.58.47-.22.91-.48 1.32-.7.48-.26.9-.53 1.21-.82.65-.59.77-1.21.87-1.19.09 0 .08.71-.57 1.47-.31.36-.74.7-1.23 1-.42.26-.89.5-1.37.73-.46.22-.92.5-1.4.67-.5.18-1 .35-1.49.46-.56.13-1.09.15-1.54.2-.92.11-1.52.1-1.53.04zm4.06-2.75c-.08-.1.1-.38.47-.68.18-.14.4-.3.65-.45.21-.13.47-.21.72-.33.23-.12.47-.23.71-.33.25-.1.49-.22.73-.29.28-.09.54-.13.77-.18.46-.09.78-.08.8.01.03.1-.25.2-.68.38l-.7.29c-.23.09-.46.18-.7.28-.23.1-.43.28-.66.38-.24.12-.44.22-.67.34-.25.12-.52.17-.72.27-.41.2-.68.34-.72.29zm-18.44-.29c0-.15.87-.12 2.21-.18.64-.03 1.39-.09 2.19-.22.69-.11 1.43-.21 2.16-.42.7-.2 1.4-.46 2.07-.75.7-.3 1.35-.66 1.96-1.02.7-.41 1.33-.82 1.85-1.21 1.07-.8 1.7-1.41 1.78-1.34.07.06-.49.75-1.52 1.65-.5.44-1.12.91-1.83 1.35-.61.39-1.3.74-2.02 1.05-.69.31-1.39.64-2.12.84a16 16 0 0 1-2.24.47c-.84.11-1.62.06-2.28.04-1.36-.04-2.23-.22-2.23-.28z" class="cls-1"/><path d="M38.68 76.57c-.05-.14.46-.35 1.19-.72.36-.17.76-.39 1.18-.66.36-.23.76-.45 1.12-.74.34-.29.67-.61.97-.94.32-.34.58-.72.82-1.06.28-.4.48-.79.55-1.16.14-.77-.25-1.23-.17-1.29.04-.1.63.37.58 1.33-.02.45-.21.95-.49 1.4-.24.39-.54.77-.87 1.14-.31.35-.61.75-.98 1.05-.39.31-.78.6-1.18.82-.46.26-.94.39-1.33.53-.8.29-1.36.35-1.38.3zm-2.92-7.78c.01-.13.43-.19 1.05-.13.3.03.64.07 1.02.12.32.05.65.16 1 .22.34.06.68.13 1.02.22.35.1.7.2 1 .34.36.17.66.38.9.58.5.42.68.81.61.86-.08.07-.33-.23-.84-.52-.25-.14-.54-.29-.88-.42-.29-.11-.6-.23-.93-.32-.32-.08-.67-.08-.99-.14-.35-.07-.66-.13-1-.19-.37-.08-.69-.23-.98-.31-.59-.15-.98-.26-.97-.32z" class="cls-1"/><path d="M35.88 68.69c.06.02.07.17-.04.41-.12.23-.38.54-.84.71-.44.16-1.06.14-1.57-.22-.45-.32-.68-.92-.62-1.49.04-.58.45-1.06.89-1.3.45-.27.98-.42 1.49-.35.59.09 1.05.46 1.26.87.22.43.16.84.06 1.07-.11.24-.24.31-.27.29-.04-.03.01-.14.04-.35.03-.2.01-.51-.18-.79-.18-.27-.55-.5-.97-.54-.36-.04-.78.05-1.14.27-.35.22-.53.57-.56.89-.04.36.13.71.39.91.29.24.71.39 1.05.31.72-.18.96-.73 1.02-.68zm-2.35 4.09c.06.02.03.23-.16.54-.19.31-.58.72-1.2.99-.58.25-1.38.39-2.19.1-.68-.22-1.37-.88-1.42-1.74-.07-.79.35-1.57.97-2 .64-.45 1.37-.64 2.06-.66.8-.02 1.57.26 2.02.75.46.5.55 1.09.48 1.45-.07.37-.24.52-.27.49-.05-.03.04-.2.04-.51 0-.3-.13-.78-.53-1.14-.38-.35-1.02-.54-1.71-.5-.59.04-1.25.18-1.76.55-.5.35-.72.97-.68 1.5.02.56.5.98 1.02 1.18.6.24 1.27.26 1.8.08 1.1-.38 1.47-1.16 1.54-1.1zm5.44 3.6c-.14.03-.25-.54-.88-.91-.29-.17-.68-.23-1.06-.08-.32.12-.66.35-.78.72-.11.35-.05.77.15 1.08.2.32.59.51.95.56.42.07.85-.03 1.12-.24.55-.48.38-1.15.51-1.14.04 0 .12.12.14.38.03.25-.02.69-.37 1.05-.33.35-.88.55-1.47.49-.5-.05-1.02-.32-1.34-.8-.3-.44-.46-1.02-.29-1.57.18-.57.65-.99 1.15-1.15.59-.2 1.19.02 1.54.3.76.6.68 1.32.63 1.3zm-23.98-22.5c.06-.05.24.22.64.6.4.39 1.04.86 1.91 1.36.86.5 1.82 1.06 2.87 1.66.91.51 1.87 1.08 2.91 1.54 1 .43 2.05.79 3.1 1.06 1.09.28 2.19.44 3.23.54 1.2.12 2.32.14 3.28.08 1.98-.11 3.24-.41 3.27-.3.02.08-1.23.49-3.23.71-.97.1-2.12.14-3.36.05-1.07-.08-2.19-.27-3.31-.55-1.08-.27-2.19-.56-3.21-1.01-1.06-.47-2.07-1-2.98-1.54-1.06-.63-1.97-1.3-2.78-1.83-.84-.54-1.49-1.09-1.86-1.56-.37-.46-.48-.79-.46-.81z" class="cls-1"/><path d="M17.97 61.02c0-.14.42-.2 1.04-.24.3-.02.65-.04 1.02-.08.32-.03.67-.01 1.02-.07.33-.05.67-.13 1-.2.34-.08.67-.19.98-.28.36-.1.7-.2.99-.29.59-.2.98-.33 1.03-.24.05.08-.3.32-.86.62-.28.14-.61.3-.98.43-.32.12-.67.21-1.03.3-.34.08-.68.23-1.04.28-.37.05-.73.1-1.07.1-.4.01-.76-.08-1.07-.11-.63-.07-1.04-.16-1.04-.22zm2.34-5.65c.12-.07.34.1.57.41.11.15.24.33.37.52.11.17.18.38.3.56.12.18.23.34.35.53.13.19.21.31.36.52.09.16.21.38.32.56.19.34.29.58.22.65-.07.06-.26-.11-.54-.39-.13-.14-.28-.3-.43-.49-.13-.16-.25-.35-.38-.54-.12-.18-.31-.32-.42-.51a6.78 6.78 0 0 1-.33-.56c-.11-.22-.14-.46-.21-.63-.15-.36-.23-.61-.17-.64zm6.65 2.85c.1-.09.32-.02.56.17.11.09.24.21.37.34.11.11.18.28.29.41.11.13.22.25.32.38.1.14.22.25.31.39.1.15.18.31.25.44.14.27.2.47.13.53-.07.06-.22-.07-.44-.27-.11-.1-.23-.22-.35-.35-.11-.12-.21-.25-.32-.38-.11-.13-.27-.2-.38-.33-.11-.13-.22-.26-.31-.39-.11-.15-.14-.34-.22-.46-.16-.26-.26-.43-.21-.47zm-1.03 6.41c-.05-.13.22-.34.65-.6.25-.15.48-.28.71-.42.22-.13.49-.23.72-.39.23-.15.45-.32.67-.48.23-.17.43-.36.63-.53.19-.16.44-.36.65-.52.38-.32.64-.54.72-.48.07.06-.1.34-.42.75-.16.2-.35.42-.58.64-.19.19-.43.37-.66.56-.22.18-.42.41-.66.57-.25.16-.5.32-.75.44-.29.14-.59.19-.83.27-.49.17-.82.24-.84.18z" class="cls-1"/><path d="M27.12 58.53c.07.08-.64.62-1.97.48-.62-.08-1.39-.44-1.85-1.16-.43-.61-.42-1.56 0-2.21a2.59 2.59 0 0 1 1.78-1.24c.75-.14 1.53-.02 2.13.38.7.46 1.04 1.2 1.13 1.81.1.64-.04 1.17-.19 1.48-.16.32-.32.45-.35.43-.11-.04.41-.72.15-1.83-.12-.52-.45-1.09-1.01-1.43-.48-.3-1.12-.42-1.73-.3-.6.11-1.08.54-1.36 1.01-.32.5-.28 1.09 0 1.55.31.54.83.94 1.37 1.05 1.11.23 1.88-.11 1.9-.02zm-.72 5.46c-.07.13-.49-.05-1.12-.12-.3-.03-.67-.04-.94.09-.21.09-.36.28-.31.6.05.28.27.58.51.81.25.24.56.38.84.41.34.05.67-.05.86-.24.42-.43.24-.94.32-.97.04-.02.15.07.21.3.06.22.04.59-.21.93-.24.34-.72.55-1.22.52-.44-.02-.86-.25-1.17-.55-.3-.29-.63-.59-.74-1.08-.05-.25-.03-.52.08-.77s.34-.45.56-.54c.53-.21.96-.04 1.3.04.71.2 1.07.52 1.04.57zm-6.06-8.46c.02.06-.11.16-.39.18-.27.02-.71-.06-1.11-.39-.39-.3-.71-.9-.64-1.55.05-.56.38-1.1.89-1.43.48-.32 1.1-.42 1.65-.25.57.18 1.03.58 1.26 1.07.28.58.19 1.21-.03 1.62-.47.89-1.21.95-1.2.87-.05-.09.53-.27.82-1.03.13-.35.15-.81-.07-1.21-.18-.35-.52-.67-.93-.79-.4-.12-.84.03-1.15.24-.34.21-.53.61-.58.98-.07.43.03.87.3 1.15.57.58 1.2.48 1.19.55zm-2.01 5.32c-.15.02-.14-.75-.86-1.44-.34-.32-.84-.59-1.4-.54-.48.02-1.02.21-1.39.62-.35.38-.52.94-.41 1.41.1.48.61.8 1.08.98.56.21 1.15.21 1.62.07.98-.31 1.4-.96 1.48-.89.08.02-.24.8-1.34 1.28-.53.22-1.23.28-1.93.06-.57-.19-1.25-.59-1.45-1.35-.17-.68 0-1.44.48-1.96.49-.52 1.16-.84 1.82-.86.79-.03 1.41.45 1.77.87.78.92.58 1.8.53 1.77zm-2.74-6.25s-.08.23-.42.43c-.33.2-.9.42-1.63.32-.69-.09-1.5-.54-1.91-1.38-.38-.73-.19-1.67.24-2.35.41-.67 1.04-1.21 1.79-1.46.75-.28 1.75-.18 2.3.43.63.68.72 1.56.63 2.21-.1.68-.35 1.17-.53 1.5-.19.33-.33.49-.37.47-.12-.05.37-.8.49-2.01.04-.57-.11-1.29-.6-1.78-.41-.42-1.09-.54-1.73-.31-.62.22-1.11.73-1.44 1.26-.36.56-.43 1.23-.19 1.75.26.61.82 1.09 1.39 1.21.58.13 1.1.01 1.43-.1.34-.12.52-.23.54-.2zm-3.65-10.74c.12-.09.55.58 1.37 1.43.4.41.9.85 1.49 1.25.51.34 1.07.7 1.7.94.6.23 1.25.38 1.89.46.67.08 1.33.05 1.95-.01.72-.07 1.37-.22 1.92-.4 1.13-.37 1.8-.81 1.86-.72.05.06-.56.61-1.71 1.1-.56.24-1.24.45-1.99.56-.65.09-1.36.1-2.08.02-.68-.07-1.4-.16-2.05-.42-.67-.26-1.31-.59-1.85-.98-.63-.45-1.09-1.01-1.47-1.47-.79-.96-1.08-1.72-1.04-1.75z" class="cls-1"/><path d="M11.94 44.02c.02-.15.73 0 1.78-.06.51-.03 1.09-.12 1.71-.31.55-.15 1.17-.32 1.76-.49.6-.16 1.26-.26 1.91-.18.66.08 1.29.29 1.82.57.62.33 1.11.74 1.52 1.09.82.75 1.26 1.3 1.21 1.37-.07.08-.6-.4-1.46-1.05-.42-.31-.92-.65-1.5-.93-.5-.24-1.05-.44-1.64-.51-.57-.07-1.13.09-1.69.23-.59.15-1.16.37-1.74.52-.67.18-1.34.17-1.88.15-1.13-.05-1.81-.35-1.8-.4zM5.67 31.77c.1-.11.82.77 2.04 2 .58.6 1.3 1.27 2.11 1.93.7.57 1.45 1.2 2.27 1.74.79.52 1.64.99 2.5 1.4.89.44 1.79.78 2.65 1.1 1 .37 1.93.75 2.68 1.18 1.58.88 2.15 1.98 2.06 2.01-.08.07-.7-.9-2.25-1.65-.74-.37-1.66-.69-2.67-1.03-.87-.29-1.8-.68-2.7-1.11-.87-.42-1.78-.83-2.59-1.37-.85-.56-1.65-1.15-2.35-1.76-.82-.71-1.47-1.47-2.03-2.11-.58-.65-1.01-1.23-1.31-1.64-.28-.42-.43-.66-.41-.69z" class="cls-1"/><path d="M5.72 38.19c.07-.12.53.07 1.23.32.34.12.73.26 1.17.36.37.09.77.23 1.19.28.4.05.82.05 1.22.04.42 0 .84-.08 1.24-.12.41-.04.87-.08 1.26-.12.76-.07 1.27-.07 1.28.02.02.1-.47.21-1.21.38-.36.08-.79.17-1.25.25-.4.07-.84.11-1.29.12-.43.02-.88.08-1.32.03-.45-.06-.89-.14-1.29-.26-.47-.14-.85-.39-1.19-.57-.69-.37-1.08-.69-1.05-.75zm11.15 7.45c.02-.14.42-.15 1.01-.19.34-.03.66-.06.98-.08.32-.03.66-.01 1.01-.04.34-.03.69-.06 1.04-.05.36 0 .72.02 1.06.09.39.08.73.23 1 .38.57.32.79.7.73.76-.07.08-.35-.19-.89-.38-.26-.09-.58-.17-.93-.22-.3-.04-.63-.08-.97-.08-.33 0-.65.1-.99.12-.35.02-.69.06-1.02.07-.38.01-.74-.07-1.04-.1-.62-.06-1.01-.21-1-.27zm-3.71-7.48c.02.13-.51.24-1.09-.22-.27-.21-.51-.53-.71-.89-.17-.31-.26-.66-.39-1.01-.12-.34-.23-.68-.31-1.03-.08-.36-.15-.72-.17-1.06-.02-.4 0-.76.03-1.07.06-.64.22-1.03.31-1.02.1.01.06.41.1 1.02.02.3.05.64.1 1.01.04.32.09.66.17 1 .08.33.25.63.36.94.11.33.25.64.39.92.15.33.26.64.45.85.39.43.79.5.78.56z" class="cls-1"/><path d="M10.6 32.22c0 .11-.7.14-1.48-.58-.36-.34-.67-.95-.6-1.64.04-.61.57-1.19 1.18-1.34.58-.18 1.24-.05 1.71.29.49.34.86.8 1.06 1.32.23.58.15 1.32-.26 1.68-.37.36-.77.5-1.05.53-.29.03-.43-.09-.42-.12.02-.05.14-.03.36-.11.22-.07.54-.25.8-.57.25-.28.25-.74.06-1.21-.16-.4-.46-.8-.85-1.06-.38-.26-.85-.27-1.23-.15-.41.11-.66.44-.72.82-.08.44.02.92.29 1.24.56.65 1.18.81 1.15.89zm-4.62 6.16c.06.03 0 .24-.26.51-.27.27-.79.54-1.45.61-.32.04-.64.05-1.01.03-.36-.02-.8-.1-1.18-.38-.65-.49-.87-1.35-.77-2.13.08-.75.53-1.49 1.19-1.88.66-.42 1.5-.53 2.19-.31.8.25 1.38.83 1.66 1.4.3.59.32 1.15.26 1.5-.05.36-.16.54-.21.53-.12 0 .17-.83-.42-1.83-.28-.46-.79-.9-1.44-1.08-.56-.16-1.21-.09-1.75.25-.53.32-.8.91-.87 1.48-.09.6.14 1.22.54 1.54.43.36 1.19.42 1.75.42 1.2-.01 1.72-.7 1.76-.66zm-.07-6.13c.06.09-.52.51-1.59.38-.5-.07-1.12-.37-1.5-.95-.35-.49-.39-1.26-.06-1.82.28-.55.84-.96 1.44-1.06.61-.12 1.26 0 1.74.34.27.19.5.47.6.76.11.29.13.57.13.82-.05 1.05-.59 1.54-.64 1.47-.1-.05.29-.57.23-1.46-.03-.43-.19-.88-.62-1.14-.36-.23-.85-.36-1.32-.26-.46.09-.8.44-1 .81-.22.39-.16.82.05 1.18.24.42.63.74 1.04.85.87.21 1.49 0 1.51.07zm-.25-17.97c.15-.03.2 1 .94 2.34.35.64.87 1.33 1.5 2.02.55.6 1.14 1.24 1.78 1.88.62.61 1.24 1.23 1.83 1.86.62.66 1.23 1.29 1.78 1.91.63.72 1.19 1.42 1.67 2.01.98 1.22 1.56 2.07 1.48 2.13-.08.06-.74-.71-1.79-1.86-.52-.57-1.12-1.21-1.76-1.91-.56-.61-1.16-1.24-1.77-1.9-.6-.62-1.27-1.19-1.87-1.8-.63-.63-1.28-1.24-1.83-1.88-.64-.74-1.1-1.54-1.43-2.24-.7-1.46-.6-2.57-.54-2.56z" class="cls-1"/><path d="M10.91 21.78c-.11.06-.37-.16-.59-.61a4.63 4.63 0 0 1-.3-.76c-.08-.25-.08-.53-.13-.8a5.6 5.6 0 0 1-.1-.81c-.01-.28-.04-.55-.02-.81.02-.3.08-.57.13-.8.11-.47.26-.76.35-.74.1.02.06.32.05.78v.76c0 .24 0 .5.02.76.02.25.13.5.17.75.04.26.1.51.15.74.05.27.05.55.1.77.11.45.22.73.16.77z" class="cls-1"/><path d="M9.98 17.1c-.03.06-.21.02-.47-.17-.25-.19-.58-.57-.75-1.13-.17-.54-.14-1.26.18-1.91.28-.56.81-1.05 1.5-1.24.68-.21 1.46.11 1.86.65.43.56.55 1.26.46 1.87-.11.71-.5 1.28-.93 1.63-.92.72-1.72.55-1.69.47-.03-.11.71-.09 1.42-.78.33-.32.6-.82.67-1.39.06-.49-.03-1.05-.35-1.46-.31-.4-.84-.53-1.26-.4-.47.12-.86.52-1.09.94-.27.48-.41 1.04-.32 1.5.2.97.83 1.37.77 1.43zM3.4 18.48c.11-.08.37.14.75.45.18.15.39.31.64.46.21.13.42.3.67.41.24.1.5.17.75.22.27.05.53.05.78.06.29.01.56 0 .8-.02.48-.06.81-.14.85-.05.04.08-.25.28-.76.45-.25.08-.55.15-.88.17-.29.02-.59-.01-.89-.07-.29-.05-.61-.06-.89-.18-.29-.13-.57-.27-.8-.44-.27-.2-.44-.48-.6-.68-.33-.41-.47-.74-.42-.77z" class="cls-1"/><path d="M3.72 18.78s-.06.2-.33.36c-.26.16-.71.34-1.3.29A2 2 0 0 1 .5 18.35c-.15-.29-.21-.66-.14-1.01.06-.35.24-.66.45-.92.41-.5 1.01-.84 1.64-.92.65-.1 1.36.08 1.82.5.55.47.78 1.17.71 1.72-.06.57-.36.97-.6 1.16-.24.2-.43.22-.45.19-.08-.07.6-.41.63-1.37 0-.43-.21-.94-.65-1.28-.37-.3-.87-.46-1.4-.38-.51.07-.94.4-1.24.76-.33.39-.39.85-.21 1.25.2.46.61.83 1.06.92.94.16 1.54-.28 1.58-.2zm1.76-4.08c0 .07-.17.14-.5.16-.33.02-.84.01-1.42-.29-.52-.27-1.13-.94-1.02-1.83.13-.74.6-1.24 1.06-1.75.45-.47 1.16-.9 1.92-.77s1.37.68 1.59 1.34c.25.76.06 1.5-.23 2-.65 1.05-1.46 1.24-1.48 1.18-.08-.09.64-.41 1.11-1.36.2-.45.3-1.06.08-1.62-.17-.47-.62-.9-1.16-.99-.53-.09-1 .27-1.39.66-.41.42-.78.95-.86 1.4-.11.51.19 1.07.6 1.35.43.28.88.36 1.19.42.31.05.5.07.5.11zm11.4-13.37c-.12.03-.33-.1-.39-.51-.01-.2.03-.48.3-.71.25-.17.55-.1.73-.09.2.02.42.08.61.2.2.13.37.31.44.53.09.25.01.54-.12.7-.29.35-.61.21-.58.12 0-.1.15-.12.22-.32.03-.09.02-.18-.03-.3a.615.615 0 0 0-.22-.27c-.11-.07-.26-.03-.39-.05a.356.356 0 0 0-.18 0h-.1c-.04 0-.19.08-.21.2-.05.25 0 .47-.07.49zm4.1 6.22c-.05.03-.15.03-.22-.08-.07-.12-.06-.35.09-.53.07-.09.18-.17.32-.21.12-.04.26-.05.39-.03.22.03.38.16.54.23.1.04.34.16.42.39.03.08.04.16.03.25-.03.23-.06.4-.16.59-.12.21-.35.37-.55.39-.2.03-.37-.04-.45-.12-.08-.09-.07-.16-.03-.19.08-.06.17.02.35-.08.08-.04.13-.11.19-.24.04-.1.09-.26.1-.38 0-.01 0-.02-.02-.02-.03-.01-.04.03-.15-.03-.15-.08-.28-.12-.38-.15-.11-.03-.19-.11-.28-.06-.18.1-.14.24-.19.28zM9.04 2.58c0 .06-.05.14-.17.15-.12.01-.29-.06-.4-.23-.11-.17-.13-.41-.08-.62.02-.09.07-.17.12-.24.05-.08.16-.21.27-.27l.05-.03c.1-.05.24-.05.35-.03.07 0 .14.02.21.03.16.04.34.07.5.18.18.12.29.38.27.54 0 .18-.09.32-.18.37-.09.05-.16.02-.18-.02-.04-.09.01-.14-.05-.28a.31.31 0 0 0-.15-.15.873.873 0 0 0-.3-.1h-.19c-.03.01-.02.04-.02.04s0-.02-.01.02c-.02.04-.04.07-.06.13-.04.08-.13.16-.12.24.03.17.14.21.14.28zm1.98 10.17c-.11.06-.35-.1-.31-.48.02-.17.11-.38.29-.54.16-.15.4-.17.6-.18.2 0 .41.04.58.16.15.1.4.37.33.63-.06.24-.16.34-.25.47-.19.23-.38.31-.45.24-.08-.06.01-.2.08-.42.03-.1.07-.26.08-.34-.01-.03 0-.04-.09-.11-.08-.05-.19 0-.27 0-.09 0-.15.03-.21.06-.07.03-.2.07-.25.16-.1.18-.07.33-.14.36z" class="cls-1"/><path d="M3.48 11.46c0 .05-.08.16-.23.11a.857.857 0 0 1-.39-.33c-.11-.16-.21-.38-.24-.65-.03-.23.07-.5.2-.72.13-.23.35-.4.58-.48.24-.08.52-.11.75-.02.27.11.43.32.52.51.18.4.02.66-.06.64-.1 0-.09-.21-.28-.41a.87.87 0 0 0-.34-.22.652.652 0 0 0-.39.01c-.14.05-.19.2-.24.29-.07.1-.08.23-.09.36 0 .15-.04.34 0 .48.11.33.2.39.21.43zM.84 16.48c.02.06 0 .15-.13.2-.12.04-.33 0-.49-.18-.15-.18-.18-.43-.18-.63 0-.17.07-.35.18-.56.11-.21.3-.37.51-.44.22-.07.46-.08.66.01.23.11.35.31.41.47.12.35-.02.56-.11.54-.1 0-.1-.17-.25-.33a.654.654 0 0 0-.26-.17.446.446 0 0 0-.28 0c-.1.04-.12.16-.14.21-.04.06-.06.2-.08.33-.03.14-.1.25-.08.33.06.17.2.18.22.23zm21.3 8.59c-.13.01-.27-.23-.26-.64.01-.2.03-.39.14-.67.03-.07.1-.17.19-.24.25-.17.47-.12.63-.12.23 0 .45.04.67.12.07.02.2.09.27.16.2.23.19.42.2.56 0 .27-.08.5-.17.67-.09.17-.21.32-.35.37-.15.05-.21-.05-.18-.08.03-.05.03-.07.04-.11.02-.04.07-.15.1-.31.03-.15.04-.32.02-.5-.01-.11-.04-.23-.05-.22-.01-.01 0-.01-.06-.03-.16-.05-.35 0-.51-.02-.14-.01-.22.02-.2.01l-.02.02c-.07.12-.22.32-.27.46-.11.32-.13.55-.2.56zm3.27 5.02c-.13 0-.26-.28-.02-.62.11-.15.3-.3.56-.36.23-.05.46.05.66.15a1 1 0 0 1 .46.47c.1.21.14.45.08.66-.07.25-.27.42-.44.49-.37.15-.59-.03-.56-.11.02-.1.18-.08.33-.23.07-.07.12-.15.13-.26.01-.09.01-.21-.03-.3-.05-.1-.18-.11-.26-.16a.554.554 0 0 0-.27-.06c-.09 0-.24-.03-.34.04-.19.13-.24.3-.31.29zM8.9 28.93c-.1.08-.34 0-.57-.31-.1-.16-.2-.39-.18-.68.02-.24.18-.48.41-.65.24-.18.56-.18.77-.11.22.07.41.15.58.3.19.17.3.44.28.65-.03.47-.4.55-.42.45-.05-.08.07-.18 0-.4-.03-.1-.09-.18-.22-.27-.1-.07-.24-.15-.38-.2-.15-.04-.22.06-.26.08-.06.03-.11.14-.13.23-.03.1-.09.26-.05.4.08.28.2.46.15.51zm-5.75.86c-.05.11-.27.21-.61-.02-.17-.11-.31-.42-.28-.67.02-.22.14-.39.25-.56.11-.17.25-.34.46-.43.21-.1.44-.15.66-.09.25.07.44.29.49.47.12.41-.16.59-.22.52-.08-.05-.03-.18-.15-.33a.326.326 0 0 0-.23-.12.535.535 0 0 0-.3.04c-.1.05-.12.19-.19.28-.07.09-.11.23-.13.31-.03.09-.1.17-.04.27.12.18.32.28.29.34zm-1.56 7.17c-.11.08-.3 0-.49-.05-.09-.03-.19-.04-.26-.03-.06 0-.16-.01-.22.04-.05.05-.06.09-.07.16 0 .08.05.15.09.22.04.08.13.17.22.22.19.11.38.16.39.26.02.09-.17.17-.49.14a.865.865 0 0 1-.52-.25.898.898 0 0 1-.24-.56c-.02-.2 0-.5.2-.65.19-.16.41-.23.62-.22.26.01.41.19.52.29.24.21.3.4.25.44zm32.44-.22c-.12.05-.33-.06-.48-.44-.06-.17-.1-.46.03-.73.09-.23.4-.43.71-.43.28 0 .51.1.69.26.18.17.32.37.36.6.05.26-.02.52-.14.68-.26.37-.62.27-.58.17 0-.1.15-.12.21-.35.03-.1.03-.23-.02-.36a.816.816 0 0 0-.2-.33c-.09-.08-.25-.05-.31-.05-.05 0-.09.03-.15.11s-.16.2-.16.34c.01.28.09.5.02.52zm3.29 6.97c-.13.02-.24-.33.1-.59.15-.12.4-.18.63-.15.2.02.37.16.52.25.08.05.14.08.24.18.11.09.19.22.19.37.03.3-.21.58-.4.64-.23.09-.41.06-.56.05-.32-.05-.48-.19-.45-.28.02-.1.19-.07.43-.13.11-.03.25-.06.34-.12.08-.05.09-.06.09-.1-.02-.04-.07.02-.2-.08-.11-.07-.22-.11-.31-.14-.1-.03-.19-.11-.3-.08-.2.05-.25.19-.32.18zm-10.03-6.62c-.13-.02-.22-.24-.21-.56 0-.15.02-.33.04-.52.01-.08.04-.16.07-.24.02-.05.08-.29.18-.39.03-.03.06-.06.1-.09.11-.07.25-.1.38-.08.14.02.19.03.29.06.2.06.42.15.57.34.18.21.19.54.11.71-.08.2-.23.31-.35.32-.12.01-.17-.04-.18-.08 0-.1.12-.12.13-.33 0-.11-.02-.16-.11-.25a.77.77 0 0 0-.31-.18c-.05-.01-.15-.02-.16 0-.01.02 0 .04 0 .04s0-.05-.01.06c-.02.08-.03.15-.06.24-.05.18-.18.33-.23.48-.1.29-.17.48-.24.47zM12.62 51c-.14 0-.24-.22-.43-.39a.862.862 0 0 0-.33-.2c-.11-.03-.24-.09-.38-.05-.13.03-.25.13-.31.2-.04.06-.03.09.03.2.08.13.21.27.32.38.19.22.35.13.45.12.05 0 .06.13-.08.24-.12.11-.41.09-.58 0-.17-.08-.36-.18-.54-.39-.17-.16-.26-.57-.06-.84.16-.23.34-.43.6-.5.26-.07.53-.07.77.03.28.12.41.38.5.55.19.38.11.66.05.65zm7.29 1.18c0 .12-.18.29-.61.24a.812.812 0 0 1-.61-.49c-.11-.31.04-.59.2-.79.16-.2.4-.33.64-.36.25-.03.53.01.72.19.22.2.27.45.27.65 0 .43-.28.57-.34.5-.08-.06.01-.21-.06-.44a.521.521 0 0 0-.2-.28.437.437 0 0 0-.31-.07c-.12.02-.19.15-.24.21-.06.06-.07.16-.07.19-.01.04.03.21.14.26.23.11.47.12.46.2zm4.79 2.35c.03.12-.23.3-.56.1a.787.787 0 0 1-.35-.52c-.05-.22.08-.48.22-.64.14-.16.33-.28.54-.31.22-.03.49.03.64.2.17.2.18.43.15.59-.07.37-.36.42-.39.34-.06-.08.02-.17-.02-.33-.02-.08-.06-.16-.12-.2-.04-.03-.09-.07-.17-.05-.08.01-.12.13-.15.17-.05.05-.05.08-.05.14-.01.06-.04.19.01.27.11.16.26.18.26.25zm-10.86 5.69c-.12.07-.33-.08-.6-.3-.13-.11-.32-.25-.32-.2-.03 0-.21.02-.3.13-.1.11-.15.26-.17.4-.02.15.04.28.1.37.08.12.21.22.35.26.29.1.52-.03.59.04.08.05-.13.37-.62.37-.23 0-.51-.08-.73-.31-.2-.2-.26-.5-.24-.77.02-.26.05-.55.25-.76.2-.21.44-.39.81-.38.22.02.38.17.45.27.07.11.14.22.18.28.23.33.32.57.26.61zm9.49 3.81c-.02.14-.24.2-.47.24-.11.02-.2.06-.24.11-.03.03-.13.07-.14.17-.02.09 0 .16.04.25s.13.15.21.21c.1.07.16.12.23.12.17-.02.36-.19.44-.12.06.05.07.24-.26.49-.19.12-.47.09-.66-.01-.17-.09-.32-.24-.43-.42-.1-.17-.23-.4-.18-.63.05-.23.17-.46.38-.58.24-.15.48-.07.63-.05.31.06.47.16.46.22zm9.82 3.33c-.1.09-.33 0-.62-.12-.14-.06-.3-.1-.39-.08-.05 0-.16.01-.22.13a.36.36 0 0 0 0 .32c.05.11.17.2.28.26.13.08.29.12.44.11.31 0 .54-.11.6-.02.06.07-.11.28-.51.43-.19.07-.46.09-.73 0-.23-.08-.44-.27-.57-.51-.13-.23-.21-.57-.07-.83.13-.27.41-.5.73-.51.36 0 .54.22.68.33.31.25.43.47.38.51zm-4.89 5.32c-.07.12-.33.06-.58.03-.13-.01-.21 0-.28.06-.06.05-.11.05-.11.09 0 .05.11.14.24.22.13.08.28.12.41.17.16.05.32.09.47.1.3.02.52-.02.57.06.05.08-.14.24-.51.34-.18.05-.39.06-.63.03-.2-.03-.4-.12-.59-.23-.17-.11-.44-.18-.55-.52-.11-.37.14-.73.37-.83.29-.15.6-.02.75.06.35.18.47.36.44.41zm7.56 4.38c-.12.07-.31-.02-.55-.03-.12 0-.25 0-.37.05-.09.04-.22.06-.27.15-.04.1-.04.07.02.16.08.09.24.18.36.26.14.09.29.17.42.2.26.08.47 0 .54.08.07.06-.13.3-.55.33-.2.01-.42-.03-.63-.12-.19-.09-.35-.19-.53-.37-.08-.09-.19-.21-.23-.38a.64.64 0 0 1 .07-.46c.15-.25.39-.41.63-.47.28-.06.52.06.69.13.37.17.47.45.42.47zm13.37-25.78c-.08.11-.48-.13-.53-.74-.03-.28.01-.58.08-.9.07-.26.22-.64.65-.84.43-.17.79.02 1.02.13.13.07.29.14.44.28.15.15.23.36.23.54 0 .41-.15.66-.26.9-.12.24-.29.43-.45.49-.16.06-.26.02-.26-.03 0-.1.21-.15.32-.61.05-.21.13-.49.1-.7-.02-.17-.09-.25-.36-.38-.24-.12-.49-.1-.55-.06-.09.02-.19.21-.26.44-.09.27-.23.51-.25.72-.06.45.12.69.07.74zm6.37 6.42c-.12-.04-.19-.28.03-.53.1-.11.26-.22.46-.27.18-.04.36.02.53.07.17.06.31.12.47.29.06.07.11.15.13.23 0 .16 0 .33-.04.39-.07.16-.17.29-.28.39-.25.22-.5.11-.48.02 0-.1.09-.12.15-.27.03-.07.06-.17.09-.29.02-.08 0-.08.02-.1 0 0 0-.02-.01-.03-.03-.03-.17-.03-.23-.05a.462.462 0 0 0-.23-.02c-.08 0-.2-.05-.29 0-.17.08-.25.19-.31.17zm3.86 5.25c-.1-.09-.16-.25-.28-.29-.05-.02-.08-.02-.16-.01-.06 0-.14-.03-.23.03-.08.05-.15.14-.23.24-.08.1-.13.21-.17.29-.05.1-.09.19-.09.28 0 .19.1.33.08.42-.01.1-.31.05-.47-.29-.08-.16-.09-.38-.04-.58.05-.17.15-.32.25-.46.09-.13.16-.32.33-.43.17-.11.4-.19.61-.17.26.02.45.25.51.42.16.37-.07.6-.12.54zm-.74 13.08c-.09.1-.31.05-.57.04-.13 0-.27 0-.4.04-.11.03-.24.04-.3.12-.05.07-.05.16-.03.19.03.07.19.19.29.26.12.09.25.17.37.19.25.05.45-.06.52 0 .08.04-.07.34-.5.41a1 1 0 0 1-.66-.13 1.32 1.32 0 0 1-.49-.46c-.15-.25-.17-.61 0-.84.19-.24.44-.35.66-.38.26-.04.49.08.66.15.36.15.5.36.45.41zm-4.17 5.92c-.06.12-.3.12-.56.2-.13.03-.27.09-.4.18-.05.03-.1.06-.17.11-.06.03-.12.11-.11.1s0 .02.01.03c.02.02.07.07.12.11.12.09.26.11.39.14.15.03.31.02.45-.02.28-.09.45-.25.54-.21.08.04 0 .31-.34.56-.16.12-.4.21-.67.21-.23 0-.47-.09-.67-.22-.09-.06-.18-.11-.29-.22-.11-.12-.19-.29-.16-.46.01-.04.03-.06.04-.1.08-.21.16-.28.25-.38.09-.09.19-.16.29-.21.25-.12.51-.09.7-.07.41.03.62.22.59.27z" class="cls-1"/></g></svg>