<svg xmlns="http://www.w3.org/2000/svg" id="Layer_2" data-name="Layer 2" viewBox="0 0 218.68 56.79"><defs><style>.cls-1{fill:#c9c9c9}</style></defs><g id="OBJECTS"><path d="M129.48 31.5c0-.06.26.09.84.21.57.1 1.48.07 2.51-.38 1.05-.42 2.1-1.34 3.39-2.36 1.27-1.05 3.15-1.87 5.25-1.9 2.02-.05 4.19.47 6.25 1.47 2.07.97 4.05 2.34 6.12 3.64 1.79 1.12 3.68 2.21 5.77 2.86 1.04.32 2.13.52 3.23.52.55.02 1.1-.09 1.65-.14.54-.12 1.09-.23 1.62-.41 4.14-1.4 7.44-4.72 11.46-6.78 2.09-1.05 4.46-1.73 6.78-1.48 2.31.23 4.41 1.1 6.34 1.99 2.24 1.06 4.33 2.16 6.43 2.87 2.1.75 4.16 1.21 6.08 1.47 3.96.54 7.29.28 9.56-.08 2.28-.36 3.53-.74 3.55-.67 0 .03-.3.14-.89.32-.59.18-1.47.42-2.61.63-2.27.44-5.64.77-9.67.29a30.89 30.89 0 0 1-6.19-1.41c-2.16-.71-4.3-1.79-6.51-2.83-1.91-.88-3.95-1.71-6.12-1.93-2.18-.25-4.39.37-6.41 1.38-3.9 1.97-7.13 5.38-11.51 6.9-2.24.82-4.76.78-6.95.1-2.21-.65-4.17-1.77-5.97-2.91-2.08-1.33-4-2.71-5.98-3.7-1.96-1.01-4.01-1.56-5.93-1.57-.98 0-1.91.15-2.75.43-.84.29-1.57.71-2.22 1.18-1.29.94-2.39 1.88-3.51 2.32-1.1.46-2.08.49-2.71.34a2.71 2.71 0 0 1-.7-.25c-.15-.09-.22-.14-.23-.15z" class="cls-1"/><path d="M140 27.55c-.14-.06-.02-.61.47-1.29.23-.32.55-.68.93-1.01.33-.29.75-.51 1.15-.75.39-.23.81-.44 1.24-.59.44-.16.88-.3 1.3-.38.49-.09.95-.12 1.33-.14.8-.05 1.32 0 1.33.11.02.12-.49.21-1.26.38-.37.08-.8.17-1.26.29-.39.1-.81.21-1.22.36-.39.15-.73.42-1.09.62-.38.21-.71.47-1.03.71-.36.28-.74.51-1.01.77-.54.54-.82.97-.89.93zm12.33 4.3c.03-.19 1.22.18 3.08.13.89-.03 1.93-.15 3.02-.46.94-.26 1.93-.58 2.88-1.07.91-.47 1.77-1.06 2.58-1.7.84-.66 1.59-1.41 2.28-2.12.8-.82 1.51-1.62 2.09-2.33 1.2-1.46 1.95-2.44 2.05-2.37.09.06-.55 1.12-1.66 2.67-.54.75-1.21 1.61-2 2.47-.69.75-1.48 1.49-2.34 2.18-.82.67-1.68 1.36-2.64 1.85-.99.51-2.02.92-3.02 1.17-1.16.3-2.28.3-3.22.26-.96-.04-1.75-.19-2.28-.35-.53-.16-.82-.3-.82-.33zm-17.32-1.57c-.05-.05.09-.28.5-.52.4-.25 1.09-.47 1.93-.42.81.05 1.73.31 2.6.82.77.44 1.4 1.11 2.02 1.77.6.64 1.16 1.31 1.71 1.96.57.67 1.18 1.28 1.79 1.77.71.58 1.45 1 2.14 1.24 1.43.5 2.45.1 2.48.24.07.07-.99.65-2.61.24-.77-.2-1.61-.6-2.4-1.19-.69-.51-1.29-1.18-1.88-1.86-.57-.65-1.19-1.27-1.76-1.88-.59-.64-1.22-1.2-1.88-1.61-.75-.48-1.53-.84-2.25-.94-1.5-.21-2.34.49-2.39.39zm43.83-1.89c-.12-.08.67-1.06 2.37-1.93.81-.41 1.81-.8 2.92-1.1.95-.26 1.99-.41 3.03-.59 1-.17 2.01-.34 3.02-.51 1.03-.17 2.03-.4 2.96-.64 1.08-.27 2.05-.58 2.86-.93 1.66-.71 2.58-1.5 2.67-1.4.07.06-.78.98-2.45 1.84-.81.42-1.8.81-2.89 1.12-.95.27-1.97.47-3.01.65-1 .18-2.01.43-3 .59-1.03.17-2.03.39-2.96.61-1.07.26-2.07.5-2.88.84-1.66.7-2.55 1.51-2.63 1.44zm9.34-.41c.04-.16.4-.2.92-.2h.84c.26 0 .55.04.84.02.28-.03.56-.08.83-.14.29-.06.56-.15.81-.22.3-.08.58-.15.82-.23.49-.16.83-.28.9-.18.06.09-.21.33-.68.62-.23.14-.51.29-.83.41-.27.11-.58.18-.89.25-.3.07-.59.21-.9.23-.32.02-.63.05-.93.03-.34-.02-.65-.16-.91-.23-.53-.13-.86-.28-.84-.35zm9.09 3.87c.02-.16.61-.16 1.47-.03.46.07.92.14 1.41.21.44.06.91.18 1.39.2.47.02.94 0 1.39-.04.48-.04.93-.16 1.35-.27.49-.13.94-.29 1.3-.47.75-.37 1.18-.75 1.27-.67.08.06-.26.57-1.02 1.09-.37.25-.83.49-1.36.67-.46.15-.96.24-1.48.3-.49.06-1 .16-1.5.13-.52-.03-1.02-.08-1.48-.17-.54-.1-1-.32-1.41-.44-.84-.25-1.37-.43-1.36-.51z" class="cls-1"/><path d="M197.51 31.95c0-.16.37-.3.93-.21.27.04.58.14.89.28.27.13.51.35.76.55.24.19.48.41.66.65.2.25.39.51.51.78.14.31.21.62.26.89.09.55 0 .9-.11.91-.12.01-.17-.31-.36-.76a5.36 5.36 0 0 0-.36-.72 6.41 6.41 0 0 0-.44-.67c-.17-.21-.43-.33-.62-.49-.21-.18-.44-.31-.65-.44-.25-.15-.46-.35-.68-.44-.45-.19-.78-.24-.78-.33zm-29.48 2.97c-.08-.14.5-.57 1.49-1.08.48-.24 1.05-.5 1.7-.75.55-.21 1.18-.33 1.81-.48.6-.14 1.23-.26 1.86-.29.65-.03 1.29-.04 1.89.06.69.11 1.31.32 1.81.55 1.04.48 1.53 1.06 1.46 1.13-.08.11-.63-.34-1.64-.67-.49-.16-1.07-.3-1.71-.37-.55-.06-1.15-.09-1.76-.05-.59.04-1.16.23-1.73.36-.6.13-1.17.32-1.71.49-.63.2-1.24.33-1.73.52-1.02.38-1.68.65-1.72.58zm-27.89-4.41c.11-.11.41-.01.7.34.13.17.27.38.36.64.09.22.09.47.13.72.04.24.06.48.05.72-.02.25-.02.5-.09.72-.07.26-.2.48-.31.65-.23.37-.48.53-.57.46-.1-.07.02-.29.11-.65.04-.17.09-.38.12-.6.03-.19.07-.39.07-.6 0-.2-.11-.4-.13-.59-.03-.2-.08-.4-.13-.58-.05-.21-.04-.44-.11-.61-.14-.35-.28-.56-.22-.62zm13.57 1.45c.06-.16.36-.17.75-.21.19-.02.4-.04.63-.1.19-.05.41-.05.61-.15.19-.09.36-.22.51-.36.17-.14.28-.32.4-.49.14-.19.27-.38.35-.56.18-.37.25-.65.37-.66.11 0 .18.3.1.79-.04.23-.12.5-.27.76-.13.23-.31.44-.51.63-.19.18-.37.43-.63.55-.26.12-.53.22-.8.25-.31.04-.59-.07-.82-.12-.47-.1-.73-.28-.7-.34zm8.64-1.7c-.14-.09-.12-.36-.03-.68.06-.21.11-.37.16-.53.05-.16.17-.32.22-.5.05-.18.07-.36.11-.54.03-.19.03-.37.06-.55.02-.15.06-.38.09-.56.04-.34.08-.58.2-.61.11-.03.2.2.29.56.04.18.07.39.07.62 0 .2-.03.41-.06.62-.03.2.02.43-.04.63-.06.21-.12.42-.21.6-.1.21-.3.36-.4.5-.22.3-.4.46-.46.42zm30.71-2.78c-.12.03-.45-.44-.18-1.29.13-.39.57-.86 1.16-.94.5-.09 1.04.17 1.39.53.35.34.57.85.5 1.37-.07.53-.37.98-.77 1.23-.47.3-1.05.26-1.41.08-.79-.38-.81-1.03-.71-1.03.11-.06.27.4.87.56.28.07.61.05.88-.16.24-.17.45-.45.48-.76.03-.3-.18-.58-.37-.78-.21-.23-.49-.3-.76-.29-.3.01-.6.13-.76.4-.3.54-.23 1.06-.32 1.06zm12.86 3.96c-.1.11-.58-.22-.54-1.03.02-.38.22-.82.58-1.15.32-.27.77-.45 1.31-.34.56.17.79.62.91 1.01.12.42.12.9-.1 1.28-.24.43-.67.68-1.04.72-.39.05-.69-.1-.84-.23-.15-.14-.18-.26-.14-.3.07-.09.37.2.87.05.22-.07.45-.26.57-.53.1-.22.14-.52.05-.8-.08-.28-.36-.47-.46-.48-.14-.05-.44.06-.63.21-.23.17-.47.38-.54.64-.14.54.07.91 0 .95z" class="cls-1"/><path d="M201.44 34.99c-.03-.07.03-.18.22-.25s.5-.06.8.14c.29.17.57.58.58 1.04.02.4-.19.77-.44 1.07-.25.29-.6.52-1.02.55-.44.05-.92-.22-1.08-.58-.21-.41-.13-.86.02-1.13.33-.58.77-.64.81-.56.08.1-.23.3-.35.73-.05.2-.04.43.09.63.11.16.25.27.46.25.21-.02.37-.22.5-.37.15-.16.22-.39.23-.57.02-.21.02-.45-.14-.61-.32-.33-.67-.24-.68-.33zm13.85-2.45c-.08-.01-.12-.16-.1-.42.02-.25.1-.65.42-1.05.29-.37.92-.78 1.65-.53.6.22.89.75 1.13 1.22.23.46.4 1.03.22 1.62-.18.63-.79 1.03-1.33 1.07-.65.07-1.2-.27-1.5-.59-.4-.43-.53-.87-.56-1.12v-.06c.12-.09.2-.13.23-.11.04.03.02.11-.05.24l.02-.16c.12.19.31.54.68.83.29.22.67.39 1.08.32.35-.05.69-.26.79-.61.1-.35-.09-.74-.26-1.1-.18-.39-.47-.71-.73-.82-.27-.15-.71-.08-.97.17-.52.53-.62 1.14-.72 1.1zm-17.72-10.67c-.05.06-.21.03-.37-.19-.16-.21-.24-.66-.07-1.1.16-.41.45-.86 1.02-1.15.24-.12.56-.16.86-.08.3.08.54.25.73.44.37.38.59.76.77 1.23.08.25.14.55.07.85-.07.3-.26.54-.47.7-.49.37-1.1.36-1.49.21-.82-.32-1.09-.8-1.04-.87.07-.11.48.26 1.15.39.32.06.68 0 .97-.24.24-.21.33-.46.2-.82-.13-.34-.44-.69-.66-.92-.25-.25-.49-.29-.76-.19-.31.11-.66.37-.83.66-.35.61 0 1.04-.07 1.08zm-17.82 11.9c-.07-.02-.13-.16-.04-.4.08-.23.33-.57.81-.7.46-.13 1.07.01 1.48.49.36.44.35 1.02.26 1.5-.09.47-.33.96-.77 1.26-.44.31-1.05.41-1.53.14-.54-.31-.73-.84-.76-1.25-.02-.87.38-1.26.45-1.22.13.04-.1.51.03 1.14.07.29.27.61.56.75.24.12.58.1.86-.09.26-.19.35-.55.42-.86.08-.34.01-.67-.13-.87-.16-.24-.47-.47-.76-.44-.63.08-.81.61-.88.56zm-5.54-2.93c-.1-.12.14-.49.69-.86.26-.17.59-.35.96-.5.32-.14.69-.18 1.05-.26.35-.08.71-.15 1.06-.18.37-.02.73-.06 1.08-.03.4.03.76.12 1.06.2.62.17.98.4.95.5-.03.12-.42.03-1.02-.01-.29-.02-.63-.04-1-.03-.32 0-.65 0-.99.03-.33.03-.64.18-.96.25-.33.07-.65.17-.95.27-.35.1-.7.15-.97.26-.56.23-.9.44-.95.37z" class="cls-1"/><path d="M180.51 29.34c-.07-.05-.08-.16-.02-.33.06-.16.19-.43.56-.6.17-.07.41-.12.67-.03.25.09.43.28.55.46.2.32.27.65.32 1.06.04.38-.05.84-.41 1.15-.37.3-.84.36-1.21.23-.45-.15-.7-.54-.79-.84-.19-.65.08-1.03.18-.99.12.02.04.38.27.79.11.19.28.36.52.41.2.05.45.03.59-.1.15-.13.12-.38.1-.59 0-.22-.14-.51-.24-.71-.11-.21-.15-.35-.39-.33-.41.1-.65.48-.72.41zM169.8 22.5c-.03.07-.24.05-.52-.17-.27-.22-.62-.66-.71-1.31-.1-.63.15-1.44.75-1.99.5-.49 1.32-.71 2.06-.56.71.13 1.37.56 1.73 1.21.38.67.39 1.48.13 2.11-.3.75-.98 1.21-1.56 1.34-.61.15-1.12.03-1.43-.12-.31-.15-.43-.31-.4-.35.04-.12.7.34 1.68 0 .45-.16.9-.54 1.1-1.1.18-.48.19-1.07-.08-1.54-.26-.47-.81-.71-1.29-.81-.52-.11-1.03.08-1.4.4-.44.36-.74.87-.73 1.36.05 1.04.75 1.48.68 1.54zm-12.71 7.82c.03.07-.06.2-.3.17-.22 0-.54-.29-.6-.66-.05-.35-.05-.68.1-1.1.13-.36.5-.69.95-.79.48-.11.93.15 1.17.46.26.33.38.74.33 1.12-.05.45-.35.79-.62.96-.59.36-1.04.14-1 .04 0-.12.36-.09.69-.42.15-.16.27-.37.28-.62 0-.22-.04-.47-.19-.65a.482.482 0 0 0-.49-.15c-.16.03-.3.18-.4.37-.11.21-.26.53-.27.74-.01.46.34.49.34.55zm-8.38 6.88c-.08-.02-.11-.19-.07-.48.04-.28.13-.73.53-1.17.38-.42 1.04-.71 1.76-.65.63.04 1.25.5 1.56 1.07.32.54.42 1.24.17 1.86-.25.63-.79 1.09-1.37 1.26-.68.21-1.39-.02-1.78-.36-.43-.35-.61-.78-.66-1.07-.05-.3.01-.46.06-.46.12-.03.14.65.88 1.13.34.22.82.32 1.29.15.4-.14.8-.45.96-.88.16-.42 0-.89-.2-1.25-.21-.4-.6-.62-1-.68-.46-.07-.97 0-1.28.26-.32.27-.49.63-.61.87-.12.25-.2.39-.24.38zm-2.04-13.93c-.06.04-.24-.07-.34-.41-.1-.33-.09-.91.31-1.44.36-.53 1.18-.89 1.97-.72.68.11 1.31.63 1.64 1.28.33.62.4 1.35.23 2.01-.18.68-.59 1.33-1.24 1.63-.37.17-.8.19-1.15.08a2.1 2.1 0 0 1-.84-.49c-.44-.43-.6-.9-.68-1.21-.07-.32-.06-.5 0-.52.14-.06.25.72 1 1.35.36.28.92.45 1.38.2.41-.2.76-.67.89-1.2.13-.52-.02-1.08-.24-1.51-.23-.47-.67-.75-1.13-.86-.52-.13-1.07-.05-1.39.3-.33.35-.43.77-.42 1.04 0 .28.07.44.03.47zm21 2.58c-.07-.03.02-.34.45-.72.42-.38 1.19-.74 2.14-.89.92-.17 1.98-.14 3.02-.39.22-.05.43-.11.65-.2.25-.08.89-.48 1.28-.73-.03.48-.08 1.01-.14 1.43-.03.26-.06.34-.09.49-.03.14-.07.27-.11.41-.3 1.03-.84 2.02-1.59 2.79-.77.81-1.71 1.44-2.71 1.74-1.15.35-2.27.32-3.18.15-1.91-.39-2.79-1.38-2.72-1.43.07-.13 1.01.7 2.8.94.85.1 1.88.07 2.9-.28.88-.29 1.74-.83 2.43-1.56.67-.71 1.08-1.64 1.36-2.55.04-.12.08-.25.1-.37l.06-.28c.01-.07 0-.06 0-.06l-.11.04c-.24.1-.5.17-.74.22-1.19.24-2.25.07-3.11.17-.89.08-1.59.32-2.02.59-.44.26-.62.5-.66.47z" class="cls-1"/><path d="M166.21 26.96c.02-.16.28-.27.63-.33.22-.04.4-.07.58-.11.18-.03.38-.01.58-.06.19-.05.37-.12.56-.19.19-.07.36-.17.53-.25.2-.09.39-.16.55-.24.33-.16.57-.28.65-.19.08.08-.06.29-.35.58-.14.14-.32.29-.53.42-.18.12-.39.2-.61.29-.2.08-.39.25-.62.3-.23.05-.46.11-.67.12-.25.02-.49-.09-.68-.11-.4-.06-.64-.15-.63-.22zm1.79 7.89c-.04-.06.24-.25.81-.19.56.05 1.32.5 1.93 1.19.6.67 1.23 1.37 2.15 1.89.28.16.56.31.87.45.17.07.25.11.6.23.3.1.69.19 1.01.29-.37.35-.82.78-1.14 1.02-.82.64-1.81 1.12-2.87 1.28-1.09.17-2.21.01-3.12-.45-1.07-.53-1.79-1.46-2.1-2.32-.34-.89-.32-1.69-.22-2.21.11-.52.27-.78.31-.76.06.02 0 .3-.03.79-.02.49.03 1.22.39 1.99.33.75.99 1.5 1.92 1.93.8.38 1.77.55 2.73.39.93-.15 1.78-.65 2.51-1.21.04-.03.07-.05.1-.08h-.02s-.24-.09-.39-.16c-.34-.14-.66-.31-.96-.49-1-.6-1.65-1.52-2.17-2.19-.54-.69-1.11-1.11-1.58-1.26-.46-.15-.75-.09-.76-.14z" class="cls-1"/><path d="M167.07 35.14c.16-.05.36.11.56.37.13.17.23.3.33.42.1.13.16.31.29.45.12.13.25.25.38.37.14.13.29.22.42.33.15.13.29.25.42.35.27.2.46.36.43.47-.03.11-.27.08-.63-.02-.17-.05-.37-.14-.57-.25-.17-.1-.33-.24-.5-.37-.16-.13-.37-.21-.51-.38s-.28-.33-.38-.51c-.12-.2-.12-.45-.18-.62-.11-.35-.14-.59-.06-.62zm-16.93-5.2c-.04.06-.28-.03-.4-.42-.14-.37 0-1.02.38-1.53.35-.49.76-1.01 1.22-1.58.2-.25.41-.49.64-.73l.34-.37c.17-.2.33-.39.5-.58l.29-.34.07-.09s.05-.07.06-.01l.1.21c.13.28.26.55.38.84.13.32.25.64.34.97.19.68.34 1.36.38 2.01.04.75 0 1.47-.22 2.07-.22.62-.62 1.01-.94 1.18-.33.17-.54.15-.55.1-.02-.06.15-.13.38-.33s.51-.56.64-1.09c.13-.51.12-1.16.04-1.86-.07-.61-.17-1.25-.36-1.88-.09-.31-.22-.6-.36-.89-.04-.03-.04.02-.04.01-.38.44-.73.87-1.09 1.28-.48.55-1.01 1-1.38 1.42-.38.42-.53.84-.51 1.14 0 .3.12.45.08.48z" class="cls-1"/><path d="M151.77 30.94c-.16 0-.3-.19-.34-.48-.02-.14-.02-.3-.01-.47 0-.15.1-.3.13-.45.03-.15.06-.31.1-.46.05-.15.07-.31.14-.45.07-.16.17-.29.25-.41.16-.24.33-.36.43-.32.11.05.07.22.03.48-.02.13-.05.27-.09.43-.04.15-.08.28-.12.42-.04.14.02.3-.01.44-.03.15-.05.25-.09.42-.04.15-.17.29-.21.41-.08.26-.13.43-.21.43zm29.27-3.79c-.14-.09.26-.78.89-1.82.3-.5.65-1.09 1-1.73.3-.56.67-1.13.95-1.76.14-.3.27-.61.39-.92l.25-.64.33-.9c.04-.12.08-.22.11-.28.15.32.32.75.48 1.02.07.16.18.26.24.35l.14.17c.2.22.41.44.61.68.54.62.72 1.48.6 2.11-.11.67-.46 1.12-.73 1.36-.28.24-.49.29-.52.25-.04-.05.11-.18.3-.44s.43-.67.46-1.22c.03-.53-.14-1.13-.61-1.64l-.6-.66-.16-.19-.05-.06s-.04-.06-.05-.09c0-.02-.01-.02-.01 0l-.03.12c0 .03 0 0-.01.08l-.08.25c-.11.33-.22.65-.37.96-.3.64-.61 1.27-.95 1.83-.39.65-.86 1.18-1.22 1.66-.74.98-1.29 1.55-1.36 1.51z" class="cls-1"/><path d="M184.12 25.56c-.12-.11-.12-.33-.03-.57.04-.12.11-.24.17-.38.06-.12.18-.21.24-.33.06-.12.1-.23.17-.38.06-.13.09-.27.14-.39.05-.1.14-.25.2-.38.12-.23.24-.39.35-.38.11.01.13.19.13.48 0 .14-.02.3-.06.47-.03.15-.1.29-.16.44-.06.14-.03.33-.11.47-.08.14-.15.29-.24.41-.11.14-.29.21-.39.3-.21.19-.36.29-.42.24zm5.21 2.84c.03-.07.27-.03.52.28.26.3.44.88.42 1.53-.01.63-.11 1.26.04 1.92.12.57.31 1.18.71 1.69.19.24.41.46.66.65.12.09.25.18.38.26l.25.14s.03.02.04.01v-.05c.05-.15.1-.3.14-.43.1-.27.19-.51.26-.75.21-.66.27-1.32.22-1.89-.09-1.17-.48-1.88-.37-1.95.08-.06.63.61.86 1.88.11.61.12 1.35-.08 2.12-.07.28-.18.55-.27.8-.05.13-.09.25-.12.38-.07.24-.07.54-.1.82-.15-.04-.36-.14-.55-.2-.13-.06-.28-.12-.39-.18l-.24-.12c-.16-.09-.32-.18-.47-.28-.3-.21-.58-.45-.81-.75-.47-.6-.78-1.31-.9-2-.15-.82.1-1.55.17-2.1.08-.58 0-1.04-.13-1.33-.13-.29-.28-.41-.25-.45z" class="cls-1"/><path d="M191.13 29.34c.14-.07.36.05.53.32.08.13.16.29.22.46.06.15.04.33.08.5.04.16.08.33.09.5.02.17.06.34.05.5 0 .19-.05.36-.08.51-.07.3-.18.49-.29.48-.12 0-.14-.19-.2-.47-.03-.18-.05-.32-.08-.46-.02-.16-.03-.3-.05-.46-.02-.15-.15-.29-.17-.44-.04-.16-.06-.27-.1-.45-.03-.17.03-.35 0-.49-.04-.28-.08-.47 0-.5zm14.58 4.44c-.04-.17.81-.26 1.72.43.43.31.86.73 1.33 1.08.4.3.85.61 1.39.8.5.19 1.09.32 1.59.43l.1.02s.04.01.03-.02c-.04-.12-.08-.24-.12-.37-.19-.61-.31-1.19-.49-1.62-.35-.93-1.06-1.14-1.03-1.24 0-.05.21-.08.52.06.3.13.69.47.95.96.27.48.44 1.04.67 1.63.13.39.27.78.41 1.19l.06.18.03.09h-.08l-.38-.08-.73-.15c-.62-.13-1.19-.17-1.76-.39-.58-.22-1.15-.5-1.61-.88-.52-.44-.84-.94-1.2-1.27-.73-.7-1.38-.79-1.38-.87z" class="cls-1"/><path d="M208.61 33.75c.06-.15.26-.23.52-.18.12.02.26.07.4.14.12.06.21.19.33.27.11.08.23.16.34.25.11.1.23.18.31.28.1.12.16.26.22.37.12.23.13.42.04.49s-.21-.02-.4-.15c-.09-.06-.19-.14-.3-.23l-.28-.25c-.1-.08-.25-.08-.35-.15-.11-.08-.17-.12-.3-.21-.11-.08-.17-.24-.25-.31-.18-.15-.3-.24-.28-.32zm-54.58-1.02c.04-.06.27.03.51.37.25.33.44.93.49 1.58.04.33.08.67.13 1.03.05.34.14.7.25 1.06.2.62.45 1.29.87 1.88.39.55.94 1.09 1.44 1.45.02.02.04.03.06.04v-.07c.09-.35.17-.69.25-1.04.2-.79.39-1.48.4-2.09.05-1.28-.65-1.92-.57-1.99.03-.04.25.06.51.38s.51.88.55 1.59c.05.69-.1 1.46-.26 2.24-.07.35-.15.7-.23 1.06-.07.31-.14.63-.22.95-.24-.09-.55-.32-.81-.49-.68-.48-1.26-.95-1.72-1.59-.46-.65-.82-1.37-1.02-2.08-.11-.41-.17-.82-.18-1.21v-1.04c.05-1.35-.5-1.97-.45-2.03z" class="cls-1"/><path d="M156 34c.09-.13.4-.1.66.24.12.15.22.36.29.58.06.19.03.41.05.61.02.2.03.4.02.58 0 .19.02.38 0 .54-.01.14-.03.36-.04.53-.01.31 0 .54-.1.6-.1.05-.25-.14-.38-.49-.06-.17-.1-.37-.13-.59-.02-.19 0-.38-.01-.57 0-.19-.1-.36-.11-.53 0-.18-.04-.34-.06-.49-.02-.17.02-.36-.02-.5-.09-.28-.22-.43-.17-.5zm-66.88-2.6s-.17.23-.76.42c-.58.18-1.55.22-2.66-.19-1.14-.38-2.28-1.31-3.57-2.25a8.116 8.116 0 0 0-4.96-1.66c-1.89-.02-3.95.5-5.92 1.48-1.99.96-3.93 2.32-6.02 3.65-1.8 1.15-3.77 2.26-5.98 2.91-1.1.32-2.27.52-3.45.51-.59 0-1.18-.1-1.77-.16-.58-.13-1.16-.25-1.72-.44-4.36-1.49-7.68-4.83-11.56-6.82-2.01-1.02-4.22-1.65-6.4-1.41-2.17.21-4.21 1.05-6.13 1.92-2.22 1.03-4.37 2.11-6.53 2.81-2.15.72-4.25 1.15-6.2 1.39-4.03.48-7.39.12-9.66-.34-1.14-.22-2.01-.47-2.6-.65-.59-.19-.89-.3-.88-.33.02-.07 1.27.32 3.53.7 2.26.38 5.58.66 9.54.13 1.92-.26 3.98-.71 6.07-1.44 2.11-.71 4.2-1.79 6.44-2.84 1.93-.89 4.02-1.76 6.32-1.99 2.31-.27 4.67.41 6.75 1.46 4.01 2.04 7.37 5.28 11.48 6.69 2.11.77 4.39.74 6.47.1 2.09-.62 4-1.69 5.78-2.81 2.07-1.3 4.05-2.65 6.12-3.6 2.05-.98 4.21-1.49 6.2-1.47 1.02.02 2 .19 2.88.5.88.31 1.65.78 2.3 1.27 1.3.98 2.35 1.91 3.4 2.35 1.04.46 1.96.51 2.55.4.6-.1.88-.3.91-.28z" class="cls-1"/><path d="M78.76 27.49c-.14.1-.51-.27-1.06-.8-.27-.26-.58-.55-.95-.83-.31-.24-.62-.54-1-.76a9.74 9.74 0 0 0-1.13-.54c-.4-.16-.82-.26-1.21-.38-.41-.11-.87-.24-1.25-.35-.76-.19-1.26-.35-1.25-.47.02-.11.53-.09 1.32-.02.39.04.84.1 1.32.2.42.09.86.23 1.29.4.42.16.88.27 1.28.51.41.25.79.51 1.12.8.38.34.63.75.87 1.06.49.65.7 1.13.64 1.18zm-12.47 4.25c.09.11-1.05.79-3.03.88-.95.04-2.07-.04-3.23-.34-1.01-.25-2.01-.71-3-1.22-.95-.49-1.87-1.1-2.69-1.78-.86-.7-1.66-1.44-2.34-2.2-.79-.88-1.43-1.75-1.96-2.51-1.09-1.57-1.68-2.66-1.59-2.72.1-.07.8.95 1.98 2.42.58.71 1.26 1.53 2.05 2.36.68.72 1.43 1.46 2.27 2.13.8.65 1.72 1.16 2.62 1.63.94.5 1.91.86 2.85 1.13 1.08.31 2.11.53 3.02.55 1.86.04 3.02-.43 3.07-.33zm17.43-1.55c-.08.18-.96-.44-2.43-.21-.69.11-1.5.37-2.26.85-.65.4-1.32.92-1.92 1.57-.58.61-1.12 1.3-1.69 1.94-.6.67-1.2 1.34-1.9 1.85-.8.59-1.66.96-2.43 1.15-.79.18-1.48.14-1.92 0-.45-.12-.66-.29-.64-.33.03-.14.99.32 2.43-.15.68-.22 1.44-.61 2.16-1.19.62-.48 1.22-1.1 1.8-1.76.56-.64 1.04-1.38 1.64-2.02.63-.66 1.3-1.29 2.06-1.73.87-.51 1.82-.68 2.6-.74.81-.05 1.49.12 1.91.33.42.21.61.41.6.43zM39.9 28.3c-.09.16-1.05-.56-2.72-1.25-.8-.33-1.77-.66-2.85-.92-.93-.23-1.92-.49-2.95-.67-.99-.17-2.02-.32-3.02-.51-1.04-.2-2.07-.39-3.02-.67-1.1-.32-2.08-.74-2.88-1.17-1.66-.88-2.45-1.85-2.38-1.91.09-.11.95.73 2.6 1.46.8.36 1.76.7 2.83.98.92.24 1.92.47 2.95.65.99.18 2.02.24 3.03.42 1.04.19 2.07.38 3.02.65 1.1.3 2.07.77 2.88 1.17.83.42 1.48.84 1.9 1.18.42.34.63.56.61.59zm-9.45-.43c.05.15-.25.4-.79.55-.26.07-.58.13-.92.15-.3.02-.61-.06-.93-.08-.31-.03-.62-.07-.91-.15-.31-.08-.62-.15-.89-.27-.32-.13-.58-.31-.8-.46-.46-.31-.68-.6-.62-.69.07-.1.36.07.84.25.23.09.5.19.8.28.26.08.53.17.81.24.28.06.57.01.85.05.29.03.57.04.84.04.31.02.6.09.85.09.51-.02.85-.08.88 0zm-9.08 3.87c.05.15-.45.44-1.3.71-.41.13-.89.26-1.43.36-.46.09-.97.09-1.49.11-.49.03-1.01.03-1.5-.04-.52-.07-1.02-.15-1.48-.32-.53-.19-.98-.46-1.34-.72-.74-.54-1.02-1.08-.94-1.14.09-.09.46.33 1.2.72.36.19.79.38 1.28.52.42.12.88.23 1.35.29.46.05.93-.04 1.39-.05.48-.02.95-.09 1.4-.14.51-.07 1.01-.06 1.43-.13.85-.14 1.41-.25 1.43-.17z" class="cls-1"/><path d="M21.14 31.83c.02.16-.3.33-.74.53-.21.1-.46.22-.71.36-.21.13-.47.22-.69.39-.21.17-.39.36-.56.56-.18.21-.31.44-.45.65-.16.25-.31.49-.41.7-.22.45-.33.77-.45.76-.11 0-.13-.37-.02-.91.06-.26.15-.56.31-.87.13-.26.32-.52.52-.76.19-.23.35-.53.6-.72.26-.2.52-.38.79-.51.32-.15.65-.15.91-.2.54-.1.89-.07.9 0zm29.54 2.98c-.05.16-.76-.01-1.8-.38-.53-.19-1.1-.38-1.71-.59-.54-.18-1.1-.41-1.7-.55-.58-.13-1.17-.22-1.75-.27-.61-.05-1.2-.02-1.76.03-.64.05-1.24.16-1.73.31-1.02.31-1.62.71-1.7.6-.07-.08.47-.61 1.52-1.06.51-.22 1.13-.4 1.82-.5.6-.08 1.24-.09 1.88-.04.62.04 1.27.05 1.87.2.63.15 1.24.33 1.79.54.64.24 1.18.58 1.66.82.99.48 1.61.82 1.59.9zm27.75-4.38c.13.11.07.38-.05.73-.06.17-.12.36-.18.57-.05.18-.16.36-.19.57-.03.2-.03.4-.04.6 0 .21.03.41.06.6.02.22.04.43.07.61.07.37.14.63.03.7-.09.06-.28-.14-.49-.52-.1-.18-.19-.41-.25-.67-.06-.22-.06-.47-.07-.71 0-.23-.08-.49-.04-.73.05-.25.09-.49.19-.71.1-.25.31-.43.43-.59.26-.34.48-.51.53-.46zm-13.52 1.42c.07.14-.15.42-.64.54-.23.06-.52.08-.83.04-.27-.03-.52-.18-.78-.3-.25-.12-.49-.27-.68-.47-.2-.2-.39-.41-.51-.65-.14-.27-.19-.55-.22-.78-.05-.49.09-.78.19-.77.12 0 .13.28.28.65.07.18.17.38.3.58.11.17.24.35.4.5.16.15.39.19.56.28.19.1.39.15.58.2.22.06.44.17.64.18.4.02.67-.07.7 0zm-8.5-1.66c-.12.1-.39 0-.64-.31-.12-.15-.23-.33-.33-.54-.09-.18-.09-.41-.15-.62-.05-.2-.11-.41-.13-.62-.02-.22-.06-.43-.04-.63.02-.23.08-.44.13-.62.11-.36.27-.57.38-.54.12.03.09.25.11.59l.03.55c.01.17.01.36.04.55.03.18.16.34.19.52.04.18.11.35.16.52.05.19.04.41.09.56.11.32.22.52.15.57zm-30.68-2.7c-.18.01-.22-.52-.52-1.02a.896.896 0 0 0-.68-.44c-.26-.02-.56 0-.79.24-.22.22-.33.53-.3.81.02.3.23.57.46.75.26.21.59.27.88.21.62-.14.87-.6.97-.55.11 0 0 .66-.81 1.01-.37.17-.95.18-1.41-.13-.39-.25-.68-.7-.75-1.21-.06-.49.06-1.04.42-1.4.36-.38.93-.58 1.42-.49.6.08.96.6 1.08.96.28.79.07 1.28.03 1.27zM12.84 31.5c-.15-.07-.04-.49-.19-.98-.07-.23-.22-.47-.46-.65-.18-.15-.46-.32-.64-.27-.14.02-.33.28-.41.54-.09.27-.05.56.04.78.1.27.31.49.54.57.5.19.89-.08.96 0 .1.04-.25.58-1.07.48-.39-.06-.79-.33-1.02-.76-.2-.38-.21-.85-.08-1.26.06-.2.13-.4.25-.6.11-.19.32-.4.61-.47.58-.11 1 .12 1.32.39.37.33.48.8.51 1.15.06.75-.3 1.13-.35 1.08z" class="cls-1"/><path d="M17.26 34.88c-.05.16-.4.19-.66.51-.13.15-.21.32-.19.54 0 .18.03.42.18.61.14.17.36.28.54.3.2.02.32-.07.44-.23.13-.18.18-.41.14-.63-.1-.45-.39-.73-.31-.82.05-.08.46.05.77.65.14.28.19.74-.03 1.13-.16.35-.63.61-1.05.56-.39-.03-.8-.16-1.06-.47-.26-.31-.41-.7-.4-1.09.02-.47.36-.81.62-.97.58-.38 1.06-.14 1.01-.08zM3.49 32.51c-.17.09-.39-.51-.9-1-.25-.22-.62-.37-.91-.23-.26.1-.59.39-.78.78-.18.37-.27.79-.18 1.11.09.34.41.53.76.6.4.09.8-.04 1.1-.27.38-.28.6-.63.75-.82v.06c-.04-.14-.06-.23-.02-.25.04-.03.11.02.21.12l.05.04-.03.11c-.06.24-.21.68-.63 1.1-.31.33-.88.63-1.51.55-.53-.04-1.13-.44-1.3-1.05-.17-.57-.1-1.16.14-1.63.25-.47.58-.97 1.17-1.19.34-.12.71-.07.97.07.27.13.46.32.61.5.31.38.41.74.48.99.06.25.06.39.03.41zm17.69-10.57c-.12-.1.12-.56-.23-1.11-.16-.26-.44-.57-.75-.69-.25-.1-.51-.12-.79.14-.24.23-.45.63-.59.96-.14.35-.05.58.17.79.26.25.62.34.96.29.69-.11 1.15-.44 1.22-.32.06.07-.26.51-1.1.8-.4.13-1.01.11-1.48-.26-.2-.16-.38-.4-.45-.69-.07-.29-.02-.59.07-.83.18-.45.31-.89.69-1.28.2-.19.46-.36.76-.43s.62-.01.86.1c.57.29.78.79.94 1.17.17.41.13.82.01 1.05-.11.24-.26.32-.28.3zm17.85 11.79c-.14.07-.43-.39-1-.43a.891.891 0 0 0-.74.35c-.14.19-.27.51-.19.87.06.34.25.64.49.82.26.2.59.21.83.11.29-.12.53-.43.61-.72.16-.64-.01-1.16.12-1.19.08-.04.42.4.37 1.27-.04.42-.27.93-.8 1.23-.47.25-1.07.16-1.5-.15-.42-.29-.75-.72-.84-1.21-.09-.49-.05-1.07.31-1.5.41-.48 1.03-.53 1.45-.42.44.11.7.4.82.61.12.22.12.36.09.38zm5.49-2.98c-.09.14-.49.02-1.06-.19-.27-.1-.59-.23-.93-.33-.3-.1-.6-.25-.93-.33-.32-.07-.65-.12-.98-.16-.34-.04-.68-.04-.99-.05-.37-.02-.71-.03-1-.02-.61.02-1.02.04-1.05-.07-.03-.11.35-.27.98-.42.3-.07.67-.13 1.06-.14.34-.02.7.01 1.07.05.35.04.73 0 1.08.09.36.09.72.18 1.03.32.37.15.66.41.92.57.54.34.85.62.81.69z" class="cls-1"/><path d="M38.24 29.27c-.12.14-.48-.19-.84-.25-.19 0-.22.02-.35.24-.1.19-.28.47-.3.7-.02.23.06.45.18.56.13.13.36.15.56.1.23-.03.43-.18.56-.37.26-.41.24-.81.37-.83.09-.03.3.38.08 1.03-.1.3-.38.67-.83.8-.36.12-.82.06-1.17-.24-.33-.29-.53-.71-.49-1.12.05-.42.18-.73.37-1.05.12-.18.32-.36.56-.42.25-.07.46 0 .62.06.34.14.49.37.59.51.09.15.12.24.09.27zm10.69-6.67c-.13-.12.5-.64.52-1.63.01-.46-.2-.98-.64-1.35-.36-.32-.86-.57-1.41-.46-.51.09-.99.43-1.25.87-.28.46-.26 1.04-.1 1.52.18.57.61.97 1.07 1.15.98.37 1.71-.04 1.75.08.03.04-.11.19-.44.33-.33.13-.85.22-1.46.06-.59-.14-1.25-.64-1.53-1.38-.25-.63-.24-1.42.14-2.07.35-.62.94-1.15 1.68-1.28.76-.15 1.57.12 2.07.61.6.56.76 1.38.68 1.97a2.23 2.23 0 0 1-.61 1.31c-.25.25-.44.32-.46.3zm12.62 7.84c.05-.14.33-.29.27-.67-.02-.19-.08-.51-.19-.73-.09-.19-.19-.38-.38-.42-.14-.04-.33.06-.47.22-.15.17-.2.42-.2.63 0 .25.08.48.23.65.32.36.71.4.72.52.03.1-.45.25-1.03-.14-.27-.18-.53-.54-.57-.98-.04-.37.08-.77.34-1.09.13-.15.26-.3.45-.42.18-.12.45-.18.69-.12.48.11.81.49.94.84.14.42.06.76.02 1.09-.05.34-.29.61-.5.67-.21.07-.34 0-.33-.04zm8.52 6.72c-.07.03-.19-.09-.35-.32-.16-.23-.35-.57-.66-.82-.29-.24-.75-.4-1.22-.33-.39.05-.81.23-1.05.64-.22.38-.27.87-.12 1.26.15.42.54.72.93.87.46.18.94.12 1.3-.1.77-.46.86-1.17.98-1.14.1-.04.19.82-.7 1.55-.41.34-1.12.54-1.79.32-.57-.18-1.1-.63-1.34-1.25-.23-.59-.25-1.3.09-1.87.32-.59.98-1 1.6-1.05.73-.06 1.34.31 1.7.7.38.41.5.83.58 1.1.08.28.09.44.06.46zm2.03-13.84c-.15-.04.09-.8-.57-1.49-.29-.32-.78-.48-1.31-.36-.45.1-.93.35-1.18.82-.24.45-.28 1.02-.16 1.52.11.53.47.98.86 1.19.45.26 1.02.12 1.4-.16.77-.62.96-1.4 1.1-1.34.05.02.05.2-.04.52-.1.31-.28.77-.73 1.2-.41.4-1.22.74-1.99.37-.64-.3-1.05-.94-1.22-1.62-.16-.64-.2-1.38.14-2.02.34-.66 1-1.14 1.68-1.25.8-.16 1.56.27 1.9.75.38.49.44 1.03.38 1.37-.06.35-.2.5-.23.49zm-21.01 2.45c-.06.07-.28-.14-.73-.37-.45-.24-1.14-.45-2.04-.53-.85-.1-1.92-.01-3.11-.25a4.4 4.4 0 0 1-.76-.23l-.09-.04-.02-.03c-.01 0-.02 0-.01.09 0 0 .03.18.05.29.02.12.06.25.09.37.27.93.78 1.8 1.43 2.51.68.74 1.54 1.27 2.41 1.57 1.01.36 2.04.43 2.9.34 1.8-.21 2.79-1 2.87-.87.07.05-.88.99-2.79 1.36-.92.16-2.04.16-3.18-.2-.98-.31-1.93-.93-2.68-1.74-.73-.77-1.37-1.7-1.67-2.75-.04-.14-.08-.28-.11-.43-.03-.15-.06-.24-.09-.52-.06-.45-.09-.99-.12-1.45.42.28 1.07.69 1.3.77.21.09.41.15.63.2 1.03.25 2.09.31 3 .47.93.14 1.69.45 2.14.79.45.34.6.64.58.66z" class="cls-1"/><path d="M52.44 26.85c.03.15-.19.35-.61.43-.2.04-.43.05-.69.03-.22-.01-.44-.12-.66-.18-.22-.06-.44-.12-.64-.22-.21-.1-.43-.18-.6-.31-.21-.14-.37-.32-.5-.46-.27-.31-.36-.57-.28-.64.09-.08.27.07.58.25.15.09.32.19.52.29.17.09.34.19.53.27.18.08.4.05.58.1.19.06.39.09.57.12.21.05.4.16.58.19.36.05.6.04.62.12zm-1.75 7.89c0 .09-.3.07-.75.25s-.99.59-1.53 1.3c-.51.67-1.23 1.55-2.23 2.14a5.977 5.977 0 0 1-1.38.63h-.07c.01.03-.02 0 .13.12.74.58 1.64.98 2.55 1.14.95.17 1.92 0 2.72-.37.94-.41 1.62-1.14 1.97-1.89.74-1.58.31-2.82.45-2.83.05-.02.2.26.28.79.08.53.08 1.34-.28 2.23-.32.86-1.07 1.77-2.13 2.29-.91.45-2.02.61-3.1.44-1.03-.16-2.07-.54-2.9-1.19-.33-.25-.83-.74-1.19-1.09.35-.09.76-.19 1.07-.29.37-.11.44-.15.61-.22.3-.13.59-.27.86-.43.91-.51 1.63-1.16 2.22-1.83.6-.69 1.29-1.15 1.84-1.25.55-.12.87.02.87.05z" class="cls-1"/><path d="M51.48 35.1c.15.04.23.31.13.69-.05.18-.13.38-.25.58-.1.18-.28.31-.43.47-.14.16-.28.31-.45.44-.17.13-.33.28-.51.36-.21.11-.42.16-.6.2-.37.08-.62.04-.65-.07-.03-.12.17-.2.45-.38.13-.09.29-.19.45-.3.14-.1.29-.2.44-.31.14-.12.2-.31.32-.43.13-.13.23-.28.33-.41.12-.15.31-.25.4-.39.19-.27.29-.47.37-.45zm17.14-5.08c-.07-.04.01-.23-.02-.53-.02-.31-.18-.68-.56-1.1-.41-.46-.85-.94-1.31-1.47-.21-.24-.41-.49-.61-.76-.16-.2-.31-.4-.46-.6-.03-.06-.04.01-.06.04-.12.29-.22.6-.32.9-.2.63-.3 1.27-.37 1.88-.09.7-.13 1.35-.01 1.87.24 1.11 1.07 1.44 1.02 1.53-.01.05-.24.05-.57-.15-.32-.2-.72-.62-.92-1.24-.21-.6-.22-1.33-.17-2.07.05-.65.19-1.33.39-2 .09-.3.19-.63.29-.98.11-.29.24-.58.37-.89l.1-.23.03-.06s.03.02.04.04l.08.09c.11.12.21.24.31.36.5.61.98 1.19 1.45 1.76.45.57.8 1.15 1.15 1.63.38.49.54 1.08.45 1.46-.07.39-.28.54-.3.52z" class="cls-1"/><path d="M67.01 30.93c-.16.01-.32-.15-.42-.41-.05-.12-.09-.27-.13-.42-.03-.13 0-.29-.03-.44-.03-.14-.06-.26-.1-.42-.03-.15-.09-.28-.11-.42-.02-.16-.03-.32-.04-.45-.02-.27 0-.47.11-.52.11-.04.21.11.35.35.07.12.14.26.2.42.05.14.08.3.12.45.04.15.17.28.19.44.02.16.06.31.07.46.01.17-.08.35-.09.48-.02.28-.06.46-.14.47zm-29.29-3.85c-.1.12-.75-.39-1.52-1.38-.37-.48-.77-1.06-1.16-1.71-.34-.56-.6-1.21-.89-1.86-.14-.31-.28-.63-.41-.95l-.12-.31-.02-.06s0-.02 0 0l-.03.05-.04.05-.16.19c-.21.22-.4.44-.61.66-.48.49-.68 1.08-.66 1.63.06 1.14.82 1.67.72 1.75-.03.04-.24-.03-.51-.29s-.61-.73-.7-1.41c-.11-.64.11-1.49.65-2.09.2-.24.42-.46.61-.68l.14-.17c.06-.09.16-.19.23-.34.15-.26.31-.66.45-.95.03.05.06.13.1.25.1.27.21.54.32.84.05.13.11.26.17.4l.11.23c.15.3.3.6.43.9.28.63.6 1.22.9 1.78.35.65.62 1.28.93 1.78.64 1.02 1.13 1.64 1.07 1.7z" class="cls-1"/><path d="M34.63 25.49c-.11.11-.35.08-.58-.11-.11-.09-.22-.21-.33-.35-.09-.12-.12-.29-.19-.44-.07-.14-.15-.28-.19-.43-.05-.16-.12-.3-.14-.45-.03-.17-.02-.34 0-.48.02-.29.11-.47.22-.48.12-.01.17.15.26.39.06.15.1.27.15.39.05.14.08.26.13.39s.19.22.25.34c.06.13.13.24.19.36.06.14.05.31.11.43.11.23.2.38.14.44zm-5.37 2.82c.1.11-.43.69-.22 1.85.07.54.24 1.3.09 2.11-.12.7-.47 1.38-.94 1.97a4.371 4.371 0 0 1-1.22 1.09l-.24.13c-.1.05-.27.13-.4.19-.2.07-.42.17-.59.22-.03-.29-.03-.61-.1-.86-.03-.12-.07-.25-.12-.37-.09-.25-.2-.52-.26-.8-.19-.78-.15-1.52-.03-2.13.26-1.26.86-1.88.93-1.82.12.06-.33.73-.44 1.89-.05.56-.03 1.22.17 1.89.07.24.16.48.26.75.05.14.09.28.13.43 0 .03.01.06.01.09 0 .02.04 0 .06-.02l.06-.04c.06-.04.13-.08.2-.12.13-.09.25-.19.37-.29.23-.21.43-.44.62-.68.4-.49.64-1.08.76-1.65.16-.65.15-1.3.13-1.93-.03-.63.11-1.19.32-1.51.21-.33.43-.42.45-.4z" class="cls-1"/><path d="M27.42 29.29c.15.06.21.29.19.57-.01.14-.04.3-.07.46-.03.14-.12.28-.16.44-.03.15-.05.29-.08.46-.03.16-.03.31-.06.46-.04.17-.09.32-.13.46-.08.28-.17.47-.29.48-.11 0-.16-.19-.2-.49-.02-.15-.03-.32-.02-.5 0-.16.04-.33.06-.5.02-.16-.04-.35 0-.51.04-.17.07-.34.13-.49.07-.18.23-.31.3-.43.15-.26.26-.42.34-.39zm-14.48 4.37c.02.16-.59.34-1.29 1.04-.35.32-.73.77-1.25 1.21-.46.38-1.06.62-1.64.83-.57.21-1.12.35-1.74.48l-.77.15-.4.08-.1.02.03-.1.06-.19c.09-.26.17-.51.26-.76.06-.16.11-.31.17-.47.24-.59.44-1.14.72-1.61.28-.48.67-.79.97-.9.3-.11.49-.07.49-.01.04.11-.64.22-1.02 1.14-.19.42-.34.99-.54 1.6-.05.13-.09.27-.14.41-.03.04 0 .03.04.03l.13-.02c.5-.11 1.07-.34 1.56-.52a5.4 5.4 0 0 0 1.41-.75c.42-.31 1.03-.76 1.38-1.02.86-.68 1.66-.71 1.66-.62z" class="cls-1"/><path d="M10.01 33.64c.06.15-.02.34-.19.5-.08.08-.18.16-.29.24-.09.07-.23.08-.34.16-.1.07-.18.14-.3.22-.11.07-.19.17-.29.23-.12.07-.24.13-.34.19-.21.11-.38.17-.47.1-.09-.07-.02-.22.12-.43.07-.1.15-.22.26-.33.09-.1.21-.18.32-.27.11-.09.16-.25.28-.32.12-.08.24-.16.36-.22.14-.07.32-.03.44-.06.24-.06.41-.08.44 0zm54.53-.99c.12.11-.35.76-.27 2.1-.01.33-.03.67-.04 1.03-.03.39-.11.8-.22 1.21-.2.72-.6 1.4-1.07 2.05-.46.63-.96 1.17-1.66 1.65-.28.19-.6.4-.86.53-.08-.34-.15-.67-.23-1-.07-.36-.15-.71-.22-1.07-.15-.79-.27-1.57-.2-2.25.06-.7.33-1.25.59-1.55.27-.3.49-.38.52-.34.09.08-.63.62-.62 1.9 0 .6.16 1.3.35 2.09.07.34.15.69.22 1.04l.02.12s.07-.04.1-.06c.51-.36.98-.97 1.37-1.5.42-.58.72-1.22.92-1.84.12-.36.23-.71.3-1.06.07-.36.13-.71.16-1.02.05-.65.19-1.22.4-1.57.2-.36.4-.5.43-.48z" class="cls-1"/><path d="M62.59 33.91c.11.13.05.36-.01.63-.03.13-.07.29-.09.46-.02.15-.11.31-.12.49 0 .18-.01.34-.02.54-.01.19 0 .39-.03.57-.04.22-.11.42-.18.58-.15.34-.36.5-.46.45-.11-.06-.04-.24-.02-.55 0-.19.01-.35.02-.52 0-.19.02-.36.02-.54 0-.18-.09-.38-.06-.58.02-.21.04-.41.1-.61.07-.23.25-.39.36-.54.23-.31.46-.43.5-.37zm45.52-8.34c0-.07.27-.12.68.09.39.2.95.72 1.06 1.59.11.84-.41 1.87-1.41 2.3-.43.18-.95.24-1.46.02-.25-.11-.5-.33-.61-.6-.12-.26-.13-.5-.17-.69-.06-.36-.2-.52-.52-.74-.3-.2-.71-.37-1.06-.73-.72-.77-.7-1.96-.1-2.68.73-.83 1.85-.88 2.55-.54.75.36 1.07 1 1.17 1.41.1.43.03.68-.02.68-.06 0-.09-.22-.25-.57-.16-.34-.49-.83-1.09-1.06-.55-.22-1.4-.09-1.86.49-.39.47-.41 1.33.05 1.82.22.23.59.37.97.59.19.11.4.25.57.47.17.21.27.5.3.71.08.48.12.64.35.73.24.1.57.09.85-.03.67-.24 1.19-.9 1.16-1.53-.02-.64-.39-1.13-.67-1.37-.3-.25-.52-.32-.51-.37z" class="cls-1"/><path d="M107.19 23.99c-.06-.05.08-.29.48-.57.4-.27 1.09-.57 1.98-.54.85.02 1.87.42 2.61 1.23.32.35.57.78.73 1.25.14.47.2.9.32 1.35.11.4.31.78.48 1.23.17.45.27.96.23 1.45-.04 1.02-.64 2.04-1.53 2.46-.5.25-1.07.33-1.57.23s-.91-.35-1.23-.62c-.66-.56-.97-1.21-1.11-1.66-.14-.46-.12-.73-.07-.74.06-.01.13.23.33.63.2.39.54.94 1.14 1.38.57.44 1.43.64 2.2.21.67-.34 1.14-1.08 1.18-1.91.09-.83-.47-1.48-.76-2.43-.11-.44-.2-.91-.33-1.3-.14-.37-.34-.71-.59-1-.57-.67-1.32-1.13-2.06-1.2-.75-.09-1.38.09-1.78.26-.41.17-.62.33-.65.29z" class="cls-1"/><path d="M110.1 31.49c.13.05-.88 1.35-3.19 2.22-1.08.36-2.52.78-4.07.24-.64-.24-1.26-.69-1.64-1.35-.38-.67-.44-1.43-.43-2.12.01-.67.1-1.32.07-1.93-.02-.6-.2-1.22-.31-1.88-.27-1.41.13-2.92 1-3.94 1.02-1.2 2.52-1.66 3.71-1.56 1.25.09 2.14.71 2.61 1.2.48.5.61.88.57.9-.06.04-.26-.28-.76-.69-.49-.4-1.33-.9-2.43-.92-1.05-.03-2.34.44-3.18 1.48-.72.89-1.11 2.16-.87 3.41.1.61.31 1.25.37 1.95s-.01 1.36-.03 1.97c-.02.63.06 1.25.34 1.71.28.47.75.82 1.25 1.03 1.19.47 2.55.28 3.61-.02 2.19-.68 3.32-1.78 3.4-1.7z" class="cls-1"/><path d="M102.12 22.43c-.03.07-.34-.03-.64-.5-.28-.45-.48-1.34-.03-2.26.42-.87 1.34-1.59 2.42-1.96.93-.34 1.94-.41 2.92-.6.96-.15 1.88-.43 2.96-.44.55 0 1.14.17 1.6.5.45.33.78.77 1 1.22.5 1.08.49 2.12.56 2.97.06.89-.02 1.66-.24 2.14-.22.49-.47.66-.51.63-.05-.04.11-.26.23-.72.13-.45.14-1.15.02-2-.12-.83-.2-1.84-.65-2.72-.38-.76-1.09-1.39-2.03-1.37-.88 0-1.86.37-2.81.51-.99.18-1.97.33-2.79.6-.95.3-1.79.78-2.19 1.47-.42.69-.35 1.43-.19 1.85.16.44.39.62.36.66zm6.16 3.18c-.05.16-.53.09-.97.4-.21.14-.35.37-.36.67 0 .24.02.52.25.69.22.16.5.18.74.07.26-.11.41-.37.43-.6.04-.29-.08-.6-.29-.75-.47-.34-.96-.13-1-.23-.03-.04.05-.16.27-.25.21-.09.58-.14.98.05.39.19.71.66.7 1.21 0 .49-.34.96-.8 1.17-.42.22-1.03.26-1.45-.05-.45-.31-.67-.89-.6-1.36.06-.57.52-.96.87-1.09.78-.32 1.28.04 1.24.09z" class="cls-1"/><path d="M112.63 20.99c.05-.08.32.14.88.32.55.21 1.41.22 2.5.67.52.23 1.03.69 1.35 1.25.33.56.53 1.22.65 1.88.21 1.15.21 2.29.78 3.32.25.51.56 1.04.76 1.65.2.61.24 1.3.1 1.92-.26 1.31-1.16 2.43-2.28 2.93-1.29.59-2.67.47-3.67.07-1.01-.44-1.72-.9-2.31-1.02-.58-.15-.93-.08-.94-.15-.02-.05.34-.22.99-.13.65.05 1.48.49 2.43.84.91.31 2.12.34 3.21-.19.93-.44 1.71-1.36 1.92-2.47.11-.53.06-1.07-.13-1.58-.18-.51-.48-1-.75-1.54-.28-.55-.51-1.19-.62-1.79-.12-.6-.18-1.18-.27-1.72-.17-1.22-.59-2.34-1.46-2.78-.88-.45-1.8-.56-2.36-.87-.58-.28-.81-.61-.79-.63z" class="cls-1"/><path d="M110.08 31.67c.05-.05.34.36.5 1.23.16.86.16 2.23-.6 3.66-.36.68-.87 1.33-1.45 1.95-.57.6-1.23 1.34-2.25 1.67-.86.27-1.81.19-2.65-.16-.85-.35-1.57-.96-2.14-1.66-.57-.66-.92-1.51-1.34-2.13-.22-.31-.47-.56-.78-.68-.31-.13-.7-.15-1.12-.19-.43-.04-.94-.09-1.38-.36-.44-.25-.76-.63-.99-1.03-.47-.82-.51-1.76-.44-2.57.24-1.84.5-3.56 1.22-4.92.72-1.41 1.95-2.12 2.81-2.28.89-.16 1.37.11 1.34.14-.01.08-.49-.08-1.27.14-.77.22-1.84.91-2.44 2.22-.6 1.25-.81 2.96-1.01 4.75-.06.76-.01 1.54.36 2.19.18.33.43.61.74.79.3.19.68.24 1.1.27.4.04.85.04 1.32.21.47.17.84.53 1.11.89.53.75.83 1.47 1.34 2.06.5.63 1.13 1.14 1.83 1.42.7.28 1.47.34 2.14.14.77-.21 1.4-.8 1.99-1.38.59-.57 1.11-1.15 1.47-1.75a5.7 5.7 0 0 0 .78-3.32c-.06-.84-.24-1.3-.19-1.33z" class="cls-1"/><path d="M96.15 28.94c-.01.07-.49-.09-1.16-.68A6.02 6.02 0 0 1 93.17 25c-.31-1.51 0-3.46 1.21-5.04.51-.69 1.23-1.25 1.94-1.69.72-.46 1.41-.89 2-1.49 1.15-1.12 2.18-2.6 3.75-3.46 1.58-.89 3.39-1.25 5.05-1.09 1.92.18 3.6 1.04 4.66 2.14 1.13 1.14 1.36 2.59 1.16 3.44-.19.89-.61 1.24-.63 1.21-.07-.04.26-.43.35-1.25.1-.8-.16-2.06-1.23-3.05-1.01-.96-2.58-1.71-4.36-1.84-1.53-.12-3.21.17-4.66 1-1.42.78-2.33 2.22-3.55 3.41-1.29 1.32-2.98 1.91-3.85 3.13-1.08 1.35-1.52 3.06-1.3 4.45.22 1.44.91 2.5 1.47 3.12.57.63.99.9.97.95z" class="cls-1"/><path d="M112.8 16.28c-.04-.06.32-.27 1.04-.41.72-.14 1.82-.2 3.1.15 1.22.33 2.58 1.08 3.66 2.3.46.52.86 1.13 1.16 1.8.3.67.51 1.37.73 2.05.21.66.42 1.31.71 1.91.28.59.7 1.14 1.06 1.77.79 1.31 1.01 2.9.7 4.27-.34 1.6-1.36 2.86-2.45 3.51-1.14.7-2.3.71-3.01.53-.72-.18-1.04-.47-1.02-.51.03-.06.38.14 1.07.22.67.09 1.71.01 2.69-.66.95-.63 1.81-1.79 2.08-3.22.24-1.22.09-2.63-.62-3.8-.34-.57-.78-1.13-1.13-1.79-.34-.65-.58-1.33-.79-1.99-.4-1.39-.91-2.62-1.76-3.57-.94-1.11-2.09-1.92-3.22-2.29a7.763 7.763 0 0 0-2.88-.37c-.71.04-1.11.14-1.13.09z" class="cls-1"/><path d="M104.69 40.26c.16-.12.6 1.18 2.18 2.18.75.47 1.77.78 2.88.7a5.08 5.08 0 0 0 2.8-1.05c.43-.31.87-.65 1.39-.93.52-.29 1.11-.43 1.63-.52 1.11-.17 2.04-.55 2.83-1.15a5.66 5.66 0 0 0 1.88-2.39c.7-1.77.37-3.09.52-3.1.07-.05.58 1.3-.05 3.27-.31.94-.95 1.96-1.94 2.74-.83.69-1.99 1.11-3.1 1.28-.53.1-1.01.25-1.44.5-.43.25-.84.59-1.28.9-.9.7-2.08 1.21-3.18 1.24-1.29.07-2.44-.43-3.23-1a5.25 5.25 0 0 1-1.6-1.79c-.27-.51-.33-.84-.3-.86zm1.68-27.85c-.07 0-.04-.47.38-1.19.41-.71 1.28-1.66 2.67-2.23 1.32-.56 3.14-.62 4.82.06.73.28 1.43.7 2.05 1.23.65.51 1.16 1.2 1.69 1.73.52.53 1.13.81 1.86.89.73.09 1.51.03 2.32.1 1.76.1 3.28 1.3 3.95 2.72.81 1.69.58 3.48.07 4.77-.54 1.36-1.36 2.25-1.95 2.8-.61.55-1.01.77-1.04.73-.04-.05.31-.34.84-.93.52-.58 1.25-1.49 1.69-2.77.42-1.22.55-2.86-.19-4.31-.62-1.23-1.89-2.29-3.41-2.37-.74-.07-1.52.02-2.35-.05-.82-.04-1.73-.44-2.3-1.05-.61-.61-1.06-1.21-1.66-1.66a7.57 7.57 0 0 0-1.86-1.11c-1.49-.64-3.09-.74-4.33-.29-1.27.45-2.14 1.24-2.6 1.86-.48.62-.62 1.07-.68 1.06z" class="cls-1"/><path d="M126.48 19.06c.04-.07.39.15.97.63.57.48 1.4 1.22 2.21 2.3.77 1.03 1.53 2.45 1.67 4.16.06.73-.04 1.51-.3 2.24-.25.73-.62 1.39-.95 2.06-.32.64-.61 1.27-.79 1.95-.19.68-.31 1.38-.44 2.09-.26 1.46-.65 3.04-1.67 4.14-1.14 1.27-2.7 1.87-4.02 1.91-1.37.04-2.44-.41-3.07-.81-.65-.41-.91-.77-.87-.8.04-.05.36.22 1.01.55.64.32 1.66.67 2.9.57 1.19-.09 2.57-.69 3.56-1.84.87-.98 1.26-2.36 1.52-3.83.13-.7.23-1.43.41-2.16.17-.74.47-1.45.8-2.09.34-.67.67-1.32.88-1.96.22-.65.29-1.3.26-1.95-.08-1.49-.64-2.87-1.33-3.89-.71-1.06-1.45-1.83-1.96-2.38-.51-.54-.81-.86-.79-.9zm-32.8 6.71c.16.12-1.21 1.15-2.58 3.3-.64 1.02-1.33 2.35-1.03 3.77.24 1.23 1.03 2.44 1.92 3.61.87 1.13 1.75 2.28 2.61 3.42.91 1.17 1.72 2.41 2.81 3.02.62.36 1.32.42 1.97.26.65-.16 1.25-.47 1.79-.77 1.1-.66 2.15-1.1 2.92-1.12.78-.04 1.16.23 1.14.26-.02.07-.41-.09-1.1.02-.7.1-1.63.55-2.71 1.26-.54.33-1.14.69-1.89.91-.73.23-1.66.18-2.42-.24-1.33-.73-2.11-2.05-3.02-3.19-.86-1.13-1.82-2.22-2.68-3.36-.89-1.17-1.83-2.42-2.11-3.9-.17-.85-.02-1.71.27-2.41.29-.71.68-1.29 1.04-1.81.75-1.08 1.52-1.84 2.09-2.33.57-.49.94-.71.97-.69z" class="cls-1"/><path d="M102.08 43.44c.28-.21.39 1.55 2.42 2.42.93.43 2.13.9 3.38 1.28 1.07.32 2.28.55 3.43.22.55-.16 1.03-.42 1.46-.82.44-.38.87-.87 1.45-1.22 1.28-.74 2.66-.53 3.74-.65 1.27-.11 2.37-.72 3.1-1.44.77-.74 1.18-1.55 1.4-2.14.22-.59.27-.95.34-.94.05 0 .08.38-.07 1.02-.15.64-.53 1.54-1.32 2.4-.75.82-1.94 1.58-3.38 1.75-1.2.15-2.48-.04-3.47.56-.47.29-.86.75-1.33 1.19-.46.45-1.08.83-1.72 1-1.34.38-2.71.19-3.85-.17-1.33-.45-2.43-1.02-3.41-1.54-1-.53-1.69-1.3-1.9-1.95-.2-.64-.29-.94-.28-.97zM89.81 31.09c-.05.06-.36-.28-.83-.96-.46-.68-1.13-1.7-1.59-3.13-.42-1.35-.62-3.21.33-4.92.84-1.47 2.41-2.24 3.37-3.45.94-1.18 1.4-2.73 2.15-4.17.76-1.53 2.02-2.79 3.44-3.5 1.64-.84 3.43-.97 4.83-.67 1.46.28 2.52.93 3.17 1.45.65.53.91.93.88.96-.05.05-.38-.28-1.04-.73a7.59 7.59 0 0 0-3.09-1.19c-1.32-.22-2.94-.04-4.44.76-1.29.68-2.45 1.78-3.16 3.21-.71 1.36-1.09 3-2.15 4.33-1.12 1.36-2.57 2.16-3.27 3.38-.83 1.38-.83 3.07-.5 4.37.36 1.35.94 2.38 1.32 3.11.39.72.61 1.14.58 1.17z" class="cls-1"/><path d="M94.13 26.65c-.11.09-.67-1-.11-2.67.27-.78.8-1.64 1.67-2.28.75-.56 1.67-.76 2.42-1.18.72-.39 1.31-1 1.78-1.7.49-.73.84-1.54 1.21-2.3.42-.88.88-1.69 1.37-2.33.99-1.35 2.11-1.68 2.12-1.58.07.11-.9.53-1.72 1.86-.41.63-.79 1.43-1.18 2.32-.34.77-.73 1.59-1.26 2.38-.49.75-1.11 1.54-1.96 1.99-.86.46-1.7.72-2.33 1.16-.73.49-1.31 1.16-1.61 1.83-.61 1.41-.31 2.47-.41 2.49zm12.26-14.4c-.08-.02 0-.38.29-.99.29-.6.76-1.48 1.66-2.32.43-.4.97-.77 1.61-1.04.64-.27 1.4-.39 2.14-.36 1.29.07 2.53.43 3.84.64 1.26.22 2.52.43 3.79.68 1.3.27 2.64.63 3.69 1.42 1.22.92 1.85 2.19 2.23 3.26.38 1.12.51 2.07.59 2.73.07.66.08 1.04.03 1.05-.06.01-.16-.35-.31-.99-.16-.64-.35-1.57-.77-2.61-.41-1-1.06-2.13-2.15-2.91-.93-.67-2.15-1.05-3.43-1.3-1.24-.23-2.54-.36-3.78-.59-1.3-.22-2.59-.51-3.74-.59-1.32-.13-2.52.32-3.36 1.02-.86.7-1.38 1.5-1.74 2.04-.36.55-.55.88-.59.87zm6.47 4.25c-.04-.06.23-.28.83-.41.59-.13 1.54-.16 2.57.31.98.44 1.95 1.42 2.35 2.74.18.56.22 1.21.15 1.8-.07.59-.16 1.13-.03 1.61.12.48.43.75.93.91.48.17 1.14.26 1.67.66 1.1.8 1.51 2.1 1.68 3.18.19 1.26.28 2.46.12 3.49-.15 1.06-.58 1.87-.98 2.32-.4.46-.72.61-.75.57-.04-.05.21-.26.52-.73.3-.47.64-1.23.72-2.21.09-.95-.05-2.09-.27-3.31-.18-1.02-.54-2.13-1.41-2.75-.4-.3-.92-.36-1.52-.53-.29-.09-.62-.22-.89-.47-.28-.25-.45-.58-.54-.9-.19-.68-.07-1.33-.03-1.87.05-.54.01-1.03-.12-1.52-.3-1.1-1-2.03-1.83-2.48-.85-.47-1.7-.53-2.26-.5-.57.03-.89.14-.91.1z" class="cls-1"/><path d="M117.04 23.94c.12-.08.62.52.82 1.68.09.55.11 1.22 0 1.93-.1.61-.37 1.22-.68 1.81-.3.58-.7 1.06-.77 1.52-.1.45.28 1.05.24 1.76-.04.78-.44 1.43-.9 1.79-.48.38-.98.49-1.31.49-.34 0-.51-.08-.5-.14-.02-.13.76-.02 1.48-.72.33-.33.59-.85.58-1.43.04-.48-.32-1.03-.24-1.84.12-.74.52-1.29.76-1.77.28-.52.45-1.08.57-1.61.13-.61.25-1.21.23-1.72-.06-1.06-.36-1.71-.27-1.75zM96.03 28.5c.18.04-.16 1.04-.54 2.54-.17.72-.32 1.59-.22 2.47.08.76.3 1.59.83 2.24.5.65 1.21.93 2.08 1.13.44.12.93.29 1.33.55.4.26.75.56 1.05.86.69.7 1.26 1.37 1.88 1.74.63.39 1.27.46 1.7.4.43-.06.66-.2.7-.15.03.03-.15.28-.63.43-.47.15-1.23.15-2-.25-.75-.36-1.41-1.05-2.1-1.69-.6-.57-1.24-1.07-2.1-1.25-.41-.11-.87-.18-1.33-.4-.45-.2-.86-.51-1.16-.89-.63-.79-.96-1.73-1.03-2.63-.08-1.05.22-1.96.46-2.7.52-1.52 1.02-2.42 1.08-2.41zm-6.5 2.3c-.03.07-.45-.21-1.05-.88a9.79 9.79 0 0 1-1.86-3.31c-.49-1.46-.75-3.32-.4-5.27.29-1.68 1.02-3.31 1.74-4.94.69-1.55 1.37-3.22 2.5-4.6 1.16-1.46 2.86-2.41 4.54-2.72 1.97-.39 3.78.07 5.23.47 1.51.44 2.69.99 3.45 1.47.77.48 1.09.89 1.05.93-.05.05-.41-.28-1.19-.68-.77-.4-1.95-.88-3.43-1.24-1.44-.34-3.17-.7-4.96-.31-1.54.32-3.09 1.14-4.16 2.48-1.05 1.29-1.63 2.93-2.33 4.48-.72 1.61-1.36 3.22-1.65 4.77-.36 1.79-.26 3.54.15 4.95.42 1.46 1.06 2.55 1.56 3.27.51.72.86 1.09.83 1.13zm40.84-2.11c.07 0 .13.23.03.64-.1.4-.41.94-.87 1.46-.43.51-.99 1.03-1.39 1.66-.34.52-.54 1.2-.66 1.97-.11.72-.26 1.56-.72 2.25-.46.71-1.1 1.27-1.82 1.57-.83.36-1.7.35-2.37.19-1.42-.35-1.96-1.2-1.88-1.24.08-.11.7.57 1.96.76.6.09 1.33.03 2.01-.3.59-.28 1.16-.73 1.54-1.33.38-.58.42-1.29.55-2.02.13-.75.27-1.6.73-2.26.51-.76 1.19-1.17 1.64-1.63.48-.45.8-.87.98-1.19.17-.32.22-.53.27-.53zm-27.32 16.75c.02-.08.39.02.99.35.6.33 1.4.94 2.29 1.72.87.73 1.86 1.61 3.13 2.12 1.06.45 2.37.69 3.47.11.52-.28.99-.72 1.49-1.15.5-.45 1.08-.85 1.67-1.16 1.23-.66 2.5-1.09 3.62-1.57 1.31-.54 2.45-1.19 3.17-2.02.75-.85 1.06-1.78 1.13-2.43.07-.66-.04-1.04.03-1.06.04-.02.25.35.26 1.07 0 .71-.26 1.75-1.03 2.73-.75.96-1.95 1.72-3.28 2.3-1.15.52-2.41.92-3.57 1.55-.56.3-1.06.67-1.52 1.11-.47.43-.95.93-1.59 1.27-1.36.74-2.95.51-4.12-.02-1.41-.61-2.37-1.65-3.19-2.42-.85-.81-1.55-1.45-2.09-1.86-.53-.4-.86-.6-.85-.64z" class="cls-1"/><path d="M89.59 30.6c.21.06-.83 1.4-.78 3.75 0 1.13.41 2.36 1.17 3.6.31.54.65 1.12.95 1.75.3.63.52 1.3.76 1.94.43 1.24 1.14 2.32 2.18 3.05 1.06.77 2.36 1.12 3.55 1.05 1.39-.07 2.64-.65 3.49-1.37.9-.74 1.32-1.67 1.84-2.17.49-.53.92-.62.93-.57.03.06-.31.22-.71.75-.41.5-.79 1.49-1.73 2.36-.88.84-2.22 1.54-3.78 1.66-1.35.11-2.79-.32-3.97-1.16-.56-.41-1.09-.89-1.52-1.46-.44-.57-.74-1.22-.97-1.85-.25-.66-.46-1.29-.75-1.86-.29-.58-.63-1.14-.94-1.7-.76-1.29-1.12-2.77-1.05-3.97.02-1.25.38-2.23.7-2.86.33-.63.61-.93.64-.92zm39.7-8.57c-.12-.12 1.19-1.08 3.32-2.43 1.05-.65 2.24-1.4 3.53-2.2.28-.17.57-.34.86-.52l.72-.42.22-.13c.06 0 .06.12.1.18l.16.44.15.41.08.26c.05.17.1.35.14.53.09.35.16.72.22 1.08.23 1.4.19 2.87-.12 4.26-.32 1.44-.91 2.8-1.7 3.91-.92 1.29-2.06 2.23-3.1 2.89-1.08.67-2.08 1.04-2.78 1.21-.71.17-1.12.18-1.13.14-.05-.15 1.61-.36 3.63-1.75.96-.68 2.01-1.62 2.84-2.85.72-1.06 1.31-2.31 1.6-3.67.28-1.31.24-2.69.03-4-.05-.34-.12-.68-.21-1.01-.04-.17-.09-.33-.14-.49l-.11-.33s-.03-.08-.03-.07l-.14.08-.87.51c-1.32.77-2.59 1.4-3.64 2-2.16 1.23-3.57 2.03-3.63 1.97z" class="cls-1"/><path d="M129.55 31.89c-.04-.05.28-.29.96-.26.67.02 1.66.46 2.39 1.4.72.88 1.25 2.04 1.91 3.19.56.99 1.18 2.05 2.12 2.79.48.34.62.52 1.95.94l-.65.63c-.27.24-.38.33-.53.43-.28.21-.59.38-.89.54-1.2.58-2.56.79-3.78.57-1.42-.28-2.53-.98-3.4-1.65-.89-.7-1.46-1.47-1.74-2.06-.28-.59-.28-.97-.24-.98.07-.02.16.32.49.83.32.51.9 1.19 1.78 1.81.84.59 1.95 1.19 3.2 1.41 1.08.18 2.3.03 3.38-.5.52-.23 1.24-.85 1.04-.75h-.05s-.13-.05-.27-.12c-.27-.14-.52-.3-.76-.49-1.07-.84-1.8-1.95-2.35-2.99-.65-1.21-1.05-2.39-1.66-3.23-.61-.87-1.39-1.31-1.98-1.43-.59-.13-.94-.02-.96-.06zm-44.51-1.02c-.02.07-.31.05-.77-.21-.45-.25-1.05-.77-1.51-1.57-.46-.76-.78-1.77-.94-2.85-.15-.93-.12-1.92-.19-2.9-.07-.94-.2-1.89-.47-2.76a4.93 4.93 0 0 0-.14-.41c-.05-.13-.09-.24-.22-.5-.23-.45-.66-1.08-.96-1.54.69.26 1.31.5 1.94.73 1.04.41 1.9.79 2.69 1.13.78.31 1.53.66 1.78 1.17.26.49.1.81.06.78-.07 0-.02-.27-.29-.62-.25-.37-.87-.6-1.71-.87-.8-.28-1.71-.61-2.7-.96-.06-.01-.16-.06-.19-.06.03.05.05.08.09.17l.13.33.15.45c.3.94.52 1.93.58 2.9.07 1 .12 1.97.23 2.85.12 1.02.28 1.96.65 2.69.74 1.53 1.85 1.98 1.8 2.06zm.07.29c0 .09-.3.07-.74.26s-.96.63-1.34 1.4c-.36.74-.73 1.7-1.07 2.72-.29.89-.62 1.83-.83 2.82l-.1.5v.06s-.04.13 0 .06c.02-.03.04-.05.07-.07l.09-.07c.05-.04.11-.08.17-.12.11-.08.23-.15.35-.22.24-.14.49-.25.74-.35.51-.18 1.04-.27 1.55-.26 1.18.04 2.14.42 2.98.55.86.15 1.58.09 2.05-.06.48-.15.72-.33.76-.28.04.03-.15.3-.65.55-.5.24-1.3.38-2.22.28-.9-.08-1.89-.39-2.92-.39-.44 0-.89.08-1.33.23-.22.08-.43.18-.64.29-.1.06-.2.12-.3.19-.05.03-.1.07-.14.1l-.07.05s-.09.07-.13.11c-.2.16-.4.42-.63.72-.25.36-.51.72-.78 1.09v-.26l.05-.44c.04-.31.07-.61.11-.91.05-.34.1-.66.15-.99.03-.18.07-.35.1-.53.22-1.02.49-2.01.82-2.92.39-1.05.87-1.95 1.32-2.74.46-.81 1.16-1.32 1.7-1.45.55-.14.87 0 .87.03zm10.66 15.02c.19 0-.05 1.27.6 3.03.31.84.83 1.77 1.56 2.64.63.75 1.37 1.51 2.24 2.17.42.32.85.62 1.3.92l1.15.75s.03.02.04.02v-.05l.02-.04.06-.19c.08-.25.19-.49.31-.72.24-.45.53-.85.83-1.21.78-.93 1.56-1.66 2.01-2.45.48-.8.66-1.56.64-2.1-.02-.54-.16-.84-.09-.87.04-.03.27.24.38.83.11.59-.03 1.47-.49 2.36-.43.89-1.22 1.72-1.93 2.62-.28.35-.54.72-.76 1.12-.11.2-.2.41-.28.62l-.05.16-.07.32c-.05.21-.08.44-.11.67-.15-.1-.32-.2-.49-.31-.28-.17-.56-.35-.86-.53-.23-.14-.46-.28-.7-.42-.46-.28-.92-.58-1.35-.91-.89-.69-1.73-1.44-2.4-2.26-.77-.96-1.21-2.03-1.49-2.95-.29-.95-.33-1.78-.28-2.35.05-.57.16-.88.2-.88zm6.3-35.46c-.11.09-.63-1.37.17-3.49.38-.99 1.09-2.08 2.16-2.93.94-.74 2.12-1.13 3.24-1.56 1.07-.42 2.16-.85 2.98-1.56.1-.09.21-.18.3-.29.1-.12.15-.14.33-.41l.23-.33c.04-.05.08-.11.12-.16l.14.13.55.51c.45.44.83.87 1.18 1.33.79 1.06 1.33 2.17 1.69 3.14.72 2.03.65 3.44.56 3.44-.14.02-.21-1.36-1.02-3.26-.4-.91-.97-1.94-1.75-2.92-.34-.42-.72-.84-1.11-1.23-.08-.07-.17-.2-.21-.07.01 0-.14.16-.24.27-.1.12-.23.23-.34.33-.93.81-2.06 1.35-3.14 1.76-1.13.42-2.2.86-3.03 1.48-.97.72-1.72 1.62-2.13 2.52-.85 1.87-.58 3.29-.69 3.29z" class="cls-1"/><path d="M106.2 12.2c-.15-.01-.11-.84.51-1.89.29-.5.69-1.05 1.15-1.6.4-.48.89-.91 1.31-1.41.41-.48.8-.98 1.15-1.48.36-.53.63-1.09.84-1.63.25-.63.4-1.24.48-1.78.16-1.11.07-1.87.19-1.89.1-.02.33.73.3 1.93-.02.58-.12 1.26-.36 1.96-.19.61-.52 1.21-.9 1.78-.36.55-.71 1.12-1.14 1.61-.44.49-.87.97-1.28 1.43-.47.51-.95.94-1.28 1.39-.68.9-.89 1.62-.98 1.59zm24.66 13.62c-.1-.14.36-.56 1.07-1.17.34-.3.73-.64 1.13-1.04.35-.34.75-.67 1.11-1.07.33-.38.65-.8.95-1.21.31-.43.57-.88.83-1.3.3-.48.56-.94.78-1.34.43-.83.69-1.39.81-1.35.1.03-.02.64-.35 1.55-.16.44-.38.94-.66 1.46-.24.45-.54.9-.86 1.36-.31.43-.57.92-.92 1.32-.37.41-.74.81-1.13 1.15-.44.4-.94.65-1.33.91-.8.53-1.36.79-1.41.73zm-1.91 7.19c.02-.16.85-.03 1.59.88.36.42.67.98.96 1.57.25.51.43 1.07.73 1.56.29.47.67.9 1.08 1.27.43.39.91.69 1.38.95.54.3 1.08.52 1.56.65.99.27 1.7.26 1.71.39.01.1-.7.26-1.8.09-.53-.08-1.14-.26-1.76-.55-.53-.26-1.05-.62-1.53-1.04-.46-.41-.94-.83-1.27-1.37-.34-.55-.59-1.12-.81-1.63-.25-.59-.42-1.15-.69-1.57-.55-.86-1.19-1.14-1.15-1.22zm-26.1 22.82c-.1.11-.72-.36-1.1-1.46-.18-.52-.31-1.15-.35-1.83-.04-.59.05-1.21.11-1.83.05-.6.13-1.2.21-1.78.09-.6.13-1.2.18-1.75.06-.64.08-1.23.06-1.73-.05-1.04-.29-1.7-.17-1.75.09-.05.47.59.66 1.69.09.53.13 1.16.11 1.82-.02.58-.1 1.18-.18 1.79-.07.59-.06 1.19-.12 1.77-.06.6-.07 1.18-.07 1.73 0 .63-.01 1.22.1 1.71.22 1.01.65 1.56.57 1.62zM80.68 39.84c-.15-.03-.12-.71.26-1.67.19-.46.46-.98.8-1.51.3-.45.71-.87 1.1-1.3.39-.41.8-.81 1.24-1.16.47-.36.93-.7 1.41-.96.56-.3 1.1-.49 1.55-.66.93-.33 1.52-.58 1.58-.49.07.1-.49.48-1.38.93-.43.22-.92.47-1.43.77-.43.27-.89.56-1.32.91-.41.34-.74.78-1.11 1.16-.38.4-.7.83-1.01 1.24-.35.47-.71.9-.95 1.31-.47.85-.68 1.46-.77 1.44zm.63-20.62c.03-.15.98.14 1.74 1.33.36.56.67 1.27.89 2.06.19.68.27 1.41.44 2.12.16.69.36 1.36.64 1.98.29.65.7 1.22 1.11 1.72.48.58 1 1.07 1.49 1.44 1.02.75 1.82 1.02 1.78 1.15-.02.09-.9-.05-2.05-.74-.56-.33-1.16-.81-1.71-1.42-.47-.53-.89-1.17-1.22-1.87-.32-.67-.61-1.37-.77-2.08-.16-.72-.32-1.42-.47-2.09-.18-.74-.33-1.44-.61-1.98-.56-1.12-1.31-1.54-1.26-1.62z" class="cls-1"/><path d="M109.11 2.77c.13-.09.37 0 .58.25.1.12.2.27.3.44.08.15.09.34.15.51.06.16.12.33.16.5.04.18.1.34.12.51.02.19 0 .38-.01.53-.03.32-.12.52-.23.53-.12 0-.16-.18-.25-.46-.05-.18-.09-.32-.14-.46-.04-.16-.07-.31-.11-.47-.04-.15-.19-.28-.23-.43-.06-.16-.1-.27-.17-.44-.05-.17-.03-.36-.07-.5-.09-.28-.16-.46-.09-.51zm2.61 1.58c0-.16.14-.3.32-.37.09-.03.19-.06.29-.08.09-.02.2.03.3.02.1-.01.2-.04.29-.05.1-.01.2-.06.29-.06h.32c.2 0 .35.05.4.15.05.1-.06.19-.23.31-.09.06-.19.11-.31.16-.1.04-.22.05-.34.08-.11.02-.21.14-.33.15-.12 0-.24.03-.35.03-.13 0-.25-.12-.35-.14-.2-.05-.33-.11-.32-.19zm-5.64.07c.14-.08.41.15.68.58.13.2.27.45.41.72.12.23.18.51.3.77.11.25.24.49.34.75.11.26.24.51.33.75.1.28.18.56.24.79.14.48.18.81.07.86-.11.05-.27-.23-.52-.65-.12-.21-.25-.45-.39-.72-.12-.23-.22-.49-.34-.75-.11-.25-.32-.46-.42-.71-.11-.26-.24-.51-.33-.75-.11-.28-.13-.58-.2-.81-.16-.47-.25-.78-.18-.81zm-2.65 1.97c.14-.07.42.18.71.62.14.21.29.47.45.74.14.24.22.52.37.78.14.25.29.49.44.75.16.26.28.46.45.74.12.23.27.53.39.78.24.47.36.8.27.87-.09.07-.33-.18-.67-.59-.17-.2-.35-.44-.54-.7-.16-.23-.31-.49-.47-.75-.15-.25-.39-.46-.52-.72-.14-.27-.3-.53-.41-.78-.14-.3-.17-.62-.26-.86-.18-.5-.28-.83-.21-.87zM84.29 23.57c-.14-.07-.2-.28-.15-.52.02-.12.07-.24.12-.38.05-.11.16-.2.23-.32.06-.11.11-.23.18-.34.07-.11.12-.24.19-.34.09-.11.19-.21.28-.29.18-.17.34-.25.44-.2.1.06.06.2 0 .43-.03.11-.08.23-.14.36-.05.11-.13.22-.19.34-.06.11-.04.27-.11.38-.07.11-.12.23-.19.34-.08.12-.24.18-.32.27-.16.18-.26.29-.34.26zm.58 2.96c.09-.05.21-.04.33.03l-.42.02c-.02-.06-.03-.14-.02-.22 0-.11.03-.23.06-.36.03-.11.13-.2.17-.32.04-.11.08-.23.13-.34.05-.11.08-.23.14-.34.07-.12.16-.21.23-.3.15-.18.29-.27.4-.23.11.04.09.19.06.41-.01.11-.04.23-.08.36-.03.11-.09.22-.13.34-.04.11 0 .26-.05.37-.05.11-.08.23-.14.33-.06.12-.21.19-.27.28-.04.06-.08.11-.12.16l-.28.38-.05-.37c-.01-.11 0-.18.04-.2zm1.94 2.78a.425.425 0 0 1-.27-.36c0-.08 0-.16.02-.25.02-.08.1-.13.13-.21.03-.08.05-.16.09-.23.04-.07.05-.16.1-.22.05-.08.13-.14.19-.19.12-.11.25-.16.36-.12.11.04.11.14.1.3 0 .08-.02.16-.04.25-.02.08-.06.15-.09.23-.03.08.03.19 0 .26-.04.08-.06.16-.1.22-.05.08-.18.12-.23.17-.1.12-.17.19-.25.16zM84.2 25c.06.15.02.33-.13.46-.07.06-.16.11-.27.16-.09.04-.21 0-.31.02s-.2.05-.3.05c-.1 0-.2.03-.3.02-.11-.02-.22-.06-.3-.1-.18-.07-.28-.19-.27-.3 0-.12.12-.14.27-.19.08-.02.16-.04.26-.06.08-.01.17 0 .26-.02.09-.01.16-.12.24-.13.09 0 .17-.04.25-.05.09 0 .21.07.29.07.17 0 .28 0 .31.07zm1.27 3.17c.1.12.07.34-.12.55-.09.1-.21.19-.35.28-.12.08-.28.08-.42.13-.13.05-.27.11-.41.14-.15.03-.29.08-.43.08-.16 0-.31-.03-.44-.06-.26-.06-.42-.17-.41-.28 0-.12.16-.14.38-.21.15-.04.26-.07.36-.1.11-.03.24-.04.36-.07.12-.03.21-.16.32-.2.12-.04.23-.1.34-.14.13-.04.29-.01.4-.05.22-.08.36-.14.41-.08zm-1.34 6.13c-.08.14-.24.22-.4.22-.08 0-.16-.01-.25-.03-.07-.01-.13-.1-.21-.12-.08-.02-.16-.03-.23-.06-.08-.03-.16-.02-.24-.05-.08-.04-.16-.09-.23-.13-.14-.08-.25-.18-.25-.3s.11-.15.28-.19c.09-.02.19-.03.29-.02.09 0 .19.04.28.06.09.02.21-.05.31-.01s.19.06.28.11c.1.05.14.2.21.25.13.12.21.21.17.28zm1.84-.72c.15-.05.37.17.54.57.08.19.16.43.22.68.06.22.04.47.08.71.04.23.08.47.1.71.02.24.06.48.05.71 0 .26-.04.51-.07.71-.06.43-.17.7-.29.7-.12 0-.15-.27-.21-.68-.03-.24-.06-.45-.09-.68l-.06-.68c-.03-.23-.15-.44-.18-.66l-.11-.67c-.03-.25.03-.5 0-.7-.05-.41-.08-.68 0-.71zm-2.93 2.53c.16-.04.32.02.43.16.05.06.09.14.13.23.03.08 0 .17.01.26.02.08.05.16.06.25.01.09.05.17.05.25 0 .1-.03.19-.05.27-.04.17-.11.29-.23.31-.11.03-.17-.06-.25-.2-.04-.07-.08-.15-.11-.24-.03-.08-.03-.16-.05-.25-.02-.08-.13-.14-.15-.23-.01-.09-.04-.17-.05-.25 0-.1.08-.21.09-.28.02-.16.03-.27.11-.29zm4.2-3.51c-.07.14-.3.19-.58.13-.13-.03-.29-.08-.44-.13-.14-.05-.25-.17-.4-.23-.14-.06-.27-.11-.43-.17-.14-.07-.3-.1-.43-.16-.15-.08-.29-.17-.4-.24a1.12 1.12 0 0 1-.3-.24l-.12-.15h.09c.08-.01.14 0 .18.04.03.04.02.09-.01.16l-.06-.32a2.771 2.771 0 0 1 .84.12c.15.04.29.11.45.17.15.06.33.03.48.09.15.07.3.13.44.2.15.09.25.26.37.34.23.17.37.3.34.37zm14.6 18.99c.11-.11.34-.09.58.06.11.07.24.17.36.28.11.09.16.25.27.36.1.11.21.21.31.32.1.12.22.22.3.33.1.14.16.28.23.4.13.25.17.44.09.52-.08.08-.23-.02-.45-.18a4.07 4.07 0 0 1-.34-.29c-.1-.1-.2-.22-.3-.33-.1-.11-.27-.15-.37-.26-.1-.12-.21-.22-.3-.33-.1-.13-.12-.32-.19-.43-.14-.23-.24-.38-.18-.44zm.21-2.43c.07-.14.36-.16.72 0 .17.07.36.18.56.31.17.11.3.29.46.44.16.14.32.27.47.43.15.16.31.3.43.46.14.19.24.38.32.55.17.34.22.6.13.66-.1.07-.26-.11-.52-.36l-.42-.42-.4-.43c-.14-.14-.35-.2-.49-.33-.15-.14-.31-.25-.45-.38-.16-.14-.26-.35-.39-.47-.27-.24-.45-.39-.42-.46zm.07-1.76c0-.16.31-.29.79-.26.23.01.49.05.77.13.24.06.46.21.71.32.23.1.47.21.69.34.22.14.46.26.64.42.22.18.39.39.53.56.29.36.41.65.32.72-.09.08-.3-.11-.65-.35-.17-.12-.37-.26-.58-.4-.19-.12-.38-.26-.59-.38-.2-.12-.46-.14-.66-.23-.22-.1-.44-.18-.65-.25-.24-.1-.44-.26-.64-.33-.41-.14-.68-.2-.68-.28zm-.06 1.03c.05.16-.18.37-.55.58-.23.13-.42.23-.61.34-.19.1-.43.16-.63.28-.2.12-.39.25-.58.38-.2.13-.37.29-.55.42-.17.11-.4.27-.58.39-.35.25-.6.4-.69.33-.09-.07.06-.32.34-.67.14-.17.31-.36.51-.54.17-.16.38-.3.59-.45.2-.14.36-.36.58-.48.23-.12.45-.26.67-.34.26-.11.54-.1.75-.15.43-.1.72-.14.75-.06zm.01-3.08c.04.16-.31.37-.85.61-.31.14-.59.26-.88.39-.28.13-.59.21-.89.36-.28.15-.56.32-.83.49-.28.18-.53.38-.78.56-.29.2-.56.39-.79.56-.47.36-.78.6-.88.52-.09-.07.13-.4.53-.87.2-.23.44-.48.73-.72.25-.21.54-.4.83-.6.28-.19.53-.45.84-.6.32-.16.63-.32.94-.43.36-.13.73-.14 1.02-.2.6-.12.99-.15 1.01-.08zm29.21-19.98c.06-.15.4-.15.85-.04.27.07.51.13.74.18.23.06.46.19.72.25.25.05.49.1.75.15.26.05.52.07.76.11.22.04.52.1.76.15.46.08.77.16.78.28 0 .11-.3.17-.79.21-.24.02-.51.02-.81 0-.26-.01-.53-.06-.8-.11-.26-.04-.55 0-.81-.07-.27-.07-.54-.13-.78-.23-.28-.1-.5-.3-.71-.41-.43-.23-.69-.4-.66-.47zm3.05-2.02c.02-.16.27-.26.62-.29.17-.01.36-.02.57-.02.18 0 .37.07.56.08h.57c.19 0 .39-.03.56-.02.2 0 .38.02.52 0 .3-.02.49-.14.59-.08.1.05-.03.36-.43.54-.18.09-.4.15-.63.18-.19.02-.39.02-.6.03-.2 0-.4.1-.6.09-.21-.01-.41-.01-.6-.04-.22-.03-.41-.16-.58-.21-.35-.1-.57-.18-.55-.26zm1.69-2.53c0-.16.15-.3.35-.37.1-.03.21-.06.34-.08.11-.02.22.04.34.03.11 0 .22-.03.34-.03.12 0 .23-.04.33-.04.13 0 .24.03.32.04.16.03.27 0 .39.01.13 0 .06.32-.22.45-.12.07-.26.11-.38.14-.11.03-.24.03-.36.04-.12.01-.23.12-.36.12-.13 0-.25.02-.37 0-.14-.01-.26-.12-.37-.15-.22-.06-.35-.11-.35-.19zm-1.06 1.33c-.11.11-.36.07-.61-.15-.12-.11-.24-.24-.34-.41-.1-.14-.12-.33-.19-.5-.07-.16-.14-.33-.18-.5-.04-.18-.1-.35-.11-.52-.01-.2.02-.38.04-.53.06-.32.17-.5.29-.5.12 0 .14.19.21.46.04.17.07.31.11.45.03.14.05.29.1.44.04.15.18.26.23.4.05.14.13.28.19.41.06.15.05.34.11.47.12.26.22.42.16.48zm-2.06 1.61c.04.06.04.15 0 .25l-.04.08-.19-.18a1.22 1.22 0 0 1-.26-.43c-.06-.17-.12-.38-.17-.61-.04-.2 0-.41-.02-.63-.02-.21-.04-.42-.05-.63 0-.22-.03-.43 0-.63.02-.23.07-.44.11-.62.09-.37.21-.6.32-.59.12 0 .13.25.17.61.02.22.03.41.05.6 0 .2 0 .39.01.6.01.2.12.39.13.59.02.21.03.37.06.59.01.22-.07.44-.06.62 0 .2.01.37 0 .47l-.22-.1c.09-.02.14-.03.16 0zm-2.15 4.65c.1-.13.34-.12.62 0 .13.06.28.13.44.21.13.07.24.21.39.29.14.07.27.14.43.22.15.08.3.13.44.2.16.09.3.19.42.27.26.16.42.31.39.42-.03.11-.23.1-.54.05-.15-.03-.33-.07-.51-.13-.16-.05-.31-.14-.48-.22-.16-.07-.36-.07-.51-.16-.15-.1-.31-.18-.45-.28-.16-.12-.24-.31-.34-.42-.22-.23-.34-.39-.29-.45zm-.51 5.83c0-.16.2-.3.5-.33.14-.02.31-.01.49 0 .16.02.3.12.47.16.16.04.32.08.47.14.16.06.32.1.45.18.16.09.29.2.4.3.23.2.33.38.27.48-.06.1-.23.04-.49-.04-.16-.05-.3-.1-.43-.14-.15-.06-.27-.11-.41-.16-.14-.05-.31 0-.45-.04-.15-.04-.25-.06-.42-.11-.15-.05-.29-.18-.41-.22-.26-.09-.44-.13-.43-.22zm1.66 2.2c-.03-.16.14-.34.44-.38.14-.02.31-.01.49.02.15.03.28.14.43.19.14.05.28.11.41.18.13.08.27.13.38.21.13.1.23.2.32.29.19.19.29.35.23.46-.05.1-.22.06-.46-.02a5.19 5.19 0 0 1-.4-.15c-.12-.05-.24-.13-.36-.19s-.28-.03-.4-.08c-.12-.06-.25-.09-.35-.13-.12-.05-.23-.18-.34-.22-.22-.07-.38-.09-.39-.17zm-.72-.8c.12.11.04.4-.14.76l-.29.58c-.09.18-.24.35-.33.56-.08.2-.14.41-.21.62-.07.22-.1.43-.15.64-.06.23-.12.45-.16.65-.08.4-.15.67-.27.69-.11.01-.19-.26-.23-.7-.02-.21-.02-.46.01-.73.02-.23.09-.47.16-.71.06-.23.06-.5.16-.73.11-.23.2-.46.34-.66.15-.23.38-.38.53-.53.3-.31.53-.48.59-.43zm1.78 2.99c.15.06.22.27.22.51 0 .16-.01.29-.02.39 0 .12-.08.24-.09.38v.39c0 .14.04.26.04.39v.41c0 .25-.02.44-.12.49-.1.05-.21-.09-.35-.34-.06-.12-.12-.27-.16-.44-.04-.14-.04-.3-.05-.46-.01-.15-.11-.31-.09-.47.02-.16.02-.33.06-.47.05-.17.19-.3.26-.42.13-.25.24-.39.31-.36z" class="cls-1"/></g></svg>