<svg xmlns="http://www.w3.org/2000/svg" id="Layer_2" data-name="Layer 2" viewBox="0 0 64.33 161.21"><defs><style>.cls-1{fill:#fff}</style></defs><g id="OBJECTS"><path d="M43.3 110.19zm-5.39-9.93h.07c.07-.02.12-.07.13-.14 0-.02 0-.04.01-.07 0-.04.01-.08.02-.12.03-.16.07-.3.1-.45l.06-.24c.06-.24.11-.48.16-.72.11-.5.21-1.02.32-1.57-.15.34-.32.75-.48 1.17-.07.19-.15.38-.22.57l-.04.1c-.05.13-.1.27-.14.41s-.02.06-.02.06c-.03.11-.07.23-.09.34v.05c-.02.05-.03.1-.04.15v.04c-.02.08-.03.15-.03.23 0 .09.08.17.17.18z" class="cls-1"/><path d="M63.94 29.17c-.28-.05-.57-.04-.85-.01-.22.02-.45.04-.67.07-.89.1-1.78.21-2.68.31-.34.04-.68.07-1.02.11-.44.05-.87.1-1.31.16-.43.07-.86.15-1.28.26-.22.05-.44.11-.65.18-.12.04-.24.07-.35.12-.13.05-.24.11-.36.18-.11.07-.19.16-.28.24-.06.03-.12.05-.18.08 0-.01 0-.03.01-.04.08-.26.17-.51.27-.76.11-.26.22-.53.34-.79.29-.68.55-1.37.85-2.04.03-.07.07-.15.1-.22.16-.35.31-.69.46-1.05.14-.34.27-.69.42-1.02.05-.12.11-.24.16-.36.06-.12.12-.25.17-.37v.02c0-.01.01-.02.02-.04v.02c.03-.06.05-.12.08-.17v.02c.12-.27.22-.54.3-.82.09-.28.17-.56.26-.84v.02l.12-.42c.11-.37.21-.73.29-1.11.08-.36.14-.72.2-1.08.06-.37.13-.75.19-1.12.05-.32.08-.64.13-.95l.03-.03.14-.14c.05-.05.09-.11.13-.17.09-.11.19-.23.28-.33.1-.11.21-.21.31-.33.21-.23.4-.48.53-.77.06-.15.13-.3.16-.45.04-.16.06-.32.06-.48 0-.2-.02-.41-.13-.59-.07-.13-.19-.25-.35-.25-.13 0-.22.08-.29.17-.12.13-.2.29-.28.45-.08.16-.15.33-.22.5-.13.34-.25.69-.36 1.03-.12.34-.23.69-.3 1.04-.04.19-.08.38-.11.58-.03.18-.05.36-.08.55v-.02c-.05.31-.11.62-.16.94-.05.33-.1.65-.16.98-.03.18-.06.36-.1.54-.04.19-.09.38-.14.57l-.15.53c-.05.16-.09.33-.14.49-.07.24-.14.48-.22.72-.07.22-.16.44-.25.66-.03.06-.05.12-.08.18v-.02c-.05.12-.11.23-.16.35-.06.13-.11.25-.17.38v-.02c-.01.03-.03.06-.04.1-.14.34-.27.69-.4 1.03-.13.35-.27.69-.42 1.04-.14.35-.29.7-.43 1.06-.14.35-.28.71-.42 1.06-.14.34-.27.67-.38 1.02-.06.18-.11.35-.15.54l-.06.29c-.06.03-.12.05-.18.08-.03.02-.05.04-.08.06.06-.13.12-.26.18-.38.04-.08.08-.16.11-.24.08-.21.16-.41.25-.62.07-.17.12-.34.18-.51.06-.18.13-.36.18-.55.07-.25.13-.5.2-.74.05-.19.09-.39.13-.58.18-.78.34-1.56.47-2.35.28-1.69.5-3.39.61-5.1.06-.81.07-1.62.06-2.44 0-.39-.02-.78-.03-1.17-.01-.3-.02-.67-.26-.88-.15-.14-.36-.19-.56-.19-.21 0-.42.03-.62.08-.19.05-.39.09-.58.16-.21.08-.42.16-.63.25-.16.07-.31.14-.46.21.06-.08.12-.15.18-.23.12-.15.23-.31.35-.46.21-.29.43-.57.65-.86.22-.29.45-.58.67-.89.22-.31.42-.63.57-.97.03-.07.06-.14.09-.22.06-.06.12-.11.19-.17.21-.19.41-.38.61-.58l.01-.01c.25-.24.52-.47.77-.71.13-.12.26-.25.38-.39.11-.14.22-.29.29-.45 0-.01 0-.02.01-.03v-.02c.03-.07.06-.15.08-.23.04-.18.06-.37.05-.55 0-.11-.03-.22-.06-.32a1 1 0 0 0-.17-.28.446.446 0 0 0-.23-.13c-.1-.03-.22 0-.31.04-.05.02-.09.04-.13.07-.07.05-.14.1-.21.17-.07.07-.14.14-.2.21-.06.08-.12.15-.18.23-.11.15-.21.32-.31.48-.09.16-.17.32-.24.49-.08.17-.14.35-.2.52-.06.17-.11.34-.16.52-.07.23-.13.46-.2.68-.05.16-.1.31-.16.46-.04.08-.07.16-.11.24-.05.08-.09.17-.14.25-.16.26-.34.51-.53.75-.23.3-.46.59-.7.89-.23.29-.46.59-.68.89-.22.29-.43.59-.65.89-.01.02-.02.03-.03.05-.73.36-1.45.72-2.15 1.12-.7.4-1.37.86-2.04 1.32l-.49.34c-.17.12-.35.24-.51.38 0 0 0 .01-.01.02-.15.08-.29.17-.42.27-.13.09-.25.19-.37.29.01-.04.02-.08.04-.12.28-.88.56-1.76.87-2.63.31-.89.64-1.77 1.01-2.63.2-.44.41-.87.63-1.29.22-.4.44-.8.67-1.2.23-.4.45-.81.68-1.21.23-.41.47-.81.72-1.21 0 0 0-.01.01-.02l.06-.09v.02c.08-.12.15-.25.23-.37.11-.18.23-.37.32-.57a.3.3 0 0 1 .04-.08c.13-.09.26-.17.4-.26.23-.14.46-.29.67-.47.36-.3.67-.66.88-1.07.21-.4.33-.84.38-1.28l.03-.32c0-.11 0-.22-.03-.33a.781.781 0 0 0-.14-.29.443.443 0 0 0-.27-.14.528.528 0 0 0-.25.04c-.05.02-.09.04-.14.07-.18.12-.35.27-.49.43-.15.17-.3.36-.4.57-.11.2-.19.41-.27.63-.07.21-.12.42-.17.63-.1.45-.18.9-.31 1.34a2.654 2.654 0 0 1-.24.56c-.23.38-.48.74-.72 1.11-.26.39-.52.78-.76 1.18-.04.07-.08.13-.12.2-.23.38-.45.77-.67 1.16-.21.38-.42.76-.62 1.15-.1.21-.21.41-.3.62-.11.23-.21.47-.31.7-.09.22-.18.43-.26.65-.09.22-.17.44-.25.66-.16.43-.32.86-.47 1.3-.11.33-.22.66-.32.99.03-.96.03-1.92 0-2.88-.02-.95-.07-1.89-.15-2.84-.03-.46-.08-.92-.15-1.38-.07-.46-.13-.92-.22-1.38-.05-.24-.1-.49-.16-.73-.08-.28-.15-.58-.31-.83a.615.615 0 0 0-.44-.29c-.17-.02-.32.06-.47.14-.18.1-.37.2-.55.29-.2.11-.41.21-.62.32.19-.18.39-.36.58-.55.16-.15.31-.31.46-.47.15-.16.3-.32.44-.49.49-.57.97-1.17 1.39-1.79.05-.03.09-.06.14-.09.14-.09.27-.17.41-.26.25-.16.5-.34.74-.51l.39-.3.1-.07.47-.35c.13-.1.26-.22.39-.33.14-.13.28-.27.4-.43.11-.15.22-.3.3-.48.09-.21.16-.46.08-.68a.68.68 0 0 0-.35-.41.671.671 0 0 0-.28-.06c-.08 0-.16.02-.24.04-.1.03-.19.08-.27.13-.08.05-.16.11-.23.17l-.19.16c-.14.13-.28.27-.41.41-.12.14-.24.28-.35.43-.11.15-.21.31-.31.47-.1.16-.18.32-.26.49-.08.17-.17.35-.25.52-.08.16-.17.32-.27.48a8.3 8.3 0 0 1-.41.62l-.45.6-.27.33c-.25.3-.5.59-.77.88-.24.27-.49.52-.74.78-.28.28-.55.57-.82.85-.1.11-.2.22-.29.33-.33.16-.67.32-1 .48-.44.21-.88.43-1.3.67-.41.23-.8.48-1.19.74-.05.03-.09.07-.14.11a11.491 11.491 0 0 1 .76-1.1.7.7 0 0 0 .08-.1c.32-.4.66-.77.99-1.16.34-.39.68-.79.96-1.22.29-.44.55-.9.8-1.36.24-.43.48-.87.69-1.32.06-.12.11-.25.17-.38.12-.08.25-.15.37-.22.14-.09.28-.17.42-.26.15-.1.29-.21.43-.32.14-.12.28-.25.41-.38.36-.35.71-.72 1-1.12.15-.21.28-.43.38-.67.1-.24.15-.5.12-.75a1.17 1.17 0 0 0-.13-.45.636.636 0 0 0-.22-.24.58.58 0 0 0-.34-.09c-.28.02-.52.19-.73.37-.37.32-.7.71-.95 1.13-.14.23-.26.46-.36.7-.1.23-.19.47-.27.71-.16.47-.32.94-.52 1.4-.14.32-.3.64-.47.95-.17.31-.35.62-.53.92-.14.22-.27.45-.42.67-.08.13-.17.25-.26.37-.07.1-.15.2-.23.31-.24.29-.48.57-.73.85-.24.26-.48.53-.7.81-.15.19-.31.38-.44.59-.14.22-.28.44-.41.67.02-.11.05-.22.07-.33.07-.42.13-.84.18-1.26.05-.43.09-.87.1-1.3 0-.43 0-.86-.06-1.29-.04-.29-.08-.59-.19-.86-.06-.15-.14-.29-.24-.42.01-.02.02-.05.04-.07.05-.08.09-.15.14-.23.1-.16.2-.31.31-.46.11-.16.23-.32.34-.49.12-.18.25-.37.36-.56.12-.19.22-.39.31-.6.04-.1.08-.2.11-.31.02-.05.03-.11.04-.16.22-.18.43-.37.6-.59.11-.13.2-.27.28-.41.11-.17.21-.35.28-.54.04-.13.07-.26.06-.39a.47.47 0 0 0-.14-.3.565.565 0 0 0-.33-.13c-.13 0-.26.04-.36.11-.11.07-.2.16-.28.27-.05.07-.09.14-.13.21-.05.09-.1.19-.14.29-.08.21-.15.43-.18.65-.03.21-.04.43-.06.64-.01.07-.03.14-.05.21-.03.09-.06.17-.09.25-.04.08-.08.17-.12.25l-.12.21c-.04.06-.07.12-.11.18-.22.35-.47.68-.7 1.02-.13.2-.25.4-.37.6a.3.3 0 0 0-.04.08c-.04-.01-.08-.04-.12-.04-.1 0-.22 0-.31.03-.15.06-.29.13-.42.21-.09.05-.17.09-.25.14-.19.1-.37.21-.56.31-.39.22-.79.43-1.18.65-.45.25-.9.52-1.34.79-.46.28-.91.58-1.35.89-.72.5-1.41 1.02-2.1 1.56-.66.52-1.29 1.07-1.92 1.63-.68.61-1.35 1.21-2.01 1.84l-.04.04c.28-.39.56-.78.84-1.18.13-.18.26-.35.39-.53.13-.17.25-.34.38-.51l.4-.52c.14-.18.28-.36.43-.54 0 0-.01.02-.02.02 0 0 0-.01.01-.02.41-.51.81-1.02 1.22-1.53.26-.32.52-.65.79-.97.3-.35.61-.71.92-1.05.59-.66 1.21-1.32 1.69-2.06.06-.1.13-.2.19-.3.06-.1.11-.2.16-.3.02-.03.03-.07.05-.1l.5-.38c.2-.15.39-.31.58-.47.08-.07.16-.14.23-.22.16-.15.31-.31.44-.49.17-.24.31-.52.38-.81.06-.27.07-.59-.13-.81a.524.524 0 0 0-.36-.16.74.74 0 0 0-.36.09c-.13.07-.26.17-.36.27-.16.16-.3.34-.42.54s-.21.41-.28.63c-.07.2-.13.41-.2.62-.07.21-.15.42-.23.62v.01c-.03.07-.06.13-.09.2-.07.15-.15.3-.23.45 0 0 0-.01.01-.02 0 0 0 .01-.01.02-.1.16-.19.31-.3.46-.04.05-.07.09-.1.14l-.02.02c-.08.11-.16.22-.25.32-.39.47-.79.92-1.2 1.38-.32.35-.63.71-.94 1.07-.14.16-.27.33-.41.5-.14.17-.27.34-.41.51 0 0 0 .01-.01.02-.11.14-.22.28-.33.41-.01.01-.02.03-.03.04-.42.53-.83 1.06-1.24 1.6-.27.35-.52.71-.77 1.07-.25.36-.49.72-.74 1.09-.24.36-.47.73-.7 1.09-.05.07-.09.14-.14.22.01-.42.02-.84 0-1.26-.03-.42-.1-.85-.18-1.26-.08-.43-.18-.87-.29-1.3-.11-.43-.23-.86-.36-1.28l-.39-1.32c-.07-.22-.13-.43-.21-.64-.05-.11-.09-.23-.17-.33a.457.457 0 0 0-.16-.15.499.499 0 0 0-.21-.05c-.07 0-.16.04-.22.08-.11.08-.21.17-.31.27-.07.07-.15.14-.22.21-.16.15-.32.31-.48.46l-1.02.96c-.32.3-.63.61-.94.93-.15.16-.31.32-.46.48-.17.19-.34.37-.51.56-.3.34-.58.7-.86 1.05-.07.09-.13.18-.2.27-.07.09-.13.18-.2.27-.13.18-.26.37-.39.55-.27.39-.54.77-.79 1.17-.14.2-.27.41-.41.61-.13.2-.26.41-.39.61s-.24.4-.36.6c-.12.19-.22.39-.34.59-.22.38-.42.77-.63 1.16-.21.39-.41.78-.6 1.18-.19.41-.39.83-.56 1.25-.17.43-.35.86-.51 1.29-.16.44-.32.88-.46 1.32-.07.22-.14.44-.2.66-.06.23-.13.45-.19.68-.24.93-.47 1.87-.67 2.82-.02.11-.04.21-.05.32-.02.1-.03.19-.04.29-.03.22-.05.44-.06.66-.03.47-.06.94-.06 1.41 0 .45.02.9.05 1.35.03.45.08.89.16 1.33.04.23.08.45.14.67.06.23.12.46.19.68.14.44.31.87.48 1.3.17.42.36.83.58 1.23.21.39.43.78.66 1.16.25.41.5.82.77 1.21.12.18.25.36.37.53.14.18.27.37.42.55.15.18.3.36.46.54.16.18.33.35.5.52.3.31.63.59.96.87.71.58 1.44 1.13 2.16 1.69.24.2.49.39.73.6.21.18.42.36.64.54.25.21.5.41.76.62l.69.54c.13.1.25.21.38.32a9.392 9.392 0 0 1 .95.99l.6.75c.37.47.73.94 1.08 1.42.13.18.26.36.38.54.03.05.05.1.08.15a14.373 14.373 0 0 0 .57 1l.02.02.06.24v.12c0 .01 0 .02.01.03-.1.32-.18.65-.27.98-.15.35-.3.71-.44 1.06-.12.29-.25.58-.36.88-.13.37-.26.74-.4 1.12-.43 1.21-.77 2.46-1.1 3.7-.16.58-.29 1.17-.44 1.75l-.48 1.97c-.33 1.37-.64 2.74-.94 4.11-.26 1.19-.47 2.39-.71 3.59-.14.71-.28 1.42-.43 2.13-.13.62-.26 1.25-.38 1.87-.11.63-.23 1.26-.32 1.9-.04.32-.09.64-.12.96-.04.41-.07.82-.11 1.22-.03.3-.03.61-.05.91-.01.26-.03.52-.03.78-.01.72-.02 1.44-.02 2.16v3.87c0 2.54.2 5.06.45 7.59.13 1.39.28 2.78.43 4.17.14 1.3.33 2.59.52 3.88.19 1.24.42 2.47.64 3.7.25 1.33.5 2.67.78 3.99.27 1.28.58 2.54.91 3.8.32 1.24.65 2.48 1 3.71.11.4.23.79.35 1.18-.29-.48-.59-.95-.91-1.42-.65-.96-1.3-1.92-2-2.86-.71-.96-1.43-1.9-2.14-2.85 0 .01.02.02.03.04-.47-.64-.92-1.29-1.36-1.96-.03-.04-.05-.09-.08-.13l-.06-.18c-.15-.45-.29-.9-.44-1.34-.13-.41-.26-.82-.38-1.23-.12-.39-.22-.78-.32-1.17-.15-.67-.29-1.35-.39-2.03l-.27-2.06c-.03-.27-.06-.53-.08-.8-.03-.33-.05-.65-.07-.98-.03-.56-.04-1.13-.04-1.7 0-1.18.02-2.36.04-3.54.02-1.3.04-2.59.04-3.89 0-1.21-.06-2.42-.12-3.63l-.12-2.09c-.04-.63-.1-1.26-.17-1.89-.07-.64-.16-1.28-.25-1.91-.09-.61-.19-1.21-.29-1.82-.22-1.26-.5-2.52-.81-3.76-.15-.61-.31-1.21-.49-1.82-.09-.31-.19-.62-.29-.92-.1-.31-.21-.61-.32-.92l-.33-.87c-.12-.3-.25-.59-.38-.88-.25-.57-.51-1.15-.78-1.71-.25-.53-.52-1.06-.79-1.59-.29-.55-.6-1.1-.9-1.65-.6-1.09-1.13-2.22-1.66-3.34-.54-1.12-1.08-2.23-1.65-3.33-.29-.56-.57-1.11-.87-1.66-.07-.14-.16-.27-.24-.41-.07-.12-.16-.24-.24-.36-.06-.08-.12-.16-.21-.2-.09-.05-.2-.08-.3-.05-.12.04-.21.11-.3.19-.15.13-.24.34-.31.52-.21.58-.39 1.16-.58 1.74-.19.58-.38 1.15-.56 1.73-.39 1.22-.77 2.45-1.13 3.68-.18.6-.35 1.21-.51 1.81a62.8 62.8 0 0 0-.45 1.86c-.27 1.18-.51 2.37-.8 3.54-.15.61-.3 1.22-.44 1.83-.07.3-.14.6-.19.91-.05.32-.1.64-.15.97-.08.61-.13 1.23-.16 1.85-.02.32-.02.64-.03.96v.87c.03 1.24.17 2.48.34 3.71.04.29.08.59.13.88l.18 1.1c.02.12.04.23.07.35.04.22.08.43.13.65.05.24.1.48.15.73.08.36.16.71.25 1.07.03.12.06.24.1.36l.18.64c.15.56.34 1.12.52 1.67.2.6.4 1.19.62 1.78.11.31.23.62.35.93.13.32.26.64.4.96.26.6.53 1.18.81 1.77.26.55.55 1.09.84 1.63.3.54.61 1.07.92 1.61.34.58.68 1.15 1.03 1.73.33.55.67 1.08 1.02 1.62.17.26.35.51.53.76.09.13.19.25.28.37.08.1.15.2.24.3.84.97 1.71 1.91 2.63 2.81a32.464 32.464 0 0 0 2.87 2.48c.75.59 1.51 1.18 2.26 1.77.63.5 1.26 1 1.86 1.55l.15.3c.07.13.14.28.24.39.18.2.41.34.68.37.2.17.39.35.59.52.58.86 1.16 1.73 1.71 2.61.6.98 1.19 1.97 1.75 2.97.07.14.15.27.22.41.53.99 1 2 1.49 3.01.53 1.11 1.08 2.21 1.63 3.31.21.41.41.83.62 1.24.04.1.07.21.11.31.23.6.46 1.21.7 1.81.52 1.28 1.05 2.56 1.61 3.83.49 1.12 1.01 2.23 1.56 3.32.3.59.59 1.18.91 1.76.34.61.69 1.23 1.03 1.84.31.54.62 1.07.94 1.61.32.53.63 1.07.97 1.59.74 1.14 1.49 2.25 2.27 3.36.4.56.8 1.13 1.2 1.69.17.23.34.46.51.68.27.54.53 1.1.81 1.64.4.79.81 1.58 1.26 2.34.44.75.9 1.5 1.38 2.22.5.75 1.02 1.48 1.59 2.18.52.65 1.07 1.27 1.58 1.93.26.36.52.71.79 1.07.28.38.6.72.94 1.05.28.27.6.52.9.77.38.3.76.64 1.19.86.55.28 1.22.47 1.82.28.07-.02.14-.05.21-.08.62-.3.93-1.01.81-1.67a3.06 3.06 0 0 0-.53-1.26c-.53-.75-1.17-1.4-1.85-2.02-.65-.59-1.35-1.12-2.07-1.62-.67-.47-1.34-.93-1.99-1.42-.09-.07-.18-.15-.27-.23-.29-.35-.57-.71-.85-1.07l-.6-.84c.08.03.16.07.25.1-.18-.15-.34-.31-.51-.46-.16-.23-.34-.46-.49-.69-.45-.68-.89-1.36-1.32-2.06-.9-1.48-1.78-2.97-2.66-4.46-.62-1.06-1.24-2.12-1.85-3.18-.23-.75-.45-1.5-.64-2.26-.16-.68-.31-1.36-.42-2.05-.09-.61-.17-1.22-.24-1.83.03-.51.06-1.02.1-1.53l.06-.77c.01-.21.02-.43.04-.64.02-.22.04-.44.07-.66l.09-.61c.09-.52.2-1.03.3-1.54.05-.27.11-.53.17-.79.05-.22.11-.44.17-.66.06-.21.13-.41.2-.62l.27-.66c.18-.39.35-.78.56-1.15.2-.37.42-.74.63-1.1.46-.75.93-1.49 1.39-2.23.46-.73.92-1.46 1.39-2.19.67-1.04 1.37-2.06 2.07-3.08.37-.53.74-1.07 1.09-1.62.19-.3.38-.6.56-.9.17-.28.33-.57.5-.86.32-.57.61-1.14.9-1.72.28-.55.56-1.12.82-1.68.27-.57.54-1.15.79-1.73.13-.3.26-.59.38-.89.07-.17.14-.35.21-.52.06-.14.12-.28.17-.42.12-.32.23-.63.35-.95.05-.14.09-.28.14-.43.05-.16.1-.31.15-.47.1-.3.18-.61.28-.91.1-.32.19-.65.28-.97.36-1.23.71-2.47 1.02-3.71.08-.3.15-.61.21-.91.04-.16.08-.32.11-.48.03-.14.05-.29.08-.43.05-.3.11-.6.15-.91.04-.31.09-.62.11-.93l.06-.68c0-.1.02-.2.02-.29 0-.21.02-.42.03-.63 0-.14.02-.29.02-.43v-1.03c0-.13 0-.27-.01-.4 0-.19-.01-.39-.02-.58 0-.13-.02-.25-.03-.38-.01-.2-.03-.39-.04-.59-.01-.13-.03-.25-.04-.38-.02-.2-.05-.39-.07-.59-.02-.13-.04-.26-.07-.39l-.09-.52c-.03-.15-.06-.31-.1-.46-.03-.14-.05-.27-.09-.41-.15-.62-.3-1.24-.48-1.85-.19-.66-.37-1.33-.56-1.99-.34-1.19-.67-2.39-1.02-3.59-.36-1.23-.73-2.47-1.17-3.68-.12-.33-.24-.65-.37-.97-.11-.27-.22-.54-.34-.8l-.42-.9c-.13-.26-.26-.53-.42-.78-.14-.22-.27-.45-.43-.66-.09-.13-.19-.24-.3-.36a1.08 1.08 0 0 0-.28-.24c-.1-.05-.2-.1-.31-.1-.05 0-.1.03-.15.04-.03.01-.06.02-.08.05-.16.14-.2.36-.24.55-.14.59-.31 1.18-.48 1.77-.27.9-.55 1.8-.85 2.69-.14.41-.28.82-.43 1.22-.09.23-.17.47-.27.7-.1.25-.2.49-.3.74-.48 1.16-1 2.3-1.45 3.47-.23.61-.46 1.21-.7 1.82-.23.58-.48 1.16-.73 1.73-.23.53-.47 1.06-.71 1.6v.02c-.07.17-.15.33-.22.5-.24.54-.47 1.09-.71 1.64-.49 1.15-.94 2.31-1.42 3.46A266.402 266.402 0 0 1 36 96.15c-.02.05-.04.09-.06.14 0-.01.01-.03.02-.04-.01.03-.03.06-.04.09-.03.05-.05.12-.08.18-.02.03-.03.07-.05.1-.48 1.09-.98 2.19-1.37 3.32-.2.58-.38 1.16-.54 1.75-.16.61-.32 1.22-.46 1.84-.29 1.26-.55 2.53-.78 3.8-.22 1.22-.37 2.45-.44 3.68-.07 1.28-.09 2.57-.03 3.85.06 1.27.16 2.54.32 3.8.16 1.24.34 2.49.71 3.68.39 1.24.84 2.45 1.29 3.67.21.56.43 1.12.66 1.68.02.06.05.12.07.18 0 .59-.01 1.19-.02 1.78-.01 1.26-.02 2.53.02 3.79.02.49.05.97.08 1.46-.26-.49-.53-.97-.78-1.46-.82-1.6-1.57-3.22-2.37-4.82-.4-.81-.84-1.61-1.26-2.41-.07-.12-.13-.25-.2-.37a57.212 57.212 0 0 1-1.11-3.03c-.2-.57-.37-1.14-.55-1.71-.21-.63-.41-1.27-.61-1.9-.4-1.27-.79-2.54-1.17-3.82-.35-1.2-.7-2.4-1.03-3.6-.35-1.25-.67-2.5-.98-3.75-.1-.44-.21-.88-.31-1.32-.29-1.29-.56-2.59-.82-3.89-.25-1.25-.5-2.49-.7-3.75-.42-2.63-.76-5.26-1.06-7.91-.06-.56-.12-1.12-.17-1.68-.05-.61-.1-1.22-.14-1.83-.03-.49-.05-.99-.07-1.48-.02-.62-.04-1.25-.05-1.87-.03-1.12-.05-2.24-.07-3.36-.01-.62-.01-1.24-.02-1.86 0-.49.02-.98.03-1.47.05-.69.09-1.37.16-2.06.03-.31.06-.62.11-.92.06-.36.11-.72.17-1.09.08-.46.15-.91.23-1.37.47-2.59.87-5.2 1.42-7.78.29-1.37.6-2.73.9-4.09.15-.68.31-1.36.47-2.04.14-.58.29-1.16.44-1.74.09-.3.18-.6.26-.89.07-.24.13-.49.22-.73.11-.31.21-.63.32-.94.07-.22.14-.44.23-.66.32-.81.65-1.63.97-2.44l.39-.15c.84-.29 1.69-.57 2.53-.84.44-.14.87-.28 1.31-.41.43-.13.87-.25 1.31-.36.29-.07.58-.13.87-.19.28-.06.57-.11.85-.15.54-.09 1.08-.16 1.63-.22.3-.03.6-.05.9-.07.26-.01.52-.01.79 0 .51.02 1.02.04 1.53.04.49 0 .98-.03 1.47-.08.46-.04.91-.09 1.36-.17.47-.09.93-.19 1.39-.31.58-.15 1.15-.32 1.73-.5.27-.08.53-.17.8-.26.86-.28 1.7-.59 2.53-.95.39-.17.78-.35 1.14-.57.21-.13.42-.27.63-.41.18-.12.35-.25.53-.38.38-.28.74-.58 1.1-.88.16-.13.3-.27.46-.4.15-.13.29-.26.43-.39.18-.18.37-.36.55-.53.19-.18.36-.37.54-.55.29-.29.57-.59.84-.89.32-.35.63-.7.94-1.06.31-.36.62-.72.92-1.09.59-.7 1.15-1.43 1.71-2.15.52-.68 1.03-1.37 1.51-2.08.26-.38.52-.77.78-1.15.26-.37.52-.74.79-1.1.58-.72 1.19-1.41 1.82-2.09.14-.16.29-.31.43-.47.12-.14.2-.32.14-.5-.05-.16-.22-.26-.37-.29zm-4.99-12.71v.02c.1-.31.23-.73.4-1.14.07-.15.12-.25.18-.35.05-.08.11-.16.17-.25.02-.02.04-.05.06-.07.01.04.02.08.02.11v.27c0 .1-.01.2-.03.3-.02.09-.04.18-.07.3-.02.07-.04.13-.07.19-.03.07-.06.13-.1.19-.06.1-.13.2-.21.3-.09.11-.18.21-.28.32l-.02.02c-.07.07-.13.15-.19.22.04-.16.09-.31.13-.47zm-3.12-4.72c.02-.06.03-.12.05-.18.11-.37.23-.7.36-1.02.09-.2.19-.41.31-.61l.02-.03.06-.09v.02s.04-.07.06-.1c.08-.13.17-.25.27-.38.06-.08.13-.15.2-.22.05-.05.1-.09.15-.13h.01s.04-.04.06-.05c.02 0 .03-.02.05-.02h.06l.04.04c.01.02.02.03.03.05.01.02.02.04.03.05 0 .03.02.05.03.08 0 .04.01.07.02.11v.18c0 .08 0 .16-.02.24a.75.75 0 0 1-.04.16c-.01.04-.03.08-.04.11l-.09.18-.13.19c-.1.12-.21.24-.35.38-.11.11-.23.21-.34.31-.14.13-.29.26-.43.4-.15.14-.28.29-.39.41l.03-.09zm-3.86-4.21c.05-.24.11-.49.17-.73 0-.03.01-.05.02-.07 0-.02.01-.04.02-.05v-.02c.06-.18.13-.35.2-.52.06-.12.11-.23.17-.34.08-.12.16-.24.26-.36.09-.11.19-.21.3-.32.08-.07.14-.13.21-.18.04-.02.07-.05.11-.07l.06-.03h.03l.03-.02h.05l.03.01.03.02v.02l.03.02c0 .01.01.02.02.03 0 .02.01.03.02.05 0 .03 0 .05.01.08v.11c0 .07-.01.14-.02.21-.02.11-.04.21-.08.34-.05.16-.11.33-.18.49a2.61 2.61 0 0 1-.35.57c-.09.11-.2.23-.31.33-.05.05-.1.09-.14.14-.07.06-.13.12-.2.19-.26.25-.46.47-.62.69.05-.2.09-.39.13-.59zm-5.09-2.82c.06-.12.13-.24.19-.37l.07-.15c.08-.16.17-.32.25-.46v-.02c.07-.1.14-.2.2-.29.07-.09.14-.19.21-.28.13-.16.28-.32.43-.47.18-.17.33-.3.47-.41.04-.03.08-.05.12-.08.04-.02.09-.04.14-.06.02 0 .03 0 .04-.01h.16l.04.04c.02.02.03.03.03.04v.02l.03.03.02.04v.17c0 .02 0 .04-.01.05-.01.04-.03.08-.04.12-.03.07-.07.13-.11.2-.05.08-.11.16-.17.24-.09.1-.18.21-.29.32-.19.18-.35.33-.51.45-.08.07-.16.13-.24.2-.11.09-.22.17-.32.26-.17.14-.31.26-.43.37-.13.12-.26.25-.39.38l-.11.11-.11.11c.12-.19.22-.36.31-.54zm-3.14-.98.09-.29c.05-.14.09-.29.14-.43.08-.23.16-.46.26-.68.07-.14.14-.28.22-.42s.05-.07.07-.11c.1-.15.2-.3.3-.43.11-.13.22-.26.35-.38.1-.09.18-.16.27-.23s.01 0 .02-.01c.03-.02.07-.05.11-.07l.12-.06c.02 0 .04-.01.06-.02h.15l.02.02h.02l.02.03.02.02s.03.04.04.06c0 .01.01.02.02.03 0 .03.02.05.03.08 0 .04.02.09.02.13v.18c0 .04 0 .08-.01.13s-.02.11-.04.16c-.02.06-.04.11-.06.17-.04.09-.09.17-.13.26-.07.12-.15.22-.22.32-.1.12-.21.24-.34.37l-.03.03-.03.03c-.18.17-.37.34-.56.5l-.05.04c-.18.15-.36.31-.51.48-.19.21-.38.46-.6.79.09-.24.17-.48.24-.69zm-3.41-1.87c0-.1.02-.19.03-.29.02-.1.04-.2.06-.29v-.02s.03-.07.04-.11l.05-.13c.05-.12.11-.22.16-.31a.55.55 0 0 1 .07-.09.5.5 0 0 1 .07-.08c.02-.01.03-.03.05-.04.02-.01.04-.03.06-.04l.03-.01h.03L41 .44h.08l.01.03v.15a.694.694 0 0 1-.07.23c-.04.08-.08.17-.13.25v-.02c-.04.09-.1.18-.16.28-.08.13-.16.25-.24.38-.06.11-.13.23-.19.36 0-.08.01-.16.02-.24zm-5.81.57c.09-.25.18-.5.28-.74.03-.07.06-.14.1-.21.03-.06.06-.11.09-.16.05-.08.11-.15.17-.23.06-.07.12-.13.18-.19.05-.05.1-.09.16-.14a.55.55 0 0 1 .14-.09c.02 0 .03-.02.05-.02h.02l.02-.01h.03v.25c0 .05-.02.1-.03.15-.02.06-.04.13-.07.2-.04.09-.09.18-.14.27-.05.09-.11.18-.19.27-.1.12-.2.24-.3.35l-.04.05-.32.35-.09.09-.22.24c.05-.14.1-.27.15-.41zM18.03 108.65c-.73-.67-1.49-1.32-2.24-1.95l-.56-.47c-.49-.42-.98-.85-1.46-1.27-.45-.4-.88-.83-1.33-1.27l-.14-.14-.28-.28c-.78-.8-1.57-1.69-2.35-2.66-.31-.41-.63-.85-.92-1.3l-.12-.19-.33-.51-.16-.26-.38-.61c-.28-.44-.55-.9-.81-1.34l-.04-.06c-.3-.51-.61-1.02-.91-1.54l-.21-.37-.21-.37c-.09-.16-.17-.32-.25-.48l-.09-.17c-.25-.49-.45-.9-.64-1.29l-.17-.36c-.17-.36-.34-.73-.5-1.1l-.09-.21c-.07-.17-.15-.33-.21-.5l-.14-.36-.15-.39-.11-.31c-.09-.23-.17-.47-.26-.7-.04-.11-.08-.21-.12-.32-.08-.23-.17-.46-.25-.7l-.24-.72v-.03c-.04-.09-.07-.18-.1-.28l-.17-.58-.17-.6c-.06-.25-.12-.51-.19-.76-.02-.07-.03-.14-.05-.21-.03-.14-.07-.27-.1-.41l-.17-.83-.02-.09-.03-.14c-.03-.14-.06-.27-.08-.41l-.03-.17c-.08-.47-.16-.95-.23-1.43-.07-.5-.14-1-.2-1.51-.05-.5-.1-1.01-.13-1.52-.01-.24-.03-.56-.03-.87v-.78c0-.22.01-.44.03-.65.01-.25.04-.5.06-.76.03-.44.1-.88.16-1.29v-.02c.05-.28.1-.56.16-.85.06-.27.13-.56.23-.94.08-.28.16-.56.24-.85.09-.33.19-.66.28-1 .15-.58.29-1.15.43-1.71.18-.72.34-1.45.51-2.18.11-.48.22-.95.34-1.43.28-1.17.58-2.39.94-3.73v-.03c.32-1.16.64-2.36.98-3.54v-.02l.01-.02c.09-.31.18-.62.28-.92l.03-.1c.09-.27.18-.56.28-.83.02-.05.05-.1.07-.15l.02.02.02.03c.1.14.2.3.29.45-.03.32-.05.62-.07.93-.03.46-.05.93-.06 1.4 0 .32 0 .64.02.95.01.21.03.41.05.61l.02.23c.05.66.1 1.26.13 1.87.03.56.06 1.11.08 1.67.04.73.07 1.45.11 2.18l.06 1.03.06.74.02.22c.02.21.04.42.07.63l.03.29c.01.1.03.2.04.3l.02.15v.09c.03.1.04.21.06.31l.03.18c.04.26.09.52.13.78.06.33.13.66.19.99.12.59.25 1.2.4 1.83.16.68.31 1.29.48 1.84.08.27.16.56.25.85l.02.06c.04.13.08.25.12.38l.05.15.05.15.02.06s.02.07.04.11v.02c.03.06.05.12.1.18.06.06.14.09.22.06 0 0 .02 0 .03-.01.07-.03.12-.12.12-.2 0-.04 0-.08-.02-.11-.02-.05-.04-.09-.06-.14-.18-.46-.31-.94-.44-1.4l-.07-.24c-.15-.52-.28-1.03-.4-1.52-.17-.7-.33-1.41-.48-2.09-.06-.28-.12-.55-.17-.83-.07-.34-.13-.68-.19-1.03l-.12-.77-.03-.18c-.03-.2-.05-.41-.07-.6 0-.09-.02-.17-.03-.26l-.02-.23v-.18l-.02-.12c0-.1-.02-.19-.02-.29v-.24c-.02-.21-.03-.43-.04-.64 0-.35-.02-.7-.02-1.05v-1.84c0-1.16-.01-2.52-.08-3.88-.05-.93-.19-1.92-.44-3.04.01.02.03.05.04.07l.04.07c.29.54.56 1.09.79 1.56.24.5.51 1.05.83 1.73.26.56.52 1.13.78 1.7.26.57.52 1.13.78 1.7.27.57.54 1.12.8 1.63.27.53.56 1.1.84 1.67.28.58.54 1.17.78 1.71.2.46.39.93.57 1.39l.11.27c.27.7.54 1.45.79 2.23.13.41.25.81.38 1.26.07.26.14.52.21.77l.07.28.07.3c.06.22.11.45.16.67l.05.21c.12.55.25 1.12.37 1.67v.05c.13.58.26 1.18.36 1.78l.33 2.03c.08.53.14 1.06.2 1.58l.02.2.04.49.04.49c.02.21.03.41.04.62 0 .1.01.2.02.3.03.51.06 1.04.09 1.61.03.56.06 1.22.08 1.87.02.64.02 1.3.02 1.85 0 1.33 0 2.53-.04 3.67v.49c-.02.46-.03.93-.04 1.4 0 .64-.01 1.32 0 2.01 0 1.16.09 2.36.25 3.65v.05l.07.51c-.01-.04-.03-.08-.04-.13l-.05-.14c-.03-.08-.05-.16-.07-.24l-.03-.09-.04-.14c-.03-.1-.06-.19-.08-.29-.07-.27-.14-.54-.22-.81-.05-.2-.09-.38-.14-.57-.12-.48-.23-1-.35-1.59-.13-.62-.23-1.14-.33-1.67-.08-.47-.19-1.08-.29-1.7-.1-.65-.17-1.18-.24-1.67l-.03-.21c-.07-.49-.13-.98-.19-1.47l-.04-.34-.06-.54-.02-.16c-.03-.24-.05-.49-.08-.73v-.02l-.09-.79-.02-.16-.03-.3c-.05-.51-.11-1.02-.17-1.53l-.21-1.9v-.11l-.06-.56-.02-.14v-.01l-.05-.45-.05-.47c-.04-.37-.07-.73-.11-1.1-.08-.78-.16-1.59-.24-2.38.04.75.06 1.51.08 2.24v.31c.02.6.04 1.2.07 1.79.01.29.02.57.04.86v.02c.02.28.03.56.05.84.07 1.16.15 2.24.25 3.29.06.63.12 1.17.19 1.67l.03.23c.06.51.13 1.03.21 1.54l.13.9.09.6.04.27c.07.47.16.95.25 1.41l.05.25c.03.19.07.37.11.55l.06.27.12.55c.02.1.04.2.07.3.05.21.1.42.14.62l.06.25c.04.19.09.38.14.57l.08.3c.05.19.1.38.15.56l.07.24c.06.22.13.44.2.67l.04.14c.16.54.34 1.05.53 1.54.1.25.19.49.29.74 0 .06.02.11.03.16.1.57.21 1.12.34 1.64-.02-.05-.05-.1-.08-.15-.09-.19-.18-.38-.26-.57-.41-.91-.78-1.85-1.11-2.68v.01c-.1-.27-.21-.54-.31-.8-.41-1.06-.87-2.3-1.31-3.55l-.12-.36c-.15-.42-.3-.85-.44-1.28-.19-.59-.38-1.19-.57-1.78-.06-.18-.11-.35-.16-.53l-.08-.26c-.07-.21-.13-.43-.19-.64l-.04-.15c-.13-.46-.25-.92-.37-1.38l-.07-.29-.22-.93-.36-1.5-.18-.78c-.19-.82-.39-1.67-.58-2.5-.25-1.11-.49-2.29-.75-3.59l.1.64c.21 1.38.42 2.81.61 4.22l.07.49c.06.43.11.85.18 1.28l.06.44c.05.39.11.79.18 1.19.06.38.13.75.19 1.13.03.19.07.38.11.57l.04.19.02.11c.04.21.09.43.15.65a15.125 15.125 0 0 0 .23.89c.32 1.02.69 2.21 1.11 3.38.39 1.09.82 2.2 1.2 3.17.35.91.82 2.11 1.32 3.29.44 1.03.91 2.11 1.46 3.15l.42.78v-.01.01l-.24-.33c-.32-.44-.64-.89-.96-1.33-.33-.46-.66-.92-.98-1.38l-.32-.45c-.23-.32-.46-.64-.69-.97-.22-.32-.44-.63-.66-.95-.13-.18-.25-.36-.37-.54l-.13-.2-.03-.05c-.31-.45-.62-.92-.93-1.39l-.17-.26-.17-.26-.06-.09c-.04-.07-.09-.13-.13-.2-.17-.29-.35-.57-.52-.86-.1-.18-.19-.36-.29-.54l-.18-.32-.03-.05c-.09-.17-.19-.35-.28-.52-.07-.15-.15-.3-.22-.44-.2-.39-.4-.79-.59-1.19l-.06-.13-.47-.99c-.09-.19-.17-.38-.25-.57l-.06-.14-.09-.21c-.08-.19-.17-.38-.25-.57-.15-.36-.3-.72-.45-1.07-.42-1.01-.86-2.08-1.37-3.38-.18-.47-.37-.94-.55-1.42.24.69.48 1.37.72 2.05l.28.79c.21.6.42 1.21.63 1.81.06.17.12.35.18.52.12.35.24.69.36 1.04.13.37.27.75.4 1.12.07.18.13.35.2.52l.09.23c.08.2.16.41.23.61l.03.09c.02.06.04.12.07.18.14.32.27.65.41.97l.09.21c.07.16.14.33.21.49.17.36.35.72.52 1.08.1.21.22.43.34.63l.07.13.07.13c.05.08.09.16.14.24l.2.33.05.08c.15.25.31.5.46.74l.11.17.38.59c.16.23.32.47.47.7l.19.28c.12.17.23.34.35.5l.15.21c.67.94 1.36 1.89 2.03 2.81l.21.29.87 1.17c.43.57.87 1.17 1.29 1.76l.72 1.02zm1.85 2.17s.03-.01.04-.02c.03.05.06.1.1.15l-.02-.02c-.04-.04-.08-.07-.12-.11zM35 126.62a83.512 83.512 0 0 1-1.08-3.2c-.19-.61-.36-1.18-.51-1.75v-.03a17.895 17.895 0 0 1-.39-2.06c-.09-.66-.17-1.36-.26-2.16v.01c-.01-.13-.03-.27-.04-.41-.07-.74-.12-1.4-.14-2.02-.03-.73-.04-1.49-.03-2.41.02-.57.04-1.24.1-1.92.05-.61.13-1.23.23-1.89v-.02c.22-1.28.51-2.52.79-3.72.26-1.1.57-2.4.94-3.68.16-.54.34-1.09.54-1.64.19-.55.42-1.09.63-1.6l.63-1.47c0-.02.02-.03.02-.05v-.02l.19-.43c.18-.41.36-.82.53-1.24l.13-.31c.2-.48.42-.97.62-1.46.24-.59.47-1.16.73-1.84.45-1.14.93-2.29 1.46-3.51v.01c.03-.07.07-.15.1-.23l.42-.93c.14-.32.29-.63.43-.95.27-.61.53-1.2.78-1.81.14-.33.26-.68.39-1.01.09-.25.19-.51.29-.76l.06-.15c.21-.54.42-1.09.65-1.63.07-.18.15-.35.22-.53.16-.39.34-.8.5-1.2.23-.59.48-1.21.69-1.84.12-.35.22-.67.31-.96.1-.32.19-.65.29-.98.16-.54.32-1.12.48-1.75.05-.2.11-.41.16-.61v.03l.02.07c.06.3.11.56.15.84.04.29.07.59.11.88v.02l.03.3c.02.2.04.39.05.59.02.2.03.39.05.59l.03.34c.04.53.06 1.08.09 1.61l.02.38c.04.83.05 1.47.05 2.07.03-.17.05-.33.07-.5.09-.66.16-1.32.23-1.94.02-.17.03-.33.05-.49l.02-.16.03-.35.03-.58v-.55c0-.15 0-.29-.01-.45v-.04c0-.14-.02-.28-.03-.42v-.14c-.03-.13-.04-.26-.06-.39a3.98 3.98 0 0 1-.05-.34v-.05l-.03-.13-.02-.09c-.07-.3-.14-.61-.25-.91-.06-.17-.13-.34-.2-.52l-.06-.12c-.01-.03-.03-.05-.04-.08-.03-.07-.07-.15-.1-.22s.01-.05.01-.05l.12-.51v-.01h.02l.03.03.03.02s.08.07.11.11c.08.08.16.18.25.29.17.22.31.46.45.7v.02c.2.35.38.69.54 1.05l.08.18c.06.13.12.25.17.38.08.19.16.37.23.56l.02.04.04.09c.1.27.21.55.31.83.11.33.23.68.36 1.1.19.62.36 1.25.52 1.87l.02.07.48 1.88a437.003 437.003 0 0 0 .81 3.13c.21.8.42 1.6.62 2.4l.06.27c.04.18.09.36.12.54.03.17.07.34.1.51l.02.1c.02.08.04.17.05.25l.09.52s.01.08.02.12c.01.08.03.16.04.23l.05.42.06.46.03.42.03.42.03.5v.18c0 .21.02.43.02.64v.97l-.03.73c0 .18-.02.36-.03.53v.19l-.02.07c-.01.2-.03.41-.05.61-.03.28-.06.56-.1.84-.02.1-.03.21-.05.31-.04.28-.09.58-.15.86-.06.27-.12.55-.17.82-.03.13-.06.26-.1.39-.02.06-.03.12-.05.18-.2.79-.42 1.58-.64 2.35l-.05.19v-.02s-.01.06-.02.09l-.03.11-.36 1.2-.03.11c-.05.17-.11.34-.16.52-.03.08-.05.16-.08.25-.06.18-.11.35-.17.52-.08.21-.15.42-.22.63l-.06.17c-.05.15-.11.3-.17.45l-.07.18c-.16.41-.34.82-.51 1.22l-.06.14v-.02.02s0-.02.01-.03l-.21.45-.18.4c-.09.19-.18.38-.27.56-.04.09-.09.18-.13.27-.22.45-.45.91-.68 1.35l-.13.26c-.22.43-.44.85-.67 1.28l-.17.32c-.22.41-.46.82-.69 1.22l-.17.29c-.09.14-.18.28-.26.43l-.16.26-.3.45-.13.19c-.23.35-.47.69-.71 1.02l-.12.17-.23.32c-.27.37-.54.76-.81 1.15-.41.6-.78 1.15-1.14 1.69-.42.64-.84 1.3-1.24 1.93-.27.42-.53.84-.8 1.26-.13.2-.26.4-.38.59-.21.33-.42.65-.63.98-.33.53-.64 1.09-.92 1.65-.3.6-.54 1.2-.72 1.78-.18.57-.26 1.16-.33 1.7v-.15l.03-.21v-.1c.03-.15.05-.3.07-.45l.02-.11.09-.5c0-.05.02-.09.03-.14v-.06l.09-.33c.02-.1.05-.21.08-.31l.03-.09.03-.1c.03-.13.07-.26.11-.39l.02-.08.05-.17v.02l.11-.37v-.03l.06-.16v-.05.02c.03-.09.05-.17.08-.26.09-.29.19-.58.28-.86.05-.16.1-.31.15-.47.05-.16.11-.32.16-.48.03-.08.06-.16.09-.25.03-.08.05-.15.08-.23l.04-.11.03-.08c.03-.1.07-.19.11-.29l.09-.23c.14-.37.28-.75.44-1.13.37-.92.77-1.84 1.21-2.85s.05-.1.08-.16l.1-.24c.15-.34.3-.68.46-1.01.33-.71.69-1.43 1.03-2.12l.32-.66c.42-.86.87-1.78 1.27-2.71s0-.01 0-.01c.09-.2.17-.41.25-.61v-.03l.05-.1c.07-.18.15-.37.21-.56.03-.08.06-.16.08-.25.05-.14.1-.28.14-.42.08-.26.15-.47.21-.67.14-.51.27-.98.38-1.44l.05-.21c.1-.41.21-.84.3-1.27.1-.47.2-.96.31-1.51.11-.55.21-1.05.29-1.56-.07.24-.13.49-.2.73-.01.04-.02.07-.03.1v.03l-.02.04v.04l-.02.03c-.18.59-.36 1.14-.53 1.66-.16.47-.31.94-.47 1.42l-.18.56c-.1.3-.2.61-.3.91-.17.51-.34 1.01-.52 1.48-.16.41-.33.85-.55 1.37-.04.08-.07.17-.11.25l-.06.14v.02c-.06.13-.11.25-.17.38-.29.63-.6 1.26-.9 1.88l-.17.35c-.22.46-.44.91-.66 1.37-.08.16-.15.32-.23.48l-.11.24c-.1.21-.2.43-.3.65-.03.08-.07.15-.1.23l-.03.07-.05.1c-.03.06-.06.13-.08.19v.02c-.09.19-.17.37-.25.56v.02l-.01.02c-.09.21-.18.41-.27.62-.11.25-.22.51-.32.76-.21.49-.41.99-.62 1.5-.2.5-.37.93-.51 1.33-.18.49-.35.96-.5 1.44l-.07.22-.18.57c-.06.18-.11.36-.16.54l-.08.27c-.05.17-.1.34-.14.51-.02.09-.05.17-.07.26l-.12.5-.05.22v.06c-.03.06-.05.13-.06.19l-.04.25-.04.23c0-.11 0-.22-.01-.32-.02-.36-.02-.68-.03-.98v-2.02c.03-.69.05-1.41.12-2.11.04-.39.08-.8.13-1.21.04-.35.1-.69.15-1.03v-.03c.21-1.13.44-2.23.62-3.07.29-1.36.56-2.59.86-3.84.27-1.14.61-2.28.93-3.38l.06-.21v-.03c.36-1.15.73-2.37 1.16-3.6.17-.5.35-.99.52-1.49l.75-2.16c.18-.54.36-1.08.54-1.61.22-.68.46-1.38.69-2.06.22-.62.43-1.25.64-1.88.19-.58.36-1.16.55-1.85.17-.62.3-1.26.4-1.81.1-.51.21-1.12.29-1.75.11-.82.19-1.49.26-2.11.03-.3.06-.58.08-.85l.02-.3.02-.3c.01-.14.02-.28 0-.41-.01-.09-.06-.15-.11-.17a.277.277 0 0 0-.25-.03c-.09.03-.15.1-.17.19-.02.1-.02.2-.02.31v.06l-.03.49-.03.5c-.01.21-.04.41-.06.62-.01.1-.03.21-.04.31-.05.46-.11.93-.17 1.38l-.05.36c-.05.3-.1.59-.15.88l-.04.25c-.04.24-.09.49-.14.72-.02.12-.05.23-.07.35-.05.23-.11.47-.17.69-.03.11-.06.22-.08.33-.05.22-.12.44-.19.66-.03.09-.06.19-.08.28-.18.56-.35 1.04-.5 1.49-.13.36-.26.73-.39 1.09l-.08.21c-.31.85-.64 1.76-1.06 2.95-.44 1.24-.89 2.49-1.27 3.54-.41 1.13-.83 2.35-1.28 3.71-.41 1.24-.79 2.48-1.13 3.67-.33 1.16-.59 2.37-.85 3.53l-.03.15-.15.67c-.22.98-.44 2-.62 3.01-.22 1.22-.38 2.47-.49 3.82l-.03.42c0-.06-.02-.12-.03-.18-.04-.23-.07-.47-.1-.7-.05-.35-.09-.71-.13-1.06l-.04-.34c-.06-.61-.1-1.17-.13-1.71-.03-.44-.04-.92-.06-1.51v-1.53c0-.17.01-.35.02-.52.01-.26.03-.53.05-.79.04-.51.08-.96.14-1.4.03-.27.07-.53.11-.8.02-.18.05-.36.08-.54l.02-.13c.08-.49.16-.94.24-1.35.08-.42.16-.83.25-1.24l.03-.12c.08-.41.18-.83.28-1.23l.05-.21.21-.87.13-.54c.09-.39.18-.78.28-1.16.14-.58.27-1.15.41-1.73-.27.79-.54 1.56-.81 2.3l-.05.13c-.15.41-.3.83-.44 1.24-.16.45-.32.93-.46 1.41-.32 1.09-.53 1.99-.68 2.82-.08.48-.17.99-.23 1.51-.03.23-.06.47-.08.7-.03.27-.05.54-.08.81-.07.85-.1 1.75-.07 2.95.01.47.04.95.07 1.41v.05c.01.15.03.31.04.46 0 .08.01.16.02.25 0 .07.01.15.02.22v.12l.03.18.02.18v.02c.02.15.04.29.06.42l.03.21.06.42.03.16c.07.47.16.91.27 1.44.09.44.19.89.3 1.34l.08.34c-.04.91-.07 1.9-.09 3.12-.04-.1-.08-.21-.12-.31zM55.51 15.87s0-.01.01-.02h.06c-.03 0-.06.02-.08.04 0 0 0-.01.01-.02zm-8.63 5.09c.18-.14.37-.27.56-.4l.25-.18c.2-.14.34-.31.43-.52.02-.05.04-.11.05-.17.42-.31.87-.6 1.26-.87.53-.36 1.08-.67 1.59-.96.29-.15.58-.31.87-.46h.05c.03-.01.06-.03.07-.06s.05-.02.07-.04c.25-.13.5-.26.76-.38.57-.28 1.21-.59 1.87-.86l.08-.03c.1-.03.2-.07.3-.1l.07-.02-.06.06c-.08.09-.16.19-.24.28-.24.28-.47.57-.69.85l-.03.04c-.22.29-.45.58-.67.88l-.24.33-.13.18a6.1 6.1 0 0 0-.22.32l-.09.14-.05.07s-.06.08-.08.12l-.13.2-.22.35-.05.07-.06.09c-.1.17-.21.34-.31.51l-.27.45c-.45.73-.9 1.45-1.35 2.18.14-.22.29-.43.43-.65a79.325 79.325 0 0 1 1.63-2.35c.07-.1.14-.2.22-.3l.09-.12.03-.04c.09-.12.17-.24.26-.35l.2-.25.2-.25c.14-.17.27-.34.41-.51h.01v-.02c.02-.02.03-.04.05-.07.05-.06.1-.12.14-.18s.18-.24.18-.24l-.01.02c.03-.04.06-.07.09-.11l.04-.06c.25-.32.49-.64.72-.95.1-.14.2-.27.3-.41l.15-.21c0 .01 0 .02-.01.04-.02.06-.04.11-.06.17l-.02.05s-.03.07-.04.11l-.05.12c-.03.08-.06.16-.1.24l-.13.3v.02l-.02.03-.02.05v.02l-.02.02-.04.08c-.14.32-.29.64-.43.96v.01c-.02.05-.04.09-.06.14-.07.17-.14.34-.22.5-.07.16-.14.32-.2.47l-.06.14c-.06.14-.13.28-.19.43-.04.08-.08.16-.11.25-.07.16-.15.32-.22.48l-.06.13c-.04.09-.08.17-.13.26l-.23.44c-.13.26-.27.52-.41.78l-.12.23-.11.2c-.14.27-.28.53-.43.8-.35.64-.72 1.3-1.14 2.03.27-.44.54-.88.82-1.32.45-.71.91-1.42 1.25-1.95.22-.34.43-.68.61-.97.07-.12.14-.23.2-.35l.08-.14c.08-.15.16-.29.23-.44l.03-.05c.15-.28.29-.6.46-.99.15-.34.29-.68.43-1.03l.02-.06c.13-.33.27-.67.39-1.01.07-.19.14-.39.2-.58.03-.08.05-.16.07-.24l.05-.18.02-.08v-.02s.03-.07.03-.11c0-.05-.04-.1-.09-.12h.03l.03.02h.02l.02.04c0 .02.02.04.02.06v.05l.03.18c.03.37.03.75.04 1.14 0 .37.02.8 0 1.23v-.03c-.02.76-.06 1.39-.12 1.97l-.12 1.12c-.03.25-.07.5-.1.74l-.03.21-.06.36c-.07.42-.14.85-.22 1.26v.04l-.09.42-.04.17-.02.11c-.02.13-.05.26-.08.38-.1.43-.2.89-.32 1.34-.1.4-.21.81-.31 1.17l-.2.65c-.04.14-.09.29-.14.43l-.03.08-.05.13-.15.42-.13.32-.12.29-.11.24c-.1.21-.19.42-.3.63l-.51 1.02c-.3.58-.61 1.17-.97 1.81l-.11.18-.09.16-.07.11c-.05.08-.09.15-.14.22l-.13.19-.13.19-.06.09c-.04.07-.09.14-.13.2l-.27.38-.07.1-.14.2-.17.22c-.11.14-.22.29-.33.43-.09.11-.18.21-.27.32l-.22.26c-.1.12-.21.24-.32.35l-.08.09-.05.05c-.11.12-.23.25-.35.37l-.29.28-.21.21c-.11.1-.22.2-.33.29-.03.03-.07.06-.1.1-.07.06-.14.13-.21.19l-.08.07-.3.24-.1.08a2.8 2.8 0 0 1-.2.16l-.3.22-.48.36c-.06.03-.11.07-.17.11l-.2.14-.39.27c-.16.11-.33.22-.5.32-.09.05-.17.11-.25.16-.16.1-.33.21-.49.3l-.24.15c-.18.11-.36.21-.54.31l-.16.09c-.46.25-.92.5-1.42.76-.42.22-.86.43-1.28.64l-.19.09c-.67.32-1.35.63-2.02.92l-.26.12c-.65.29-1.35.58-2.19.92-.2.08-.41.16-.61.24-.54.21-1.1.44-1.64.67-.78.34-1.54.68-2.27 1.08-.06.03-.13.07-.19.1-.13.07-.27.14-.4.22-.21.12-.41.24-.62.37-.12.07-.25.15-.37.23l-.15.1c-.05.03-.1.07-.16.1.16-.15.31-.3.47-.45l.59-.56c.06-.06.12-.11.19-.17l.09-.07c.07-.07.15-.13.23-.19.21-.18.43-.35.65-.53.18-.14.36-.28.55-.42h.02l.1-.09.1-.07c.38-.28.79-.56 1.24-.86.41-.27.84-.52 1.24-.75h.02s0-.01.01-.02c.03-.02.07-.04.1-.06l.19-.11h.03c.37-.22.79-.44 1.29-.68.4-.19.81-.37 1.21-.54l.09-.04.04-.02c.42-.18.85-.36 1.27-.56.44-.21.85-.42 1.35-.68.52-.27.94-.49 1.33-.71.46-.25.91-.53 1.29-.76.96-.6 1.71-1.15 2.35-1.74.19-.17.37-.34.55-.52.18-.17.35-.33.53-.49l.72-.66.48-.44c-.39.32-.75.6-1.08.86-.25.19-.49.38-.74.57l-.32.24c-.13.09-.26.18-.39.28-.08.06-.17.12-.26.17l-.12.07c-.2.13-.41.25-.61.36l-.11.06c-.35.19-.7.37-1.05.55l-.2.1c-.41.21-.83.43-1.25.67h.01-.02l-.06.04h-.02v.02c-.03.02-.07.04-.1.05l-.06.03-.13.07-.22.12-.72.39-.11.06c-.4.21-.81.43-1.22.64-.49.25-.97.47-1.38.65l-.2.09c-.36.16-.74.33-1.1.52-.43.23-.87.47-1.33.74-.95.56-1.76 1.1-2.48 1.64-.08.07-.17.13-.25.2l.01-.01c.01-.01.03-.02.04-.04.06-.06.13-.12.2-.18.41-.37.78-.69 1.13-.98l.53-.44c.2-.16.4-.31.6-.46.38-.28.78-.56 1.28-.89.32-.21.64-.42.96-.62l.22-.14.46-.29.81-.51c.18-.11.36-.22.54-.34.25-.15.5-.31.74-.46l.57-.36.11-.07c.17-.11.34-.22.5-.34.21-.15.42-.31.63-.47.19-.15.37-.29.58-.47.07-.06.13-.12.2-.17l.09-.08c.07-.06.14-.13.21-.2l.09-.09c.07-.07.15-.14.22-.21l.21-.21.08-.08c.36-.37.68-.77.95-1.12.25-.33.49-.68.73-1.02l.13-.19c.26-.38.53-.77.81-1.15.28-.39.58-.79.91-1.23l-.21.26c-.32.39-.63.78-.96 1.16l-.96 1.14c-.13.16-.28.32-.47.53-.14.16-.29.31-.44.47l-.06.06-.35.34-.06.06-.37.34-.54.45c-.26.21-.54.43-.8.63l-.23.18-.29.22-.08.06-.15.11-.23.17c-.08.06-.16.11-.24.16l-.13.09c-.33.23-.67.44-1 .65l-.19.12c-.41.26-.83.52-1.24.79-.43.28-.86.56-1.3.84l-.05.03c-.37.24-.75.48-1.12.74-.18.12-.36.25-.53.38.05-.05.1-.09.15-.14l.16-.14 1.3-1.18c.34-.31.69-.63 1.03-.96l1.05-1.02.44-.43c.55-.54 1.12-1.1 1.67-1.67.68-.71 1.28-1.43 1.76-2.14.59-.87 1.08-1.66 1.49-2.43l.08-.14c.2-.38.41-.77.58-1.16l.07-.15c.07-.16.15-.33.21-.5.1-.24.19-.49.29-.75.17-.45.29-.93.42-1.39v-.03c.12-.42.22-.85.32-1.34.34-1.71.59-3.56.77-5.68v-.08c.03-.04.07-.07.1-.11.15-.14.31-.26.44-.36zM27.06 48.78s0-.02.01-.02c0 .02 0 .04-.01.05v-.03zM39.51 11.5c.31-.2.64-.39.98-.58.57-.31 1.14-.58 1.67-.83h.03c.01 0 .02 0 .03-.02.01 0 .02-.02.03-.03l.34-.16.15-.07c.39-.18.75-.35 1.1-.53.24-.12.47-.24.71-.36l.16-.08v.06l-.02.05-.04.14-.02.07c-.13.13-.25.27-.36.41l-.08.09c-.08.1-.16.19-.24.29l-.07.09-.27.33-.12.14-.24.3-.11.14-.3.38v.02l-.03.02h-.01v.01l-.01.02v.01l-.01.01c-.08.11-.16.21-.24.32l-.11.15c-.08.1-.16.21-.24.31l-.72.96c-.24.33-.49.66-.73.99l-.29.4c-.34.47-.69.94-1.04 1.41-.45.6-.92 1.21-1.43 1.86.37-.44.74-.89 1.11-1.33.23-.27.45-.54.68-.8.24-.29.49-.57.73-.86.49-.59.98-1.17 1.47-1.76.54-.64 1.02-1.21 1.5-1.79.27-.33.47-.58.66-.82l.19-.24.04-.05s-.03.09-.04.14c-.07.2-.13.38-.2.55-.19.48-.38.96-.57 1.43-.19.47-.38.93-.56 1.4-.28.7-.55 1.42-.81 2.11l-.29.76c-.36.95-.77 1.99-1.28 3.27.32-.72.71-1.57 1.12-2.45.24-.5.47-1 .71-1.5.13-.28.27-.56.41-.84.08-.17.17-.34.25-.51l.19-.38.19-.38.24-.51.08-.18c.2-.44.38-.89.59-1.43.06-.16.12-.33.18-.49l.06-.19c.03-.08.05-.16.07-.24.01-.04.03-.09.04-.13v-.04c.04-.09.07-.18.09-.27.01-.05.02-.1.04-.14.02-.08.04-.16.06-.25l.03-.12.06-.27v-.09l.03-.07h.03c.06-.02.1-.06.12-.13.02-.06 0-.13-.06-.19 0-.01-.02-.02-.03-.03v-.13c0 .01 0 .02.01.03 0 .02.01.04.02.06.03.08.05.16.07.25v.04c.19.78.29 1.58.38 2.33l.06.66c.08.95.11 1.89.14 2.86.03.94.03 1.89 0 2.83-.03.6-.06 1.12-.1 1.6-.08.91-.19 1.83-.31 2.73v.08c-.14 1.02-.27 1.95-.41 2.84-.1.6-.22 1.31-.36 2.01-.13.65-.29 1.33-.47 2.01l-.12.41-.04.12c-.09.28-.18.56-.29.84-.13.33-.26.63-.38.91-.15.31-.3.64-.47.97-.16.31-.34.63-.55.99v.02c-.2.31-.39.64-.61.94-.22.32-.45.63-.68.92-.27.33-.52.61-.76.87-.25.27-.51.53-.76.78l-.12.12-.24.24h.01v-.01c-.12.12-.25.24-.37.36-.63.6-1.24 1.19-1.84 1.75-.7.66-1.44 1.3-2.13 1.89-.44.38-.89.76-1.33 1.13l-.82.7-.21.18-.01.01a.7.7 0 0 0 .08-.1c.09-.12.18-.24.27-.35l.3-.39.6-.78c.26-.34.53-.68.78-1.03.31-.43.61-.85.83-1.17l.8-1.16c.14-.2.29-.4.43-.6l.36-.51c.26-.37.51-.75.75-1.12.22-.36.44-.75.7-1.22.21-.39.42-.79.62-1.18.11-.22.23-.45.34-.68l.21-.45.1-.21c.09-.2.19-.4.28-.6.09-.19.17-.38.26-.57l.51-1.08.15-.32-.27.51c-.23.43-.46.85-.68 1.24l-.36.63c-.09.15-.18.3-.27.46l-.06.11c-.41.66-.86 1.37-1.42 2.22-.24.37-.48.73-.74 1.09-.2.28-.4.55-.59.82l-.22.3c-.14.19-.28.39-.42.58-.13.19-.26.37-.39.56l-.23.35c-.19.28-.37.56-.56.85-.47.72-.97 1.42-1.46 2.11l-.11.15-.29.41c-.15.22-.3.43-.46.65-.15.2-.3.41-.45.61-.11.15-.22.29-.34.43l-.08.1s-.09.1-.13.15c-.23.29-.47.58-.7.86l-.03.04h-.01v.01c-.3.31-.61.64-.93.98v.01c.02-.03.03-.05.05-.08.06-.1.11-.2.17-.3.23-.41.45-.84.67-1.32A127.622 127.622 0 0 0 32 40.71l.24-.6c.2-.49.4-.97.6-1.43l.07-.16c.35-.78.72-1.58 1.04-2.38l.18-.44c.13-.33.27-.67.4-1l.36-.87c.08-.19.16-.38.24-.58.2-.48.39-.96.55-1.43.09-.24.17-.49.25-.74.07-.22.15-.44.23-.66l.06-.18c.14-.41.3-.84.45-1.25.17-.45.36-.91.56-1.36.08-.18.16-.35.24-.53-.22.38-.42.73-.62 1.06-.43.71-.94 1.58-1.4 2.49-.43.85-.86 1.76-1.3 2.78-.2.46-.4.94-.59 1.44l-.21.54c-.12.3-.23.61-.35.91-.18.47-.39.94-.58 1.39-.19.45-.39.92-.58 1.38-.13.32-.25.64-.37.96l-.16.41c-.19.51-.39 1.01-.59 1.52-.1.24-.19.49-.28.73-.26.68-.53 1.37-.82 2.05l-.09.19c-.11.24-.23.49-.35.73-.07.14-.14.29-.22.43-.15.3-.3.59-.44.89l-.03.06v.03h-.01l.24-.9c.1-.37.18-.76.27-1.12l.03-.12c.11-.46.2-.91.27-1.25.08-.38.15-.78.21-1.16v-.05l.03-.13c.06-.35.12-.71.19-1.07l.03-.14c.03-.16.06-.32.1-.47l.04-.18c.03-.16.07-.31.1-.47l.1-.45.21-.9.04-.19c.07-.31.14-.62.22-.92l.09-.37.09-.37.12-.45.05-.19c.11-.39.22-.79.33-1.15.05-.14.09-.29.14-.43l.05-.18c.08-.26.17-.52.25-.78l.14-.42c.05-.14.09-.29.14-.43l.07-.2.02-.05c.05-.14.09-.28.14-.42l.13-.37.13-.37s.03-.07.04-.1l.02-.05.16-.41c.15-.39.31-.77.47-1.14l.12-.27c.07-.15.13-.3.2-.45.47-.96.86-1.75 1.24-2.46-.25.44-.5.89-.75 1.33l-.06.11-.28.5-.11.19c-.07.12-.13.24-.2.36l-.22.41-.11.2s-.05.1-.08.15l-.04.07-.1.2-.1.2c-.07.13-.13.27-.19.41l-.03.07-.1.2-.1.2-.03.05-.06.12-.11.26c-.12.29-.25.6-.37.9l-.08.2c-.06.15-.12.3-.17.45l-.25.68c-.06.16-.11.32-.16.48l-.14.44-.03.08s-.03.09-.04.14l-.08.28-.19.65v-.02c-.04.16-.08.33-.13.49l-.06.23c-.05.17-.09.35-.13.52l-.04.16c-.03.14-.07.28-.1.41-.11.46-.22.93-.32 1.4l-.1.43c-.05.23-.11.46-.16.69l-.03.13c-.08.37-.17.75-.23 1.12l-.21 1.15-.04.21c-.08.42-.17.84-.26 1.26-.07.34-.15.68-.23 1.02l-.03.13v-.02.03c0-.07.02-.13.03-.2.03-.24.05-.48.07-.71.02-.18.03-.36.05-.55l.02-.21c.02-.24.04-.48.05-.72.04-.63.05-1.12.05-1.58 0-.26 0-.52-.01-.77 0-.26-.02-.53-.04-.79-.03-.43-.06-.88-.13-1.48v-.05c0-.05-.01-.11-.02-.16v-.14l-.02-.13v-.06l-.02-.16v-.02c-.05-.45-.08-.82-.09-1.16v-.05c-.01-.19-.02-.37-.02-.56v-.72c0-.06 0-.13.01-.19v-.09c0-.07.01-.14.02-.2v-.11c.02-.06.02-.12.03-.18l.02-.14.02-.14c.03-.21.07-.42.12-.63.05-.22.1-.44.16-.65.12-.44.24-.88.36-1.31.05-.17.1-.33.15-.49.06-.18.1-.32.15-.45l.11-.29.06-.15.03-.08c.04-.1.08-.2.12-.29l.06-.15c.06-.15.13-.3.2-.45.1-.23.21-.46.31-.69.19-.44.39-.9.61-1.47l.14-.35.14-.35c.09-.23.19-.45.28-.68.09-.2.19-.42.29-.63.03-.07.07-.14.1-.21l.04-.08c.05-.09.1-.19.14-.28.23-.45.43-.81.62-1.15-.29.47-.6.98-.96 1.61-.11.18-.2.37-.3.55l-.06.12c-.04.08-.08.15-.11.23l-.05.1-.15.33c-.21.46-.41.92-.62 1.38l-.1.22c-.17.36-.33.73-.5 1.09l-.05.11c-.08.18-.16.36-.24.53l-.04.1c-.08.18-.16.37-.23.56l-.02.05-.12.33c-.05.13-.09.26-.13.39-.08.25-.15.5-.23.75-.07.23-.13.47-.2.7l-.02.08c-.06.22-.12.43-.17.65-.03.13-.07.26-.09.39-.03.14-.06.27-.08.41-.02.09-.03.18-.04.28v.09l-.03.13v.08l-.01.03c0 .04 0 .07-.01.11l-.03.42c0 .14 0 .27-.01.41v.72c0 .3.02.54.03.78.02.24.03.48.06.75l.04.37c.04.38.07.76.1 1.14.04.49.08 1.02.09 1.54v.81c0 .25 0 .5-.01.75v-.02.17c0 .18-.01.37-.02.55-.01.26-.03.52-.05.78-.02.39-.05.74-.08 1.1s0 0 0 .01l-.06-.5c-.1-.65-.24-1.34-.46-2.18-.22-.84-.46-1.69-.7-2.51l-.07-.25c-.27-.91-.52-1.83-.74-2.74v-.01.03c-.03-.1-.05-.22-.08-.33-.12-.5-.24-1.05-.34-1.61-.12-.67-.22-1.37-.3-2.07-.03-.37-.07-.76-.09-1.15-.02-.4-.02-.8-.02-1.13v-.07c0-.28.02-.57.05-.86 0-.06.01-.11.01-.17 0-.11.02-.23.04-.34.02-.16.05-.31.07-.47.01-.06.02-.12.03-.17.02-.12.04-.24.07-.36l.07-.28.07-.28v.02l.14-.51c.03-.1.07-.2.1-.29.02-.04.03-.08.05-.13.1-.27.22-.55.33-.81v-.03l.18-.33c.02-.04.03-.07.05-.1.03-.07.07-.14.11-.21l.03-.06.35-.59.19-.3.16-.26c.08-.13.16-.25.25-.38l.12-.18c.2-.29.42-.57.63-.84l.15-.19v.01l.17-.2c.24-.29.49-.58.75-.86.02-.02.04-.05.06-.07.26-.27.58-.62.92-.96.69-.71 1.39-1.41 2.09-2.11.52-.53 1.04-1.06 1.56-1.58.79-.81 1.6-1.64 2.42-2.44l.08-.08c.28-.27.58-.55.88-.82l.1-.09c.14-.12.28-.25.42-.36l.16-.13c.01 0 .02 0 .04.01h.09c.06-.02.11-.07.12-.13v-.03s.03-.05.04-.08l.1-.07s.1-.06.14-.1c.25-.18.51-.36.78-.53zm-11.42 1.15c.71-.63 1.3-1.14 1.86-1.62l.1-.09c.3-.25.61-.51.93-.76.32-.25.7-.54 1.08-.83l.07-.05c.29-.21.58-.42.88-.63.3-.21.62-.42.92-.62.66-.43 1.32-.82 1.89-1.14.36-.2.73-.4 1.09-.59l.27-.14s0 .01-.01.02c-.06.09-.13.17-.2.26l-.03.04c-.1.13-.21.25-.32.37-.1.12-.21.23-.32.35h-.01c-.22.25-.46.48-.69.71l-.03.02-.2.2-.11.11.02-.02-.03.03-.04.05-.04.04s-.01.02-.02.02c-.06.06-.11.11-.17.16h-.01l-.02.04-.03.03s-.02.02-.03.02c0 .01-.02.02-.03.03l-.04.04-.05.05-.05.05-.06.06h-.01c-.08.09-.15.16-.22.23l-.11.11s-.01 0-.02.01l-.03.03c-.09.09-.19.18-.28.28-.26.25-.51.51-.77.76l-.13.13-.45.45-.3.3c-.16.16-.32.32-.49.48l-.35.35.22-.19c.5-.44 1.05-.91 1.73-1.48.57-.48 1.15-.97 1.73-1.47.32-.27.57-.5.81-.72l.03-.03c.05-.05.11-.1.16-.15l.07-.07.07-.07.03-.03.06-.06.02-.02h.01v-.01c.05-.05.09-.1.14-.15l.05-.06c.05-.05.1-.1.14-.15.12-.14.24-.27.34-.42l.05-.06s.07-.1.1-.15c.05-.08.1-.15.15-.23.04-.07.09-.15.13-.22l.02-.04c.03-.06.06-.11.09-.17.02-.03.03-.07.02-.11.08-.04.16-.08.23-.12v.01c0 .02 0 .03-.01.05-.04.14-.1.27-.15.4v.04l-.07.12c-.16.35-.33.71-.49 1.05l-.12.25c-.09.2-.19.39-.3.6l-.02.05c-.04.08-.08.15-.12.23l-.1.17-.1.17-.04.06-.08.14-.13.22c-.04.07-.09.14-.14.21l-.07.1c-.11.17-.23.34-.35.51l-.06.09c-.08.12-.17.23-.25.34-.05.06-.1.13-.15.19-.08.11-.17.22-.25.33-.06.07-.11.14-.17.22-.12.16-.25.32-.37.47l-.11.15-.17.22c-.12.16-.24.32-.37.48-.56.74-1.17 1.54-1.8 2.33l-.14.18-.11.14-.02.03-.02.02v.02l-.03.02-.16.22-.38.48.87-1.02a78.182 78.182 0 0 1 2.77-3.09c.34-.36.68-.73 1.02-1.11.17-.19.33-.38.5-.57.14-.16.27-.33.4-.5l.06-.08c.05-.06.09-.12.14-.19l.05-.08c.06-.08.12-.16.17-.25l.03-.05.18-.29c.05-.08.1-.17.15-.25l.06-.12c.1-.18.2-.38.3-.61.08-.18.18-.42.26-.67.04-.12.08-.25.12-.37l.06-.21v.11c.02.19.03.41.04.63v.78c-.03 1.07-.13 2.13-.28 3.15 0 .05-.02.11-.03.16l-.03.06c-.17.27-.35.52-.52.76-.17.24-.36.49-.56.73h.01l-.53.62-.07.08c-.11.13-.22.25-.32.38s0 .01-.01.02l-.01.01c-.32.32-.64.64-.95.97-.65.66-1.31 1.33-1.98 1.99-.58.56-1.17 1.13-1.73 1.66-.17.16-.34.32-.5.48-.36.34-.73.69-1.09 1.04-.02.02-.04.04-.07.06s0 0-.01 0l-.02.02-.04.04-.02.02-.04.04-.02.02-.06.06-.06.06s-.07.06-.1.1l-.03.04-.02.02c-.51.49-.98 1.02-1.33 1.43-.11.12-.21.25-.32.38l-.13.15c-.16.19-.3.38-.44.57-.04.06-.09.12-.13.18-.1.13-.19.26-.28.39l-.13.2-.3.44c-.05.07-.09.14-.12.21-.02.03-.04.06-.05.1l-.1.18-.1.18c-.03.06-.07.12-.1.18-.02.03-.03.06-.05.09l-.17.34c-.04.07-.07.14-.1.22-.02.03-.03.07-.05.1-.02.04-.03.07-.05.11-.04.08-.07.15-.1.23-.02.06-.05.13-.08.19-.06.14-.11.28-.16.42l-.03.11a12.336 12.336 0 0 0-.39 1.42c-.09.42-.16.89-.21 1.38-.09.95-.09 1.96-.01 3 .14 1.79.5 3.66 1.11 5.72.22.73.46 1.47.69 2.18.34 1.03.69 2.1.97 3.17.07.28.13.55.18.82.05.28.09.56.13.86.02.21.04.46.04.71v.75-.03.12c-.01.2-.03.4-.05.59l-.02-.11v-.08l-.03-.15c-.06-.42-.11-.84-.19-1.26-.03-.14-.05-.28-.08-.42-.02-.09-.03-.17-.05-.26l-.02-.11-.06-.29-.02-.11-.06-.29s-.01-.04-.02-.07l-.02-.09-.05-.19s-.02-.05-.02-.08c-.03-.13-.07-.25-.1-.38l-.02-.06c-.01-.06-.03-.11-.05-.17l-.02-.07-.02-.07s-.03-.09-.04-.13c-.04-.11-.07-.22-.11-.33-.02-.05-.03-.1-.05-.14l-.03-.07c-.06-.18-.13-.35-.21-.52-.08-.19-.16-.37-.24-.55l-.05-.1c-.07-.16-.15-.32-.22-.48l-.08-.16c-.19-.4-.39-.83-.63-1.31l-.27-.54c-.12-.25-.25-.5-.37-.75-.18-.38-.36-.79-.56-1.29v.01l-.09-.24c-.1-.28-.21-.56-.3-.84l-.02-.06c-.05-.16-.11-.33-.16-.5l-.02-.08c-.02-.07-.04-.14-.06-.22l-.07-.28-.02-.08c-.02-.12-.05-.23-.07-.35-.03-.16-.06-.33-.08-.49-.04-.25-.07-.51-.1-.76l-.02-.13c-.04-.36-.08-.79-.11-1.22v-.1c-.04-.44-.07-.89-.09-1.33-.01-.26-.03-.51-.04-.77v-.7c.02-.45.05-1.05.1-1.65-.05.37-.09.74-.13 1.11l-.03.22v.11c-.02.08-.03.15-.04.23v.09c-.02.09-.03.18-.03.27v.11c-.02.21-.03.41-.04.62a39.7 39.7 0 0 0-.03 1.52c0 .47.01.95.05 1.43.02.22.04.45.07.71.03.26.07.49.1.7.05.28.1.51.15.72.03.12.06.24.1.36.04.12.07.25.11.37.15.46.32.93.49 1.36.08.21.17.41.26.62l.02.05c.08.19.17.38.27.6.16.33.32.65.49.98l.16.32c.21.41.42.84.62 1.27l.06.13c.08.18.16.35.24.53l.05.12c.03.07.06.15.09.22l.06.16.07.18c.04.1.07.2.11.31.03.08.05.16.08.23l.02.07c.03.09.06.18.09.28v-.02s0 .04.01.06a.495.495 0 0 1-.04-.13l-.04-.11c-.07-.18-.15-.36-.22-.54l-.03-.07c-.08-.19-.16-.38-.25-.56-.11-.25-.21-.44-.3-.62-.1-.21-.21-.4-.3-.55v-.02h-.01v-.01c0-.01-.01-.02-.02-.04-.02-.03-.04-.07-.06-.1v-.02l-.03-.02-.06-.11-.06-.11v.02c-.41-.76-.73-1.35-1.02-1.91-.23-.44-.46-.89-.69-1.34-.2-.4-.41-.79-.61-1.19a51.1 51.1 0 0 1-.65-1.28c-.11-.23-.21-.46-.31-.69-.09-.2-.17-.41-.25-.62v-.02c0-.02-.01-.04-.02-.05-.02-.06-.05-.12-.07-.19a3.25 3.25 0 0 0-.06-.17l-.02-.06c-.04-.12-.07-.24-.11-.36l-.03-.1c-.03-.12-.05-.25-.08-.37-.02-.08-.03-.17-.04-.25v-.04c-.04-.23-.08-.45-.11-.68-.07-.49-.12-.93-.16-1.34v-.14c-.01-.12-.03-.24-.04-.36.02.37.04.74.07 1.11l.03.41c.02.25.03.51.05.76 0 .08.01.16.02.24v.14c.02.1.03.2.04.29v.09c.02.08.03.17.05.25l.02.08c.02.09.03.18.06.27v.06c.04.1.06.19.08.29.03.12.07.24.1.36.06.22.14.45.23.72.08.24.16.46.24.66.08.2.17.43.28.65l.3.63c.21.42.43.85.67 1.29.22.41.45.84.69 1.26.22.39.45.79.71 1.22.24.39.49.81.72 1.24.19.36.36.68.5.99.17.38.32.72.44 1.05l.05.14.06.14c.12.32.26.71.37 1.09.11.38.22.77.32 1.15.06.27.13.56.18.86.02.1.04.2.05.29v.02c-.02-.06-.05-.13-.07-.19-.04-.1-.08-.21-.13-.32l-.24-.54-.02-.05c-.18-.39-.38-.77-.58-1.16-.34-.64-.74-1.26-1.12-1.85l-.19-.3-.17-.26c-.41-.63-.83-1.29-1.23-1.95-.48-.79-.92-1.53-1.33-2.25l-.13-.24c-.13-.23-.26-.46-.38-.69l-.04-.07c-.17-.33-.36-.68-.52-1.02l-.09-.18c-.06-.12-.12-.24-.18-.37-.09-.2-.19-.4-.28-.6-.13-.29-.26-.59-.39-.87l-.04-.1-.07-.18-.07-.19s-.03-.08-.05-.12l-.09-.24-.17-.56-.07-.23-.04-.18-.05-.21-.03-.15-.04-.15v-.04s-.02-.05-.03-.08l-.02-.1c-.04-.26-.08-.52-.12-.77l-.03-.33v-.08l-.02-.16v-.16l-.02-.04v-1.41l.02-.07v-.24l.02-.03v-.07l.12-.92.03-.15.06-.33.03-.17.03-.17v-.05l.03-.09.12-.46.12-.46c.07-.21.13-.41.2-.62l.02-.07c.06-.18.12-.36.18-.52l.05-.14c.05-.14.1-.28.16-.41l.23-.55.04-.09.09-.21c.08-.18.16-.37.25-.55l.11-.24.11-.24c.04-.09.09-.18.13-.27.02-.05.05-.1.07-.14.25-.5.52-.96.83-1.48.05-.07.09-.14.13-.21.09-.14.17-.27.26-.41.04-.07.09-.13.13-.2l.27-.39c.05-.06.09-.13.14-.19.09-.13.19-.26.29-.39l.22-.29.22-.29v.01a.5.5 0 0 1 .07-.08l.08-.1.1-.12s.05-.06.08-.09c.05-.06.1-.13.16-.18l.29-.32.08-.09c.05-.06.11-.12.16-.18l.18-.18c.13-.13.25-.26.38-.39s.26-.26.4-.39l.17-.16h-.01.02l-.02.02s.07-.06.1-.09l.14-.13c.05.01.11.01.16 0 .02 0 .04-.02.06-.03.07-.05.12-.12.14-.2 0-.04.01-.07.02-.11v-.02c.24-.22.47-.45.71-.67.44-.41.92-.85 1.47-1.34zm-4.17 32.19c-.06-.06-.11-.12-.17-.17-.16-.16-.33-.31-.5-.45-.27-.23-.56-.45-.83-.67l-.26-.21c-.24-.19-.47-.39-.71-.58-.34-.28-.69-.57-1.04-.85-.33-.26-.65-.51-.98-.76-.29-.22-.58-.45-.87-.67s-.02-.01-.03-.02l-.05-.03c-.11-.09-.23-.18-.34-.28l-.06-.05c-.12-.1-.25-.21-.37-.32l-.03-.02c-.13-.12-.27-.24-.4-.36s-.26-.25-.38-.38c-.17-.18-.33-.36-.49-.55a8.66 8.66 0 0 1-.38-.47l-.07-.09c-.14-.19-.28-.39-.42-.58-.12-.18-.24-.36-.35-.54-.28-.43-.53-.86-.72-1.19v.02c-.03-.08-.08-.16-.12-.24a14.46 14.46 0 0 1-.91-1.92 25.5 25.5 0 0 1-.35-.96c-.11-.31-.19-.62-.27-.91-.08-.35-.14-.65-.19-.95-.05-.35-.1-.71-.14-1.05v-.04c-.04-.33-.07-.67-.07-1.01v-1.22c0-.19.01-.39.03-.59v-.1l.03-.27.02-.19.03-.19.18-.96c.06-.28.12-.56.18-.83.07-.33.15-.66.23-.98.06-.26.13-.51.2-.77l.02-.08v-.01l.06-.2c.05-.18.11-.36.17-.54.1-.3.2-.59.31-.88.11-.29.22-.58.33-.86.07-.18.15-.36.22-.54l.07-.16c.09-.21.19-.41.28-.62.07-.14.14-.29.21-.43l.1-.2c.07-.14.14-.28.22-.42l.09-.17c.09-.17.18-.35.27-.52.2-.37.39-.73.6-1.1l.1-.18c.07-.13.15-.27.23-.4l.35-.58c.38-.61.81-1.27 1.32-2.01l.13-.19c.18-.27.37-.54.56-.8.04-.05.08-.11.12-.16.08-.12.17-.23.25-.35l.38-.49.06-.07c.24-.29.49-.59.75-.87.29-.31.59-.63.9-.94l.06-.06c.18-.17.36-.35.55-.52.24-.21.48-.43.72-.64.14-.13.29-.25.44-.38l.22-.19c.1-.09.2-.17.3-.26.04-.04.08-.07.12-.11 0 .02 0 .04-.01.06 0 .02-.01.05-.02.08l-.03.1v-.02c-.06.23-.15.45-.24.67-.05.11-.1.21-.15.32-.04.08-.07.15-.11.23-.02.04-.04.09-.07.13l-.04.07-.15.29c-.05.11-.11.21-.17.32l-.1.2c-.05.1-.1.2-.16.29l-.1.18-.09.17c-.13.25-.27.5-.4.74-.2.37-.41.73-.61 1.1-.18.32-.37.64-.55.96-.05.09-.11.18-.16.28l-.09.16c-.08.14-.16.29-.24.43l-.06.1-.12.21-.48.84.06-.1c.23-.38.49-.8.79-1.26.23-.36.45-.69.65-.98.21-.32.43-.64.64-.95.17-.25.34-.52.55-.86l.09-.14c.07-.11.14-.23.21-.35l.21-.35.11-.19c.11-.21.22-.4.32-.59.03-.05.05-.1.07-.14l.02-.04.16-.32c.03-.05.05-.11.08-.17l.02-.06.04-.08c.03-.06.05-.12.08-.18-.02.09-.03.19-.05.28-.06.35-.12.68-.19 1l-.02.11c-.03.14-.06.29-.1.43l-.18.68c-.02.08-.04.16-.07.23l-.04.13-.12.43c-.07.24-.13.47-.2.71-.17.61-.34 1.22-.5 1.83.45-1.05.88-2.14 1.29-3.23.03-.08.06-.16.08-.24l.03-.1c.05-.15.1-.31.15-.46l.06-.23c0-.03.02-.07.02-.1l.05-.22.05-.22c.02-.09.04-.18.05-.27 0-.04.01-.09.02-.13l.09-.51v-.05c.04-.17.07-.35.07-.53v-.14l.06.18c.09.29.17.57.25.83.14.47.28.98.41 1.5.01.05.02.09.03.13s0 .03 0 .03v.01c.03.11.05.23.08.34.11.5.23 1.1.3 1.7.03.3.04.6.03.91v.21c-.01.28-.03.59-.06.91-.02.16-.03.32-.05.47l-.52.52c-.29.29-.57.58-.9.93-.13.14-.26.28-.39.43l-.1.11c-.1.12-.21.24-.31.36l-.14.17c-.1.12-.2.24-.29.37l-.2.26-.23.31c-.09.12-.18.25-.26.37l-.14.2c-.09.12-.17.25-.26.38l-.12.18c-.23.34-.44.69-.67 1.08-.24.41-.43.74-.59 1.06-.17.34-.38.75-.56 1.16l-.08.18c-.06.14-.13.29-.19.43l-.1.24-.2.47c-.06.13-.11.27-.15.41-.02.07-.05.14-.07.2l-.18.51-.11.35-.03.1v.05s-.04.08-.05.12l-.13.49-.08.3c-.04.15-.07.3-.1.45v.06l-.06.23-.05.23v.04s-.03.09-.03.14l-.07.51-.04.26c-.02.17-.03.33-.04.51v.03c0 .06 0 .12-.01.18-.01.14-.02.29-.02.44 0 .27 0 .53.01.8 0 .05 0 .1.01.15v.05l.01.07.03.37v.08c.01.07.01.14.03.2l.03.22v.03c.03.16.05.32.08.48v.06l.03.12.09.38.09.38c.03.14.08.29.12.43l.05.15.1.32.06.15.03.07c.02.06.05.12.07.18.05.14.1.28.16.41l.15.36.15.35c.06.14.12.27.18.4l.09.18c.07.16.14.31.22.47l.1.2c.08.16.15.32.23.47.07.14.14.27.21.41.04.07.07.13.11.2.19.36.39.72.59 1.07l.03.05c.13.23.27.46.41.7l.06.11.12.2c.13.23.27.45.41.68.31.51.62 1.02.93 1.52.01.02.03.05.04.07-.08-.09-.15-.19-.23-.28-.18-.2-.36-.39-.53-.57-.28-.28-.58-.57-.88-.85l-.07-.06c-.27-.25-.55-.51-.81-.78-.07-.07-.13-.14-.2-.21-.07-.08-.15-.16-.22-.25-.13-.16-.26-.32-.38-.48-.06-.09-.12-.18-.18-.26l-.03-.04-.18-.27c-.07-.11-.14-.23-.21-.34-.04-.07-.08-.14-.12-.2l-.04-.06c-.06-.11-.12-.22-.18-.34-.06-.13-.13-.26-.19-.39-.09-.19-.17-.39-.26-.59l-.04-.09c-.05-.12-.09-.24-.14-.36-.07-.18-.14-.37-.2-.55-.06-.17-.12-.35-.18-.53l-.18-.61c-.05-.18-.1-.35-.14-.53-.13-.54-.26-1.14-.39-1.87l.05.38.05.38.06.44.04.26.02.12c0 .06.02.12.02.18V33c.02.07.03.14.05.22l.06.33c.01.07.03.15.04.22l.02.09c.04.19.08.37.13.56.05.19.09.37.14.56l.05.18.05.18c.02.07.04.14.07.22l.03.08c.06.17.12.35.19.52.08.21.15.39.24.57l.02.04.12.24.03.05c.04.08.08.15.12.22.1.19.21.37.33.55.1.15.21.32.35.52.12.18.26.35.38.51l.18.21.04.04c.06.06.11.13.17.19h.01l.03.04h-.01l.03.02.03.03.02.02.02.02h.01l.02.02c.23.23.47.45.71.67l.2.19c.24.22.55.51.84.81.03.03.06.06.09.1l.06.06c.15.16.32.33.48.51.25.29.52.6.8.96.23.29.46.59.68.88l.04.06s.04.05.05.07c.07.1.14.19.21.29l.02.03c.08.11.15.21.22.32.09.13.17.27.25.41.06.09.11.19.16.28l.04.07.04.07c.1.18.2.37.29.57l.06.12.02.04-.05-.09c-.12-.21-.26-.42-.38-.61-.16-.25-.28-.43-.41-.61-.18-.25-.32-.43-.46-.59-.15-.17-.3-.35-.51-.59-.29-.32-.64-.7-1.02-1.07-.36-.34-.72-.65-1.13-1a31.052 31.052 0 0 1-2.12-2c-.22-.23-.49-.52-.74-.81l-.08-.1-.3-.36-.33-.42-.05-.07c-.04-.06-.09-.12-.13-.18l-.21-.32c-.03-.05-.07-.11-.1-.16l-.04-.08-.16-.27c-.06-.12-.12-.23-.19-.34l-.05-.09c-.03-.06-.06-.11-.09-.17-.07-.14-.14-.29-.21-.43l-.02-.05c-.03-.06-.06-.11-.08-.17-.07-.15-.14-.3-.2-.45l-.03-.06c-.02-.05-.05-.11-.07-.16-.1-.25-.2-.49-.3-.74-.06-.15-.11-.3-.16-.45l-.08-.22c-.05-.15-.11-.31-.16-.46l-.02-.06c-.33-.99-.65-2.02-.96-3.05l.05.16.39 1.37c.15.54.31 1.09.46 1.64.07.23.13.47.2.7l.06.21.06.21c.02.06.04.12.06.19l.03.08.05.14c.06.18.13.37.2.56l.05.14c.07.19.14.38.22.57l.1.24.09.22c.03.06.06.13.09.19l.03.06.06.13c.04.09.08.17.13.26.01.03.03.05.04.08l.02.03.06.11.06.11c.13.24.25.43.37.6.14.2.29.41.47.65.51.67 1.11 1.35 1.94 2.2l.05.06c.08.09.17.17.25.26.35.36.73.7 1.08 1.02.18.16.35.32.52.49a19.952 19.952 0 0 1 1.39 1.49v.02c.29.32.57.64.83.98l-.01-.01.02.02c-.02-.02-.03-.04-.05-.05zm38.73-14.08c-.37.43-.76.9-1.14 1.38-.26.33-.5.68-.74 1.02l-.36.52c-.15.22-.3.43-.45.65-.47.67-.99 1.37-1.6 2.15s-.01 0-.02.01l-.03.04c-.58.73-1.18 1.48-1.79 2.2-.54.64-1.16 1.37-1.78 2.05-.35.38-.67.73-1.01 1.08-.29.31-.6.61-.93.94l-.21.19c-.21.19-.43.4-.66.59l-.13.11c-.1.09-.2.17-.31.26l-.3.23-.21.17-.11.08c-.15.11-.3.22-.46.32-.19.13-.39.26-.63.39-.5.27-.93.47-1.34.63-.53.2-1.08.4-1.68.59-.22.07-.43.14-.65.2-.82.24-1.57.45-2.3.64h.02-.04c-.07.02-.15.03-.22.05-.29.07-.56.13-.82.18-.34.07-.69.11-1.02.15-.75.07-1.44.1-2.13.1h-.05.01-.15c-.28-.01-.55-.03-.78-.04-.3-.02-.63-.04-.95-.03-.97.04-1.92.17-2.64.29-1.06.17-1.85.35-2.59.58h-.03c-.66.22-1.37.47-2.21.8h.01c.01 0 .03-.01.04-.02.07-.04.14-.07.21-.1.25-.12.53-.23.88-.37.34-.12.75-.27 1.16-.41.15-.05.31-.1.46-.15l.78-.24.23-.07c.45-.14.91-.28 1.36-.41.27-.08.55-.16.83-.24l.67-.18.08-.02h.02c.1-.03.19-.05.28-.07h.02c.42-.11.82-.2 1.23-.29.54-.12 1.1-.25 1.64-.38.47-.12.96-.26 1.54-.45.57-.18 1.09-.35 1.57-.51.52-.18 1.04-.35 1.57-.53l.28-.09c.42-.14.86-.29 1.28-.45.32-.12.59-.23.84-.33.27-.11.54-.24.77-.35.21-.1.43-.22.69-.37.28-.16.49-.29.68-.42.25-.17.5-.33.75-.51l.19-.13c.16-.11.32-.22.48-.32.42-.28.87-.57 1.42-.91-.48.27-.97.56-1.45.83h-.02c-.55.31-1.01.56-1.44.78-.22.12-.43.22-.63.31l-.09.04c-.09.04-.17.08-.26.12l-.21.09-.17.07-.16.06c-.12.04-.24.09-.35.13-.21.07-.41.14-.62.21l-.05.02c-.27.08-.53.17-.8.25l-.23.07-1.37.42-.2.06-.68.21c-.31.1-.61.2-.92.3l-.44.15c-.36.12-.72.24-1.08.35l-.08.02c-.28.09-.55.17-.83.25-.26.07-.52.14-.77.21l-1.3.3-.25.06c-.54.12-1.09.26-1.64.41-.27.07-.56.16-.91.27-.2.06-.41.13-.61.2-.56.18-1.06.35-1.57.53l-.16.05c-.21.07-.41.15-.62.22l-.12.04c-.22.08-.44.17-.66.26-.24.1-.5.22-.75.35h-.03c-.12.07-.23.14-.35.2-.12.07-.25.14-.37.22-.24.15-.47.3-.69.45-.11.08-.22.15-.33.23l-.11.08c-.09.06-.19.13-.28.2-.11.05-.22.11-.33.16a.27.27 0 0 0 .08-.07l.1-.08.09-.07.43-.31c.09-.06.19-.12.28-.18.05-.03.09-.06.14-.08.22-.14.45-.27.67-.4l.15-.09h-.02.02l.04-.03c.24-.13.5-.27.75-.4a30.655 30.655 0 0 1 2.8-1.27c.45-.18.92-.35 1.39-.53l.36-.13c.29-.11.58-.21.87-.32.82-.32 1.64-.65 2.44-.98.33-.14.69-.3 1.13-.5.37-.17.73-.35 1.16-.56.13-.06.25-.13.37-.2.06-.03.13-.07.19-.1.16-.09.32-.17.47-.26.06-.04.12-.07.19-.1.12-.07.24-.13.35-.2.21-.13.43-.26.64-.39.12-.07.23-.15.35-.22l.15-.1c.15-.09.29-.19.44-.29l.16-.11c.12-.08.24-.16.36-.25l.63-.45.39-.3.03-.02c.05-.04.1-.08.15-.11.11-.08.22-.17.33-.25l.12-.1c.28-.23.57-.47.85-.72l.13-.12c.11-.09.21-.18.31-.28l.28-.27.28-.27c.1-.1.19-.2.29-.3l.1-.1.09-.09c.09-.1.19-.19.28-.29.17-.19.34-.38.52-.57.1-.11.19-.22.28-.32l.11-.14c.11-.13.22-.26.33-.4l.14-.16c.1-.12.2-.24.3-.37.26-.33.52-.68.78-1.04l.02-.03c.1-.13.19-.27.28-.41l.12-.18c.08-.12.17-.24.24-.37v-.02l.13-.19c.16-.27.33-.54.48-.82.17-.31.36-.65.58-1.07l.03-.02.05-.03c.11-.06.23-.11.35-.16.06-.02.12-.04.17-.06.11-.04.23-.07.34-.1l.09-.02c.11-.03.21-.06.31-.09.11-.04.22-.07.34-.11.1-.04.2-.07.3-.11h.01c.06-.01.13-.03.19-.05.42-.09.87-.18 1.46-.27l.22-.03c.77-.12 1.57-.24 2.35-.43.51-.12 1.02-.26 1.52-.39l.07-.02h-.01.01c-.02 0-.04.01-.05.02-.06.03-.12.05-.18.08l-.09.04c-.06.03-.13.05-.19.08l-.32.15h-.02l-.09.05c-.06.03-.12.05-.18.09l-.14.07-.14.08-.16.08-.39.21c-.23.13-.46.26-.7.39-.03.02-.06.03-.08.05l-.27.15-.04.02c-.09.05-.17.1-.26.15-.48.26-.96.53-1.44.79.47-.22.93-.44 1.4-.65l1.14-.51.11-.05c.14-.07.29-.13.44-.19l.23-.09.45-.18c.32-.12.65-.23.92-.32.42-.14.84-.27 1.26-.4l.17-.05c-.03.02-.05.03-.08.05l-.09.06a31.395 31.395 0 0 0-1.74 1.28l-.17.13c-.25.19-.51.41-.81.66l-.05.04-.36.3c-.1.09-.2.17-.3.26l-.04.03s-.07.06-.11.09l-.25.22-.25.22c-.09.08-.18.17-.27.25l-.14.13c-.59.55-1.18 1.09-1.77 1.63.35-.3.71-.59 1.06-.89l.85-.7.11-.09.3-.24.15-.12.15-.12.06-.05.13-.1c.18-.13.36-.26.53-.39s.03-.02.05-.03c.07-.06.15-.11.23-.17.1-.07.2-.14.3-.22l.33-.24c.4-.29.82-.6 1.23-.9l.09-.07c.1-.08.2-.15.3-.23H62l.02-.03.02-.01c.11-.08.21-.15.3-.23.21-.15.41-.3.61-.44l.02-.02h.01c-.04.05-.08.09-.12.14-.08.1-.17.2-.25.3z" class="cls-1"/><path d="M46.75 19.84s.02-.02.03-.02c0 0 .01 0 .02-.01-.02.01-.03.03-.05.04zm4.3-10.06v-.01zm-7.03-1.36-.01.01.02-.02zm3.59-3.61h-.01s.01-.01.02-.01zm12.48 11.16v.02s0-.02.01-.03z" class="cls-1"/></g></svg>