<svg width="800" height="800" viewBox="0 0 960 960" fill="none" xmlns="http://www.w3.org/2000/svg"><path d="M410.743 884.745c-33.63-1.485-67.7-5.63-99.877-15.338-27.71-9.043-38.019-26.694-39.046-55.969.215-92.565-21.741-191.544 4.937-281.486 13.365-36.548 53.467-29.597 84.998-31.691 93.294-4.746 186.458-1.783 279.807-.099-91.58-53.452-184.32-105.139-277.3-156.219-57.071-30.511-15.668-98.289 6.167-139.231 30.55-49.384 103.838 13.243 140.561 29.163 2.715-164.213 209.838-147.393 179.36 77.43 143.181-177.01 307.117 23.194 153.367 121.136 29.692 25.224 93.831 43.795 71.607 93.353-10.066 23.663-22.807 46.452-35.13 69.006-5.26 13.746-18.296 17.99-29.593 23.781-9.274 2.78-19.267-2.991-27.959-8.392-2.264 63.532 33.507 261.54-62.067 260.98-38.16 1.057-76.329 1.766-114.469 3.228-78.45 3.282-156.915 8.261-235.363 10.348zm190.221-52.827c51.369-.947 102.927-3.149 154.317-4.39 13.928-.386 17.179-1.422 20.044-14.969 16.506-73.83-.345-150.221 3.08-224.885 1.333-4.644-.353-6.729-3.979-8.994-20.86-13.029-41.741-26.035-62.32-39.5-9.643-6.309-19.066-9.759-31.246-8.929-27.858 2.772-55.713-.404-83.433 3.237l3.537 298.43zM458.831 531.56c-41.025 1.98-81.643.698-122.028 6.779-18.989 3.566-19.863 3.752-24.814 21.23-2.904 31.04-4.527 62.618-4.4 93.774 1.128 53.659 4.496 107.27 6.65 160.912.271 6.741 2.766 11.227 8.937 13.171 46.291 15.538 96.711 13.435 144.624 11.063.461-102.245 4.751-204.125-8.969-306.929zm88.357-128.915l40.978-72.658c-58.694-33.657-115.929-71.372-177.364-99.804-4.045-1.796-6.407-.685-8.254 3.367-5.405 11.862-11.589 23.391-16.519 35.438-2.61 11.483-14.344 29.424-.391 37.306 53.818 32.335 106.589 65.855 161.55 96.351zm165.468 1.346l-39.991 66.968 167.7 104.748c5.746-8.202 44.848-63.502 32.876-72.327-53.343-33.171-106.786-66.987-160.585-99.389zm-3.325-52.474c22.605 14.5 46.438 25.958 68.304 41.344 13.595 9.452 25.031 9.777 39.022 2.102 72.539-27.485 49.816-134.474-31.699-103.308-29.715 13.969-50.815 38.671-75.627 59.862zm-59.573-34.898c2.3-44.928 9.263-95.472-20.07-132.323-22.202-24.93-61.037-14.94-67.975 23.433-4.803 18.254.316 36.373 1.572 54.537 25.487 20.814 57.615 35.177 86.473 54.353zM501.834 530.778c4.096 102.517 10.186 204.207-1.861 306.307l17.027-.832c4.373-101.43 1.717-203.945-2.596-305.475h-12.57zm121.883-179.364l-43.857 69.761 11.238 6.462 39.735-72.154-7.116-4.069zM40.918 576.526c-.171-11.187 5.717-19.005 14.406-24.957 53.169-37.446 107.245-73.366 164.242-104.769 29.531-22.214 62.3 10.526 32.369 34.283-55.876 36.035-110.487 73.947-165.12 111.828-15.927 14.596-46.081 7.763-45.897-16.385zM238.914 275.916c.167 11.928-3.214 18.132-10.075 22.029-12.807 8.108-25.439-2.113-32.824-12.537-14.243-19.109-28.057-38.539-42.158-57.755-25.959-35.375-52.102-70.617-77.924-106.092-10.16-12.308-15.833-33.052-.079-43.03 12.896-9.538 28.817-2.268 37.024 9.699 22.383 32.083 44.513 64.343 66.717 96.552 18.997 29.641 44.826 59.517 59.319 91.134zM108.549 313.491c24.214 6.423 55.678 16.279 80.844 24.153 36.412 6.075 35.66 46.3 2.787 46.26-33.547-5.043-66.995-13.976-99.186-24.46-24.842-13.122-16.282-47.976 15.555-45.953zM306.507 236.236c1.469 20.989-28.894 30.391-36.934 10.195-5.63-15.958-10.152-32.477-13.197-49.116-3.168-22.78 31.439-31.406 39.838-9.436 4.946 15.514 7.495 32.29 10.293 48.357z" fill="#000"/><path d="M600.968 831.916l-3.538-298.43c27.71-3.648 55.582-.464 83.433-3.239 12.181-.828 21.603 2.622 31.246 8.931 20.579 13.465 41.46 26.471 62.32 39.5 3.626 2.265 5.312 4.35 3.977 8.994-3.422 74.664 13.427 151.052-3.076 224.885-2.867 13.547-6.118 14.582-20.046 14.968-51.387 1.242-102.949 3.445-154.316 4.391zM458.833 531.555c13.72 102.804 9.43 204.684 8.969 306.929-47.912 2.377-98.334 4.47-144.624-11.061-6.17-1.946-8.666-6.432-8.936-13.173-2.154-53.642-5.521-107.252-6.649-160.912-.129-31.157 1.495-62.735 4.397-93.775 4.951-17.478 5.826-17.664 24.815-21.229 40.387-6.081 81-4.797 122.028-6.779zM547.19 402.641c-54.959-30.495-107.733-64.017-161.547-96.35-19.496-10.082 11.541-57.719 16.906-72.744 1.546-20.837 164.371 86.712 185.619 96.436l-40.978 72.658zM712.658 403.984c53.8 32.403 107.24 66.217 160.584 99.387 12.121 8.519-27.24 64.302-32.874 72.329l-167.7-104.748 39.99-66.968zM501.837 530.773h12.571c4.313 101.528 6.968 204.046 2.596 305.475l-17.027.832c12.045-102.101 5.956-203.79 1.86-306.307zM623.717 351.414l7.115 4.069-39.735 72.154-11.238-6.462 43.858-69.761z" fill="white"/></svg>