<svg xmlns="http://www.w3.org/2000/svg" viewBox="0 0 64 64"><path d="M32 27c6.065 0 11-4.935 11-11S38.065 5 32 5 21 9.935 21 16s4.935 11 11 11zm0-20c4.962 0 9 4.038 9 9s-4.038 9-9 9-9-4.038-9-9 4.038-9 9-9z" fill="white"/><path d="M63.599 4.199a.999.999 0 00-.881-.159L46.535 8.8C44.238 3.075 39.279 0 32 0c-4.927 0-8.784 1.418-11.483 4.101L.713 10.042A1.001 1.001 0 000 11v52a1.003 1.003 0 001.275.962l20.719-5.92 19.719 5.916.001-.004c.093.027.189.046.286.046.092 0 .185-.013.275-.038l21-6c.429-.123.725-.516.725-.962V5a1 1 0 00-.401-.801zM32 2c11.571 0 14 8.333 14 15.323 0 10.101-11.045 22.95-14 26.207-2.957-3.256-14-16.098-14-26.207C18 4.658 25.613 2 32 2zm-9 33.317a83.797 83.797 0 006.035 7.89C26.64 43.725 25 45.18 25 46.993c0 2.28 3.009 4 7 4s7-1.72 7-4c0-1.813-1.64-3.268-4.035-3.787A83.968 83.968 0 0041 35.316v26.339l-18-5.4V35.317zm10.353 9.702C35.544 45.117 37 46.08 37 46.993c0 .815-1.948 2-5 2s-5-1.185-5-2c0-.913 1.456-1.876 3.647-1.974.341.37.568.608.634.676a1 1 0 001.438 0c.066-.068.293-.306.634-.676zM2 61.674v-49.93L18.415 6.82C16.827 9.554 16 13.073 16 17.323c0 4.847 2.238 10.134 5 14.82v24.103L2 61.674zm60-5.428l-19 5.428V32.143c2.762-4.686 5-9.973 5-14.82 0-2.461-.292-4.662-.832-6.624L62 6.336v49.91z" fill="white"/><path d="M31.327 22.039a.997.997 0 001.414 0l4.352-4.352c.629-.629.976-1.466.976-2.356s-.347-1.727-.975-2.355a3.34 3.34 0 00-4.204-.417l-.855.57-.855-.57a3.341 3.341 0 00-4.204.417 3.336 3.336 0 000 4.711l4.351 4.352zM28.39 14.39a1.332 1.332 0 011.68-.166l1.41.94a1 1 0 001.109 0l1.41-.94a1.335 1.335 0 011.68.167c.251.251.39.585.39.941s-.139.69-.39.941l-3.645 3.645-3.644-3.645a1.333 1.333 0 010-1.883zM16 39h2v2h-2zM12 39h2v2h-2zM8 39h2v2H8zM16 35h2v2h-2zM12 35h2v2h-2zM8 35h2v2H8zM4 39h2v2H4zM4 35h2v2H4zM16 47h2v2h-2zM12 47h2v2h-2zM8 47h2v2H8zM16 43h2v2h-2zM12 43h2v2h-2zM8 43h2v2H8zM4 47h2v2H4zM12 51h2v2h-2zM8 51h2v2H8zM4 51h2v2H4zM8 55h2v2H8zM4 55h2v2H4zM4 43h2v2H4zM13 25h-2v-3a1 1 0 001-1v-1h2v-2h-2v-2h-2v4H6v-4H4v14h2v-3h7v3h2v-7h-2v2zm-7-3h3v3H6v-3zM51 31h8a1 1 0 001-1v-6a1 1 0 00-1-1h-8a1 1 0 00-1 1v6a1 1 0 001 1zm1-6h6v4h-6v-4zM45 34h10v2H45zM57 34h3v2h-3zM45 38h15v2H45zM45 42h4v2h-4zM51 42h9v2h-9zM45 46h3v2h-3zM50 46h5v2h-5zM57 46h3v2h-3zM45 50h15v2H45z" fill="white"/></svg>