<svg width="800" height="800" viewBox="0 0 32 32" xmlns="http://www.w3.org/2000/svg"><path d="M26 32H5a2 2 0 01-2-2V6a2 2 0 012-2v24a2 2 0 002 2h4a2 2 0 002-2V4h13a2 2 0 012 2v24a2 2 0 01-2 2zm-5-3h2v-2h-2v2zm0-3h2v-2h-2v2zm0-3h2v-2h-2v2zm0-3h2v-2h-2v2zm-3 9h2v-2h-2v2zm0-3h2v-2h-2v2zm0-3h2v-2h-2v2zm0-3h2v-2h-2v2zm8-13a1 1 0 00-1-1h-9a1 1 0 00-1 1v4a1 1 0 001 1h9a1 1 0 001-1V7zm0 11h-2v2h2v-2zm0 3h-2v2h2v-2zm0 3h-2v2h2v-2zm0 3h-2v2h2v-2zm-15 2H7a1 1 0 01-1-1V3a1 1 0 011-1h1.938V0H10v2h1a1 1 0 011 1v25a1 1 0 01-1 1z" fill="white"/></svg>