<svg xmlns="http://www.w3.org/2000/svg" viewBox="0 0 496 496"><path d="M248 227.312l69.376-69.376c6.848-6.848 10.624-15.96 10.624-25.656C328 112.272 311.728 96 291.72 96c-9.696 0-18.8 3.776-25.656 10.624L248 124.688l-18.064-18.064C223.088 99.776 213.976 96 204.28 96 184.272 96 168 112.272 168 132.28c0 9.696 3.776 18.808 10.624 25.656L248 227.312zM204.28 112a20.17 20.17 0 0114.344 5.936L248 147.312l29.376-29.376A20.156 20.156 0 01291.72 112c11.176 0 20.28 9.104 20.28 20.28a20.17 20.17 0 01-5.936 14.344L248 204.688l-58.064-58.064A20.156 20.156 0 01184 132.28c0-11.176 9.104-20.28 20.28-20.28zM176 256c-57.344 0-104 46.656-104 104s46.656 104 104 104 104-46.656 104-104-46.656-104-104-104zm0 192c-48.52 0-88-39.48-88-88s39.48-88 88-88a87.542 87.542 0 0134.808 7.208C193.496 302.568 184 330.864 184 360s9.496 57.432 26.808 80.792A87.542 87.542 0 01176 448zm49.048-14.976C208.912 412.08 200 386.44 200 360s8.912-52.08 25.048-73.024c4.432 2.984 8.544 6.384 12.352 10.104C223.592 315.176 216 337.224 216 360s7.592 44.824 21.4 62.92c-3.808 3.72-7.928 7.12-12.352 10.104zm22.992-22.632C237.672 395.632 232 378.088 232 360s5.672-35.632 16.04-50.392C258.064 323.904 264 341.256 264 360c0 18.744-5.936 36.096-15.96 50.392z" fill="white"/><path d="M320 224c-25.68 0-50.456 7.232-72.072 20.792C227.032 231.696 202.424 224 176 224c-74.992 0-136 61.008-136 136s61.008 136 136 136c26.424 0 51.032-7.696 71.928-20.792C269.544 488.768 294.32 496 320 496c74.992 0 136-61.008 136-136s-61.008-136-136-136zM176 480c-66.176 0-120-53.832-120-120s53.824-120 120-120c66.168 0 120 53.832 120 120s-53.832 120-120 120zm109.224-200.688C296.2 274.576 308.032 272 320 272c48.52 0 88 39.48 88 88s-39.48 88-88 88c-11.968 0-23.8-2.576-34.776-7.312C301.968 418.08 312 390.224 312 360s-10.032-58.08-26.776-80.688zM320 480c-20.392 0-40.144-5.16-57.792-14.904 4.424-3.64 8.536-7.624 12.472-11.784C288.8 460.192 304.288 464 320 464c57.344 0 104-46.656 104-104s-46.656-104-104-104c-15.712 0-31.2 3.808-45.328 10.688-3.936-4.16-8.04-8.144-12.472-11.784C279.856 245.16 299.608 240 320 240c66.168 0 120 53.832 120 120s-53.832 120-120 120zM376 48h16v16h-16zM200 64h16v16h-16zM88 192h16v16H88zM328 0h16v16h-16zM328 32h16v16h-16zM344 16h16v16h-16zM312 16h16v16h-16zM56 0h16v32H56zM24.402 13.085L47.03 35.713 35.716 47.026 13.089 24.4zM0 56h32v16H0zM13.084 103.604L35.71 80.977 47.025 92.29l-22.628 22.627zM56 96h16v32H56zM80.968 92.281l11.314-11.313 22.627 22.627-11.314 11.313zM96 56h32v16H96zM103.593 13.087l11.314 11.314L92.28 47.028 80.966 35.714zM424 96h16v32h-16zM415.047 131.715l-11.313 11.314-22.628-22.627 11.314-11.314zM368 152h32v16h-32zM392.38 210.87l-11.313-11.314 22.627-22.628 11.314 11.314zM424 192h16v32h-16zM471.569 210.883l-22.627-22.627 11.313-11.314 22.627 22.628zM464 152h32v16h-32zM471.579 109.1l11.313 11.313-22.627 22.628-11.314-11.314z" fill="white"/></svg>