<svg xmlns="http://www.w3.org/2000/svg" data-name="Layer 2" viewBox="0 0 423.3 431.66"><path fill="#bd9976" d="M406.97 305.27c-3.23 3.24-6.2 6.75-9.29 10.14-.6.66-3.18 3.16-3.8 3.81-.08-.52 2.03-2.68 2.23-2.94 3.93-5 7.02-10.49 9.68-16.25 4.14-8.97 9.88-16.84 16.68-23.97.29-.3.55-.64.82-.96-.35-.03-.6.06-.78.23-1.02.95-2.09 1.86-3.02 2.9-5.97 6.68-11.22 13.85-14.88 22.09-2.69 6.06-6.14 11.65-10.38 16.74-.35.43-2.06 3-2.37 3.32 1.73-4.43 4.75-11.1 6.49-15.55 1.56-3.99 2.91-8.03 3.46-12.29 9.25-28.29 12.13-58.51 8.11-88.88a200.162 200.162 0 0 0-24.66-73.18c.01-.06.02-.13.04-.17-.04-.03-.21-.24-.42-.52-2.75-4.78-5.71-9.41-8.82-13.91-.14-.6-.27-1.24-.42-1.93-1.13-5.33.2-7.23 5.38-8.1 1.43-.24 2.88-.22 4.31-.46 5.68-.94 10.56-5.51 12.31-11.84-7.5 2.6-15.42 3.07-21.1 10.51-.14-5.1-.07-10-1.98-14.38-1.89-4.35-4.02-8.57-6.28-13.36-2.78 9.3-2.71 17.2 3.3 23.83 1.88 2.07 2.72 4.71 2.7 7.83-.02 1.83.06 3.67.14 5.52-.84-1.18-1.69-2.34-2.56-3.5-.63-1.52-1.84-3.28-2.16-3.68-6.57-8.39-11.21-17.87-15.36-27.6-.9-2.1.29-5.53 2.13-6.92 2.65-1.99 4.16-4.69 4.63-7.93.12-.85-.02-1.84-.34-2.64-.59-1.47-1.82-1.79-3.03-.82-1.51 1.21-2.64 2.72-2.74 4.76-.05 1.05-.08 2.1-.02 3.14.13 2.3-.45 4.41-1.61 6.55-.24-.22-.4-.29-.43-.4-.94-3.44-1.91-6.88-2.75-10.34-.16-.66.12-1.49.36-2.19.38-1.12.86-2.2 1.37-3.27.22-.47.57-.92.93-1.3 1.36-1.41 2.83-2.72 4.1-4.2 1.34-1.57 2.13-3.47 2.25-5.55.11-1.87-1-2.73-2.79-2.25-1.86.49-3.38 1.5-3.98 3.39-.54 1.72-.92 3.5-1.21 5.28-.26 1.65-.28 3.34-.46 5.01-.08.72-.27 1.44-1.08 2.03-1.16-4.25-1.27-8.33-.82-12.45.06-.52.45-1 .65-1.51.85-2.14 1.8-4.25 2.51-6.43.51-1.56.25-3.2-.34-4.74-.43-1.12-1.27-1.86-2.51-1.93-1.12-.07-1.78.68-2.3 1.56-.79 1.36-1.3 2.77-1 4.4.25 1.38.26 2.82.66 4.14.62 2.06.46 4.14.54 6.22.11 2.79.37 5.57.56 8.36.03.44.02.88.03 1.32-.14.06-.28.11-.41.17-.62-.89-1.37-1.73-1.82-2.7-.56-1.2-.82-2.52-1.29-3.76-.59-1.56-1.09-3.18-1.93-4.6-.89-1.51-2.02-1.74-3.4-1.19-1.33.53-1.93 1.59-1.78 3.21.15 1.6.88 2.92 1.95 4.09 1.72 1.87 3.69 3.38 5.86 4.71 2.13 1.3 3.6 3.2 4.17 5.75.6 2.66 1.34 5.29 2.01 7.93.09.36.14.73.25 1.35-.9-.39-1.52-.69-2.16-.92-1.61-.56-2.46-1.66-2.67-3.37-.15-1.25-.35-2.52-.74-3.7-.37-1.1-.84-2.28-1.62-3.09-1.43-1.49-3.35-1.03-4.3.81-1.35 2.61-.42 5.68 2.19 6.98 2.69 1.35 5.4 2.64 8.14 3.88 1.08.49 1.83 1.1 2.26 2.27.85 2.29 1.87 4.52 2.81 6.78.18.43.31.88.51 1.48-1-.24-1.81-.57-2.62-.59-1.23-.02-1.95-.67-2.48-1.63-.55-.97-1.02-1.99-1.56-2.97-.68-1.23-1.69-2.06-3.13-2.2-.87-.08-1.59.19-2.15.75-2.44-2.16-4.88-4.31-7.46-6.29-.38-.29-5.13-7.65-5.48-8.01.22.36-4.7-9.1-3.67-15.07 1.06-6.13-.18-11.97-4.61-16.76-4.58 6.84-1.21 15.66 1.54 24.36-1.25-1.24-5.21-4.22-5.55-4.89-.55-.67-1.06-1.29-1.55-1.88-.43-1.32-.92-2.84-.98-3.09-1.36-5.53-.99-11.1.27-16.58.92-4.01 2.42-8.38 3.49-12.36.14-.52.02-1.18.02-1.18-2.1 6.64-4.8 13.89-5.35 20.95-.36-2.18-.56-5.13-.61-7.3-.12-5.11-.18-10.22-.26-15.33l-.21.31c-.12.13-.11 1.18-.11 1.31-.05 6.37-.13 11.55-.08 17.92.02 2.23.64 5.35.86 7.58-2.03-6.37-3.47-13.81-4.85-20.43-.43.01-.27.96-.26 1.03 1.36 6.82 1.91 12.38 4.48 21.12-.55-.95-1.29-2.39-1.66-2.97-2.42-3.81-4.66-7.76-7.33-11.39-5.84-7.95-10.82-15.57-14.94-24.55-.13-.29-.65-1.19-1.06-1.79.5 2.55 1.39 4.54 2.46 6.42 2.23 3.93 4.41 7.9 6.86 11.69 2.49 3.84 5.3 7.48 7.97 11.21.52.73 2.42 3.78 2.93 4.51-.52-.03-2.2-2.55-2.4-2.8-4.06-4.89-8.78-9.06-13.86-12.88-7.9-5.93-14.39-13.19-19.93-21.34-.24-.35-.51-.67-.77-1.01-.11.34-.07.6.06.81.72 1.2 1.38 2.44 2.2 3.56 5.27 7.24 11.18 13.88 18.47 19.18 5.36 3.9 10.1 8.45 14.19 13.66.34.43 2.5 2.64 2.75 3.01-3.97-2.62-9.85-6.97-13.84-9.61-3.93-2.6-7.96-5.01-12.51-6.42-.14.3 7.64 3.4 14.7 8.83 4.06 2.76 7.99 5.74 11.84 8.81 1.16.92 2.36 2.66 3.46 4.52-3.97-4.17-5.71-4.48-10.61-6.1-5.73-1.9-11.38-4.07-17.09-6.07-.47-.17-2.22-.86-2.71-.79-.13.56.74 2.03.87 2.3 4.56 9.7 12.7 14.15 22.08 12.13 4.76-1.03 7.16.68 10.3 3.91.03.06.07.13.09.19.04 0 .1.04.14.06 1.62 1.69 3.43 3.73 5.9 6.06-2.16.3-4.97-.09-7.92-.42-37.75-22.75-83.13-33.39-130.12-27.17-26.44 3.5-50.99 12.06-72.87 24.49-.55.21-1.11.42-1.8.73-4.98 2.21-11.6 2.17-12.13-3.06-.15-1.44-.04-2.89-.18-4.33-.57-5.72-4.81-10.9-11.02-13.05 2.11 7.65 2.07 15.58 9.13 21.73-5.1-.19-9.99-.57-14.48 1.05-4.46 1.61-8.81 3.46-13.74 5.41 9.1 3.37 16.99 3.82 24-1.75 2.19-1.74 4.88-2.42 7.99-2.19 1.55.11 3.13.11 4.92-.17a201.58 201.58 0 0 0-13.45 9.18c-8.14 5.14-16.98 8.82-26.04 12.01-2.16.76-5.5-.64-6.76-2.57-1.81-2.77-4.41-4.46-7.62-5.13-.84-.18-1.83-.1-2.66.17-1.51.49-1.91 1.7-1.01 2.97 1.11 1.58 2.54 2.81 4.58 3.04 1.04.11 2.09.21 3.14.22 2.31.02 4.38.73 6.43 2.03-.24.23-.32.38-.43.41-3.49.71-6.98 1.46-10.5 2.08-.67.12-1.48-.22-2.16-.5-1.09-.45-2.14-1-3.17-1.58-.46-.25-.88-.62-1.23-1.01-1.32-1.45-2.53-3-3.93-4.36-1.48-1.44-3.32-2.35-5.4-2.61-1.86-.23-2.78.82-2.42 2.64.37 1.89 1.28 3.47 3.13 4.19 1.68.65 3.43 1.15 5.19 1.55 1.63.37 3.31.5 4.97.78.71.12 1.42.37 1.96 1.2-4.31.88-8.4.73-12.48.02-.52-.09-.97-.51-1.47-.75-2.08-.99-4.12-2.07-6.25-2.92-1.53-.61-3.18-.46-4.75.03-1.15.36-1.94 1.15-2.09 2.38-.14 1.12.56 1.82 1.41 2.39 1.3.88 2.68 1.47 4.32 1.28 1.39-.17 2.83-.08 4.17-.39 2.1-.49 4.16-.19 6.25-.14 2.79.08 5.58 0 8.37-.02.44 0 .88.03 1.32.06l.15.42c-.93.56-1.81 1.26-2.81 1.65-1.23.48-2.57.66-3.84 1.05-1.59.49-3.25.89-4.72 1.63-1.56.8-1.87 1.9-1.41 3.32.44 1.36 1.46 2.03 3.09 1.98 1.6-.05 2.97-.69 4.21-1.68 1.98-1.59 3.61-3.47 5.08-5.55 1.44-2.04 3.43-3.39 6.01-3.8 2.69-.43 5.36-1 8.04-1.5.36-.07.74-.09 1.37-.16-.44.87-.79 1.47-1.05 2.1-.66 1.57-1.82 2.35-3.54 2.45-1.26.07-2.53.18-3.74.5-1.12.3-2.33.69-3.19 1.42-1.58 1.33-1.25 3.28.53 4.35 2.52 1.51 5.64.78 7.11-1.74 1.52-2.6 2.98-5.22 4.4-7.88.56-1.04 1.22-1.76 2.41-2.11 2.34-.7 4.63-1.57 6.95-2.37.44-.15.9-.25 1.51-.42-.3.99-.68 1.77-.75 2.57-.1 1.23-.79 1.9-1.79 2.37-1.01.48-2.05.89-3.06 1.37-1.27.6-2.17 1.55-2.4 2.98-.16.98.18 1.78.85 2.41-2 2.1-3.94 4.25-5.84 6.44-2.66 2.27-6.8 4.57-12.22 3.74-6.15-.94-11.94.94-16.43 5.67 6.78 3.93 14.88.56 22.98-2.61-1.69 2.12-3.34 4.27-4.94 6.46-1.19.69-2.86 1.67-3.14 1.76-5.43 1.71-11.01 1.7-16.57.79-4.06-.66-8.52-1.88-12.55-2.69-.53-.11-1.18.06-1.18.06 6.76 1.67 14.17 3.9 21.25 4-2.15.5-5.09.89-7.24 1.08-5.09.45-10.18.83-15.28 1.24l.33.19c.14.12 1.19.04 1.32.03 6.36-.36 11.53-.61 17.89-1.07 2.23-.16 5.3-.99 7.51-1.34-6.22 2.43-13.56 4.35-20.08 6.15.04.43.97.21 1.04.19 6.72-1.79 12.23-2.7 20.79-5.82-.91.61-2.3 1.44-2.86 1.85-3.65 2.66-7.45 5.15-10.9 8.05-7.56 6.34-14.85 11.79-23.55 16.48-.28.15-1.14.73-1.72 1.18 2.52-.66 4.44-1.68 6.25-2.86 3.78-2.47 7.61-4.9 11.23-7.6 3.68-2.73 7.13-5.77 10.68-8.67.69-.56 3.62-2.66 4.32-3.21 0 .53-2.4 2.35-2.64 2.58-4.63 4.36-8.48 9.34-11.97 14.65C15.6 146.26 8.77 153.21 1 159.25c-.33.26-.64.55-.96.83.34.08.6.03.8-.11 1.15-.79 2.35-1.53 3.42-2.42 6.89-5.73 13.14-12.04 17.96-19.66 3.55-5.6 7.78-10.62 12.73-15.03.41-.37 2.48-2.67 2.83-2.94-2.36 4.13-6.33 10.28-8.71 14.42-2.35 4.09-4.5 8.26-5.6 12.89.31.13 2.9-7.85 7.87-15.24 2.5-4.23 5.22-8.34 8.03-12.38.94-1.35 2.68-2.73 4.49-3.96-3.49 3.73-4.14 5.55-5.07 9.12-23.43 38.11-34.43 84.1-28.12 131.73 2.93 22.15 9.42 43.26 19.02 62.73.19 5.2-1.46 6.83-6.61 6.86-1.45 0-2.88-.24-4.32-.24-5.75.02-11.31 3.74-14.05 9.72 7.82-1.36 15.71-.56 22.51-7-.68 5.05-1.53 9.88-.35 14.51 1.17 4.6 2.6 9.1 4.06 14.2 4.23-8.74 5.43-16.55.56-24.05-1.52-2.35-1.94-5.09-1.41-8.16.22-1.29.37-2.61.53-3.92 2.07 4.1 4.31 8.12 6.66 12.06 3.6 7.71 5.69 15.4 7.8 23.94.55 2.22-1.17 5.42-3.21 6.48-2.94 1.54-4.86 3.96-5.84 7.09-.26.82-.27 1.82-.09 2.66.34 1.55 1.51 2.06 2.86 1.29 1.68-.96 3.04-2.26 3.46-4.27.21-1.03.41-2.06.52-3.1.24-2.29 1.15-4.28 2.64-6.21.2.26.35.35.36.47.38 3.55.79 7.09 1.06 10.65.05.68-.36 1.45-.7 2.1-.55 1.04-1.2 2.04-1.87 3.01-.3.43-.71.81-1.13 1.13-1.56 1.17-3.23 2.23-4.72 3.49a9.305 9.305 0 0 0-3.11 5.12c-.41 1.83.55 2.85 2.39 2.67 1.92-.19 3.58-.94 4.47-2.71.81-1.61 1.47-3.31 2.04-5.02.52-1.59.81-3.25 1.26-4.87.19-.7.5-1.37 1.39-1.83.46 4.38-.08 8.43-1.18 12.42-.14.51-.6.92-.89 1.39-1.19 1.97-2.45 3.91-3.51 5.95-.76 1.46-.76 3.12-.42 4.73.25 1.18.96 2.04 2.17 2.31 1.1.25 1.87-.38 2.52-1.18 1-1.21 1.72-2.53 1.69-4.18-.03-1.4.2-2.82.01-4.19-.29-2.14.21-4.16.47-6.23.34-2.77.53-5.56.79-8.34.04-.44.12-.87.18-1.31.15-.03.29-.07.44-.1.47.98 1.08 1.92 1.37 2.95.36 1.27.41 2.62.67 3.92.33 1.63.57 3.32 1.17 4.85.64 1.63 1.71 2.04 3.17 1.72 1.4-.31 2.16-1.26 2.27-2.88.11-1.6-.4-3.02-1.27-4.35-1.39-2.12-3.1-3.93-5.03-5.59-1.89-1.63-3.04-3.74-3.2-6.34-.17-2.72-.48-5.43-.72-8.15-.03-.37-.02-.74-.03-1.38.83.52 1.39.93 1.99 1.25 1.5.81 2.17 2.04 2.1 3.75-.05 1.26-.06 2.54.14 3.77.19 1.14.47 2.38 1.1 3.31 1.17 1.7 3.14 1.56 4.38-.11 1.74-2.36 1.32-5.54-1.05-7.24-2.44-1.76-4.91-3.47-7.42-5.13-.98-.65-1.63-1.38-1.87-2.6-.47-2.4-1.12-4.76-1.69-7.14-.11-.45-.16-.92-.27-1.54.95.4 1.69.85 2.49 1 1.21.22 1.82.97 2.19 2.01.38 1.05.69 2.13 1.07 3.18.48 1.32 1.33 2.31 2.74 2.68.61.16 1.17.11 1.68-.1 1.89 2.27 3.82 4.51 5.81 6.7-.13.07-.25.14-.3.14.37.28 2.12 2.54 2.46 2.9 7.83 6.2 5.29 7.3 3.85 13.05-1.51 6.03-.21 11.97 4.07 16.9 4.54-6.33 2.02-14.67-.35-22.99 2.19 2.1 4.43 4.15 6.72 6.16.12.39.26.77.34 1.16 1.18 5.57.64 11.12-.8 16.57-1.05 3.98-2.69 8.3-3.88 12.24-.16.52-.06 1.18-.06 1.18 2.32-6.57 5.25-13.73 6.02-20.77.29 2.19.4 5.15.38 7.31-.04 5.11-.15 10.22-.23 15.33l.22-.31c.13-.13.15-1.18.16-1.31.26-6.37.5-11.54.65-17.91.05-2.23-.47-5.37-.61-7.61 1.82 6.43 3.02 13.92 4.19 20.58.43 0 .3-.95.29-1.02-1.14-6.86-1.51-12.43-3.8-21.26.52.96 1.21 2.43 1.57 3.03 2.3 3.89 4.41 7.91 6.96 11.62 5.58 8.14 10.31 15.91 14.14 25.02.12.29.62 1.21 1.01 1.83-.42-2.57-1.25-4.58-2.25-6.49-2.1-4-4.15-8.04-6.48-11.91-2.37-3.92-5.06-7.65-7.6-11.46-.49-.74-2.3-3.86-2.78-4.61.52.05 2.11 2.62 2.31 2.87 3.9 5.02 8.49 9.34 13.43 13.32 7.7 6.19 13.96 13.65 19.23 21.97.23.36.49.69.74 1.03.11-.33.09-.6-.03-.81-.68-1.22-1.3-2.48-2.08-3.63-5.04-7.41-10.73-14.23-17.84-19.77a71.205 71.205 0 0 1-13.74-14.11c-.33-.45-2.42-2.72-2.65-3.1 3.88 2.75 9.62 7.29 13.52 10.05 3.84 2.73 7.79 5.27 12.29 6.82.15-.29-7.53-3.64-14.41-9.29-3.97-2.89-7.8-6-11.55-9.19-1.16-.98-2.16-2.09-3.04-3.28 3.29 3.7 5.05 4.51 8.52 5.78 35.19 26.42 77.1 40.37 120.43 40.37 8.9 0 17.86-.59 26.83-1.77 28.63-3.79 55.53-13.49 79.38-28.24 0 .04.02.08.09.11.06-.09.86-.64 1.7-1.2 4.67-2.95 9.2-6.12 13.62-9.46.34-.11.66-.22 1.02-.33 5.22-1.57 7.23-.4 8.52 4.69.36 1.4.46 2.85.81 4.25 1.41 5.58 6.36 10.07 12.82 11.29-3.21-7.26-4.34-15.11-12.22-20.15 5.07-.56 9.96-.9 14.16-3.16 4.18-2.25 8.21-4.72 12.79-7.37-9.5-2-17.37-1.27-23.48 5.27-1.91 2.04-4.47 3.11-7.58 3.34-1.45.11-2.87.16-4.32.27.9-.7 1.8-1.41 2.68-2.13 1.75-.77 4.06-2.45 4.47-2.84 7.82-7.25 16.88-12.65 26.23-17.6 2.02-1.07 5.54-.17 7.07 1.55 2.2 2.48 5.02 3.76 8.29 3.96.86.05 1.83-.17 2.6-.56 1.42-.71 1.63-1.96.56-3.09-1.33-1.4-2.93-2.41-4.97-2.33-1.05.04-2.1.1-3.14.24-2.28.32-4.44-.08-6.66-1.06.2-.26.26-.43.36-.46 3.35-1.22 6.69-2.48 10.07-3.6.65-.22 1.5 0 2.21.18 1.14.29 2.27.68 3.37 1.09.49.19.96.49 1.37.82 1.52 1.24 2.94 2.6 4.53 3.74a9.37 9.37 0 0 0 5.72 1.79c1.87-.04 2.63-1.22 2.01-2.96-.65-1.82-1.77-3.24-3.71-3.68-1.76-.4-3.56-.63-5.36-.77-1.67-.13-3.35 0-5.03-.05-.73-.02-1.45-.15-2.11-.9 4.13-1.5 8.2-1.96 12.34-1.86.52.01 1.04.36 1.56.53 2.2.67 4.38 1.44 6.62 1.97 1.6.38 3.21-.02 4.69-.73 1.08-.52 1.75-1.42 1.72-2.66-.03-1.13-.82-1.72-1.75-2.16-1.42-.67-2.87-1.06-4.47-.63-1.35.37-2.78.49-4.07 1-2 .8-4.09.8-6.16 1.05-2.77.33-5.52.83-8.28 1.25-.43.07-.87.1-1.31.14-.07-.13-.14-.26-.21-.4.84-.69 1.6-1.51 2.53-2.04 1.15-.65 2.45-1.03 3.64-1.6 1.5-.71 3.08-1.35 4.43-2.31 1.43-1.02 1.57-2.16.9-3.49-.64-1.28-1.74-1.79-3.35-1.51-1.58.28-2.84 1.12-3.91 2.28-1.73 1.86-3.06 3.96-4.21 6.23-1.12 2.23-2.9 3.85-5.38 4.64-2.6.82-5.16 1.78-7.74 2.67-.35.12-.72.2-1.33.36.31-.93.56-1.57.73-2.23.42-1.66 1.45-2.59 3.14-2.94 1.23-.26 2.48-.55 3.63-1.05 1.06-.46 2.2-1.03 2.95-1.87 1.37-1.54.75-3.42-1.16-4.22-2.71-1.12-5.69.05-6.78 2.76-1.12 2.79-2.18 5.6-3.19 8.44-.4 1.11-.95 1.92-2.07 2.44-2.21 1.04-4.35 2.24-6.52 3.36-.41.22-.85.38-1.43.64.15-1.02.42-1.85.37-2.66-.08-1.23.5-1.99 1.42-2.61.93-.63 1.9-1.18 2.83-1.81 1.17-.78 1.92-1.85 1.93-3.3 0-.37-.07-.69-.18-1 1.21-1.49 2.44-2.95 3.61-4.48 2.75-3.59 5.32-7.28 7.81-11.01 2.33-1.44 4.81-1.65 8.03-1.65 6.22 0 11.67-2.69 15.42-8.02-6.59-2.62-13.38.85-20.21 4.74 1.69-2.69 3.29-5.42 4.84-8.17 5.07-2.41 10.51-3.22 16.07-3.14 4.11.06 8.7.6 12.81.81.54.03 1.16-.23 1.16-.23-6.93-.66-14.59-1.78-21.61-.83 2.05-.81 4.9-1.62 7.01-2.13 4.97-1.19 9.95-2.32 14.93-3.48l-.35-.14c-.15-.09-1.18.14-1.31.16-6.24 1.29-11.32 2.3-17.54 3.69-2.18.49-5.1 1.75-7.23 2.43 5.8-3.32 12.78-6.29 18.96-9.04-.1-.42-.99-.06-1.06-.04-6.38 2.76-11.7 4.47-19.71 8.82.81-.74 2.06-1.76 2.56-2.25 3.22-3.17 6.61-6.19 9.6-9.56 6.55-7.38 12.95-13.85 20.87-19.77.25-.19 1.02-.89 1.53-1.42-2.39 1.03-4.14 2.31-5.76 3.75-3.38 3-6.8 5.97-9.99 9.17zm-48.14-243.7c1.01 2.16.1 5.06-2.29 7.76-.94-3.37-.24-5.86 2.29-7.76zm-1.82-14.56c.5 2.34-.81 4.79-4.32 7.94-.52-4.22 1.18-7.27 4.32-7.94zm-18.12 5.68c-.7-1.35-.59-2.46.13-2.82.69-.34 1.25.1 1.98 1.66.87 1.87 1.7 3.75 2.54 5.63-1.92-1.08-3.61-2.47-4.65-4.47zm8.96-16.07c.33-.58.61-1.51 1.44-1.21.54.19 1.08.92 1.24 1.5.54 2-.07 3.89-1.04 5.63-.19.34-.88.39-1.43.61-.66-2.35-1.42-4.41-.21-6.53zm-6.88 32.3c-.46-1.39-.39-2.72 1.1-3.83 2.04 1.64 1.53 4.32 3.11 6.56-2.04-.63-3.63-.97-4.21-2.73zM47.36 74.93c2.22-.87 5.06.22 7.59 2.79-3.43.72-5.86-.14-7.59-2.79zm-14.64.88c2.37-.34 4.73 1.12 7.64 4.82-4.25.25-7.18-1.64-7.64-4.82zm-10.96 8.47c-.56-.37-1.47-.71-1.12-1.52.23-.52.98-1.02 1.58-1.14 2.03-.41 3.87.32 5.55 1.4.32.21.33.9.52 1.47-2.39.51-4.5 1.13-6.53-.22zm15.46 9.97c-1.39.61-2.49.43-2.8-.31-.3-.71.18-1.24 1.79-1.87 1.92-.75 3.85-1.45 5.78-2.18-1.2 1.85-2.7 3.45-4.76 4.36zm16.33-1.03c-1.42.37-2.74.21-3.75-1.34 1.77-1.93 4.41-1.25 6.74-2.69-.76 1.99-1.2 3.56-2.99 4.03zM37.88 373.35c-.65-2.29.71-5.01 3.5-7.29.39 3.48-.7 5.83-3.5 7.29zm-.53 14.66c-.12-2.39 1.57-4.6 5.54-7.14-.16 4.25-2.33 6.99-5.54 7.14zm7.38 11.72c-.42.53-.85 1.39-1.62.97-.5-.28-.92-1.08-.98-1.68-.21-2.06.69-3.82 1.93-5.39.24-.3.93-.25 1.51-.38.28 2.42.69 4.58-.84 6.48zm11.41-14.43c.47 1.44.19 2.53-.58 2.76-.74.23-1.22-.29-1.69-1.96-.56-1.98-1.08-3.97-1.61-5.96 1.73 1.37 3.17 3.01 3.88 5.16zm.55-16.35c.23 1.45-.05 2.75-1.69 3.61-1.75-1.94-.82-4.51-2.03-6.97 1.91.95 3.43 1.54 3.72 3.36zm328.2.54c-2.07 1.18-5.04.52-7.92-1.64 3.28-1.22 5.82-.73 7.92 1.64zm14.36-3.02c-2.29.69-4.84-.41-8.27-3.65 4.16-.87 7.34.57 8.27 3.65zm9.59-9.99c.61.28 1.55.49 1.33 1.33-.15.55-.82 1.16-1.39 1.36-1.95.7-3.88.25-5.69-.57-.35-.16-.46-.84-.73-1.38 2.29-.85 4.28-1.78 6.49-.75zm-16.76-7.59c1.28-.81 2.4-.79 2.82-.1.4.66 0 1.25-1.49 2.11-1.79 1.02-3.6 2-5.4 3 .92-2 2.16-3.81 4.07-5.01zm-16 3.42c1.35-.57 2.68-.61 3.91.77-1.46 2.17-4.18 1.89-6.28 3.65.46-2.08.66-3.7 2.37-4.42zM354.9 86.9c1.22.21 1.96.91 2.43 2.05.51 1.23 1.12 2.41 1.75 3.58 1.04 1.92 2.13 3.81 3.27 5.66a201.97 201.97 0 0 0-11.38-12.02c1.3.28 2.62.5 3.93.72zm-8.95-6.24c.42.13.85.49 1.1.87.36.55.7 1.18 1.07 1.87-.99-.93-2-1.81-3-2.72.28-.07.59-.1.83-.03zm-17.93-17.13c.35.23 2.65 4.17 4.71 6.79-4.33-3.31-8.81-6.41-13.39-9.37 1.65-.76 3.73-.82 8.68 2.58zM72.4 80.48c.29-1.21 1.04-1.9 2.2-2.29 1.26-.43 2.48-.96 3.69-1.51 1.33-.61 2.65-1.24 3.95-1.89-3.73 3.09-7.34 6.3-10.83 9.63.37-1.3.68-2.62.99-3.94zm-6.81 8.53c.15-.41.55-.81.94-1.04.69-.39 1.47-.74 2.38-1.16-1.1 1.09-2.17 2.22-3.25 3.33-.17-.31-.2-.81-.08-1.14zM26.14 306.99c1.43 2.08 2.33 4.22 2.86 6.63-1-2.19-1.94-4.4-2.86-6.63zm19.68 41.99c-1.17-.4-1.79-1.21-2.07-2.41-.31-1.29-.72-2.56-1.15-3.81-.27-.78-.56-1.55-.85-2.32 2.1 3.2 4.32 6.34 6.6 9.42-.84-.3-1.69-.58-2.53-.87zm7.41 4.27c.9.52 1.64 1.08 1.95 2.1.03.09 0 .21 0 .31-.65-.8-1.31-1.6-1.96-2.42zm-.41 2.45c.17.21.35.42.53.63-.21-.18-.39-.39-.53-.63zm306.49 11.99c-.11 1.24-.75 2.03-1.84 2.59-1.18.61-2.31 1.31-3.43 2.04-1.23.81-2.45 1.63-3.66 2.47 3.15-3.06 6.17-6.27 9.13-9.55-.07.82-.13 1.63-.21 2.45zm2.11-7.35c.34-1.4.64-2.57 1.82-3.27.27-.16.7-.19 1.01-.12-.94 1.14-1.87 2.27-2.82 3.38zm3.88-4.7c-.06-.03-.11-.08-.17-.12-.93-.48-1.81-.28-2.5.42-.62.63-1.32 1.31-1.61 2.11-.46 1.26-.77 2.57-1.03 3.89a200.04 200.04 0 0 1-29.66 27.57c-1.73.35-3.59.92-5.72 1.88.54-1 2.07-3.35 2.79-4.59 3.91-6.74 7.89-13.44 11.72-20.23 1.14-2.02 2.54-3.64 4.8-4.57 1.85-.77 3.7-1.55 5.53-2.35 6.45-2.82 10.96-7.17 12.59-13.8.74-3 1.51-6 1.85-9.27-7.72 4.69-15.73 8.91-20.74 16.34-1.06 1.56-1.87 3.34-2.4 5.14-3.1 10.45-10.14 18.91-16.1 28.19.06-.93-.02-1.89.2-2.78 1.19-4.76 2.4-9.52 3.71-14.24 1.09-3.92.94-7.82-.34-11.77-1.29-3.99-2.51-8-3.88-12.39-3.58 2.05-4.41 5.22-4.3 8.44.1 2.81 1.02 5.65 1.86 8.42.61 2 1.74 3.88 2.54 5.84 1.31 3.21 1.98 6.41.75 9.76-.7 1.91-.92 4-1.27 6.03-.9 5.17-2.85 9.85-5.44 14.34-24.45 15.79-52.31 26.1-82.02 30.03-49.93 6.61-99.46-5.56-140.46-34.27 4.08 1.59 8.15 3.24 12.24 4.82.46.18 2.2.93 2.68.88.15-.56-.68-2.05-.79-2.32-4.24-9.84-12.24-14.55-21.68-12.83-2.26.41-3.94.18-5.44-.46-2.02-1.68-4-3.39-5.95-5.14-1.32-1.51-2.81-3.23-4.7-5.14 6.35-.66 18.05 4.69 23.03-2.77-6.64-3.21-9.54-3.73-17.4-1.46-3.14.91-3.9 4.18-11.56-1.47-.27-.19-1.48-1.22-2.66-2.21-2.52-2.72-4.96-5.49-7.32-8.33.41-.69.39-1.45-.05-2.16-.47-.75-.95-1.6-1.66-2.07-.96-.64-1.98-1.19-3.03-1.69a196.692 196.692 0 0 1-20.7-33.45c.2-1.84.39-3.69.62-5.61.84.77 1.92 1.71 2.96 2.71 5.6 5.42 11.14 10.9 16.8 16.25 1.69 1.59 2.92 3.34 3.27 5.77.29 1.98.61 3.96.95 5.94 1.18 6.95 4.31 12.37 10.35 15.55 2.74 1.44 5.46 2.91 8.55 4.04-2.69-8.62-4.85-17.42-10.84-24.07-1.26-1.4-2.79-2.62-4.41-3.58-9.39-5.53-15.9-14.4-23.46-22.43.89.28 1.84.44 2.65.87 4.33 2.3 8.65 4.62 12.93 7.04 3.54 2.01 7.36 2.8 11.51 2.51 4.18-.29 8.37-.5 12.96-.77-1.13-3.96-4-5.53-7.15-6.21-2.75-.58-5.73-.38-8.62-.23-2.09.11-4.18.75-6.28 1.06-3.43.49-6.7.38-9.65-1.62-1.69-1.14-3.66-1.86-5.54-2.69-5.61-2.47-10.24-6.14-14.48-10.56-.03.05-.09.02-.09.02-5.55-14.5-9.48-29.75-11.57-45.53-5.93-44.82 3.6-88.18 24.43-124.73-1.21 4.27-2.47 8.54-3.67 12.82-.14.48-.71 2.28-.62 2.76.57.09 1.98-.87 2.24-1.01 9.38-5.17 13.31-13.58 10.69-22.81-.63-2.22-.56-3.93-.05-5.49 1.51-2.22 3.08-4.39 4.68-6.54 1.33-1.42 2.86-3.03 4.51-5.01 1.27 6.26-2.94 18.42 4.97 22.66 2.56-6.92 2.79-9.85-.22-17.46-1.21-3.04-4.53-3.49.35-11.64.19-.35 1.36-1.85 2.29-3.09 1.41-1.57 2.85-3.12 4.31-4.65.34-.06.68-.19 1-.43.7-.54 1.5-1.1 1.9-1.85.24-.44.44-.91.65-1.37a198.96 198.96 0 0 1 42.31-32.05 65.94 65.94 0 0 0 3.4-1.81c-.68.91-5.45 7.37-6.35 8.49-4.86 6.09-9.78 12.14-14.56 18.28-1.42 1.83-3.04 3.22-5.42 3.81-1.95.48-3.89.99-5.82 1.51-6.8 1.84-11.9 5.48-14.48 11.8-1.17 2.86-2.37 5.71-3.2 8.9 8.33-3.5 16.87-6.5 22.92-13.11 1.27-1.39 2.34-3.03 3.13-4.73 4.6-9.88 12.81-17.21 20.08-25.51-.2.91-.26 1.88-.61 2.72-1.88 4.53-3.77 9.06-5.76 13.54-1.66 3.72-2.08 7.6-1.39 11.7.69 4.14 1.3 8.28 2.02 12.82 3.84-1.5 5.12-4.52 5.49-7.71.32-2.79-.17-5.74-.6-8.6-.31-2.07-1.15-4.09-1.65-6.15-.82-3.37-1.02-6.63.69-9.76.97-1.79 1.49-3.82 2.14-5.78 1.89-5.72 5.03-10.61 8.92-15.18 19.27-9.64 40.39-16.34 62.92-19.32 8.85-1.17 17.62-1.74 26.32-1.74 35.73 0 69.79 9.67 99.34 26.73-4.32-.17-8.44.5-10.79 4.29 6.74 3 9.65 3.42 17.44.9.4-.13.76-.3 1.1-.48 8.96 5.73 17.46 12.15 25.41 19.22-.01.51.16 1 .54 1.44.58.67 1.2 1.43 1.97 1.78.6.28 1.23.51 1.85.73a200.499 200.499 0 0 1 27.28 31.8c.07 1.33.15 2.63.2 4-.95-.62-2.17-1.38-3.35-2.2-6.39-4.46-12.74-8.98-19.19-13.36-1.92-1.3-3.41-2.83-4.15-5.17-.61-1.91-1.24-3.82-1.89-5.71-2.27-6.67-6.24-11.52-12.71-13.69-2.93-.98-5.85-2-9.08-2.62 4.03 8.08 7.57 16.42 14.56 22.02 1.47 1.18 3.18 2.14 4.92 2.82 10.16 3.95 18 11.67 26.75 18.39-.92-.14-1.89-.14-2.76-.43-4.65-1.58-9.28-3.18-13.89-4.88-3.82-1.41-7.72-1.58-11.76-.63-4.08.96-8.18 1.84-12.67 2.84 1.75 3.73 4.84 4.82 8.05 4.98 2.8.14 5.72-.54 8.55-1.15 2.04-.44 4.01-1.41 6.03-2.05 3.31-1.04 6.55-1.44 9.78.06 1.85.86 3.91 1.24 5.9 1.77 4.54 1.18 11.6 4.72 15.29 8.6a198.4 198.4 0 0 1 24.94 73.37c5.19 39.2-1.21 78.15-18.08 112.92.12-.94.22-1.99.35-3.23.65-6 1.59-11.98 2.35-17.98.06-.49.37-2.35.21-2.82-.58 0-1.83 1.15-2.06 1.33-8.52 6.49-11.17 15.39-7.22 24.14 3.07 6.8-1.24 9.49-6.54 18.21-2.18-6 .2-18.65-8.24-21.68-1.51 7.22-1.31 10.15 2.79 17.24 1.64 2.83 4.99 2.78 1.37 11.57-.2.52-1.28 3.09-1.69 4.2-.06.08-.13.18-.19.26-.06-.11-.07-.17 0 0-.82 1.12-1.62 2.28-2.47 3.39-1.09 1.43-2.25 2.79-3.37 4.19zm17.08-24.69.08-.06c-1.2 2.04-2.42 4.07-3.7 6.08 1.02-1.92 2.31-4.56 2.75-4.91l.87-1.1zm7.96-10.03c-.37.74-.91 1.54-1.53 2.35 4.68-8.92 8.66-18.13 11.92-27.56-.86 3.12-2.21 7.48-4.26 11.79-1.85 4.56-3.94 9.02-6.13 13.42z" data-name="&amp;lt;Layer&amp;gt;"/></svg>